<?xml version="1.0" encoding="UTF-8"?>
<!DOCTYPE svg PUBLIC "-//W3C//DTD SVG 1.1//EN" "http://www.w3.org/Graphics/SVG/1.1/DTD/svg11.dtd">
<!-- Creator: CorelDRAW 2020 (64-Bit) -->
<svg xmlns="http://www.w3.org/2000/svg" xml:space="preserve" width="43.3492mm" height="43.3492mm" version="1.1" style="shape-rendering:geometricPrecision; text-rendering:geometricPrecision; image-rendering:optimizeQuality; fill-rule:evenodd; clip-rule:evenodd"
viewBox="0 0 4334.92 4334.92"
 xmlns:xlink="http://www.w3.org/1999/xlink"
 xmlns:xodm="http://www.corel.com/coreldraw/odm/2003">
 <defs>
  <style type="text/css">
   <![CDATA[
    .fil0 {fill:white}
   ]]>
  </style>
 </defs>
 <g id="Layer_x0020_1">
  <metadata id="CorelCorpID_0Corel-Layer"/>
  <g id="_1619227446896">
   <path class="fil0" d="M943.84 3565.88l1158.07 -1158.08c42.12,-42.11 110.83,-42.11 152.95,0l660.97 660.98 -0.01 0.01 94.25 94.24c28.08,28.08 38.28,66.11 28,104.47 -10.28,38.35 -38.12,66.19 -76.48,76.47l-136.32 36.53 -274.1 73.44c-19.19,5.14 -34.45,13.95 -48.49,27.99l-821.39 821.39c-42.12,42.12 -110.83,42.12 -152.95,0l-584.5 -584.5c-42.12,-42.11 -42.12,-110.83 0,-152.94z"/>
   <path class="fil0" d="M3565.88 3391.08l-1158.08 -1158.07c-42.11,-42.12 -42.11,-110.83 0,-152.95l660.98 -660.97 0.01 0.01 94.24 -94.25c28.08,-28.08 66.11,-38.28 104.47,-28 38.35,10.28 66.19,38.12 76.47,76.48l36.53 136.32 73.44 274.1c5.14,19.19 13.95,34.45 27.99,48.49l821.39 821.39c42.12,42.12 42.12,110.83 0,152.95l-584.5 584.5c-42.11,42.12 -110.83,42.12 -152.94,0z"/>
   <path class="fil0" d="M3391.08 769.04l-1158.07 1158.08c-42.12,42.11 -110.83,42.11 -152.95,0l-660.97 -660.98 0.01 -0.01 -94.25 -94.24c-28.08,-28.08 -38.28,-66.11 -28,-104.47 10.28,-38.35 38.12,-66.19 76.48,-76.47l136.32 -36.53 274.1 -73.44c19.19,-5.14 34.45,-13.95 48.49,-27.99l821.39 -821.39c42.12,-42.12 110.83,-42.12 152.95,0l584.5 584.5c42.12,42.11 42.12,110.83 0,152.94z"/>
   <path class="fil0" d="M769.04 943.84l1158.08 1158.07c42.11,42.12 42.11,110.83 0,152.95l-660.98 660.97 -0.01 -0.01 -94.24 94.25c-28.08,28.08 -66.11,38.28 -104.47,28 -38.35,-10.28 -66.19,-38.12 -76.47,-76.48l-36.53 -136.32 -73.44 -274.1c-5.14,-19.19 -13.95,-34.45 -27.99,-48.49l-821.39 -821.39c-42.12,-42.12 -42.12,-110.83 0,-152.95l584.5 -584.5c42.11,-42.12 110.83,-42.12 152.94,0z"/>
  </g>
 </g>
</svg>
