<svg id="Layer_1" data-name="Layer 1" xmlns="http://www.w3.org/2000/svg" xmlns:xlink="http://www.w3.org/1999/xlink" viewBox="0 0 1080 1080"><defs><linearGradient id="linear-gradient" x1="237.78" y1="543.78" x2="873.92" y2="543.78" gradientUnits="userSpaceOnUse"><stop offset="0.01" stop-color="#b17ae5"/><stop offset="0.99" stop-color="#965fd6"/></linearGradient><linearGradient id="linear-gradient-2" x1="237.78" y1="539.71" x2="873.92" y2="539.71" gradientUnits="userSpaceOnUse"><stop offset="0.01" stop-color="#e3b7ff"/><stop offset="1" stop-color="#cc9cf2"/></linearGradient><linearGradient id="linear-gradient-3" x1="172.28" y1="508.36" x2="952.9" y2="508.36" xlink:href="#linear-gradient"/><linearGradient id="linear-gradient-4" x1="172.28" y1="504.26" x2="952.9" y2="504.26" xlink:href="#linear-gradient-2"/><linearGradient id="linear-gradient-5" x1="345.79" y1="644.22" x2="766.56" y2="644.22" gradientUnits="userSpaceOnUse"><stop offset="0" stop-color="#ffb850"/><stop offset="1" stop-color="#ff862c"/></linearGradient><linearGradient id="linear-gradient-6" x1="511.93" y1="660.52" x2="762.34" y2="660.52" gradientUnits="userSpaceOnUse"><stop offset="0" stop-color="#ff7110"/><stop offset="1" stop-color="#ef6100"/></linearGradient><linearGradient id="linear-gradient-7" x1="648.42" y1="778.49" x2="679.61" y2="778.49" xlink:href="#linear-gradient-6"/><linearGradient id="linear-gradient-8" x1="432.82" y1="678.1" x2="373.69" y2="780.51" xlink:href="#linear-gradient-6"/><linearGradient id="linear-gradient-9" x1="490.53" y1="552.93" x2="440.42" y2="466.14" xlink:href="#linear-gradient-6"/><linearGradient id="linear-gradient-10" x1="375.71" y1="634.03" x2="390.19" y2="659.13" xlink:href="#linear-gradient-6"/><linearGradient id="linear-gradient-11" x1="386.39" y1="670.2" x2="398.01" y2="670.2" xlink:href="#linear-gradient-6"/><linearGradient id="linear-gradient-12" x1="449.77" y1="596.55" x2="431.57" y2="565.04" xlink:href="#linear-gradient-6"/><linearGradient id="linear-gradient-13" x1="237.78" y1="681.68" x2="873.92" y2="681.68" xlink:href="#linear-gradient"/><linearGradient id="linear-gradient-14" x1="237.78" y1="675.11" x2="873.92" y2="675.11" xlink:href="#linear-gradient-2"/><linearGradient id="linear-gradient-15" x1="172.28" y1="683.67" x2="952.9" y2="683.67" xlink:href="#linear-gradient"/><linearGradient id="linear-gradient-16" x1="172.28" y1="678.57" x2="952.9" y2="678.57" xlink:href="#linear-gradient-2"/><linearGradient id="linear-gradient-17" x1="769.04" y1="171.39" x2="814.44" y2="171.39" gradientUnits="userSpaceOnUse"><stop offset="0.01" stop-color="#e9a9f8"/><stop offset="0.52" stop-color="#e49efb"/><stop offset="1" stop-color="#de90ff"/></linearGradient><linearGradient id="linear-gradient-18" x1="312.93" y1="230.77" x2="345.44" y2="230.77" gradientTransform="matrix(-1, 0, 0, 1, 1120.93, 0)" gradientUnits="userSpaceOnUse"><stop offset="0.01" stop-color="#d82b72"/><stop offset="1" stop-color="#ef3a8d"/></linearGradient><linearGradient id="linear-gradient-19" x1="321.64" y1="246.76" x2="415.87" y2="246.76" xlink:href="#linear-gradient-18"/><linearGradient id="linear-gradient-20" x1="826.11" y1="342.59" x2="851.11" y2="342.59" gradientTransform="matrix(1, 0, 0, 1, 0, 0)" xlink:href="#linear-gradient-18"/><linearGradient id="linear-gradient-21" x1="796.86" y1="564.31" x2="836.06" y2="564.31" gradientUnits="userSpaceOnUse"><stop offset="0" stop-color="#3a2baa"/><stop offset="1" stop-color="#2f1784"/></linearGradient><linearGradient id="linear-gradient-22" x1="787.05" y1="572.69" x2="826.25" y2="572.69" xlink:href="#linear-gradient-21"/><linearGradient id="linear-gradient-23" x1="807.88" y1="386.63" x2="807.88" y2="567.23" gradientTransform="matrix(1, 0, 0, 1, 0, 0)" xlink:href="#linear-gradient-18"/><linearGradient id="linear-gradient-24" x1="816.48" y1="393.02" x2="816.48" y2="573.62" gradientTransform="matrix(1, 0, 0, 1, 0, 0)" xlink:href="#linear-gradient-18"/><linearGradient id="linear-gradient-25" x1="655.95" y1="298.74" x2="778.39" y2="298.74" gradientTransform="matrix(1, 0, 0, 1, 0, 0)" xlink:href="#linear-gradient-18"/><linearGradient id="linear-gradient-26" x1="721.14" y1="331.8" x2="670.41" y2="243.93" gradientUnits="userSpaceOnUse"><stop offset="0.01" stop-color="#ef4190"/><stop offset="1" stop-color="#ff579c"/></linearGradient><linearGradient id="linear-gradient-27" x1="655.95" y1="285.93" x2="778.39" y2="285.93" gradientTransform="matrix(1, 0, 0, 1, 0, 0)" xlink:href="#linear-gradient-18"/><linearGradient id="linear-gradient-28" x1="655.95" y1="324.05" x2="778.39" y2="324.05" gradientTransform="matrix(1, 0, 0, 1, 0, 0)" xlink:href="#linear-gradient-18"/><linearGradient id="linear-gradient-29" x1="764.03" y1="333.94" x2="749.81" y2="309.3" xlink:href="#linear-gradient-26"/><linearGradient id="linear-gradient-30" x1="744.57" y1="281.61" x2="725.87" y2="249.22" xlink:href="#linear-gradient-26"/><linearGradient id="linear-gradient-31" x1="816.8" y1="325.48" x2="816.8" y2="426.91" xlink:href="#linear-gradient-26"/><linearGradient id="linear-gradient-32" x1="784.38" y1="353.9" x2="811.62" y2="353.9" gradientTransform="matrix(1, 0, 0, 1, 0, 0)" xlink:href="#linear-gradient-18"/><linearGradient id="linear-gradient-33" x1="795.13" y1="318.72" x2="843.11" y2="318.72" xlink:href="#linear-gradient-21"/><linearGradient id="linear-gradient-34" x1="270.5" y1="728.86" x2="316.13" y2="728.86" xlink:href="#linear-gradient-21"/><linearGradient id="linear-gradient-35" x1="208.3" y1="904.85" x2="254.23" y2="904.85" gradientUnits="userSpaceOnUse"><stop offset="0" stop-color="#3a2baf"/><stop offset="1" stop-color="#38239e"/></linearGradient><linearGradient id="linear-gradient-36" x1="251.15" y1="927.2" x2="297.07" y2="927.2" xlink:href="#linear-gradient-35"/><linearGradient id="linear-gradient-37" x1="288.77" y1="768.71" x2="288.77" y2="922.83" xlink:href="#linear-gradient-21"/><linearGradient id="linear-gradient-38" x1="312.43" y1="682.29" x2="312.43" y2="809.54" gradientUnits="userSpaceOnUse"><stop offset="0" stop-color="#4b42c6"/><stop offset="1" stop-color="#4232b2"/></linearGradient><linearGradient id="linear-gradient-39" x1="295.67" y1="725.5" x2="345.33" y2="725.5" xlink:href="#linear-gradient-21"/><linearGradient id="linear-gradient-40" x1="302.8" y1="727.87" x2="334.26" y2="727.87" gradientUnits="userSpaceOnUse"><stop offset="0.01" stop-color="#e3b7ff"/><stop offset="1" stop-color="#f2d7fe"/></linearGradient><linearGradient id="linear-gradient-41" x1="312.76" y1="758.46" x2="312.76" y2="698.65" xlink:href="#linear-gradient-26"/><linearGradient id="linear-gradient-42" x1="302.04" y1="656.34" x2="340.6" y2="656.34" xlink:href="#linear-gradient-21"/><linearGradient id="linear-gradient-43" x1="327.8" y1="800.42" x2="241.07" y2="800.42" gradientUnits="userSpaceOnUse"><stop offset="0.01" stop-color="#b17ae5"/><stop offset="1" stop-color="#cba3ff"/></linearGradient><linearGradient id="linear-gradient-44" x1="247.11" y1="797.15" x2="324.9" y2="797.15" gradientUnits="userSpaceOnUse"><stop offset="0.01" stop-color="#c89bfc"/><stop offset="1" stop-color="#cba3ff"/></linearGradient><linearGradient id="linear-gradient-45" x1="268.67" y1="821.78" x2="268.67" y2="750.86" xlink:href="#linear-gradient-43"/><linearGradient id="linear-gradient-46" x1="266.84" y1="822.25" x2="266.84" y2="751.93" xlink:href="#linear-gradient-40"/><linearGradient id="linear-gradient-47" x1="300.43" y1="750.07" x2="366.47" y2="750.07" xlink:href="#linear-gradient-21"/><linearGradient id="linear-gradient-48" x1="846.17" y1="789.5" x2="904.45" y2="789.5" gradientUnits="userSpaceOnUse"><stop offset="0" stop-color="#38239e"/><stop offset="1" stop-color="#2f1784"/></linearGradient><linearGradient id="linear-gradient-49" x1="808.93" y1="771.01" x2="904.78" y2="771.01" xlink:href="#linear-gradient-21"/><linearGradient id="linear-gradient-50" x1="894.85" y1="874.15" x2="934.7" y2="874.15" xlink:href="#linear-gradient-48"/><linearGradient id="linear-gradient-51" x1="862.14" y1="895.08" x2="883.85" y2="895.08" xlink:href="#linear-gradient-48"/><linearGradient id="linear-gradient-52" x1="832.92" y1="671.1" x2="864.75" y2="671.1" gradientTransform="matrix(1, 0, 0, 1, 0, 0)" xlink:href="#linear-gradient-18"/><linearGradient id="linear-gradient-53" x1="854.08" y1="744.17" x2="810.93" y2="669.44" xlink:href="#linear-gradient-26"/><linearGradient id="linear-gradient-54" x1="832.5" y1="675.13" x2="846.17" y2="675.13" gradientTransform="matrix(1, 0, 0, 1, 0, 0)" xlink:href="#linear-gradient-18"/><linearGradient id="linear-gradient-55" x1="833.31" y1="648.01" x2="853.09" y2="648.01" xlink:href="#linear-gradient-21"/><linearGradient id="linear-gradient-56" x1="810.46" y1="675.29" x2="838.58" y2="675.29" gradientTransform="matrix(1, 0, 0, 1, 0, 0)" xlink:href="#linear-gradient-18"/><linearGradient id="linear-gradient-57" x1="794.21" y1="698.23" x2="820.17" y2="698.23" gradientTransform="matrix(1, 0, 0, 1, 0, 0)" xlink:href="#linear-gradient-18"/><linearGradient id="linear-gradient-58" x1="808.42" y1="643.26" x2="851.63" y2="643.26" xlink:href="#linear-gradient-21"/><linearGradient id="linear-gradient-59" x1="849.09" y1="734.99" x2="904.78" y2="734.99" xlink:href="#linear-gradient-43"/><linearGradient id="linear-gradient-60" x1="851.27" y1="735.68" x2="905.18" y2="735.68" xlink:href="#linear-gradient-40"/><linearGradient id="linear-gradient-61" x1="316.3" y1="307.4" x2="500.25" y2="307.4" xlink:href="#linear-gradient-21"/><linearGradient id="linear-gradient-62" x1="316.3" y1="310" x2="500.26" y2="310" xlink:href="#linear-gradient-21"/><linearGradient id="linear-gradient-63" x1="432.87" y1="230.47" x2="432.87" y2="377.63" xlink:href="#linear-gradient-38"/><linearGradient id="linear-gradient-64" x1="316.3" y1="320.88" x2="500.26" y2="320.88" xlink:href="#linear-gradient-21"/><linearGradient id="linear-gradient-65" x1="336.07" y1="280.74" x2="336.07" y2="359.89" xlink:href="#linear-gradient-38"/><linearGradient id="linear-gradient-66" x1="340.27" y1="269.58" x2="340.27" y2="297.35" xlink:href="#linear-gradient-38"/><linearGradient id="linear-gradient-67" x1="909.71" y1="546.57" x2="1024.57" y2="546.57" xlink:href="#linear-gradient-17"/><linearGradient id="linear-gradient-68" x1="918.64" y1="587.7" x2="977.32" y2="587.7" gradientTransform="matrix(1, 0, 0, 1, 0, 0)" xlink:href="#linear-gradient-18"/><linearGradient id="linear-gradient-69" x1="984.93" y1="489.43" x2="1016.87" y2="489.43" gradientTransform="matrix(1, 0, 0, 1, 0, 0)" xlink:href="#linear-gradient-18"/><linearGradient id="linear-gradient-70" x1="984.93" y1="558.22" x2="1016.87" y2="558.22" xlink:href="#linear-gradient-38"/><linearGradient id="linear-gradient-71" x1="918.64" y1="501.02" x2="977.32" y2="501.02" xlink:href="#linear-gradient-38"/><linearGradient id="linear-gradient-72" x1="918.64" y1="514.39" x2="977.32" y2="514.39" xlink:href="#linear-gradient-38"/><linearGradient id="linear-gradient-73" x1="918.64" y1="528.22" x2="977.32" y2="528.22" xlink:href="#linear-gradient-38"/><linearGradient id="linear-gradient-74" x1="918.64" y1="541.59" x2="977.32" y2="541.59" xlink:href="#linear-gradient-38"/><linearGradient id="linear-gradient-75" x1="298.54" y1="490.78" x2="354.85" y2="490.78" gradientTransform="matrix(1, 0, 0, 1, 0, 0)" xlink:href="#linear-gradient-18"/><linearGradient id="linear-gradient-76" x1="312.46" y1="490.78" x2="336.32" y2="490.78" gradientTransform="matrix(1, 0, 0, 1, 0, 0)" xlink:href="#linear-gradient-18"/><linearGradient id="linear-gradient-77" x1="655.78" y1="195.61" x2="694.02" y2="195.61" xlink:href="#linear-gradient-38"/><linearGradient id="linear-gradient-78" x1="567.84" y1="368.72" x2="616.74" y2="368.72" xlink:href="#linear-gradient-17"/><linearGradient id="linear-gradient-79" x1="608.26" y1="367.06" x2="640.2" y2="367.06" xlink:href="#linear-gradient-38"/><linearGradient id="linear-gradient-80" x1="299.57" y1="391.48" x2="388.64" y2="391.48" xlink:href="#linear-gradient-17"/><linearGradient id="linear-gradient-81" x1="303.35" y1="346.68" x2="384.11" y2="346.68" xlink:href="#linear-gradient-38"/><linearGradient id="linear-gradient-82" x1="303.35" y1="343.47" x2="324.44" y2="343.47" xlink:href="#linear-gradient-38"/><linearGradient id="linear-gradient-83" x1="361.33" y1="453.5" x2="382.42" y2="453.5" xlink:href="#linear-gradient-38"/><linearGradient id="linear-gradient-84" x1="303.35" y1="351.04" x2="318.37" y2="351.04" xlink:href="#linear-gradient-38"/><linearGradient id="linear-gradient-85" x1="313.84" y1="396.5" x2="371.88" y2="396.5" xlink:href="#linear-gradient-38"/><linearGradient id="linear-gradient-86" x1="138.13" y1="684.34" x2="170.64" y2="684.34" gradientTransform="matrix(1, 0, 0, 1, 0, 0)" xlink:href="#linear-gradient-18"/><linearGradient id="linear-gradient-87" x1="70.47" y1="569.05" x2="229.24" y2="569.05" xlink:href="#linear-gradient-17"/><linearGradient id="linear-gradient-88" x1="74.74" y1="482.31" x2="106.79" y2="482.31" xlink:href="#linear-gradient-38"/><linearGradient id="linear-gradient-89" x1="191.34" y1="550.04" x2="223.39" y2="550.04" gradientTransform="matrix(1, 0, 0, 1, 0, 0)" xlink:href="#linear-gradient-18"/><linearGradient id="linear-gradient-90" x1="109.7" y1="536.81" x2="165.2" y2="536.81" xlink:href="#linear-gradient-38"/><linearGradient id="linear-gradient-91" x1="144.6" y1="533.32" x2="176.64" y2="533.32" gradientTransform="matrix(1, 0, 0, 1, 0, 0)" xlink:href="#linear-gradient-18"/><linearGradient id="linear-gradient-92" x1="147.41" y1="599.33" x2="179.46" y2="599.33" gradientTransform="matrix(1, 0, 0, 1, 0, 0)" xlink:href="#linear-gradient-18"/><linearGradient id="linear-gradient-93" x1="183.25" y1="578.13" x2="194.32" y2="578.13" xlink:href="#linear-gradient-38"/><linearGradient id="linear-gradient-94" x1="109.68" y1="613.88" x2="190.36" y2="613.88" xlink:href="#linear-gradient-38"/><linearGradient id="linear-gradient-95" x1="146.84" y1="701.55" x2="241.07" y2="701.55" gradientTransform="matrix(1, 0, 0, 1, 0, 0)" xlink:href="#linear-gradient-18"/><linearGradient id="linear-gradient-96" x1="178.65" y1="658.15" x2="211.16" y2="658.15" gradientTransform="matrix(-1, 0, 0, 1, 1163.86, 0)" xlink:href="#linear-gradient-18"/><linearGradient id="linear-gradient-97" x1="187.37" y1="669.11" x2="268.5" y2="669.11" gradientTransform="matrix(-1, 0, 0, 1, 1163.86, 0)" xlink:href="#linear-gradient-18"/><linearGradient id="linear-gradient-98" x1="557.5" y1="224.24" x2="642.07" y2="224.24" xlink:href="#linear-gradient-17"/><linearGradient id="linear-gradient-99" x1="595.46" y1="175.75" x2="635.53" y2="175.75" xlink:href="#linear-gradient-38"/><linearGradient id="linear-gradient-100" x1="595.46" y1="223.4" x2="635.53" y2="223.4" xlink:href="#linear-gradient-38"/><linearGradient id="linear-gradient-101" x1="595.46" y1="262.87" x2="635.53" y2="262.87" xlink:href="#linear-gradient-38"/><linearGradient id="linear-gradient-102" x1="567.69" y1="191.08" x2="584.07" y2="191.08" gradientTransform="matrix(1, 0, 0, 1, 0, 0)" xlink:href="#linear-gradient-18"/><linearGradient id="linear-gradient-103" x1="567.69" y1="221.82" x2="584.07" y2="221.82" gradientTransform="matrix(1, 0, 0, 1, 0, 0)" xlink:href="#linear-gradient-18"/><linearGradient id="linear-gradient-104" x1="567.69" y1="252.55" x2="584.07" y2="252.55" gradientTransform="matrix(1, 0, 0, 1, 0, 0)" xlink:href="#linear-gradient-18"/><linearGradient id="linear-gradient-105" x1="567.69" y1="283.28" x2="584.07" y2="283.28" gradientTransform="matrix(1, 0, 0, 1, 0, 0)" xlink:href="#linear-gradient-18"/><linearGradient id="linear-gradient-106" x1="510.62" y1="323.31" x2="531.67" y2="323.31" xlink:href="#linear-gradient-18"/><linearGradient id="linear-gradient-107" x1="595.15" y1="310.38" x2="686.88" y2="310.38" xlink:href="#linear-gradient-38"/><linearGradient id="linear-gradient-108" x1="173.85" y1="373.13" x2="272.92" y2="373.13" xlink:href="#linear-gradient-17"/><linearGradient id="linear-gradient-109" x1="181.38" y1="294.88" x2="260.46" y2="294.88" xlink:href="#linear-gradient-38"/><linearGradient id="linear-gradient-110" x1="220.08" y1="325.41" x2="260.46" y2="325.41" gradientTransform="matrix(1, 0, 0, 1, 0, 0)" xlink:href="#linear-gradient-18"/><linearGradient id="linear-gradient-111" x1="227.85" y1="337.53" x2="260.46" y2="337.53" gradientTransform="matrix(1, 0, 0, 1, 0, 0)" xlink:href="#linear-gradient-18"/><linearGradient id="linear-gradient-112" x1="227.85" y1="347.3" x2="260.46" y2="347.3" gradientTransform="matrix(1, 0, 0, 1, 0, 0)" xlink:href="#linear-gradient-18"/><linearGradient id="linear-gradient-113" x1="220.08" y1="373.13" x2="260.46" y2="373.13" gradientTransform="matrix(1, 0, 0, 1, 0, 0)" xlink:href="#linear-gradient-18"/><linearGradient id="linear-gradient-114" x1="227.85" y1="385.24" x2="260.46" y2="385.24" gradientTransform="matrix(1, 0, 0, 1, 0, 0)" xlink:href="#linear-gradient-18"/><linearGradient id="linear-gradient-115" x1="227.85" y1="395.02" x2="260.46" y2="395.02" gradientTransform="matrix(1, 0, 0, 1, 0, 0)" xlink:href="#linear-gradient-18"/><linearGradient id="linear-gradient-116" x1="220.08" y1="420.77" x2="260.46" y2="420.77" gradientTransform="matrix(1, 0, 0, 1, 0, 0)" xlink:href="#linear-gradient-18"/><linearGradient id="linear-gradient-117" x1="227.85" y1="432.89" x2="260.46" y2="432.89" gradientTransform="matrix(1, 0, 0, 1, 0, 0)" xlink:href="#linear-gradient-18"/><linearGradient id="linear-gradient-118" x1="227.85" y1="442.66" x2="260.46" y2="442.66" gradientTransform="matrix(1, 0, 0, 1, 0, 0)" xlink:href="#linear-gradient-18"/><linearGradient id="linear-gradient-119" x1="184.57" y1="318.79" x2="216.33" y2="318.79" xlink:href="#linear-gradient-38"/><linearGradient id="linear-gradient-120" x1="184.57" y1="365.52" x2="216.33" y2="365.52" xlink:href="#linear-gradient-38"/><linearGradient id="linear-gradient-121" x1="184.57" y1="412.53" x2="216.33" y2="412.53" xlink:href="#linear-gradient-38"/><linearGradient id="linear-gradient-122" x1="184.57" y1="444.13" x2="216.33" y2="444.13" xlink:href="#linear-gradient-38"/><linearGradient id="linear-gradient-123" x1="248.78" y1="536.39" x2="273.51" y2="536.39" gradientTransform="matrix(1, 0, 0, 1, 0, 0)" xlink:href="#linear-gradient-18"/><linearGradient id="linear-gradient-124" x1="389.3" y1="613.88" x2="403.08" y2="613.88" gradientTransform="matrix(1, 0, 0, 1, 0, 0)" xlink:href="#linear-gradient-18"/><linearGradient id="linear-gradient-125" x1="254.25" y1="554.37" x2="399.84" y2="554.37" xlink:href="#linear-gradient-38"/></defs><title>Hero</title><path d="M549.79,501.44c120.86-1.38,223.91,40,261.09,98.7,9.63-6.57,19.14-13.28,28.19-20.57-53-56-161.05-93.53-285.33-92.12-109.57,1.24-205.82,32.49-262.46,79A194.26,194.26,0,0,0,300,593.31C341.88,540.41,437.73,502.71,549.79,501.44Z" fill="url(#linear-gradient)"/><path d="M549.79,495.16c123.88-1.41,229.08,42.13,263.78,103.13,9.9-6.79,19.66-13.74,28.85-21.42-51.74-57.92-161.76-97.14-288.68-95.7-110.31,1.25-207.1,32.92-263.59,80a189.76,189.76,0,0,0,8.16,28C339.26,535.13,436.24,496.45,549.79,495.16Z" fill="url(#linear-gradient-2)"/><path d="M556.52,472.11c120.7-1.37,227.73,30,293,79.19,5-4.38,10-8.78,15-13.13C792.31,490.88,682.59,461.34,560,462.73c-119.44,1.36-225.93,31.79-297,78.6,2.32,4.34,4.84,8.56,7.52,12.71C335,505.57,438.93,473.44,556.52,472.11Z" fill="url(#linear-gradient-3)"/><path d="M556.52,467.2c122.54-1.39,231,31,296,81.44q7.57-6.61,15.15-13.24c-72.08-48.53-183.21-79-307.63-77.58-120.49,1.37-227.83,32.31-298.86,79.82,2.25,4.5,4.71,8.85,7.35,13.11C332.78,501.39,437.64,468.55,556.52,467.2Z" fill="url(#linear-gradient-4)"/><path d="M762.34,600.69c-2.65,10.65-7,20.93-7.39,32.06-.34,8.85-2.43,15.46-7.08,20.5-1.8,2-6.85,0-8.73-2.91-3-4.59,1.94-13.76-3.89-14.92-7.24-1.43-11.29,0-13.88,9.48-2.75,9.88,3.82,18.24,6.92,27.54.71,2.13,2.71,5-1.55,5.62-6.42.88-15.11-3.17-17.64-9.49-1.55-3.88-8-2.27-10.08-4.85-3.09-3.73-2.95-8-6.36-7-2.73.85-4.61,3.43-7.11,4.93-4.78,2.87-12.21,12.54-17.94,11.71-21.53-3.1-32.35-2.37-46.33,2.72-4.27,1.55-7.46-1.23-10.65-.61-4.08.8-6.21-2.4-9.13-4-.77,2.09-2.35,5.54-.58,7.9,1.46,1.94,4.91,1.75,8,1.75,3.61,0,8,1.94,12.41,5.23,2.22,1.64,7.05,1,9.22.62,7.62-1.22,11.76-5.31,19.94-2,8.51,3.48,14.84,8.33,14.62,18.61-.16,7.26,1.29,14.93.28,21.77-2.84,19.13-6.84,33.47-19.64,50-2.55,3.3-3.1,10.07-5.81,13.38-4.46,5.44-12.87,10-18,14.92-4.5,4.3-8.31,11.37-13.33,14.94-8.95,6.37-10.59,10.93-18.46,7.16-4.46-2.13-12.23-13.83-15.21-18a52.59,52.59,0,0,1-8.72-19.45,97,97,0,0,1-1.32-11.52c-.8-8.31-3.65-11.06-10.07-15.58s-8.31-8.49-12.63-15c-6-9-14.19-8.79-22.33-14.13-3.77-2.47-6.1-5-7.14-9.52-.49-2.11.74-10.34.78-12.22.1-5-1.33-8.89-1.19-13.62.42-14.33,21.31-27.47,32.79-32.6,8.35-3.74,13.74-1.27,21-1.63,3.47-.18,9.11-1.91,12.27.93,2.17,2,5.21,2.67,7.7,4.25a47.82,47.82,0,0,0,11,1.38c.12,0,.17.09.28.11a48,48,0,0,1-6.46-4.48c-6.23-5.11-11.27-11.3-19-14.32s-15.69-2.17-23.89-1.69c-8.65.51-16.72-1.1-23.76-2.88-8.19-2.08-11.27-8.77-12.24-19-.34-3.61,2-8.87,2.31-12.92.44-6.42-4.27-10.86.19-17.84s9.57-15.85,17-20c6.5-3.62,14.22-4.63,20.94-7.79,6.45-3,12.26-7.29,17.82-11.72,8.82-7,17-14.92,26.7-20.77,22-13.29,48.67-6.53,71.07-17.54,11.15-5.49,23.35-24,37-24.4A210.14,210.14,0,0,0,590.66,435a43.16,43.16,0,0,1,10,13.18c4.46,9.5.72,14.25-4.16,22s-.25,16.06-7.43,22c-5.33,4.42-14.58,5.71-21,8-8.22,3-16.43,6-24.68,8.9s-17.73,5.73-26.71,4.21c-9.73-1.66-11.9-6.2-16.06-13.93-.84-1.54-1.57-10.43-8.54-10.72-9.31-.39-16.28-.78-22.09,3.07-7.81,5.18-10.22,16.39-12,25.52-2.33,11.68,3.34,26.1-3.77,36.53-4.23,6.2-11.84,8.55-18.92,9.4-14,1.65-27.38-3.51-41.18-3.59-11.11-.07-19.38,5.19-21.54,13.9-1.49,6.06,1.73,12.45,1.87,18.69A106.33,106.33,0,0,1,372.17,618c-.7,3.22-3.62,7.08-6.2,5a69.31,69.31,0,0,1-17-19.53,207.61,207.61,0,0,0-3.14,24.5c2.83,1.17,6.73,4.32,9.39,6.58,8.05,6.83,7.36,19.86,12.12,29,7.37,14,21.74,16.26,33.33,25.14,6.23,4.78,11.38,11,12.09,19.11.38,4.28-.84,7.37-1.51,11.5-2,12.34-.21,21.53,5.65,32.62,10.26,19.4,26.48,38.44,47.4,46.17,3.71,1.37,9.11,2.73,11,5.83,1.83,2.92-8.69,7-11.24,8.53a50.52,50.52,0,0,1-22.2,7.46,209.58,209.58,0,0,0,114,33.57c116.35,0,210.68-94.32,210.68-210.67A211.32,211.32,0,0,0,762.34,600.69ZM379.83,653.61c-.7-1.8-.42-3.58-.27-5.45a18.24,18.24,0,0,0-1.44-8.28c-.83-2.15-1.43-4.25,0-6.65,2.13-3.63,4.22.86,6.2,3.35a23.26,23.26,0,0,1,3,5.21,9.24,9.24,0,0,1,.48,1.46,14.69,14.69,0,0,1-.54,5c-.67,3.7-.86,6.09.28,9.6.29.92,1.26,2.47.41,2.49C384.19,660.47,381.08,656.78,379.83,653.61Zm16.57,24c-.47.3-.22-1.62-2.23-3-2.59-1.8-7.11-4-7.72-7.35-.41-2.29,1.18-3.46,3.28-4.32,1.34-.55,1.4.79,2.19,2.36.86,1.73,2.69,2.09,4.11,3.46C398.2,670.82,399,676,396.4,677.58Zm57.58-97a33.05,33.05,0,0,0-2.64,9.19c-.3,2.41.24,4.45-1.56,6.42-2.49,2.71-6.25,2.14-9,.2-6.21-4.32-10.3-11.68-16.51-16.27-2.51-1.86-6.1-2.61-5.18-6.14,1-3.93,6.64-5,9.94-5,4.37,0,9,2.64,12.54-.14,2.89-2.25,7.1-3.45,9.48-1.68C454.87,570.06,455.59,576.55,454,580.62ZM674,782c-2.1,3.33-2.13,10.82-6.21,14.35s-10.28,3.59-14.28,5.24c-5.52,2.28-5.89-5.71-4.23-13.49,1.24-5.83,9.93-8.06,13.88-12.67a52.07,52.07,0,0,0,8.9-14.75c.91-2.39,1.74-7.23,3.65-5.11C682.66,763.25,679.19,773.73,674,782Z" fill="url(#linear-gradient-5)"/><path d="M596.88,535.82c-9.7,5.85-17.88,13.74-26.7,20.77-5.56,4.43-11.37,8.68-17.82,11.72-6.72,3.16-14.44,4.17-20.94,7.79-7.39,4.11-12.44,12.89-17,20s.25,11.42-.19,17.84c-.28,4.05-2.65,9.31-2.31,12.92,1,10.24,4.05,16.93,12.24,19,7,1.78,15.11,3.39,23.76,2.88,8.2-.48,16-1.39,23.89,1.69s12.75,9.21,19,14.32a48,48,0,0,0,6.46,4.48c-.11,0-.16-.11-.28-.11a47.82,47.82,0,0,1-11-1.38c-2.49-1.58-5.53-2.29-7.7-4.25-3.16-2.84-8.8-1.11-12.27-.93-7.26.36-12.65-2.11-21,1.63-11.48,5.13-32.37,18.27-32.79,32.6-.14,4.73,1.29,8.65,1.19,13.62,0,1.88-1.27,10.11-.78,12.22,1,4.49,3.37,7,7.14,9.52,8.14,5.34,16.36,5.15,22.33,14.13,4.32,6.51,6.26,10.51,12.63,15s9.27,7.27,10.07,15.58a97,97,0,0,0,1.32,11.52,52.59,52.59,0,0,0,8.72,19.45c3,4.15,10.75,15.85,15.21,18,7.87,3.77,9.51-.79,18.46-7.16,5-3.57,8.83-10.64,13.33-14.94,5.16-4.92,13.57-9.48,18-14.92,2.71-3.31,3.26-10.08,5.81-13.38,12.8-16.48,16.8-30.82,19.64-50,1-6.84-.44-14.51-.28-21.77.22-10.28-6.11-15.13-14.62-18.61-8.18-3.34-12.32.75-19.94,2-2.17.34-7,1-9.22-.62-4.46-3.29-8.8-5.23-12.41-5.23-3,0-6.49.19-8-1.75-1.77-2.36-.19-5.81.58-7.9,2.92,1.6,5,4.8,9.13,4,3.19-.62,6.38,2.16,10.65.61,14-5.09,24.8-5.82,46.33-2.72,5.73.83,13.16-8.84,17.94-11.71,2.5-1.5,4.38-4.08,7.11-4.93,3.41-1,3.27,3.22,6.36,7,2.13,2.58,8.53,1,10.08,4.85,2.53,6.32,11.22,10.37,17.64,9.49,4.26-.58,2.26-3.49,1.55-5.62-3.1-9.3-9.67-17.66-6.92-27.54,2.59-9.49,6.64-10.91,13.88-9.48,5.83,1.16.92,10.33,3.89,14.92,1.88,2.91,6.93,4.86,8.73,2.91,4.65-5,6.74-11.65,7.08-20.5.43-11.13,4.74-21.41,7.39-32.06a210.19,210.19,0,0,0-57.41-106.81c-13.63.44-25.83,18.91-37,24.4C645.55,529.29,618.9,522.53,596.88,535.82Z" fill="url(#linear-gradient-6)"/><path d="M672.07,760.65a52.07,52.07,0,0,1-8.9,14.75c-3.95,4.61-12.64,6.84-13.88,12.67-1.66,7.78-1.29,15.77,4.23,13.49,4-1.65,10.32-1.81,14.28-5.24s4.11-11,6.21-14.35c5.18-8.24,8.65-18.72,1.71-26.43C673.81,753.42,673,758.26,672.07,760.65Z" fill="url(#linear-gradient-7)"/><path d="M475.3,803.88c-1.93-3.1-7.33-4.46-11-5.83-20.92-7.73-37.14-26.77-47.4-46.17-5.86-11.09-7.66-20.28-5.65-32.62.67-4.13,1.89-7.22,1.51-11.5-.71-8.12-5.86-14.33-12.09-19.11-11.59-8.88-26-11.1-33.33-25.14-4.76-9.09-4.07-22.12-12.12-29-2.66-2.26-6.56-5.41-9.39-6.58-.34,4.89-.58,9.81-.58,14.79a210.43,210.43,0,0,0,96.65,177.1,50.52,50.52,0,0,0,22.2-7.46C466.61,810.88,477.13,806.8,475.3,803.88Z" fill="url(#linear-gradient-8)"/><path d="M366,623c2.58,2,5.5-1.82,6.2-5a106.33,106.33,0,0,0,2.33-25.78c-.14-6.24-3.36-12.63-1.87-18.69,2.16-8.71,10.43-14,21.54-13.9,13.8.08,27.23,5.24,41.18,3.59,7.08-.85,14.69-3.2,18.92-9.4,7.11-10.43,1.44-24.85,3.77-36.53,1.82-9.13,4.23-20.34,12-25.52,5.81-3.85,12.78-3.46,22.09-3.07,7,.29,7.7,9.18,8.54,10.72,4.16,7.73,6.33,12.27,16.06,13.93,9,1.52,18.34-1.29,26.71-4.21s16.46-5.94,24.68-8.9c6.37-2.3,15.62-3.59,21-8,7.18-5.94,2.62-14.33,7.43-22s8.62-12.52,4.16-22a43.16,43.16,0,0,0-10-13.18,212,212,0,0,0-34.78-2.91c-102.91,0-188.54,73.82-206.95,171.39A69.31,69.31,0,0,0,366,623Z" fill="url(#linear-gradient-9)"/><path d="M387.49,657.9c-1.14-3.51-.95-5.9-.28-9.6a14.69,14.69,0,0,0,.54-5,9.24,9.24,0,0,0-.48-1.46,23.26,23.26,0,0,0-3-5.21c-2-2.49-4.07-7-6.2-3.35-1.4,2.4-.8,4.5,0,6.65a18.24,18.24,0,0,1,1.44,8.28c-.15,1.87-.43,3.65.27,5.45,1.25,3.17,4.36,6.86,8.07,6.78C388.75,660.37,387.78,658.82,387.49,657.9Z" fill="url(#linear-gradient-10)"/><path d="M391.92,665.27c-.79-1.57-.85-2.91-2.19-2.36-2.1.86-3.69,2-3.28,4.32.61,3.4,5.13,5.55,7.72,7.35,2,1.38,1.76,3.3,2.23,3,2.56-1.6,1.8-6.76-.37-8.85C394.61,667.36,392.78,667,391.92,665.27Z" fill="url(#linear-gradient-11)"/><path d="M441.53,568.87c-3.57,2.78-8.17.18-12.54.14-3.3,0-8.92,1.08-9.94,5-.92,3.53,2.67,4.28,5.18,6.14,6.21,4.59,10.3,12,16.51,16.27,2.79,1.94,6.55,2.51,9-.2,1.8-2,1.26-4,1.56-6.42a33.05,33.05,0,0,1,2.64-9.19c1.61-4.07.89-10.56-3-13.43C448.63,565.42,444.42,566.62,441.53,568.87Z" fill="url(#linear-gradient-12)"/><path d="M657.43,696.11c-57.89,100.27-168.26,143.5-248.62,97.11-58-55.83-90.53-158.39-35.09-255.9C431,436.68,553.23,409.38,643.94,451.17,700.47,506.38,708.09,608.38,657.43,696.11Z" fill="#fff" opacity="0.2"/><ellipse cx="489.04" cy="582.21" rx="134.9" ry="108.11" transform="translate(-259.69 714.62) rotate(-60)" fill="#fff" opacity="0.2"/><path d="M527.8,577.69c-20.8,36-61.07,51.72-89.95,35s-35.42-59.4-14.62-95.43,61.07-51.72,89.95-35S548.6,541.66,527.8,577.69Z" fill="#fff" opacity="0.2"/><path d="M767.64,529.75a285.16,285.16,0,0,1,3.21,29.6c34.1,24.42,54.48,54.89,54.89,88.13,1,82.38-120.93,150.56-272.33,152.28s-274.93-63.67-275.93-146c-.41-33.9,20-65.38,54.73-90.82a252.58,252.58,0,0,1,8.46-28.17c-63.77,32.39-103.5,78.56-102.88,129.41,1.16,95.58,144.5,171.46,320.15,169.45s317.13-81.09,316-176.68C873.29,606,832.33,560.68,767.64,529.75Z" fill="url(#linear-gradient-13)"/><path d="M766.33,522.87a268.93,268.93,0,0,1,4.09,29.88c34.37,24.47,54.91,55.06,55.32,88.45,1,82.39-120.93,150.56-272.33,152.28S278.48,729.82,277.48,647.43c-.42-34.53,20.82-66.53,56.7-92.22A248.75,248.75,0,0,1,343.67,527c-65.49,32.46-106.51,79.24-105.88,130.86,1.16,95.59,144.5,171.46,320.15,169.46s317.13-81.1,316-176.69C873.29,599.38,831.76,553.82,766.33,522.87Z" fill="url(#linear-gradient-14)"/><path d="M721.14,479.8c1.24,4.34,2.31,8.73,3.3,13.14C837.5,524.33,915,588,915.9,662.31c1.31,107.29-157.48,196.08-354.66,198.32S203.18,777.71,201.88,670.42c-.91-74.46,75.34-140,188-173.87,1.64-4,3.28-8,5-11.95C262.42,520,171.24,594.42,172.29,679.54c1.42,117.29,177.32,210.41,392.87,208S954.32,788,952.89,670.66C951.85,584.61,856.81,511.63,721.14,479.8Z" fill="url(#linear-gradient-15)"/><path d="M719.52,474.51c1.35,4.35,2.6,8.75,3.7,13.2C836.94,519,915,582.83,915.9,657.4c1.31,107.29-157.48,196.08-354.66,198.32S203.18,772.8,201.88,665.51c-.92-75,76.38-140.85,190.27-174.54,1.7-4,3.46-8,5.25-11.93C263.59,514.15,171.24,589,172.29,674.63c1.42,117.29,177.32,210.41,392.87,208s389.16-99.52,387.73-216.82C951.84,579.36,856.05,506.13,719.52,474.51Z" fill="url(#linear-gradient-16)"/><polygon points="769.04 169.67 769.04 199.32 814.44 173.11 814.44 143.46 769.04 169.67" opacity="0.6" fill="url(#linear-gradient-17)"/><path d="M808,221.38c0,12-7.27,25.87-16.25,31.06s-16.25-.32-16.25-12.29,7.28-25.87,16.25-31.05S808,209.42,808,221.38Z" opacity="0.5" fill="url(#linear-gradient-18)"/><path d="M705.06,305l80.47-71.16a1.94,1.94,0,0,1,0-.24,17,17,0,0,1,5.87-12.43V186.54l2.71-1.56v34.84c3-.71,5.19,1.59,5.19,5.87,0,5.07-3.08,11-6.89,13.16-2.81,1.63-5.23.76-6.29-1.85l-80.91,71.55Z" opacity="0.5" fill="url(#linear-gradient-19)"/><path d="M794,346.33c-.77-.25-10.69-7.68-12.48-9.31s-2.29-.23-1.52,1.67,2,4.58,2,4.58a18.53,18.53,0,0,0-9-3.18c-4.83-.14-6.87,2-2.67,6.24,3.11,3.11,19.35,9,19.35,9Z" fill="#ffd0ca"/><path d="M848.8,372.8c0,9.21-10.58,15.79-17.81,8a23,23,0,0,1-4.88-8.37,241.92,241.92,0,0,1,9.2-32.7L846,341.48S848.8,361.46,848.8,372.8Z" fill="#ffd0ca"/><path d="M838.61,361.46l12.5-4.58s-3.54-15.87-6.19-22.11c-2-4.76-3.9-9.73-10-10.9a7.4,7.4,0,0,0-8.76,6.21C825.08,336.33,838.61,361.46,838.61,361.46Z" fill="url(#linear-gradient-20)"/><path d="M835.52,572.63c-1.76,4.21-5.84,3.82-14.08.85A71.19,71.19,0,0,1,802.91,564c-5.2-3.85-5.25-4.36-5.94-7-1-3.64,4.36-5.68,13.19-2.94.88.27,1.68.53,2.43.78-1.62.27-3.31.87-4,2.24-1.61,3,3.41,6.24,8.7,8.89s9.61,2.64,12.26,1.44c1.93-.88,4.53-2,5.79-2.56C835.84,568.47,836.58,570.11,835.52,572.63Z" fill="url(#linear-gradient-21)"/><path d="M825.32,523.91h0c.07.73-.22-6.5-.41-15.66-6.08,2.83-12.62,4.29-19.38,5.47.57,4.07,1.17,8.13,1.76,12,1.5,17.52,2.8,40.28,2.8,40.28s-2.43-1.09-7.31-2.7c-1.62.28-3.31.88-4,2.24-1.61,3,3.41,6.25,8.7,8.89s9.61,2.65,12.26,1.44c1.93-.88,4.53-2,5.79-2.55a42.16,42.16,0,0,1-.2-10.38C826.1,553.51,825.81,535.85,825.32,523.91Z" fill="#ffd0ca"/><path d="M836.06,515.08c.18-2.21.42-4.63.67-7.15a49.83,49.83,0,0,1-19.21,2.25c.36,7,.71,13.47,1,17.35.85,13.13,1.42,30.09,1.42,30.09s-2.43-1.1-7.31-2.7c-1.63.27-3.31.87-4,2.24-1.61,3,3.41,6.24,8.7,8.89s9.61,2.64,12.26,1.44c1.93-.88,4.53-2,5.79-2.56a42.51,42.51,0,0,1-.21-10.38C835.78,546.73,835.48,522.59,836.06,515.08Z" fill="#ffd0ca"/><path d="M825.72,581c-1.77,4.2-5.85,3.81-14.08.85a71.11,71.11,0,0,1-18.54-9.45c-5.2-3.85-5.25-4.36-5.94-7-1-3.64,4.36-5.68,13.19-2.94l2.44.78c-1.63.28-3.32.88-4,2.24-1.61,3,3.41,6.25,8.7,8.89s9.61,2.65,12.26,1.44c1.93-.88,4.53-2,5.79-2.55C826,576.84,826.78,578.48,825.72,581Z" fill="url(#linear-gradient-22)"/><path d="M810.72,483.34c-6.36,7.46-12,11-21.9,12.19,0,13.85,19.71,65,19.74,67.29,3.56,4.31,8.5,5.73,18.37,3.06C827.3,558.76,818.59,517.25,810.72,483.34Z" fill="url(#linear-gradient-23)"/><path d="M838.61,408.49c-5.92-14-5.44-15.36-5.2-15.47l-39.12,4.84s-1.06,9.64-2.71,17.57c-2.46,11.78-2.8,66.14-2.76,82.78,3.34-.43,4,.71,7.26-.26,6.09-1.81,9.59,8.71,14.66,5,0-.06,2.65-7.9,2.65-8,1-20.77,2.08-32.13,6.19-44,.4,6.25-2.59,36.26-2.23,49.07.34,11.71-1.4,40.75-1.4,53.76,5.15,6.25,15.67,6.24,21,3.12,1.51-8.38,2.79-54.35,3.73-67.79.21-5,2.09-38.41,2.82-44.41A66.44,66.44,0,0,0,838.61,408.49Z" fill="url(#linear-gradient-24)"/><path d="M684,330.4c4-.14,6.38-1.56,11.25,1.39,3.52,2.12,7.45,7.35,11.58,7.26,4.41-.1,9-5.63,11.93-7.11,6.93-3.48,11.78-16.13,17.47-21.6,3.61-3.47,5.92-.56,7.79-1.9,1.31-.95,2.15-4,3.18-7.43,2.18-7.27-1-10.19-4.57-9.18-8.18,2.34-7.13,6.45-10.46,7.44-5.6,1.67-8.84,3.57-10.81,1.21-4.67-5.58-7.85-8.72-14.16-10.34-5.24-1.34-4.42-2.15-11-.74-2.64.56-6.38,2.34-8.94,3.08-6.19,1.78-10.29,2.12-11.73-3.44-1-3.83-6.72-5.36-7.09-8.72s1-3.19,1.1-8.32c.09-8-2.57-9.43-5.62-12a8.2,8.2,0,0,1-1.38-1.58,60.76,60.76,0,0,0-6.62,27.5,60.49,60.49,0,0,0,19.21,44.43A88.18,88.18,0,0,0,684,330.4Z" fill="url(#linear-gradient-25)"/><path d="M684,330.4c4-.14,6.38-1.56,11.25,1.39,3.52,2.12,7.45,7.35,11.58,7.26,4.41-.1,9-5.63,11.93-7.11,6.93-3.48,11.78-16.13,17.47-21.6,3.61-3.47,5.92-.56,7.79-1.9,1.31-.95,2.15-4,3.18-7.43,2.18-7.27-1-10.19-4.57-9.18-8.18,2.34-7.13,6.45-10.46,7.44-5.6,1.67-8.84,3.57-10.81,1.21-4.67-5.58-7.85-8.72-14.16-10.34-5.24-1.34-4.42-2.15-11-.74-2.64.56-6.38,2.34-8.94,3.08-6.19,1.78-10.29,2.12-11.73-3.44-1-3.83-6.72-5.36-7.09-8.72s1-3.19,1.1-8.32c.09-8-2.57-9.43-5.62-12a8.2,8.2,0,0,1-1.38-1.58,60.76,60.76,0,0,0-6.62,27.5,60.49,60.49,0,0,0,19.21,44.43A88.18,88.18,0,0,0,684,330.4Z" fill="url(#linear-gradient-26)"/><path d="M778.39,285.93a61.16,61.16,0,0,0-115.82-27.5A8.2,8.2,0,0,0,664,260c3,2.56,5.71,4,5.62,12-.06,5.13-1.48,4.86-1.1,8.32s6.1,4.89,7.09,8.72c1.44,5.56,5.54,5.22,11.73,3.44,2.56-.74,6.3-2.52,8.94-3.08,6.58-1.41,5.76-.6,11,.74,6.31,1.62,9.49,4.76,14.16,10.34,2,2.36,5.21.46,10.81-1.21,3.33-1,2.28-5.1,10.46-7.44,3.55-1,6.75,1.91,4.57,9.18-1,3.46-1.87,6.48-3.18,7.43-1.87,1.34-4.18-1.57-7.78,1.9-5.7,5.47-10.54,18.12-17.48,21.6-2.95,1.48-7.52,7-11.93,7.11-4.13.09-8.06-5.14-11.58-7.27-4.87-2.94-7.22-1.52-11.25-1.38a88.18,88.18,0,0,1-8.87,0,61,61,0,0,0,75.18,7,3.64,3.64,0,0,1-.45-.35c-1.47-1.48-3.55-6.07-4-8.07-.46-2.22,1.26-4.7,1-7-.25-1.87-1.79-1.62-3.33-1.78-.8-.09-1.08-1.54-1.28-2.56a4.92,4.92,0,0,1,2.08-5.05c3.31-2.53,6.16-2,9.77-.89a12.48,12.48,0,0,1,4.92,2.69c1.53,1.35,1.44,5.78,3.49,4.75s3.18-2.71,4.38-2.76a14,14,0,0,1,3.2.13,61.38,61.38,0,0,0,8.27-30.54Z" fill="url(#linear-gradient-27)"/><path d="M766.92,316.34c-1.2.05-2.27,1.71-4.38,2.76s-2-3.4-3.49-4.75a12.48,12.48,0,0,0-4.92-2.69c-3.61-1.08-6.46-1.64-9.77.89a4.92,4.92,0,0,0-2.08,5.05c.2,1,.48,2.47,1.28,2.56,1.54.16,3.08-.09,3.33,1.78.29,2.28-1.43,4.76-1,7,.42,2,2.5,6.59,4,8.07a3.64,3.64,0,0,0,.45.35,61.46,61.46,0,0,0,19.78-20.87A14,14,0,0,0,766.92,316.34Z" fill="url(#linear-gradient-28)"/><path d="M766.92,316.34c-1.2.05-2.27,1.71-4.38,2.76s-2-3.4-3.49-4.75a12.48,12.48,0,0,0-4.92-2.69c-3.61-1.08-6.46-1.64-9.77.89a4.92,4.92,0,0,0-2.08,5.05c.2,1,.48,2.47,1.28,2.56,1.54.16,3.08-.09,3.33,1.78.29,2.28-1.43,4.76-1,7,.42,2,2.5,6.59,4,8.07a3.64,3.64,0,0,0,.45.35,61.46,61.46,0,0,0,19.78-20.87A14,14,0,0,0,766.92,316.34Z" fill="url(#linear-gradient-29)"/><path d="M749,261.8c1.05-1.84.16-4.76.83-6.25,1.13-2.46,3-7.43.4-10.79-3-3.81-8.25-4-13.36-1.84-5.94,2.49-1.89,8.72-4.12,13.22-1.06,2.14-5.85,1.94-8.63,2.08-3.61.19-4.24,2.08-6.13,5.6s-7.19,5.72-5.13,9.74c.78,1.53,4.23,4,6.38,3.52,3.39-.77,6.59-1.57,8.08,2.32,1.19,3.1,3.86,7.33,8.79,6.4,4.49-.85,6.91-4.25,10-7.46,2.18-2.27,5.38-4,5.2-6.53C751.11,268.69,747.29,264.84,749,261.8Z" fill="url(#linear-gradient-30)"/><path d="M746.49,301.37c-16.82,29.14-48.89,41.7-72.24,28.22a60.92,60.92,0,0,1-10.2-74.35c16.63-29.25,52.16-37.18,78.52-25C759,246.25,761.2,275.88,746.49,301.37Z" fill="#fff" opacity="0.1"/><ellipse cx="697.56" cy="268.28" rx="39.2" ry="31.41" transform="translate(116.44 738.23) rotate(-60)" fill="#fff" opacity="0.1"/><path d="M708.82,267c-6,10.47-17.75,15-26.14,10.19s-10.29-17.26-4.24-27.73,17.74-15,26.13-10.18S714.86,256.5,708.82,267Z" fill="#fff" opacity="0.1"/><path d="M809.05,277.22c-2,1.42-10.4,1.17-12.53,18-1.89,14.89,2.43,16.26,5.45,17.52,1.67.7,7.76,2.69,7.76,2.69l-.68,15.06s7.38,2.91,14.45,0l7.07-2.92s-2.77-4.76-2.3-13c.57-10.22,4.19-24.78,1.63-30.19C825.27,274.57,814.6,273.37,809.05,277.22Z" fill="#ffd0ca"/><path d="M844.71,417.39c-2.24,2.88-5.38,3.26-10.13,4.78-.7-4.07-3.78-8.29-3.78-8.29s-1.38,6.55-2.12,10.54c-4.09,1-11.75,2.16-13.54,2.37-7.94.95-22.53-3.93-26.25-9.79,4.83-15.13,7.07-44.37,7.07-44.37s-7.1-19.3-2-29.48,11.54-11.37,16.4-13c5.14-1.74,21.63-4.65,21.63-4.65s15.65,12.2,12.19,27.46c-2.9,12.75-3,20.44-3.51,27.94C840.27,386.67,844.6,411.72,844.71,417.39Z" fill="url(#linear-gradient-31)"/><path d="M788.89,393.48c-4.31,2.56-5.26,3-11.13-.27-3.42-4.45,2.77-7.8,1-13.26l.09,0c4.05-11.39,9.67-23.62,9.67-23.62l17.38,5.46s-4.32,10.62-9.63,21.21C793.93,387.53,790.42,392.57,788.89,393.48Z" fill="#ffd0ca"/><path d="M735,356.24c6,2.25,9.25,3.25,9.25,3.25a8.83,8.83,0,0,0-1-4.65c-1.19-2.11.82-4.68,3-.93s5.84,5.88,7.72,9.28,5.15,4.48,15.44,8.84c5.72,2.42,10.87,4.3,14.89,6.06-2.65,5.18-3.84,10.6-4.68,16.17-11.34-5.8-26.27-19.18-30.2-20.87-4.66-2-14.52-6.78-19.6-12.31C726.9,357.81,729.68,354.24,735,356.24Z" fill="#ffd0ca"/><path d="M799.62,335.39c3.06-.75,8.91,1.85,10.9,8.68,3.05,10.46-1,15.41-3.31,20.63-.77,1.7-4.08,7.69-4.08,7.69-2.69.32-7,.36-12.54-2.82a13,13,0,0,1-6.21-7s1.91-7.36,4-14C790.21,342.73,793.55,336.87,799.62,335.39Z" fill="url(#linear-gradient-32)"/><path d="M804.53,332.21s1.93-4.8,7.09-5.3c15-1.43,17.43-3.54,17.43-3.54s3.27-.6,4.83,2.11c1,1.69,1.8,3.07,1.8,3.07S818.12,337.26,804.53,332.21Z" fill="#e2796f"/><path d="M795.13,289.07a48.39,48.39,0,0,0,9.06,4.86c-1.58,26.85-7,32.42,3.84,38.89,3.2,1.92,9.94,4.38,11.17,15.47,1.89,17.07,12.54,20.43,12.54,20.43s11.15-10.67,11.36-36.38c.11-13.49-.92-48.46-6.08-54.75-8.35-10.17-17.39-10.35-26-6.73C804.19,269.25,796.87,272.28,795.13,289.07Z" fill="url(#linear-gradient-33)"/><path d="M279.85,727.2c-4.1,10.25-9.65,36.89-9.34,40.1.66,6.89,12.31,13.85,14.27,8.5,2.39-6.49,6.74-21.18,8.19-24.95a309,309,0,0,0,9.29-31.1c.65-11.43,6.37-30.73,13.87-38.52,0,0-6.42-3.34-11.23,1.06-2.88,2.64-9.38,9.87-12.68,16.36C290.63,701.79,283.05,719.17,279.85,727.2Z" fill="url(#linear-gradient-34)"/><path d="M220.53,902.38c-4.95,4.83-6.49,6.22-11.08,10.7-2.68,2.62-.47,5,4.64,4.83,4.5-.17,14.67-2.36,20.37-4.41,4-1.45,11.46-5.55,15.24-7.94a10.12,10.12,0,0,0,4.53-5.73v-8.05l-24.35,1S225.88,897.17,220.53,902.38Z" fill="url(#linear-gradient-35)"/><path d="M263.37,927.81c-4.95,4.83-6.48,6.22-11.07,10.7-2.69,2.62-.48,5,4.63,4.83,4.5-.18,14.68-2.36,20.37-4.41,4.05-1.45,11.46-5.55,15.25-7.95a10.09,10.09,0,0,0,4.52-5.72V911.05l-24.35,7.19S268.72,922.6,263.37,927.81Z" fill="url(#linear-gradient-36)"/><path d="M350.33,787.43l-48.65-18.72s-7.94,7.67-22.63,16.53c-8.56,5.16-32.13,19-39.68,24.36-4.66,3.28-6.75,10.38-8.56,26.34-3,26.38-5.18,56.5-5.18,56.5s5.26,7.36,17.19,7.32a46.49,46.49,0,0,0,16-2.88l1.85-60.7,39.83-23s-22.59,14-25.83,26.39c-2.61,10-3.48,17.62-3.87,30.07-.86,26.81-1.14,44.36-1.14,44.36s1.77,8.89,13.7,8.84c9.15,0,16.7-7.48,16.7-7.48l2.41-61.45s34.4-24.52,43.42-34.89C356,807.4,350.33,787.43,350.33,787.43Z" fill="url(#linear-gradient-37)"/><path d="M310.13,683.84s-14.55,11.76-16.28,28.36c-.86,8.25,1.36,36.51,1.44,54.72-7,4.75-27,16.46-27,16.46s16.09,5,22.38,16a54,54,0,0,0,11.66-6.85s-.65,1.85-4.3,9.18c4.38,1.32,19.37-2.17,33.29,3.86S354.93,809,354.93,809s2.4-12,.71-23.07c-1.54-10-5.28-21.16-4.51-27.06,2.4-18.45,6-48.27,5.34-53.15-1.09-8.17-19.6-17-19.6-17S323.74,678.49,310.13,683.84Z" fill="url(#linear-gradient-38)"/><path d="M318.57,682.29s-8.49,0-15.69,14c-2.58,5-4.28,7.71-4.28,7.71l4.28,4.19-6.09,2.91s-2.2,21.33-.44,30.14c1.95,9.75,11.85,27.49,11.85,27.49s6.42-19.9,9.24-24.86,13.46-18.68,13.46-18.68l-5.33-8,8.69-2.84s12.26-15.36,11-20a15.06,15.06,0,0,0-10.71-10.44Z" fill="url(#linear-gradient-39)"/><path d="M308.56,698.13a198.47,198.47,0,0,0-5.35,19.94c-1.89,9.46,3.38,40.39,3.38,40.39s4.68-30.22,10.85-39a198.66,198.66,0,0,1,16.82-20.24S314.86,695.72,308.56,698.13Z" fill="url(#linear-gradient-40)"/><path d="M312.16,700.08l-1,8.09s-4.78,4.61-5.8,10.25-.72,26.77-.72,26.77l2,13.27,2.83-9.14s2.19-12.56,4.07-20.31a48.38,48.38,0,0,1,.84-7c1.3-3.81,1.57-11.66,1.57-11.66l5.05-6-4.82-5.62Z" fill="url(#linear-gradient-41)"/><path d="M315.33,683.33l-.88,12.8a34.31,34.31,0,0,0,6,6.18c4.62-1.44,15.35-11.39,15.35-11.39l-3.57-19.86Z" fill="#fcb9b4"/><path d="M334.21,649.23c-4.81-6.14-18.64-11.3-27.65,2-9.45,14-.52,36.84,7.75,35.51,4.64-.75,15.07-5,19.65-12.44C339.1,665.93,337.94,654,334.21,649.23Z" fill="#ffd0ca"/><path d="M315.09,686.83l1,11.82-8.42,3.44S306.84,689.56,315.09,686.83Z" fill="#fff"/><path d="M334.53,683.84A61.93,61.93,0,0,1,326.7,693c-3.86,3.75-10.57,5.68-10.57,5.68l3.17,9.52s11.64-5.33,15.91-10C335.21,698.18,340.26,689.46,334.53,683.84Z" fill="#fff"/><path d="M303,655.94c1.92,3.06,4.91,6.65,12.61,7.06a30.74,30.74,0,0,0,11.29-1.55l-.54,8.42a7.5,7.5,0,0,0,2.31-.32c.83-3.2,2.2-3.95,3.77-2.6,1.76,1.53,1.51,7.38,1.51,7.38a21.55,21.55,0,0,0,6.64-15.4c0-6-5.27-19-16.27-20.38s-18.85,4.39-21.54,10.26A7.77,7.77,0,0,0,303,655.94Z" fill="url(#linear-gradient-42)"/><path d="M327.8,801.64h-1.92L282,776.29c-2.32-1.34-6.43-1.17-9.12.38l-29.56,17.07a4.89,4.89,0,0,0-.76.63h-1.46v2.48h.1a2.65,2.65,0,0,0,1.47,2.15l44.26,25.56c2.33,1.34,6.43,1.17,9.12-.38l29.56-17.07c1.5-.87,2.17-2,2.14-3h.08Z" fill="url(#linear-gradient-43)"/><path d="M286.9,822.23l-44.26-25.56c-2.33-1.34-2-3.71.65-5.26l29.56-17.07c2.69-1.55,6.8-1.72,9.12-.38l44.27,25.56c2.32,1.34,2,3.71-.66,5.26L296,821.85C293.33,823.4,289.23,823.57,286.9,822.23Z" fill="#fbf3ff"/><polygon points="278.31 774.8 247.11 792.8 293.61 819.5 324.9 801.56 278.31 774.8" fill="url(#linear-gradient-44)"/><polygon points="275.65 774.5 273.26 775.88 319.76 802.59 322.23 801.25 275.65 774.5" fill="#fbf3ff"/><polygon points="311.13 799.48 308.74 800.86 315.78 804.87 318.25 803.54 311.13 799.48" fill="#fbf3ff"/><polygon points="303.41 795 301.02 796.38 305.96 799.24 308.44 797.91 303.41 795" fill="#fbf3ff"/><polygon points="297.25 791.5 294.86 792.89 299.8 795.74 302.28 794.41 297.25 791.5" fill="#fbf3ff"/><polygon points="291.12 787.99 288.74 789.37 293.68 792.23 296.15 790.9 291.12 787.99" fill="#fbf3ff"/><polygon points="305.88 806.13 303.49 807.51 306.97 809.52 309.44 808.19 305.88 806.13" fill="#fbf3ff"/><polygon points="300.81 803.18 298.42 804.56 301.9 806.57 304.37 805.24 300.81 803.18" fill="#fbf3ff"/><polygon points="294.56 799.65 292.17 801.03 297.12 803.89 299.59 802.55 294.56 799.65" fill="#fbf3ff"/><polygon points="301.79 808.5 299.41 809.88 302.88 811.88 305.35 810.55 301.79 808.5" fill="#fbf3ff"/><polygon points="296.72 805.54 294.34 806.93 297.81 808.93 300.28 807.6 296.72 805.54" fill="#fbf3ff"/><polygon points="297.45 810.78 295.06 812.16 298.54 814.17 301.01 812.84 297.45 810.78" fill="#fbf3ff"/><polygon points="292.38 807.83 289.99 809.21 293.47 811.22 295.94 809.88 292.38 807.83" fill="#fbf3ff"/><polygon points="290.48 802.01 288.09 803.4 293.03 806.25 295.5 804.92 290.48 802.01" fill="#fbf3ff"/><polygon points="288.62 796.15 286.23 797.53 291.17 800.39 293.65 799.05 288.62 796.15" fill="#fbf3ff"/><polygon points="282.49 792.64 280.11 794.02 285.05 796.88 287.52 795.54 282.49 792.64" fill="#fbf3ff"/><polygon points="305.64 801.08 303.25 802.46 311.48 807.16 313.95 805.83 305.64 801.08" fill="#fbf3ff"/><polygon points="299.11 797.29 296.72 798.68 301.66 801.53 304.14 800.2 299.11 797.29" fill="#fbf3ff"/><polygon points="292.95 793.79 290.56 795.18 295.5 798.03 297.98 796.7 292.95 793.79" fill="#fbf3ff"/><polygon points="286.82 790.28 284.44 791.67 289.38 794.52 291.85 793.19 286.82 790.28" fill="#fbf3ff"/><path d="M306.4,781.05s-7.26,3.76-11.84,6-18.19,14-15.29,16.71,10,5.81,12,5.41,6.57-5.25,7.31-6.35,9.57-4.48,12.14-8.34S306.4,781.05,306.4,781.05Z" fill="#ffd0ca"/><path d="M294.58,817.5l-.14-37.62a3.67,3.67,0,0,0-1.84-3.15l-44.36-25.39a3.67,3.67,0,0,0-3.85.13h0l-1.62.95h.72a3.54,3.54,0,0,0-.72,2.09l.14,37.62a3.67,3.67,0,0,0,1.84,3.15l44.36,25.39a3.38,3.38,0,0,0,.92.24l.83.86,2.38-1.59h0A3.47,3.47,0,0,0,294.58,817.5Z" fill="url(#linear-gradient-45)"/><path d="M292.6,781l.14,37.62a3.65,3.65,0,0,1-5.47,3.18l-44.36-25.39a3.64,3.64,0,0,1-1.83-3.15l-.14-37.62a3.65,3.65,0,0,1,5.46-3.18l44.36,25.39A3.67,3.67,0,0,1,292.6,781Z" fill="url(#linear-gradient-46)"/><polygon points="255.18 806.23 244.71 800.18 244.71 795.61 255.18 801.66 255.18 806.23" fill="#fff"/><polygon points="283.74 822.74 273.26 816.69 273.26 812.12 283.74 818.17 283.74 822.74" fill="#fff"/><path d="M269.18,788.26c0,2.2-1.95,2.85-4.36,1.46s-4.35-4.29-4.35-6.49,1.95-2.84,4.35-1.45S269.18,786.07,269.18,788.26Z" fill="#fff"/><path d="M364.93,745.88c2.81-19.71,2.67-36.73-8.05-43.79-7.8-5.13-12.39,15.75-14.51,31.33-.51,3.75-4,21-4.9,25-5.22,1.25-33.51,19.64-37,23,.88,1.78,7.47,6.7,9.39,17.38,11.75-2.6,30.3-14,42.63-20.36C361.58,773.78,363.62,755.12,364.93,745.88Z" fill="url(#linear-gradient-47)"/><path d="M900.05,789.5s-13,3.54-22.77,9.4-14.43,12.14-21.06,8.58-10.05-26.65-10.05-26.65l57.35-10.34S907.16,785.1,900.05,789.5Z" fill="url(#linear-gradient-48)"/><path d="M897.27,763.9s14.23,11.9,13.2,24.48c-.56,6.86.27,9.92-.82,18.45-1,8-.18,37.3.28,47.88.23,5.29,9,11.73,13.05,14.66s2.31,6.93,3.61,8.78c2.6,3.7-8.55,6.63-14.65,1.34s-16.11-9.27-16.54-18c-.49-9.74-1.71-25.63-5.17-39.91-2.08-8.58-1.85-19.07-1.74-27,.08-5.28-19.35-22.12-20.08-23.81C866.58,766.55,897.27,763.9,897.27,763.9Z" fill="#ffd0ca"/><path d="M878,784.23c3.37,3.37,6.88,10.17,5.45,17.46-1.32,6.75-2.37,11.9-2.4,19,0,8.11-3.72,42.79-3.26,53.37.34,7.75,2.78,15.36,3.19,20,.21,2.45-1.43,5.9-1.27,8.46.28,4.52-10.69,3.72-14.06,2.13s-3-24.26-.47-30.55c-.11-8.12-2.22-21.73-5.68-36s1-33.51-2-37c-6-7.14-18.44-13.34-18.86-20.59-.53-9,8.46-23.85,17.36-19.8C859,762.05,866.9,773.1,878,784.23Z" fill="#ffd0ca"/><path d="M812.75,740.92s-8.18,22.08-.6,35.76c6.24,11.28,44.07,30.8,44.07,30.8s2.8-14.46,12.11-20.3c7.85-4.92,36.45-16.17,36.45-16.17s-2.35-4.87-10.2-11c-9.1-7.09-37.89-25.47-37.89-25.47S839.19,756.14,812.75,740.92Z" fill="url(#linear-gradient-49)"/><path d="M880.59,724a104.76,104.76,0,0,1,9.77-4.14,131.36,131.36,0,0,0-6-13.82,151.82,151.82,0,0,0-8.47-14.62c-2.82-3.74-11.16-15.68-11.16-15.68l-12.33,9.24s15.11,17.83,17.07,20.48,10,15.06,11.07,17.76A2.24,2.24,0,0,1,880.59,724Z" fill="#ffd0ca"/><path d="M923,869.37s7,3.61,10.48,7.92-.46,10.74-9.75,9.34c-4.91-.74-11.47-6-14.11-8-3.7-2.74-10.18-5.86-13.09-8.36s-1.11-8.81-1.11-8.81a13.57,13.57,0,0,0,4.57,6.33c3.89,2.9,9.06,5.91,11.35,6.71,5.76,2,9.81,3.44,12,.73S923,869.37,923,869.37Z" fill="url(#linear-gradient-50)"/><path d="M880.62,891.48s.67,6.17-1.61,9.39-8.08,3.46-11.41-2.29c-3.11-5.37-3.45-12.89-3.69-16.47a24.54,24.54,0,0,1,1.28-8,6.38,6.38,0,0,0-2.86,7.05c1.09,4.9-.29,12.11-.05,15.8.58,8.78,2.85,15.25,9.16,18.09,5.08,2.28,12.52.61,12.41-7.9A43.64,43.64,0,0,0,880.62,891.48Z" fill="url(#linear-gradient-51)"/><path d="M854.43,687.45a21,21,0,0,0,5.1-3.53,25.9,25.9,0,0,0,5.22-6.93s-4.49-16.69-17.34-21.7c-6.28-2.46-14.49,4.47-14.49,4.47Z" fill="url(#linear-gradient-52)"/><path d="M863.79,674.15l1.87,3.44s-4.26,8.27-9.84,9.86-2.7-3.53-2.7-3.53S856.53,685.36,863.79,674.15Z" fill="#fff"/><path d="M799.89,683.83c1-5.23,16.34-16.84,16.34-16.84s9.17,6.61,12.41,8.9,8.35,7.94,8.8,8.43h.07a67.5,67.5,0,0,0-4.59-17.13c-1.1-2.6,0-10.43,0-10.43s1.22-.37,3-.78c2.83,2.85,8.5,10.5,11.53,13.64s14.14,12.37,11.62,22.73a83.07,83.07,0,0,1-3.16,9.6c-1.6,4.3-1.09,12.33-.65,16.68.5,5,5.81,18,5.81,18s-10.85,13.88-23.21,13.93c-14.42.06-25.11-9.6-25.11-9.6s2.38-21.93,1.48-30.9C814.23,710,796.43,701.11,799.89,683.83Z" fill="url(#linear-gradient-53)"/><path d="M837.81,664.71s9,10.28,8.32,14.37c-2.27,2.18-7.55,6.48-7.55,6.48l-6.08-20.1Z" fill="url(#linear-gradient-54)"/><path d="M856.22,746.6a173,173,0,0,0-27-17.13c-3.11-3.54-4.31-5.72-6.28-11.18S817.8,705,817.8,705l-16.33,5.45s6.35,14.69,9.28,19.5c1.89,3.1,5,9,9.42,12.26,4.62,3.42,10.42,7.54,31.1,13.73C851.94,752.16,856.3,746.65,856.22,746.6Z" fill="#ffd0ca"/><path d="M849.09,661a25.35,25.35,0,0,1,3.47,3.68c1.79-23.16-1.53-33.26-1.53-33.26l-13.39,23.17s-.39.33-.9.81A24,24,0,0,1,849.09,661Z" fill="url(#linear-gradient-55)"/><path d="M833.91,657.9s.31,8.9,2.12,13.57c1.41,2,3.06,8.4,2.55,14.09-3-1.52-8-6.32-10.9-8.8-3.47-3-12.55-8.85-12.55-8.85l.31-26.37Z" fill="#ffa08d"/><path d="M823.29,626.59c5.83-4.44,19.64-5.86,24.67,8.4,5.29,15-8.25,33.65-15.46,30.47-4-1.78-12.54-8.09-14.93-16C814.88,640.63,818.76,630,823.29,626.59Z" fill="#ffd0ca"/><path d="M815.2,662.49a59.94,59.94,0,0,1,10.65,8.63c7.77,8.07,12.73,14.44,12.73,14.44s-2.47,1.74-11.67,2.53c-7.46-7.19-13.86-11.58-16.45-16.4C810.59,669.49,815.2,662.49,815.2,662.49Z" fill="url(#linear-gradient-56)"/><path d="M804.05,716.26c-3.19-4-6.93-8-7.68-10.4-2-6.48-5.37-16.82,4.9-24.8,8.08-6.29,15.89,9,17.51,14.66,1.76,6.16,1.35,10.65,1.35,15.08C817.75,713.93,809.69,718.57,804.05,716.26Z" fill="url(#linear-gradient-57)"/><path d="M820.47,709.18a31.47,31.47,0,0,0,.7,4.29,20.3,20.3,0,0,1-9,4.87,28.68,28.68,0,0,1-6.66,1.08l-2.37-4.31a34.51,34.51,0,0,0,9-1.48A44.44,44.44,0,0,0,820.47,709.18Z" fill="#fff"/><path d="M849.22,627c-9.69-16.78-21.46-8-21.46-8s-6.59-4-13.63,5c-3.83,4.89-8.34,23.36-3.82,33.37,1.51,3.33,6.77,10.86,18.54,12.53-2-4-.87-14,1.86-18.23,5-7.74,4.37-18.53,4.37-18.53a18.51,18.51,0,0,1,14.14,10.31C851,640.59,853.59,634.53,849.22,627Z" fill="url(#linear-gradient-58)"/><path d="M902.61,704c-.4-.27-1.1-.23-2.1.2l-21.16,12.25a17.12,17.12,0,0,0-6.78,6.16l-22.83,39.55c-.79,1.36-.83,2.28-.29,2.64l0,0,2.26,1.3,1.06-2.22,20-11.55a17.12,17.12,0,0,0,6.78-6.16l22.84-39.55c.06-.11.09-.19.14-.29l.52.5,1.79-1.62L902.63,704Z" fill="url(#linear-gradient-59)"/><path d="M902.71,705.48l-21.16,12.25a17.12,17.12,0,0,0-6.78,6.16l-22.84,39.55c-1.36,2.36-.54,3.46,1.82,2.44l21.16-12.25a17.19,17.19,0,0,0,6.78-6.16l22.83-39.55C905.89,705.55,905.07,704.46,902.71,705.48Z" fill="url(#linear-gradient-60)"/><path d="M894,726.21c-5.4,3.4-9.83,9.8-9.05,13.4s5.21.34,7.26-2.9S895.35,730.06,894,726.21Z" fill="#ffd0ca"/><path d="M850.59,742.47s4.08,1.88,6.15.37c3.34-2.43,5.59-2.47,5.59-2.47s-1.84,2.8.73,3.81,2.89,1.3,6.59.31c2.75-.73,5-.37,2.63,4.54-1.76,3.59-7.12,7.58-9.86,8.29-4.18,1.09-8.6-.48-13.33-2C841.26,752.86,850.59,742.47,850.59,742.47Z" fill="#ffd0ca"/><path d="M460.23,349c-3,2.82-5.17,6.54-7.89,9.63-4.57,5.19-10.16,7.4-16,11.22-4.06,2.67-2.61,5.24-4.84,6.72-3,2-8.18.89-13.2-.55s-9.62-6.72-15.33-8c-4.59-1-12.08-.36-16.13-1.77a10.82,10.82,0,0,1-6.88-9.33c-.58-5.76-3.46-7.64-5.51-11.41-3.14-5.76-8.78-10.25-9-15.58-.1-2.52,2.19-5.44,4.33-9.62,3.14-6.15,3.54-10.12,10.95-10.81a11.48,11.48,0,0,1,9.62,3.21c3.37,3.37,6.44,8.46,11.45,7.6,2.84-.49,7.53-6,10.21-7.1,8.13-3.36,10.81-9.58,10.49-16.62-.19-4.23,1.91-11.47.06-15.86-3.61-8.59-11.23-4.15-16.69-11.16-2.52-3.24-3.29-5.37-.07-10.57a13.78,13.78,0,0,1,8.42-6.25c3.86-.92,7,1,12.22-2.72,3.06-2.15,6.26-3.79,11.07-3.52A33.76,33.76,0,0,1,455,253.15c3.41,2.53,8.52.59,14-2.53,1.54-.87,3.38-4.93,4.35-8.25a91.92,91.92,0,0,0-153.55,40.28,25.27,25.27,0,0,0,.75,8.43c1,3.05,3.9,3.63,5.53,6.27,1,1.65,1.36,4.21,1.58,7.18.33,4.25.61,6.33,3.74,9.07s8.59,3,12.43,5.3a35.1,35.1,0,0,1,9.79,8.26c3.59,4.7,2.5,8.75-.51,13.23a14.59,14.59,0,0,1-4.42,4.26c-2.49,1.72-5.2,2.44-6.6,4.94s-1.75,5.72-4.37,7.18a27.13,27.13,0,0,1-5.46,2.35,91.89,91.89,0,0,0,165-28.66c-5,3.36-12.72,6.52-17.51,8.77C472.85,342.46,466,343.58,460.23,349Z" fill="url(#linear-gradient-61)"/><path d="M473.32,242.37c-1,3.32-2.81,7.38-4.35,8.25-5.45,3.12-10.56,5.06-14,2.53a33.76,33.76,0,0,0-17.46-6.63c-4.81-.27-8,1.37-11.07,3.52-5.24,3.69-8.36,1.8-12.22,2.72a13.78,13.78,0,0,0-8.42,6.25c-3.22,5.2-2.45,7.33.07,10.57,5.46,7,13.08,2.57,16.69,11.16,1.85,4.39-.25,11.63-.06,15.86.32,7-2.36,13.26-10.49,16.62-2.68,1.11-7.37,6.61-10.21,7.1-5,.86-8.08-4.23-11.45-7.6a11.48,11.48,0,0,0-9.62-3.21c-7.41.69-7.81,4.66-10.95,10.81-2.14,4.18-4.43,7.1-4.33,9.62.21,5.33,5.85,9.82,9,15.58,2,3.77,4.93,5.65,5.51,11.41a10.82,10.82,0,0,0,6.88,9.33c4.05,1.41,11.54.77,16.13,1.77,5.71,1.24,10.41,6.53,15.33,8s10.19,2.55,13.2.55c2.23-1.48.78-4.05,4.84-6.72,5.82-3.82,11.41-6,16-11.22,2.72-3.09,4.85-6.81,7.89-9.63,5.8-5.39,12.62-6.51,19.48-9.74,4.79-2.25,12.54-5.41,17.51-8.77a91.24,91.24,0,0,0-23.9-88.09Z" fill="url(#linear-gradient-62)"/><path d="M473.32,242.37c-1,3.32-2.81,7.38-4.35,8.25-5.45,3.12-10.56,5.06-14,2.53a33.76,33.76,0,0,0-17.46-6.63c-4.81-.27-8,1.37-11.07,3.52-5.24,3.69-8.36,1.8-12.22,2.72a13.78,13.78,0,0,0-8.42,6.25c-3.22,5.2-2.45,7.33.07,10.57,5.46,7,13.08,2.57,16.69,11.16,1.85,4.39-.25,11.63-.06,15.86.32,7-2.36,13.26-10.49,16.62-2.68,1.11-7.37,6.61-10.21,7.1-5,.86-8.08-4.23-11.45-7.6a11.48,11.48,0,0,0-9.62-3.21c-7.41.69-7.81,4.66-10.95,10.81-2.14,4.18-4.43,7.1-4.33,9.62.21,5.33,5.85,9.82,9,15.58,2,3.77,4.93,5.65,5.51,11.41a10.82,10.82,0,0,0,6.88,9.33c4.05,1.41,11.54.77,16.13,1.77,5.71,1.24,10.41,6.53,15.33,8s10.19,2.55,13.2.55c2.23-1.48.78-4.05,4.84-6.72,5.82-3.82,11.41-6,16-11.22,2.72-3.09,4.85-6.81,7.89-9.63,5.8-5.39,12.62-6.51,19.48-9.74,4.79-2.25,12.54-5.41,17.51-8.77a91.24,91.24,0,0,0-23.9-88.09Z" fill="url(#linear-gradient-63)"/><path d="M342.06,349.59c1.4-2.5,4.11-3.22,6.6-4.94a14.59,14.59,0,0,0,4.42-4.26c3-4.48,4.1-8.53.51-13.23a35.1,35.1,0,0,0-9.79-8.26c-3.84-2.26-9.17-2.45-12.43-5.3s-3.41-4.82-3.74-9.07c-.22-3-.56-5.53-1.58-7.18-1.63-2.64-4.53-3.22-5.53-6.27a25.27,25.27,0,0,1-.75-8.43,91.32,91.32,0,0,0,12.46,76.47,27.13,27.13,0,0,0,5.46-2.35C340.31,355.31,340.7,352,342.06,349.59Z" fill="url(#linear-gradient-64)"/><path d="M342.06,349.59c1.4-2.5,4.11-3.22,6.6-4.94a14.59,14.59,0,0,0,4.42-4.26c3-4.48,4.1-8.53.51-13.23a35.1,35.1,0,0,0-9.79-8.26c-3.84-2.26-9.17-2.45-12.43-5.3s-3.41-4.82-3.74-9.07c-.22-3-.56-5.53-1.58-7.18-1.63-2.64-4.53-3.22-5.53-6.27a25.27,25.27,0,0,1-.75-8.43,91.32,91.32,0,0,0,12.46,76.47,27.13,27.13,0,0,0,5.46-2.35C340.31,355.31,340.7,352,342.06,349.59Z" fill="url(#linear-gradient-65)"/><path d="M344.94,276.72c-.56-1.66-3.88-4.54-5.24-5.72s-3.73-.2-5.72-.19c-1.74,0-2.24-2.62-4.57-.2-2.61,2.72-2.58,5.12-1.06,9.32,1.29,3.54,2.46,2.49,5,4.85,2.7,2.53.45,7,1.61,8.86.62,1,.71,2.87,1.65,3.42,1.15.67,2.82.15,5-1.22,2.29-1.47,4.58-.25,7.09-1.17,2.88-1,3.64-2.79,4.39-6,.85-3.61-1-4.35-3.13-5.65C347.27,281.38,345.11,277.24,344.94,276.72Z" fill="url(#linear-gradient-66)"/><path d="M452.32,330.61c-25.27,43.77-73.45,62.64-108.53,42.39-25.3-24.37-39.52-69.14-15.31-111.71,25-43.93,78.36-55.85,118-37.6C471.11,247.79,474.43,292.31,452.32,330.61Z" fill="#fff" opacity="0.1"/><path d="M419.68,304.48c-16.26,28.17-47.74,40.43-70.31,27.4s-27.69-46.43-11.43-74.59,47.74-40.43,70.32-27.4S436,276.32,419.68,304.48Z" fill="#fff" opacity="0.1"/><path d="M395.73,278.91c-9.08,15.73-26.65,22.58-39.26,15.3s-15.46-25.92-6.38-41.65,26.66-22.58,39.26-15.3S404.82,263.19,395.73,278.91Z" fill="#fff" opacity="0.1"/><polygon points="1024.57 443.31 909.71 509.62 909.71 649.83 1024.57 583.52 1024.57 443.31" opacity="0.6" fill="url(#linear-gradient-67)"/><polygon points="977.32 602.68 918.64 636.56 918.64 572.73 977.32 538.85 977.32 602.68" opacity="0.5" fill="url(#linear-gradient-68)"/><polygon points="984.93 474.29 984.93 523.01 1016.87 504.57 1016.87 455.85 984.93 474.29" opacity="0.5" fill="url(#linear-gradient-69)"/><polygon points="984.93 537.95 984.93 596.92 1016.87 578.48 1016.87 519.51 984.93 537.95" opacity="0.5" fill="url(#linear-gradient-70)"/><polygon points="977.32 487.32 918.64 521.19 918.64 514.73 977.32 480.85 977.32 487.32" opacity="0.5" fill="url(#linear-gradient-71)"/><polygon points="977.32 500.69 918.64 534.57 918.64 528.1 977.32 494.22 977.32 500.69" opacity="0.5" fill="url(#linear-gradient-72)"/><polygon points="977.32 514.51 918.64 548.39 918.64 541.92 977.32 508.04 977.32 514.51" opacity="0.5" fill="url(#linear-gradient-73)"/><polygon points="977.32 527.88 918.64 561.76 918.64 555.29 977.32 521.41 977.32 527.88" opacity="0.5" fill="url(#linear-gradient-74)"/><path d="M298.54,474.53c0,20.73,12.61,44.82,28.16,53.8s28.15-.56,28.15-21.29-12.6-44.82-28.15-53.79S298.54,453.8,298.54,474.53Z" opacity="0.5" fill="url(#linear-gradient-75)"/><path d="M312.46,483.9c0,8.78,5.34,19,11.93,22.79s11.93-.23,11.93-9-5.34-19-11.93-22.79S312.46,475.11,312.46,483.9Z" opacity="0.5" fill="url(#linear-gradient-76)"/><path d="M694,184.57c0,14.08-8.56,30.44-19.12,36.53s-19.12-.37-19.12-14.45,8.56-30.44,19.12-36.53S694,170.49,694,184.57Z" opacity="0.5" fill="url(#linear-gradient-77)"/><path d="M684.57,190.93c0,6-3.63,12.9-8.1,15.48s-8.1-.16-8.1-6.12,3.62-12.9,8.1-15.48S684.57,185,684.57,190.93Z" fill="#fff" opacity="0.5"/><polygon points="567.84 366.87 567.84 398.81 616.74 370.57 616.74 338.64 567.84 366.87" opacity="0.6" fill="url(#linear-gradient-78)"/><polygon points="608.26 365.86 608.26 386.71 640.2 368.27 640.2 347.42 608.26 365.86" opacity="0.5" fill="url(#linear-gradient-79)"/><polygon points="299.57 312.57 388.64 364.29 388.64 470.39 299.57 418.91 299.57 312.57" opacity="0.6" fill="url(#linear-gradient-80)"/><polygon points="303.35 319.86 384.11 366.77 384.11 373.51 303.35 326.82 303.35 319.86" opacity="0.5" fill="url(#linear-gradient-81)"/><polygon points="324.44 347.61 324.44 351.59 303.35 339.4 303.35 335.36 324.44 347.61" opacity="0.5" fill="url(#linear-gradient-82)"/><polygon points="382.42 457.64 382.42 461.62 361.33 449.42 361.33 445.39 382.42 457.64" opacity="0.5" fill="url(#linear-gradient-83)"/><polygon points="318.37 353.4 318.37 357.4 303.35 348.71 303.35 344.68 318.37 353.4" opacity="0.5" fill="url(#linear-gradient-84)"/><path d="M313.86,384.84c.54,21.22,14,43.64,30,50.09s28.56-5.54,28-26.76-14-43.64-30-50.09S313.31,363.62,313.86,384.84Z" opacity="0.5" fill="url(#linear-gradient-85)"/><path d="M329.49,391.56c.23,9,5.93,18.51,12.72,21.24s12.11-2.35,11.88-11.35-5.93-18.51-12.72-21.24S329.26,382.55,329.49,391.56Z" fill="#fff" opacity="0.5"/><path d="M138.13,675c0,12,7.28,25.87,16.25,31s16.26-.32,16.26-12.28-7.28-25.87-16.26-31.06S138.13,663,138.13,675Z" opacity="0.5" fill="url(#linear-gradient-86)"/><polygon points="70.47 592.67 229.25 684.34 229.25 545.43 70.47 453.76 70.47 592.67" opacity="0.6" fill="url(#linear-gradient-87)"/><polygon points="106.79 600.98 74.75 582.48 74.75 588.76 106.79 607.26 106.79 600.98" fill="#fff" opacity="0.6"/><polygon points="106.79 588.59 74.75 570.09 74.75 576.37 106.79 594.87 106.79 588.59" fill="#fff" opacity="0.6"/><polygon points="106.79 575.64 74.75 557.14 74.75 563.42 106.79 581.92 106.79 575.64" fill="#fff" opacity="0.6"/><polygon points="106.79 563.25 74.75 544.75 74.75 551.03 106.79 569.53 106.79 563.25" fill="#fff" opacity="0.6"/><polygon points="106.79 550.3 74.75 531.8 74.75 538.08 106.79 556.58 106.79 550.3" fill="#fff" opacity="0.6"/><polygon points="106.79 537.91 74.75 519.41 74.75 525.69 106.79 544.19 106.79 537.91" fill="#fff" opacity="0.6"/><polygon points="106.79 524.96 74.75 506.46 74.75 512.73 106.79 531.24 106.79 524.96" fill="#fff" opacity="0.6"/><polygon points="106.79 512.57 74.75 494.07 74.75 500.35 106.79 518.85 106.79 512.57" fill="#fff" opacity="0.6"/><polygon points="106.79 483.19 74.75 464.69 74.75 481.44 106.79 499.94 106.79 483.19" opacity="0.5" fill="url(#linear-gradient-88)"/><polygon points="223.39 550.92 191.34 532.42 191.34 549.16 223.39 567.66 223.39 550.92" opacity="0.5" fill="url(#linear-gradient-89)"/><path d="M160.62,527.22l-.08,0c-2.49-1.38-4.5.16-4.5,3.5a10.26,10.26,0,0,0,.37,2.6l-15.89,10.83-30.82-17.8v3.13l30.94,17.87,16.8-11.46a9,9,0,0,0,3.18,3.57c2.53,1.46,4.58-.09,4.58-3.46S163.15,528.68,160.62,527.22Z" opacity="0.5" fill="url(#linear-gradient-90)"/><polygon points="211 567.21 211 583.96 223.39 591.11 223.39 574.37 211 567.21" fill="#fff" opacity="0.6"/><polygon points="211 592.25 211 609 223.39 616.15 223.39 599.4 211 592.25" fill="#fff" opacity="0.6"/><polygon points="211 617.29 211 634.04 223.39 641.19 223.39 624.44 211 617.29" fill="#fff" opacity="0.6"/><polygon points="211 642.33 211 659.08 223.39 666.23 223.39 649.48 211 642.33" fill="#fff" opacity="0.6"/><polygon points="176.64 523.91 144.6 505.41 144.6 542.73 176.64 561.24 176.64 523.91" opacity="0.5" fill="url(#linear-gradient-91)"/><polygon points="179.46 589.92 147.41 571.41 147.41 608.74 179.46 627.24 179.46 589.92" opacity="0.5" fill="url(#linear-gradient-92)"/><path d="M163.43,590.87l-.11-.06a4.78,4.78,0,0,0-2.57-.67l-16-29.68-.18-.34L109.7,539.8v3.14l32.88,19.14,15.77,29.31a6.68,6.68,0,0,0-1.26,4.27c0,4.67,2.84,10.1,6.34,12.12s6.34-.13,6.34-4.8S166.94,592.89,163.43,590.87Z" fill="#fff" opacity="0.6"/><path d="M160.62,530.8l0,0c-1-.57-1.86.07-1.86,1.45h0a4.57,4.57,0,0,0,1.89,3.62c1,.6,1.89,0,1.89-1.44A4.51,4.51,0,0,0,160.62,530.8Z" fill="#fff" opacity="0.6"/><path d="M188.79,565.68l-.17-.08c-5.07-2.82-9.16.34-9.16,7.13h0c0,6.87,4.17,14.86,9.33,17.83s9.33-.18,9.33-7S193.94,568.66,188.79,565.68Z" fill="#fff" opacity="0.6"/><path d="M163.43,595.58l-.05,0c-1.53-.85-2.76.1-2.76,2.15h0a6.76,6.76,0,0,0,2.81,5.38c1.56.89,2.82-.06,2.82-2.13A6.71,6.71,0,0,0,163.43,595.58Z" fill="#2e57aa" opacity="0.5"/><path d="M188.79,570.74l-.1,0c-3-1.67-5.44.2-5.44,4.23h0c0,4.07,2.48,8.81,5.54,10.57s5.53-.11,5.53-4.18S191.84,572.51,188.79,570.74Z" opacity="0.5" fill="url(#linear-gradient-93)"/><g opacity="0.5"><path d="M187.34,589.58v54.77l-47.25-27.88.23-23.05-30.64-15.29v3.36l27.61,13.78-.23,22.91,53.3,31.45V591.29a12.14,12.14,0,0,1-1.57-.73A13.68,13.68,0,0,1,187.34,589.58Z" opacity="0.5" fill="url(#linear-gradient-94)"/></g><path d="M241.07,759.83,160.6,688.67c0-.09,0-.15,0-.24A17,17,0,0,0,154.75,676V641.33L152,639.77v34.84c-3-.71-5.19,1.58-5.19,5.87,0,5.07,3.09,11,6.89,13.16,2.82,1.63,5.23.76,6.3-1.86l80.91,71.56Z" opacity="0.5" fill="url(#linear-gradient-95)"/><path d="M985.21,648.77c0,12-7.28,25.87-16.25,31.05s-16.25-.32-16.25-12.29,7.27-25.87,16.25-31S985.21,636.8,985.21,648.77Z" opacity="0.5" fill="url(#linear-gradient-96)"/><path d="M898.83,717.78l63.91-56.52c0-.08,0-.15,0-.23a17.06,17.06,0,0,1,5.87-12.44V615.83l2.72-1.56V647.2c3-.7,5.19,1.59,5.19,5.88,0,5.07-3.09,11-6.89,13.15-2.82,1.63-5.23.76-6.3-1.85L895.36,724Z" opacity="0.5" fill="url(#linear-gradient-97)"/><polygon points="642.07 132.55 557.5 181.66 557.5 315.93 642.07 267.05 642.07 132.55" opacity="0.6" fill="url(#linear-gradient-98)"/><polygon points="635.53 144.23 595.46 167.5 595.46 207.27 635.53 184.1 635.53 144.23" opacity="0.5" fill="url(#linear-gradient-99)"/><polygon points="635.53 191.88 595.46 215.15 595.46 254.91 635.53 231.75 635.53 191.88" opacity="0.5" fill="url(#linear-gradient-100)"/><polygon points="635.53 242.22 595.46 265.49 595.46 283.52 635.53 260.36 635.53 242.22" opacity="0.5" fill="url(#linear-gradient-101)"/><path d="M584.06,187.79c-.15,6-3.94,12.32-8.46,14.14s-8.06-1.56-7.91-7.55,3.95-12.32,8.47-14.14S584.22,181.8,584.06,187.79Z" opacity="0.5" fill="url(#linear-gradient-102)"/><path d="M584.06,218.52c-.15,6-3.94,12.32-8.46,14.14s-8.06-1.56-7.91-7.55,3.95-12.32,8.47-14.14S584.22,212.53,584.06,218.52Z" opacity="0.5" fill="url(#linear-gradient-103)"/><path d="M579.71,220.27c-.07,2.81-1.85,5.78-4,6.63s-3.77-.73-3.7-3.54,1.85-5.78,4-6.63S579.78,217.46,579.71,220.27Z" fill="#fff" opacity="0.6"/><path d="M584.06,249.25c-.15,6-3.94,12.32-8.46,14.14s-8.06-1.56-7.91-7.55,3.95-12.32,8.47-14.14S584.22,243.26,584.06,249.25Z" opacity="0.5" fill="url(#linear-gradient-104)"/><path d="M584.06,280c-.15,6-3.94,12.31-8.46,14.13s-8.06-1.56-7.91-7.55,3.95-12.32,8.47-14.14S584.22,274,584.06,280Z" opacity="0.5" fill="url(#linear-gradient-105)"/><path d="M610.31,317.24c0,7.75-4.71,16.75-10.52,20.1s-10.53-.2-10.53-7.95,4.71-16.75,10.53-20.11S610.31,309.49,610.31,317.24Z" opacity="0.5" fill="url(#linear-gradient-106)"/><path d="M689.93,305.07c0,4.44-2.7,9.59-6,11.51s-6-.11-6-4.55,2.7-9.6,6-11.52S689.93,300.63,689.93,305.07Z" fill="#fff" opacity="0.5"/><path d="M683.91,304.78a6.12,6.12,0,0,0-2.22,2.66l-77.44,14.42a8.86,8.86,0,0,0,.17-1.23c0-2.77-1.39-4.23-3.28-3.92v-26l-2.71,1.57v26a11.6,11.6,0,0,0-3.28,7.72c0,3.42,2.07,5,4.64,3.51a9.87,9.87,0,0,0,3.68-4.73L681,310.34s0,.09,0,.13c0,2.19,1.33,3.2,3,2.25a7.14,7.14,0,0,0,3-5.69C686.88,304.84,685.55,303.83,683.91,304.78Z" opacity="0.5" fill="url(#linear-gradient-107)"/><polygon points="173.85 248.71 272.92 306.25 272.92 497.55 173.85 440.29 173.85 248.71" opacity="0.6" fill="url(#linear-gradient-108)"/><polygon points="181.38 266.18 260.46 312.11 260.46 323.57 181.38 277.86 181.38 266.18" opacity="0.5" fill="url(#linear-gradient-109)"/><polygon points="220.08 311.49 260.46 334.94 260.46 339.33 220.08 316 220.08 311.49" opacity="0.5" fill="url(#linear-gradient-110)"/><polygon points="227.85 325.86 260.46 344.8 260.46 349.19 227.85 330.34 227.85 325.86" opacity="0.5" fill="url(#linear-gradient-111)"/><polygon points="227.85 335.64 260.46 354.57 260.46 358.97 227.85 340.12 227.85 335.64" opacity="0.5" fill="url(#linear-gradient-112)"/><polygon points="220.08 359.21 260.46 382.65 260.46 387.05 220.08 363.71 220.08 359.21" opacity="0.5" fill="url(#linear-gradient-113)"/><polygon points="227.85 373.58 260.46 392.52 260.46 396.91 227.85 378.06 227.85 373.58" opacity="0.5" fill="url(#linear-gradient-114)"/><polygon points="227.85 383.35 260.46 402.29 260.46 406.69 227.85 387.83 227.85 383.35" opacity="0.5" fill="url(#linear-gradient-115)"/><polygon points="220.08 406.85 260.46 430.3 260.46 434.69 220.08 411.36 220.08 406.85" opacity="0.5" fill="url(#linear-gradient-116)"/><polygon points="227.85 421.22 260.46 440.16 260.46 444.55 227.85 425.7 227.85 421.22" opacity="0.5" fill="url(#linear-gradient-117)"/><polygon points="227.85 431 260.46 449.94 260.46 454.33 227.85 435.48 227.85 431" opacity="0.5" fill="url(#linear-gradient-118)"/><polygon points="216.33 309.25 216.33 346.78 184.57 328.42 184.57 290.8 216.33 309.25" opacity="0.5" fill="url(#linear-gradient-119)"/><polygon points="216.33 355.97 216.33 393.51 184.57 375.15 184.57 337.53 216.33 355.97" opacity="0.5" fill="url(#linear-gradient-120)"/><polygon points="216.33 402.98 216.33 440.52 184.57 422.16 184.57 384.54 216.33 402.98" opacity="0.5" fill="url(#linear-gradient-121)"/><polygon points="216.33 449.71 216.33 456.99 184.57 438.63 184.57 431.26 216.33 449.71" opacity="0.5" fill="url(#linear-gradient-122)"/><path d="M248.78,529.25c0,9.11,5.53,19.69,12.36,23.63s12.37-.24,12.37-9.35S268,523.85,261.14,519.9,248.78,520.15,248.78,529.25Z" opacity="0.5" fill="url(#linear-gradient-123)"/><path d="M389.3,609.9c0,5.07,3.09,11,6.89,13.17s6.89-.14,6.89-5.21-3.08-11-6.89-13.17S389.3,604.82,389.3,609.9Z" opacity="0.5" fill="url(#linear-gradient-124)"/><path d="M396.19,609a2.09,2.09,0,0,0-3.21.82L268,540.28c-.18-4.65-2.82-9.8-6.19-12.18v-37l-2.71-1.57V526.9c-2.8-.45-4.85,1.81-4.85,5.93,0,5.08,3.09,11,6.89,13.17,3.12,1.8,5.73.53,6.58-2.77l125,69.55c.33,2.41,1.73,4.93,3.5,6,2,1.17,3.65-.07,3.65-2.75S398.2,610.18,396.19,609Z" opacity="0.5" fill="url(#linear-gradient-125)"/></svg>