<svg xmlns="http://www.w3.org/2000/svg" viewBox="0 0 750 500"><title>home_peeps</title><g id="Background_Complete" data-name="Background Complete"><polygon points="170.05 396.04 170.05 444.25 240.56 444.25 318.32 444.25 318.32 396.04 170.05 396.04" fill="#f5f5f5"/><polygon points="163.83 382.56 163.83 396.04 323.51 396.04 323.51 382.56 240.56 382.56 163.83 382.56" fill="#e0e0e0"/><polygon points="243.67 444.25 318.32 444.25 318.32 396.04 323.51 396.04 323.51 382.56 240.56 382.56 240.56 394.79 243.67 444.25" fill="#e0e0e0"/><rect x="190.79" y="403.81" width="30.07" height="7.26" fill="#e0e0e0"/><rect x="186.92" y="420.14" width="38.61" height="15.33" fill="#fff"/><polygon points="619.11 309.16 585.04 446.95 594.01 446.95 628.92 309.16 619.11 309.16" fill="#f5f5f5"/><polygon points="683.3 309.16 715.18 446.95 706.21 446.95 673.49 309.16 683.3 309.16" fill="#f5f5f5"/><polygon points="656.66 444.92 646.22 444.92 644.66 286.78 655.1 286.78 656.66 444.92" fill="#f5f5f5"/><rect x="576.21" y="193.91" width="147.34" height="94.4" fill="#ebebeb"/><rect x="612.95" y="307.72" width="73.95" height="9.12" fill="#f5f5f5"/><path d="M586,276a9.39,9.39,0,0,1,.1,1.73h-.2c-.15-4.62-.26-19.91-.26-38,0-10.94.08-20.83.11-28.12,0-3.52.08-6.41.11-8.52,0-.94,0-1.71.07-2.32a3.7,3.7,0,0,1,.07-.81,3.25,3.25,0,0,1,.08.81c0,.61,0,1.38.07,2.32,0,2.11.06,5,.11,8.52,0,7.29.07,17.18.11,28.12,0,18.13-.11,33.42-.27,38h-.2A10.74,10.74,0,0,1,586,276Z" fill="#f5f5f5"/><path d="M597,276a10.74,10.74,0,0,1,.1,1.73h-.2c-.15-4.62-.26-19.91-.26-38,0-10.94.08-20.83.1-28.12,0-3.52.09-6.41.12-8.52,0-.94,0-1.71.07-2.32a3,3,0,0,1,.07-.81,3.7,3.7,0,0,1,.07.81c0,.61,0,1.38.07,2.32,0,2.11.07,5,.12,8.52,0,7.29.06,17.18.1,28.12,0,18.13-.11,33.42-.26,38h-.2A9.39,9.39,0,0,1,597,276Z" fill="#f5f5f5"/><path d="M607.94,276a12.56,12.56,0,0,1,.1,1.73h-.2c-.16-4.62-.27-19.91-.27-38,0-10.94.08-20.83.11-28.12.05-3.52.09-6.41.11-8.52,0-.94.05-1.71.07-2.32a3.25,3.25,0,0,1,.08-.81,3.7,3.7,0,0,1,.07.81c0,.61,0,1.38.07,2.32,0,2.11.06,5,.11,8.52,0,7.29.07,17.18.11,28.12,0,18.13-.11,33.42-.26,38h-.21A9.79,9.79,0,0,1,607.94,276Z" fill="#f5f5f5"/><path d="M618.9,276a9.39,9.39,0,0,1,.1,1.73h-.2c-.15-4.62-.26-19.91-.26-38,0-10.94.08-20.83.11-28.12,0-3.52.08-6.41.11-8.52,0-.94,0-1.71.07-2.32a3.7,3.7,0,0,1,.07-.81,3.25,3.25,0,0,1,.08.81c0,.61,0,1.38.06,2.32,0,2.11.07,5,.12,8.52,0,7.29.06,17.18.1,28.12,0,18.13-.11,33.42-.26,38h-.2A10.74,10.74,0,0,1,618.9,276Z" fill="#f5f5f5"/><path d="M629.87,276a10.74,10.74,0,0,1,.1,1.73h-.2c-.15-4.62-.27-19.91-.27-38,0-10.94.08-20.83.11-28.12,0-3.52.09-6.41.12-8.52,0-.94,0-1.71.06-2.32a3.25,3.25,0,0,1,.08-.81,3.7,3.7,0,0,1,.07.81c0,.61,0,1.38.07,2.32,0,2.11.07,5,.11,8.52,0,7.29.07,17.18.11,28.12,0,18.13-.11,33.42-.26,38h-.2A9.39,9.39,0,0,1,629.87,276Z" fill="#f5f5f5"/><path d="M640.83,276a9.39,9.39,0,0,1,.1,1.73h-.2c-.15-4.62-.26-19.91-.26-38,0-10.94.08-20.83.11-28.12,0-3.52.08-6.41.11-8.52,0-.94,0-1.71.07-2.32a3.7,3.7,0,0,1,.07-.81,3.25,3.25,0,0,1,.08.81c0,.61,0,1.38.07,2.32,0,2.11.06,5,.11,8.52,0,7.29.07,17.18.11,28.12,0,18.13-.11,33.42-.27,38h-.2A10.74,10.74,0,0,1,640.83,276Z" fill="#f5f5f5"/><path d="M651.8,276a10.74,10.74,0,0,1,.1,1.73h-.2c-.15-4.62-.26-19.91-.26-38,0-10.94.08-20.83.1-28.12.05-3.52.09-6.41.12-8.52,0-.94.05-1.71.07-2.32a3,3,0,0,1,.07-.81,3.7,3.7,0,0,1,.07.81c0,.61,0,1.38.07,2.32,0,2.11.07,5,.12,8.52,0,7.29.06,17.18.1,28.12,0,18.13-.11,33.42-.26,38h-.2A9.39,9.39,0,0,1,651.8,276Z" fill="#f5f5f5"/><path d="M662.77,276a12.56,12.56,0,0,1,.1,1.73h-.2c-.16-4.62-.27-19.91-.27-38,0-10.94.08-20.83.11-28.12,0-3.52.09-6.41.11-8.52,0-.94,0-1.71.07-2.32a3.25,3.25,0,0,1,.08-.81,3.7,3.7,0,0,1,.07.81c0,.61,0,1.38.07,2.32,0,2.11.06,5,.11,8.52,0,7.29.07,17.18.11,28.12,0,18.13-.11,33.42-.26,38h-.2A9.39,9.39,0,0,1,662.77,276Z" fill="#f5f5f5"/><path d="M673.73,276a9.39,9.39,0,0,1,.1,1.73h-.2c-.15-4.62-.26-19.91-.26-38,0-10.94.08-20.83.11-28.12,0-3.52.08-6.41.11-8.52,0-.94,0-1.71.07-2.32a3.7,3.7,0,0,1,.07-.81,3.25,3.25,0,0,1,.08.81c0,.61,0,1.38.06,2.32,0,2.11.07,5,.12,8.52,0,7.29.06,17.18.11,28.12,0,18.13-.12,33.42-.27,38h-.2A10.74,10.74,0,0,1,673.73,276Z" fill="#f5f5f5"/><path d="M684.7,276a10.74,10.74,0,0,1,.1,1.73h-.2c-.15-4.62-.27-19.91-.27-38,0-10.94.08-20.83.11-28.12,0-3.52.09-6.41.12-8.52,0-.94.05-1.71.06-2.32a3.25,3.25,0,0,1,.08-.81,3.7,3.7,0,0,1,.07.81c0,.61,0,1.38.07,2.32,0,2.11.07,5,.11,8.52,0,7.29.07,17.18.11,28.12,0,18.13-.11,33.42-.26,38h-.2A9.39,9.39,0,0,1,684.7,276Z" fill="#f5f5f5"/><path d="M695.66,276a9.79,9.79,0,0,1,.11,1.73h-.21c-.15-4.62-.26-19.91-.26-38,0-10.94.08-20.83.11-28.12.05-3.52.08-6.41.11-8.52,0-.94.05-1.71.07-2.32a3.7,3.7,0,0,1,.07-.81,3.25,3.25,0,0,1,.08.81c0,.61,0,1.38.07,2.32,0,2.11.06,5,.11,8.52,0,7.29.07,17.18.11,28.12,0,18.13-.11,33.42-.26,38h-.21A12.56,12.56,0,0,1,695.66,276Z" fill="#f5f5f5"/><path d="M706.63,276a10.74,10.74,0,0,1,.1,1.73h-.2c-.15-4.62-.26-19.91-.26-38,0-10.94.08-20.83.1-28.12,0-3.52.09-6.41.12-8.52,0-.94,0-1.71.07-2.32a3.7,3.7,0,0,1,.07-.81,3,3,0,0,1,.07.81c0,.61,0,1.38.07,2.32,0,2.11.07,5,.12,8.52,0,7.29.06,17.18.1,28.12,0,18.13-.11,33.42-.26,38h-.2A10.74,10.74,0,0,1,706.63,276Z" fill="#f5f5f5"/><path d="M717.6,276a12.56,12.56,0,0,1,.1,1.73h-.2c-.16-4.62-.27-19.91-.27-38,0-10.94.08-20.83.11-28.12,0-3.52.09-6.41.11-8.52,0-.94.06-1.71.07-2.32a3.25,3.25,0,0,1,.08-.81,3.7,3.7,0,0,1,.07.81c0,.61,0,1.38.07,2.32,0,2.11.07,5,.11,8.52,0,7.29.07,17.18.11,28.12,0,18.13-.11,33.42-.26,38h-.2A9.39,9.39,0,0,1,717.6,276Z" fill="#f5f5f5"/></g><g id="Floor"><path d="M692.32,444.25c0,.14-142.08.26-317.3.26s-317.34-.12-317.34-.26S199.73,444,375,444,692.32,444.11,692.32,444.25Z" fill="#263238"/></g><g id="Screen"><rect x="113.96" y="101.82" width="479.68" height="29.57" fill="#e0e0e0"/><path d="M593.64,340.14c0-1.53-.07-91.36-.19-238.32l.19.19L114,102.08h0l.26-.26c0,84,0,164.63,0,238.32l-.25-.24,479.68.24L114,340.39h-.24v-.25c0-73.69,0-154.32,0-238.32v-.26h.3l479.64.06h.2v.2C593.72,248.78,593.64,338.61,593.64,340.14Z" fill="#263238"/><rect x="151.9" y="191.27" width="395.99" height="57.88" rx="5.51" ry="5.51" fill="#fafafa"/><path d="M542.38,249.15a5.88,5.88,0,0,0,2.24-.51,5.46,5.46,0,0,0,2.17-1.78,5.58,5.58,0,0,0,1.05-3.69c0-6,0-14.81-.05-26.17q0-8.53,0-18.92a11.09,11.09,0,0,0-.16-2.58,5.4,5.4,0,0,0-3.39-3.77,5.8,5.8,0,0,0-1.31-.3c-.45,0-.92,0-1.39,0H529.84l-54.84,0-317.56.08a5.24,5.24,0,0,0-5.27,5.28V242.5a8.6,8.6,0,0,0,.24,2.71,5.31,5.31,0,0,0,3.73,3.52,11.55,11.55,0,0,0,2.72.16h24.91l84.31,0,142.77.05,96.25.09,26.17,0,6.8,0,2.32,0-2.32,0-6.8,0-26.17.05-96.25.08-142.77.06H157.45a6.47,6.47,0,0,1-1.45-.18,5.82,5.82,0,0,1-4.09-3.86,9.1,9.1,0,0,1-.26-2.87V234q0-11.33,0-22.81V196.81a5.88,5.88,0,0,1,.77-2.9,5.82,5.82,0,0,1,5-2.9l317.56.08,54.84,0h11.68c.47,0,.93,0,1.41,0a5.89,5.89,0,0,1,1.38.32A5.61,5.61,0,0,1,546.6,193a5.55,5.55,0,0,1,1.25,2.4,10.79,10.79,0,0,1,.17,2.64q0,10.38,0,18.92c0,11.36,0,20.18,0,26.17a5.66,5.66,0,0,1-1.08,3.74,5.57,5.57,0,0,1-2.22,1.78,5.78,5.78,0,0,1-1.68.44Z" fill="#263238"/><path d="M255.45,306.92H170.22a21.17,21.17,0,0,1-21.17-21.18h0a21.17,21.17,0,0,1,21.17-21.17h85.23a21.17,21.17,0,0,1,21.18,21.17h0A21.18,21.18,0,0,1,255.45,306.92Z" fill="#131a22"/><rect x="176.39" y="207.23" width="1.64" height="27" fill="#8c62f9"/><circle cx="131.52" cy="115.44" r="4.76" fill="#fff"/><circle cx="149.05" cy="115.44" r="4.76" fill="#fff"/><circle cx="166.58" cy="115.44" r="4.76" fill="#fff"/><text transform="translate(154.54 180.39)" font-size="20" font-family="Inter-SemiBold, Inter" font-weight="700">Idea</text><text transform="translate(170.05 291.27)" font-size="20" fill="#fff" font-family="Inter-Bold, Inter" font-weight="700" letter-spacing="-0.02em">Continue</text><text transform="translate(186.04 227.56)" font-size="20" fill="#f0f0f0" font-family="Inter-SemiBold, Inter" font-weight="700">En<tspan x="24.35" y="0" letter-spacing="-0.01em">t</tspan><tspan x="31.83" y="0">er </tspan><tspan x="56.58" y="0" letter-spacing="-0.02em">y</tspan><tspan x="67.73" y="0">our idea he</tspan><tspan x="175.19" y="0" letter-spacing="-0.02em">r</tspan><tspan x="182.67" y="0">e</tspan></text></g><g id="Character"><path d="M485.48,276.27l7.74,8.31s32.39,54.32,37,57.81,12.35,7.5,17,6.88,16.94-9,16.94-9l-10.74-33L541.2,304l-33-38.24Z" fill="#ffbe9d"/><path d="M491.68,282.82c-2.76-3.32-9.85-10.13-9.85-10.13l-3-3.19a5.85,5.85,0,0,0-.33.82,3.29,3.29,0,0,1-.76,1.47,2.59,2.59,0,0,1-2.95,0,6.23,6.23,0,0,1-.22-10.76,4.48,4.48,0,0,1,.82-1.61c2.53-3.26,8.48-2.82,8.48-2.82l-.89-1.27s-4.05-2.52-10.79,1.75a4.87,4.87,0,0,1-3.4.74,2.49,2.49,0,0,1-1.81-1.1c-1-1.67-.05-2.8,4.12-5.52s9.09-4,12.21-2.82a32.63,32.63,0,0,1,4.28,1.82s-7.36-11.88-7.8-12.65c-1.26-2.23-1.32-4.66.09-5.65.9-.63,2.5-.77,4.05,1.78,1.33,2.21,17.92,23.07,17.92,23.07l6.8,9.65Z" fill="#ffbe9d"/><path d="M506.2,266.74c-1,1.1-2.88,1-4.23.27s-2.42-1.83-3.72-2.62c-3.87-2.37-9.17-1.4-12.93-3.95-.52-.36-1.05-1-.82-1.55s.93-.65,1.52-.67l15-.62" fill="#ffbe9d"/><path d="M501,257.6a6,6,0,0,0-1.63-.1c-1.05,0-2.56,0-4.44.05l-6.57.17-1.9.07a2.93,2.93,0,0,0-2.17.6,1.27,1.27,0,0,0-.16,1.41,2.54,2.54,0,0,0,.82.92,9.21,9.21,0,0,0,2,1c2.79,1.08,5.57,1.12,7.92,1.72a11.05,11.05,0,0,1,3.17,1.2c.91.53,1.68,1.21,2.46,1.75a5.32,5.32,0,0,0,4.32,1.22c1.09-.29,1.42-.91,1.38-.91a4.34,4.34,0,0,1-1.45.58,5.12,5.12,0,0,1-3.89-1.37,29.8,29.8,0,0,0-2.45-1.88,11.9,11.9,0,0,0-3.35-1.36c-2.44-.65-5.22-.74-7.79-1.74a9.41,9.41,0,0,1-1.78-.94c-.51-.35-.78-.87-.53-1.09s.93-.31,1.57-.33l1.9-.1,6.57-.36c1.87-.11,3.38-.22,4.42-.32A5.77,5.77,0,0,0,501,257.6Z" fill="#eb996e"/><path d="M484.08,256.52a6.47,6.47,0,0,0-2.18-1.82,4.85,4.85,0,0,0-3-.24,12,12,0,0,0-3.5,1.5,20.1,20.1,0,0,1-3.55,1.75,6.3,6.3,0,0,1-3.27.28,2.45,2.45,0,0,1-1.74-1.36,1.48,1.48,0,0,1-.18-.79s.12.27.37.69a2.3,2.3,0,0,0,1.63,1.07,6.32,6.32,0,0,0,3-.37,21.53,21.53,0,0,0,3.43-1.76,12,12,0,0,1,3.69-1.51,4.94,4.94,0,0,1,3.25.39,4.5,4.5,0,0,1,1.67,1.44A1.82,1.82,0,0,1,484.08,256.52Z" fill="#eb996e"/><path d="M479.33,236.64a16.44,16.44,0,0,1,1.48,2.36l3.41,5.74,3.5,5.7a15.7,15.7,0,0,1,1.4,2.41,12.94,12.94,0,0,1-1.72-2.19c-1-1.4-2.3-3.39-3.65-5.63s-2.5-4.32-3.28-5.85A11.48,11.48,0,0,1,479.33,236.64Z" fill="#eb996e"/><path d="M483,260.85a3.6,3.6,0,0,1-.86.15,2.56,2.56,0,0,0-1.88,1,1.36,1.36,0,0,0,0,1.37,7.49,7.49,0,0,0,1.05,1.47,3.13,3.13,0,0,1,.86,2,2.67,2.67,0,0,1-1.25,2,3,3,0,0,1-2.36.33,3.82,3.82,0,0,1-1.89-1.12,12.27,12.27,0,0,1-1.81-3.09,7.3,7.3,0,0,1-.59-2.33,1.7,1.7,0,0,1,.13-.87,7.35,7.35,0,0,1,.09.85,8.3,8.3,0,0,0,.73,2.2,12.9,12.9,0,0,0,1.83,2.9,3,3,0,0,0,3.57.67,2.13,2.13,0,0,0,1-1.61,2.57,2.57,0,0,0-.71-1.7,7.64,7.64,0,0,1-1.07-1.61,1.77,1.77,0,0,1,.11-1.76,2.67,2.67,0,0,1,2.19-1A2.28,2.28,0,0,1,483,260.85Z" fill="#eb996e"/><path d="M478.54,268.81s.24.2.34.71a2.41,2.41,0,0,1-.64,2.07,3.21,3.21,0,0,1-3.1.78,5.23,5.23,0,0,1-3.08-2.43,6.39,6.39,0,0,1-.92-3.8,6.19,6.19,0,0,1,1.09-3,5.85,5.85,0,0,1,1.53-1.5c.42-.28.69-.37.7-.34a10.07,10.07,0,0,0-1.9,2.06,5.93,5.93,0,0,0,0,6.3,4.91,4.91,0,0,0,2.74,2.23,2.85,2.85,0,0,0,2.7-.57,2.29,2.29,0,0,0,.7-1.76C478.64,269.08,478.5,268.83,478.54,268.81Z" fill="#eb996e"/><path d="M491.61,271.79c0-.05.35-.39,1.15-.68a5.19,5.19,0,0,1,3.4,0l-.33.36a14.17,14.17,0,0,1-.71-1.75,12.06,12.06,0,0,1-.57-6.48,30.2,30.2,0,0,0,1.1,6.3c.2.61.43,1.19.66,1.71l.25.57-.58-.21a5.46,5.46,0,0,0-3.13-.17C492.08,271.61,491.65,271.85,491.61,271.79Z" fill="#eb996e"/><path d="M479,251.61a2.51,2.51,0,0,1-.57,2.21c-.77,1.1-1.86,1.42-1.9,1.28s.78-.64,1.44-1.6S478.87,251.6,479,251.61Z" fill="#eb996e"/><path d="M466.18,442s-13,2.82-24.67,1.07c-10.91-1.63-35.35.06-35.34,14.44,0,16,32.59,12.08,45.3,9.54s25.37-4.85,25.37-4.85Z" fill="#455a64"/><path d="M436.92,462.56a27.75,27.75,0,0,1-1.57-5.58,28.09,28.09,0,0,1-1-5.72c.17,0,.88,2.46,1.58,5.58S437.09,462.52,436.92,462.56Z" fill="#263238"/><path d="M441.37,462.77c-.17,0-.66-2.54-1.1-5.72s-.65-5.79-.48-5.81.66,2.54,1.1,5.72S441.54,462.75,441.37,462.77Z" fill="#263238"/><path d="M445.66,461.09c-.17,0-.58-2.21-.91-5s-.47-5-.3-5.07.58,2.22.92,5S445.84,461.07,445.66,461.09Z" fill="#263238"/><path d="M452.41,459.41c-.15.07-1.08-1.8-1.68-4.29a11.72,11.72,0,0,1-.48-4.59c.18,0,.49,2,1.09,4.44A35.84,35.84,0,0,1,452.41,459.41Z" fill="#263238"/><path d="M453.85,453.55a5.36,5.36,0,0,1,1.71-.11,14.52,14.52,0,0,1,4.57.89,5.12,5.12,0,0,1,1.41.76,2.13,2.13,0,0,1,.89,1.59,2.43,2.43,0,0,1-3,2.15,6.14,6.14,0,0,1-3.4-2.43,10.64,10.64,0,0,1-.49-12.31,1.7,1.7,0,0,1,1-.59,1.34,1.34,0,0,1,1.08.34,2.93,2.93,0,0,1,.82,1.75,8.93,8.93,0,0,1-.17,3.26,9.13,9.13,0,0,1-2.2,4.12,7.89,7.89,0,0,1-.95.84c-.24.17-.37.25-.39.23s.46-.41,1.16-1.23a9.59,9.59,0,0,0,2-4.05,8.79,8.79,0,0,0,.09-3.09,2.43,2.43,0,0,0-.67-1.41.83.83,0,0,0-1.26.21,9.78,9.78,0,0,0-1.26,7.78,10.11,10.11,0,0,0,1.8,3.78,5.58,5.58,0,0,0,3,2.23,1.89,1.89,0,0,0,2.33-1.57,1.65,1.65,0,0,0-.67-1.23,5,5,0,0,0-1.27-.72,15.94,15.94,0,0,0-4.43-1.06C454.46,453.58,453.85,453.6,453.85,453.55Z" fill="#263238"/><path d="M475.55,460.09a1.89,1.89,0,0,1-.33.1l-1,.25-3.78.86c-3.29.72-8.06,1.73-14,2.88s-13,2.44-20.94,3.52a56.37,56.37,0,0,1-12.58.62,26.73,26.73,0,0,1-6.59-1.26,17.09,17.09,0,0,1-3.16-1.4,9.84,9.84,0,0,1-2.78-2.24l.05.05a6.33,6.33,0,0,1-1.14-1.36,8.48,8.48,0,0,1-.66-7,11.17,11.17,0,0,1,4.18-5.47,21.24,21.24,0,0,1,5.94-2.94c1-.3,2.05-.65,3.08-.89s2.05-.48,3.07-.62c8.17-1.29,15.6-.63,21.78-.63,3.09.06,5.89,0,8.34-.18a53.91,53.91,0,0,0,6.24-.79l2.25-.47,1.62-.46,1-.28a1.23,1.23,0,0,1,.35-.07l-.33.13-1,.34-1.6.52-2.25.53a51.91,51.91,0,0,1-6.26.9c-2.46.18-5.28.3-8.38.27-6.18.05-13.61-.55-21.67.76-1,.14-2,.42-3,.62s-2,.59-3,.88a21,21,0,0,0-5.77,2.87,10.69,10.69,0,0,0-4,5.17,7.85,7.85,0,0,0,.6,6.49,5.91,5.91,0,0,0,1,1.23l0,0,0,0a9.34,9.34,0,0,0,2.58,2.06,18.07,18.07,0,0,0,3.05,1.36,26.76,26.76,0,0,0,6.44,1.24,56.16,56.16,0,0,0,12.46-.59c7.92-1.05,15-2.3,20.93-3.38s10.72-2,14-2.69l3.8-.75,1-.18A1.24,1.24,0,0,1,475.55,460.09Z" fill="#263238"/><path d="M427.88,467.81a22.41,22.41,0,0,1-.31-3.33c-.15-2.06-.4-4.89-.81-8s-.93-5.91-1.33-7.93a20.73,20.73,0,0,1-.57-3.3,15.16,15.16,0,0,1,1,3.2,72.42,72.42,0,0,1,1.52,7.95,73.19,73.19,0,0,1,.63,8.07A15.55,15.55,0,0,1,427.88,467.81Z" fill="#263238"/><g opacity="0.4"><polygon points="462.17 442.71 470.43 463.4 476.84 462.21 464.56 442.01 462.17 442.71"/></g><path d="M546,394.43l19.4-43.29L554.15,314a48.58,48.58,0,0,1,2.24-34.1l18.94-36.71,16.91-6,39.68-5.29c.7.23,2.7.35,14.45,4.26a43.34,43.34,0,0,1,23.57,18.95h0l-32.06,93.51s21.75,47.58,19,69.39Z" fill="#131a22"/><path d="M578.51,242.21s-22.2,4.92-30.3,35.21l-10,32.25,18.21,1.12Z" fill="#131a22"/><path d="M554.82,311.84a2.4,2.4,0,0,1-.2-.45c-.11-.3-.3-.74-.48-1.33a24.34,24.34,0,0,1-.94-5.11,34.15,34.15,0,0,1,3.42-16.67A48.4,48.4,0,0,1,559,284c.8-1.35,1.57-2.66,2.25-3.93a41.68,41.68,0,0,0,3.06-7c.68-2.07,1.17-3.77,1.53-4.94l.42-1.35a3.87,3.87,0,0,1,.18-.46,1.5,1.5,0,0,1-.09.49c-.09.36-.2.81-.33,1.37-.31,1.18-.76,2.9-1.4,5a40,40,0,0,1-3,7.11c-.68,1.28-1.44,2.6-2.24,4s-1.6,2.76-2.32,4.26a35,35,0,0,0-3.5,16.46,27.19,27.19,0,0,0,.78,5.08A16.93,16.93,0,0,1,554.82,311.84Z" fill="#131a22"/><path d="M499.73,412.19c-.11.14-10.52-7.45-23.26-17s-23-17.31-22.88-17.45,10.51,7.45,23.26,17S499.83,412.05,499.73,412.19Z" fill="#455a64"/><path d="M655.1,413.62l-31.5-25.9h0a39,39,0,0,0-41.85-31.83h0a38.93,38.93,0,0,0-21.17,8.68l-18.26,14.31c-28.39-7.74-71.54-19.84-93.71-26.07a32.79,32.79,0,0,0-26.7,4l-.42.27a32.8,32.8,0,0,0-14.12,35h0a32.79,32.79,0,0,0,14.81,20.53c11.2,6.86,28.55,17.45,43.46,26.37l-2,1.55,13.18,21.68L504,453.84c18.34-2.61,57.07-7.65,57.07-7.65L550,439.66l2.53-.78c21.1,18,46.89,26.24,78.82,12.3C647.09,443.8,656.93,426,655.1,413.62Z" fill="#263238"/><path d="M601.13,410.73s-.08.09-.26.24l-.79.65c-.74.59-1.77,1.42-3.09,2.46-.67.54-1.42,1.13-2.24,1.77s-1.78,1.25-2.77,2l-3.22,2.2c-.58.39-1.15.8-1.77,1.2l-1.92,1.16c-2.63,1.57-5.48,3.37-8.7,5-1.6.83-3.23,1.75-5,2.6l-5.36,2.54c-7.37,3.36-15.64,6.74-24.5,9.75-17.7,6.1-34.07,10.5-45.79,14.05-2.94.86-5.59,1.67-7.91,2.41s-4.32,1.33-5.94,1.89l-3.76,1.21-1,.31a.18.18,0,1,1,0-.06l1-.36,3.72-1.33c1.61-.59,3.6-1.25,5.92-2s4.95-1.6,7.88-2.49c11.7-3.67,28.05-8.13,45.72-14.22,8.84-3,17.09-6.36,24.46-9.69l5.36-2.51c1.72-.84,3.35-1.74,5-2.56,3.22-1.6,6.07-3.38,8.71-4.92l1.93-1.14c.61-.38,1.19-.79,1.77-1.17l3.24-2.16c1-.69,2-1.27,2.8-1.91l2.27-1.72,3.15-2.37.83-.6A1.48,1.48,0,0,1,601.13,410.73Z" fill="#455a64"/><path d="M603.48,420.87a3.6,3.6,0,0,1-1,.51c-.64.29-1.59.68-2.78,1.12a68.91,68.91,0,0,1-9.5,2.75,71.09,71.09,0,0,1-9.8,1.4c-1.26.08-2.29.12-3,.12a3.45,3.45,0,0,1-1.11-.07,39.68,39.68,0,0,1,4.06-.49c2.5-.28,6-.77,9.71-1.57s7.09-1.78,9.49-2.56A35.9,35.9,0,0,1,603.48,420.87Z" fill="#455a64"/><path d="M556.7,368.21c.11.14-20.64,16.44-46.32,36.41s-46.61,36-46.72,35.91S484.3,424.09,510,404.12,556.6,368.08,556.7,368.21Z" fill="#455a64"/><path d="M631.3,438.16a2.09,2.09,0,0,1-.07-.67c0-.52,0-1.16-.05-1.93,0-1.68-.09-4.11-.24-7.1a170.81,170.81,0,0,0-8.59-45.9c-1-2.85-1.76-5.14-2.35-6.71-.26-.72-.48-1.33-.65-1.82a3,3,0,0,1-.19-.65s.13.2.32.6l.77,1.77c.67,1.55,1.55,3.82,2.56,6.65a151.58,151.58,0,0,1,8.62,46c.09,3,.09,5.44,0,7.12,0,.77-.06,1.41-.08,1.93A3.23,3.23,0,0,1,631.3,438.16Z" fill="#455a64"/><path d="M551.29,437.83a1.7,1.7,0,0,1,.27.2l.75.64c.65.55,1.56,1.42,2.82,2.45a76,76,0,0,0,11.39,7.66,75.06,75.06,0,0,0,19,7.14c.93.25,1.88.42,2.85.58s1.94.36,2.93.51c2,.21,4,.55,6.1.6a68.1,68.1,0,0,0,12.87-.38l3.26-.46,3.19-.65a56.8,56.8,0,0,0,6.13-1.64,58.51,58.51,0,0,0,11-4.83,44,44,0,0,0,14.87-13.58,37.7,37.7,0,0,0,5.49-12.48c.35-1.58.54-2.83.64-3.68l.12-1a1.45,1.45,0,0,1,.06-.33,1,1,0,0,1,0,.33c0,.26,0,.58,0,1a30.15,30.15,0,0,1-.52,3.72,36.53,36.53,0,0,1-5.34,12.69,44,44,0,0,1-15,13.86,59.14,59.14,0,0,1-11.08,4.93,58,58,0,0,1-6.19,1.67l-3.22.66-3.29.46a67.81,67.81,0,0,1-13,.37c-2.1-.06-4.15-.4-6.16-.62-1-.15-2-.35-3-.53a29.16,29.16,0,0,1-2.87-.6,73.75,73.75,0,0,1-19.1-7.33A70.65,70.65,0,0,1,555,441.32c-1.24-1.06-2.12-2-2.75-2.55l-.7-.69A1.45,1.45,0,0,1,551.29,437.83Z" fill="#455a64"/><path d="M566.19,444.25c-5.47-2.91-11.61-1.19-16.84.57-3.48,1.18-7.1,3-10.63,2-2.56-.72-4.46-2.79-6.42-4.59a40.28,40.28,0,0,0-29.46-10.56,12,12,0,0,0-8.09,3.66c-5.37,5.81-1.32,13.38,3.48,18.27a53,53,0,0,0,32,15.46c10,1,23.75-.34,33.89-4.68,6.25-2.68,9.46-10.05,6.18-16A10.26,10.26,0,0,0,566.19,444.25Z" fill="#455a64"/><g opacity="0.4"><path d="M566.18,448.91c-5.47-2.92-11.61-1.2-16.84.57-3.48,1.17-7.1,3-10.64,2-2.55-.72-4.46-2.79-6.41-4.59a40.3,40.3,0,0,0-29.46-10.56,12,12,0,0,0-8.09,3.66,9.37,9.37,0,0,0-2.26,4.08,21.21,21.21,0,0,0,5.74,9.54,53,53,0,0,0,32,15.46c10,1,23.75-.34,33.89-4.68a12.36,12.36,0,0,0,7.21-8.6,10.52,10.52,0,0,0-1-2.76A10.3,10.3,0,0,0,566.18,448.91Z"/></g><path d="M571.36,455.82a9.48,9.48,0,0,0-1.34-3.24,10.67,10.67,0,0,0-2.93-2.86,11.63,11.63,0,0,0-5-1.92c-4.06-.48-8.76,1.23-14,2.64-2.58.69-5.4,1.73-8.49,1.35a11.3,11.3,0,0,1-4.37-1.52,27.64,27.64,0,0,1-3.75-2.82,40.7,40.7,0,0,0-22.39-10.61,23,23,0,0,0-6.62,0,14.57,14.57,0,0,0-5.12,1.78,13.27,13.27,0,0,0-3.13,2.66,31.69,31.69,0,0,0-2,2.91,11.11,11.11,0,0,1,1.8-3.09,12.86,12.86,0,0,1,3.14-2.83,14.66,14.66,0,0,1,5.25-2,23.86,23.86,0,0,1,6.77,0,39.68,39.68,0,0,1,7.58,1.69,44.76,44.76,0,0,1,7.85,3.46,34.14,34.14,0,0,1,3.82,2.49c1.21.95,2.36,2,3.55,3a27.47,27.47,0,0,0,3.64,2.76,10.58,10.58,0,0,0,4.09,1.42c2.86.38,5.6-.6,8.22-1.28,5.2-1.36,10-3.06,14.23-2.51a11.73,11.73,0,0,1,8.13,5.15,7.41,7.41,0,0,1,1,2.47A3.55,3.55,0,0,1,571.36,455.82Z" fill="#263238"/><path d="M571.36,455.82a9.48,9.48,0,0,0-1.34-3.24,10.67,10.67,0,0,0-2.93-2.86,11.63,11.63,0,0,0-5-1.92c-4.06-.48-8.76,1.23-14,2.64-2.58.69-5.4,1.73-8.49,1.35a11.3,11.3,0,0,1-4.37-1.52,27.64,27.64,0,0,1-3.75-2.82,40.7,40.7,0,0,0-22.39-10.61,23,23,0,0,0-6.62,0,14.57,14.57,0,0,0-5.12,1.78,13.27,13.27,0,0,0-3.13,2.66,31.69,31.69,0,0,0-2,2.91,11.11,11.11,0,0,1,1.8-3.09,12.86,12.86,0,0,1,3.14-2.83,14.66,14.66,0,0,1,5.25-2,23.86,23.86,0,0,1,6.77,0,39.68,39.68,0,0,1,7.58,1.69,44.76,44.76,0,0,1,7.85,3.46,34.14,34.14,0,0,1,3.82,2.49c1.21.95,2.36,2,3.55,3a27.47,27.47,0,0,0,3.64,2.76,10.58,10.58,0,0,0,4.09,1.42c2.86.38,5.6-.6,8.22-1.28,5.2-1.36,10-3.06,14.23-2.51a11.73,11.73,0,0,1,8.13,5.15,7.41,7.41,0,0,1,1,2.47A3.55,3.55,0,0,1,571.36,455.82Z" fill="#263238"/><path d="M503.55,454.51a13.59,13.59,0,0,1,2.8-1.94,80.66,80.66,0,0,1,14.85-7,13.66,13.66,0,0,1,3.28-.92,18.12,18.12,0,0,1-3.1,1.4c-1.93.81-4.58,1.94-7.47,3.29s-5.45,2.68-7.3,3.66A18.09,18.09,0,0,1,503.55,454.51Z" fill="#263238"/><path d="M505.43,460c-.09-.18,4.7-2.67,10.68-5.57s10.91-5.09,11-4.91-4.69,2.68-10.68,5.58S505.52,460.16,505.43,460Z" fill="#263238"/><path d="M528.08,462.35c-.11.17-5.93-3.31-13-7.77s-12.73-8.21-12.62-8.38,5.93,3.3,13,7.76S528.19,462.17,528.08,462.35Z" fill="#263238"/><path d="M531.36,456.67a17.7,17.7,0,0,1-2.85-1.9c-1.72-1.24-4.08-2.95-6.73-4.78s-5.07-3.45-6.83-4.62a18,18,0,0,1-2.79-2,14.82,14.82,0,0,1,3.06,1.57c1.84,1.06,4.32,2.61,7,4.45s5,3.63,6.62,5A15.47,15.47,0,0,1,531.36,456.67Z" fill="#263238"/><path d="M573.15,231.86a6.4,6.4,0,0,0,.21-2.75,7.74,7.74,0,0,0-1.25-3,20.28,20.28,0,0,0-3-3.17,18.56,18.56,0,0,1-3.57-4.16,15.79,15.79,0,0,1-2.07-6,15.43,15.43,0,0,1,.68-6.95,42.84,42.84,0,0,1,3.11-6.72,32.73,32.73,0,0,0,2.86-6.59,12.09,12.09,0,0,0,.14-6.47c-1.11-4.08-3.54-7.3-4.78-10.4a12.43,12.43,0,0,1-1-7.77,6.47,6.47,0,0,1,.79-2,1.74,1.74,0,0,1,.46-.6,16.64,16.64,0,0,0-.84,2.68,12.65,12.65,0,0,0,1.3,7.38c1.27,3,3.78,6.11,5,10.45a13,13,0,0,1-.07,7,33.41,33.41,0,0,1-2.93,6.82,43.08,43.08,0,0,0-3.06,6.54,14.46,14.46,0,0,0-.7,6.49,15,15,0,0,0,1.85,5.64,18.28,18.28,0,0,0,3.32,4.06,19.46,19.46,0,0,1,3,3.4,7.7,7.7,0,0,1,1.16,3.23,4.64,4.64,0,0,1-.25,2.16A1.49,1.49,0,0,1,573.15,231.86Z" fill="#263238"/><path d="M630.17,212.07a9.88,9.88,0,0,0,9.06,6,11.93,11.93,0,0,0,9.66-5.37,15.13,15.13,0,0,0,2.08-11,17.8,17.8,0,0,1-.7-5.14c.29-2.45,2.07-4.47,2.68-6.86,1.1-4.29-2.05-8.83-6.13-10.55s-8.78-1.19-13.06,0" fill="#263238"/><path d="M567.9,162.37c-3.94,4-2.44,9.16-.6,12.68s4.05,7.09,4.09,11.06-2.19,7.76-3.3,11.66a21.71,21.71,0,0,0,1.17,15c1.62,3.5,4.15,6.52,5.79,10s2.25,7.89,0,11a6.93,6.93,0,0,0,4.85-3.89,13.55,13.55,0,0,0,1.14-6.3c-.17-8.18-4.09-16.12-3.11-24.24.57-4.72,2.79-9.26,2.48-14s-3.11-8.93-5.13-13.26-3.21-9.71-.52-13.65" fill="#263238"/><path d="M577.58,146.86c-4.83.63-9.61,3.15-11.94,7.42s-1.53,10.31,2.45,13.1c3.76,2.63,9.09,1.77,12.95-.71a14.84,14.84,0,0,0,6.26-7.75,10.58,10.58,0,0,0-1.5-9.64,8.26,8.26,0,0,0-9.08-2.77" fill="#263238"/><path d="M573.64,146.37c2.13-5.87,7.35-10.31,13.23-12.4s12.35-2.06,18.49-.91,12,3.38,17.85,5.59c4.25,1.61,8.6,3.28,12,6.23a26.52,26.52,0,0,1,7.31,11.17c2.92,7.93,3,13.74-.38,21.47-1.49,3.36-.28,7.13-1.61,10.56s-7.52,7.51-5.6,10.64" fill="#263238"/><path d="M631.92,231.86l-2.55-75.26a6.49,6.49,0,0,0-6.16-6.26l-34.9-6.84c-11.09-.57-17.69,13.4-17.78,24.51-.11,12.33.24,27.4,2.19,36.49,3.93,18.29,18.19,19.87,18.19,19.87s.4,7.14.78,13.58l-.6,28.34Z" fill="#ffbe9d"/><path d="M575.28,181.27a2.39,2.39,0,0,0,2.41,2.27,2.28,2.28,0,0,0,2.33-2.27,2.38,2.38,0,0,0-2.41-2.26A2.27,2.27,0,0,0,575.28,181.27Z" fill="#263238"/><path d="M574.14,174.46c.31.29,2-1.13,4.58-1.26s4.48,1,4.74.71c.13-.14-.2-.68-1.05-1.23a6.48,6.48,0,0,0-3.81-1,6.24,6.24,0,0,0-3.62,1.39C574.23,173.76,574,174.33,574.14,174.46Z" fill="#263238"/><path d="M598.85,180.91a2.36,2.36,0,0,0,2.41,2.26,2.27,2.27,0,0,0,2.32-2.27,2.36,2.36,0,0,0-2.41-2.26A2.26,2.26,0,0,0,598.85,180.91Z" fill="#263238"/><path d="M599.26,174.77c.31.3,2-1.13,4.58-1.26s4.48,1,4.73.72c.13-.15-.19-.69-1-1.24a6.57,6.57,0,0,0-3.82-1,6.23,6.23,0,0,0-3.62,1.39C599.34,174.07,599.11,174.64,599.26,174.77Z" fill="#263238"/><path d="M591,194.15c0-.14-1.59-.33-4.17-.52-.66,0-1.28-.13-1.41-.57a3.26,3.26,0,0,1,.33-1.95c.52-1.6,1.07-3.29,1.65-5.05,2.29-7.19,3.91-13.09,3.62-13.18s-2.38,5.67-4.67,12.86l-1.57,5.08a3.71,3.71,0,0,0-.2,2.57,1.65,1.65,0,0,0,1.12.89,4.51,4.51,0,0,0,1.11.09C589.44,194.37,591,194.3,591,194.15Z" fill="#263238"/><path d="M590.91,224.37a47,47,0,0,0,24.35-7.93s-5.55,13-24.1,12.3Z" fill="#eb996e"/><path d="M597.72,167.38c.29.68,2.82.22,5.82.42s5.47.88,5.83.24c.16-.31-.3-.94-1.31-1.56a10.12,10.12,0,0,0-8.87-.49C598.12,166.49,597.6,167.06,597.72,167.38Z" fill="#263238"/><path d="M574.75,168.24c.48.55,2.2-.15,4.31-.29s3.91.18,4.29-.45c.16-.3-.15-.86-1-1.37a6.24,6.24,0,0,0-6.93.59C574.75,167.36,574.54,168,574.75,168.24Z" fill="#263238"/><path d="M592.45,200a4.28,4.28,0,0,1,3.75-1.8,3.89,3.89,0,0,1,2.77,1.3,2.48,2.48,0,0,1,.35,2.82,2.87,2.87,0,0,1-3.07.95,9.09,9.09,0,0,1-3.14-1.64,2.52,2.52,0,0,1-.71-.67.79.79,0,0,1,0-.88" fill="#eb996e"/><path d="M598.21,195.54c-.38,0-.25,2.58-2.36,4.53s-4.86,1.81-4.86,2.17c0,.16.64.47,1.8.44a6.48,6.48,0,0,0,4.07-1.67,5.62,5.62,0,0,0,1.81-3.79C598.71,196.14,598.39,195.52,598.21,195.54Z" fill="#263238"/><path d="M573.33,151.32c1.2,5.78,10.48,6.22,16.21,4.77a18.78,18.78,0,0,0,16.94,6.19,5.17,5.17,0,0,1,2.53,0,5.24,5.24,0,0,1,2,1.78,16.53,16.53,0,0,0,10.39,5.71,14.84,14.84,0,0,0,11.91,11.54s1.84-1,.76-8.46-1.15-23-1.15-23l-20.71-8-24.4-3.14S571.29,141.52,573.33,151.32Z" fill="#263238"/><path d="M641.9,178.37a19.44,19.44,0,0,0-1.55-5.11,13,13,0,0,0-3.87-4.63,13.22,13.22,0,0,0-7.3-2.61h-.32l-.1-.32a16.32,16.32,0,0,0-5.25-8.19c-2.68-2.12-6.9-3-10.19-1.13l-.55.31-.24-.6-.27-.66a14.52,14.52,0,0,0-12.4-8.53,16.35,16.35,0,0,0-3.57.29,8.32,8.32,0,0,1-3.65,0,6.78,6.78,0,0,1-2.85-1.92,13.11,13.11,0,0,0-2.18-1.92,10.21,10.21,0,0,0-8.42-1.14,17.89,17.89,0,0,0-3,1.38s.19-.23.63-.6a9.23,9.23,0,0,1,2.2-1.18,10.42,10.42,0,0,1,9,.89c1.77,1,2.9,3.08,4.86,3.62s4.37-.64,7-.47A15.43,15.43,0,0,1,613.26,155l.3.72-.79-.29c3.82-2.15,8.45-1.08,11.38,1.26a17,17,0,0,1,5.5,8.75l-.42-.33a13.78,13.78,0,0,1,7.71,2.93,13.17,13.17,0,0,1,3.89,5,12.65,12.65,0,0,1,1.07,3.91A4,4,0,0,1,641.9,178.37Z" fill="#455a64"/><path d="M608.93,160.66a4,4,0,0,1-1.49.59,15.54,15.54,0,0,1-4.36.49,17.92,17.92,0,0,1-13-6.07l.68.13-.59.3a14,14,0,0,1-8.22,1.24,13.5,13.5,0,0,1-6.21-2.74,12.64,12.64,0,0,1-3-3.42,3.73,3.73,0,0,1-.66-1.53c.17-.12,1.14,2.14,4.13,4.33a13.15,13.15,0,0,0,13.48,1.14l.54-.28.4-.2.28.32a18,18,0,0,0,12.16,6C606.71,161.24,608.88,160.45,608.93,160.66Z" fill="#455a64"/><path d="M597.93,150.34c0,.32-2.7.24-5.8,1.16s-5.33,2.37-5.52,2.11,1.87-2.21,5.22-3.16S598,150.06,597.93,150.34Z" fill="#455a64"/><path d="M590.91,150.13c-.23.21-1.21-.52-2.45-1.31s-2.3-1.39-2.21-1.69,1.43-.11,2.8.77S591.13,149.94,590.91,150.13Z" fill="#455a64"/><path d="M620.18,159.24c-.1.3-2.48-.32-5.41-.06s-5.18,1.23-5.32.95,2-1.78,5.23-2S620.3,159,620.18,159.24Z" fill="#455a64"/><path d="M625.84,168.82c0,.28-3.46.63-7.54-.57s-6.86-3.32-6.69-3.54,3.08,1.38,7,2.49S625.85,168.5,625.84,168.82Z" fill="#455a64"/><path d="M638.84,175.17c-.24.23-2.05-1.59-5-2.41s-5.41-.34-5.48-.65,2.53-1.38,5.79-.4S639.09,175,638.84,175.17Z" fill="#455a64"/><path d="M637,148.7c-.09,0-.33-.6-1-1.55a11,11,0,0,0-3.9-3c-3.8-1.84-9.79-3-16.3-2.71a66.36,66.36,0,0,0-16.45,3.14c-4.13,1.28-6.64,2.22-6.7,2.07a5.62,5.62,0,0,1,1.67-.89c1.11-.5,2.73-1.18,4.78-1.92a57.71,57.71,0,0,1,16.65-3.49c6.69-.29,12.8,1,16.71,3.12a10.37,10.37,0,0,1,3.89,3.48A3.69,3.69,0,0,1,637,148.7Z" fill="#455a64"/><path d="M639,158.61c-.2.09-.77-2.23-3.13-5a22.54,22.54,0,0,0-12.06-7.08,41.62,41.62,0,0,0-14.29-.29c-3.67.48-5.94.92-6,.75s2.18-.83,5.86-1.51a37.2,37.2,0,0,1,14.65,0,21.77,21.77,0,0,1,12.42,7.66,14.36,14.36,0,0,1,2.16,3.92A4,4,0,0,1,639,158.61Z" fill="#455a64"/><path d="M570.39,170.21c0,.1-1.71-.36-3.55-2.35a11,11,0,0,1,3.72-17.72c2.49-1.09,4.22-.83,4.2-.73s-1.63.23-3.87,1.42a10.7,10.7,0,0,0-3.46,16.53C569,169.34,570.5,170,570.39,170.21Z" fill="#455a64"/><path d="M647.29,194.93c-.11-.17,1.76-1.15,4.4-3.13a13.46,13.46,0,0,0,3.72-4.26,7.36,7.36,0,0,0,.32-6.49,8.66,8.66,0,0,0-4.75-4.61,10,10,0,0,0-5.54-.35c-3.2.72-4.76,2.26-4.87,2.08s.28-.46,1-1a10.63,10.63,0,0,1,3.65-1.78,10.21,10.21,0,0,1,6.07.16,9.42,9.42,0,0,1,5.4,5.12,8.24,8.24,0,0,1-.43,7.4,13.51,13.51,0,0,1-4.15,4.4,25.25,25.25,0,0,1-3.49,2C647.81,194.81,647.32,195,647.29,194.93Z" fill="#263238"/><path d="M648.15,195a5.84,5.84,0,0,1,.85,1.59,40.24,40.24,0,0,1,1.73,4.6,24.29,24.29,0,0,1,1.16,7.25,15.57,15.57,0,0,1-2.49,8.7,11.22,11.22,0,0,1-7.64,4.85,8.12,8.12,0,0,1-7-2.38,7.39,7.39,0,0,1-2.16-4.5,3.31,3.31,0,0,1,.23-1.81c.1,0,0,.66.19,1.76a7.63,7.63,0,0,0,8.58,5.93,10.49,10.49,0,0,0,6.88-4.46,15,15,0,0,0,2.38-8.1,26.07,26.07,0,0,0-.89-7C648.93,197.49,648,195.1,648.15,195Z" fill="#263238"/><path d="M619.58,160.52c-2.3,4.58-.54,10.13,1.82,14.69s5.37,9.07,5.56,14.19c.34,8.59-7.34,16.18-6.28,24.7a12.84,12.84,0,0,0,9.68,10.66c-4.06-2.74-4.43-8.71-2.88-13.35s9.06-16.87,10.15-21.65c3.66-16,2.1-17.89-3.5-23.52" fill="#263238"/><path d="M635,171.94c0,.13-1.13.4-3,.13a12.35,12.35,0,0,1-10.14-9.35c-.41-1.83-.24-3-.11-3s.3,1.1.88,2.75a13.5,13.5,0,0,0,9.53,8.8C633.91,171.74,635,171.77,635,171.94Z" fill="#455a64"/><path d="M628.36,219.66s-.22-.1-.57-.37a8,8,0,0,1-1.35-1.4,11,11,0,0,1-2.17-6.76,10.34,10.34,0,0,1,1.25-4.86,21.93,21.93,0,0,1,3.57-4.41,16.46,16.46,0,0,0,3.46-4.82,13.92,13.92,0,0,0,1.15-6.19,13.19,13.19,0,0,0-1.76-6,34.27,34.27,0,0,0-3.58-4.88,35.72,35.72,0,0,1-5.81-8.75,19.3,19.3,0,0,1-1.73-6.89,7.33,7.33,0,0,1,.18-2.59c.24,0-.32,3.82,2.27,9.14a37.16,37.16,0,0,0,5.88,8.43,33.5,33.5,0,0,1,3.75,5,14.21,14.21,0,0,1,1.92,6.53,14.86,14.86,0,0,1-1.26,6.69,17.21,17.21,0,0,1-3.73,5.09,22.12,22.12,0,0,0-3.5,4.15,9.85,9.85,0,0,0-1.27,4.42,11.06,11.06,0,0,0,1.74,6.49C627.7,219,628.43,219.58,628.36,219.66Z" fill="#455a64"/><path d="M636.91,171.34c0-.05.49.27,1.17,1a13.07,13.07,0,0,1,2.3,3.53,19.8,19.8,0,0,1,.58,13.68A33.87,33.87,0,0,1,634,201.41c-2.3,2.65-3.92,4.09-4,4s1.29-1.75,3.41-4.5a38.53,38.53,0,0,0,6.47-11.7,20.33,20.33,0,0,0-.25-13C638.41,173,636.74,171.48,636.91,171.34Z" fill="#455a64"/><path d="M560.21,308.4l-10.33-19a3.93,3.93,0,0,0-3.45-2.06H472.91a3.9,3.9,0,0,0-3.46,2.1h0l72.87,49,32.25,3.71h0a4.68,4.68,0,0,0,.06-4.22Z" fill="#263238"/><g opacity="0.3"><path d="M638,352c-12.91-5.63-27.76-6.45-39.9-13.6-4.64-2.73-8.75-6.32-13.5-8.86s-10.51-4-15.52-2-8.81,9.5-6.21,14.22c1,2.52,5.75,4.87,8.44,4.64s5.24-1.34,7.93-1.68c5.76-.73,11.29,2.11,16.48,4.71a274.06,274.06,0,0,0,34.62,14.41c2.76.93,5.67,1.83,8.56,1.4s5.73-2.61,5.93-5.53C645,356.06,641.32,353.47,638,352Z"/></g><path d="M574.57,342.07l-25.78-50.49a4,4,0,0,0-3.59-2.19H469.09l28.36,51.07,77.12,1.61Z" fill="#455a64"/><path d="M514.91,307.55a2.47,2.47,0,1,0-.38-3.47A2.46,2.46,0,0,0,514.91,307.55Z" fill="#ebebeb"/><path d="M581.88,315.73l-7.66-5.92a16.57,16.57,0,0,0-12.9-6.17h-4.17l-2.85,3.2s-20.42.89-21.17,3.41l0,.81v.48l17.47,1.17s-14.86,0-15.75,0-4.15-.25-4.09,1.5c.06,1.43,1.75,2.56,4.32,2.93,1.06.16,13.93,1.28,13.93,1.28l-14.17-.13c-1.59,0-1.38,2.53-.44,2.85.74.26,18.89,5.55,18.89,5.55s-3,2.05-5.54,1.87-6.76-3.38-7.65-1.87-.71,2.4-.18,2.76a62.75,62.75,0,0,0,8.36,3.91c2,.54,17.94,3.07,17.94,3.07l13.25-1.7Z" fill="#ffbe9d"/><path d="M547.35,307.09a58.51,58.51,0,0,1,7.17-.26,59.58,59.58,0,0,1,7.17.18,57.23,57.23,0,0,1-7.17.27A58.12,58.12,0,0,1,547.35,307.09Z" fill="#eb996e"/><path d="M581.88,315.73l56.23,10.7,5.64-70.69s15.16-12.75,23.18-4.05a31.45,31.45,0,0,1,8.1,24.13c-.52,5.13-5.62,65.54-9.86,75.76-5.93,14.29-21.11,13.53-25.35,12.49s-64.71-29.64-64.71-29.64Z" fill="#ffbe9d"/><path d="M641.67,255.37c-2,16-5.87,40.39-6.09,56.47,0,.66,38.67,3.89,38.67,3.89s2-36.42.56-47.49C673.16,255.67,663.75,247,663.75,247H651.62Z"/><path d="M674.25,315.73a7.57,7.57,0,0,1-.78,0l-2.25-.18-8.26-.74-27.4-2.68-.25,0v-.26c0-.49.07-1,.11-1.56.78-11.12,1.49-21.18,2-28.53.28-3.61.51-6.54.67-8.64.09-1,.15-1.76.21-2.34a6.73,6.73,0,0,1,.1-.82,4.25,4.25,0,0,1,0,.82c0,.59-.06,1.37-.11,2.36-.12,2.09-.29,5-.5,8.65-.48,7.35-1.13,17.41-1.85,28.53,0,.54-.07,1.07-.11,1.57l-.23-.28L663,314.42l8.24.91,2.24.27A4.34,4.34,0,0,1,674.25,315.73Z"/></g></svg>