<svg id="Layer_1" data-name="Layer 1" xmlns="http://www.w3.org/2000/svg" viewBox="0 0 2600 2000"><title>home_compete</title><path d="M1502.89,1780.88S1689,1689.11,1721,1641.25s-15-50.57-15-50.57,83.06-80.78,71.37-114.78-54.71-2.82-54.71-2.82,53.41-118.88,28.23-130.83c-46.9-22.26-112.7,105.65-112.7,105.65s14.14-55.57-18.16-53.76c-48.7,2.72-46.69,128.41-46.69,128.41s-5.5-48.19-34.86-32.54C1485.77,1518.1,1502.89,1780.88,1502.89,1780.88Z" fill="#355389"/><path d="M1527.84,1470.57c22.93-12.72,45.76,24.46,45.76,24.46s-2.31-98.17,46.39-100.89c32.3-1.81,18.16,53.76,18.16,53.76s65.8-127.91,112.7-105.65l-248.18,436.58C1500.92,1748.35,1482.43,1495.77,1527.84,1470.57Z" fill="#466eb6"/><path d="M1507.7,1782s152.21,18.91,191.62,2.06,11.17-37.66,11.17-37.66,84.63-16.63,91.16-42.59-32.51-23.89-32.51-23.89,81.14-52.54,70.29-70.23c-20.21-32.94-113.22,20.1-113.22,20.1s31.4-28.91,10.52-40.91c-31.49-18.09-81.3,61.13-81.3,61.13s3.09-19.53-21.58-21.69C1589.58,1624.44,1507.7,1782,1507.7,1782Z" fill="#355389"/><path d="M1632.85,1614.14c24.67,2.16,22.58,35.88,22.58,35.88s50.71-93.9,82.2-75.81c20.88,12-3.82,51.4-3.82,51.4s85.41-48.85,105.62-15.91l-332.19,171.47C1518.53,1761.44,1591.5,1610.51,1632.85,1614.14Z" fill="#466eb6"/><path d="M1109.81,1776.08s-186.11-91.77-218.12-139.63,15-50.57,15-50.57-83.06-80.78-71.37-114.78,55.29-1.51,55.29-1.51-54-120.19-28.8-132.14c46.9-22.26,112.69,105.65,112.69,105.65s-14.14-55.57,18.16-53.76c48.7,2.72,46.69,128.41,46.69,128.41s5.5-48.19,34.86-32.53C1126.93,1513.3,1109.81,1776.08,1109.81,1776.08Z" fill="#355389"/><path d="M1084.86,1465.77c-22.93-12.72-45.76,24.46-45.76,24.46s2.31-98.17-46.39-100.89c-32.3-1.81-18.16,53.76-18.16,53.76s-65.79-127.91-112.69-105.65L1110,1774C1111.78,1743.55,1130.27,1491,1084.86,1465.77Z" fill="#466eb6"/><path d="M1105,1777.22s-152.21,18.9-191.62,2.06-11.17-37.66-11.17-37.66S817.58,1725,811.06,1699s33.87-23.41,33.87-23.41-82.51-53-71.66-70.72C793.48,1572,886.49,1625,886.49,1625s-31.4-28.92-10.52-40.91c31.49-18.1,81.31,61.12,81.31,61.12s-3.1-19.53,21.57-21.69C1023.12,1619.65,1105,1777.22,1105,1777.22Z" fill="#355389"/><path d="M976.26,1597.08c-24.68,2.17-24.29,26.13-24.29,26.13s-45.41-71.89-76.9-53.8c-20.88,12,3.82,51.4,3.82,51.4S793.48,1572,773.27,1604.9l332.2,171.47C1094.17,1756.64,1017.6,1593.46,976.26,1597.08Z" fill="#466eb6"/><path d="M1993.82,1330.13c4.58-11,9.24-22.06,21.12-27.64,9.61-4.52,19.66-2.82,28.2,3.61,24.21,18.2,3.12,38.26,30.67,72.77,8.56,10.73,18.93,19.39,24.06,32,7.18,17.59-1.37,26-15.08,34.47-65.59,40.31-100-42.47-98.74-61.4C1985,1369.81,1990.87,1337.23,1993.82,1330.13Z" fill="#13375b"/><path d="M1954.33,1697.2a187.36,187.36,0,0,0,9,28.92c.33.72,3.35,3.3,3.71,4-1,18-12,29.07-22.5,37,2-9.13,6.85-19.7,6.11-21.69a257.33,257.33,0,0,0-15.32-35.75C1944.25,1708.44,1947.24,1702.9,1954.33,1697.2Z" fill="#f7a491"/><path d="M1994.81,1483.31l55.84,42.41s-27.65,26.6-38,36.48-74.35,55.92-75.26,58.19c-.67,1.68,14.56,54.6,24.38,82.85-5.9,6-18.9,11.94-26.59,13.89-19.36-36.94-43.15-100-43.15-108.54C1892,1594.65,1994.81,1483.31,1994.81,1483.31Z" fill="#355389"/><path d="M2151.44,1567.92c-1.82,1.78-13.94,25.39-18.56,38-6.75-4.25-10.83-9.32-18.37-12.18,5.95-8.61,17.55-29.34,18.51-34.27,2.26-11.7,4.92-13.42,4.92-13.42s39.22,13.27,41.84,17S2158.78,1560.77,2151.44,1567.92Z" fill="#f7a491"/><path d="M2132.56,1562.1c-3,0,.26-13.75,1-16.92.79-3.56,2.85-4.63,3.36-4.76,1.39-.34,45,14.41,52.36,19.71a9.06,9.06,0,0,1,1.53,1.75c4,7.52-31.91,8.95-37.08,5.66C2149.09,1564.62,2146.25,1562.06,2132.56,1562.1Z" fill="#3c8f7c"/><path d="M1982.89,1495.83l48.74-19.69c-.2.08.29,2,.33,2.13,4.57,17.79,29,10.93,39,41.84,7.11,21.84,17.52,103.52,17.52,103.52s7.38-14,30.31-39.88c1.78-2,24.37,13.52,24.37,13.52-16.8,44.54-58.05,80.73-63.64,78.17-37.74-17.32-83.07-153.93-83-153.92C1992.25,1513.16,1982.89,1495.83,1982.89,1495.83Z" fill="#466eb6"/><path d="M1981.09,1352.06s-22.86-36.19-26.84-48.23,0-69.37.35-73.45,14.19-15.21,12-18.41-21.24-5.82-24.45-5.19-9.42,0-12,2.63c-.33.34,6.07,15.43,5.93,17.77-.91,16-10,66.85-7,80.61,3.42,15.81,37.36,66.36,37.36,66.36Z" fill="#f7a491"/><path d="M2064.1,1373.14s61.15,1.52,74.57,2.62,62.14-3,64-3.17,14.37-21.35,16.44-19.08-6.94,10.48-4.15,12.61,32.75-2.64,32.35-.43c-.74,4.15-18.22,3.62-18.21,5.62s18.3-1.12,19.54,2.2-17.58,1.35-18.34,2.83,17.46,4.2,15.6,7.29c-1,1.68-16.13-2.8-16.06-.51s11.11,7.49,9.75,9.31-8.66-5.59-15.06-5.68-11-3.44-21.2-.63-45,16.84-66.85,15.81-70-3.18-70-3.18Z" fill="#f7a491"/><path d="M1974.34,1437c-.83-10.09-2.24-37.31-1.78-40.65-3-10.48-14.18-26-16.52-30.4,0,0,15.1-17.11,26.3-17,0,0,11.91,15,20.75,19.65.13,0,3.13,1.33,4.45,1.33,8.53-.06,38.36-1,43.92.69l-3.15,46.09c-1.6,2.64-3.55,55.64-6.85,60s-51.31,24.22-59.27,19.09C1981.88,1495.64,1976,1457.38,1974.34,1437Z" fill="#50bfa5"/><path d="M2035.93,1371.73c5.5-2.63,45.69-2.54,45.69-2.54s5.57,27.72,1.07,34.39c0,0-35.6,5.29-34.58,8.21Z" fill="#50bfa5"/><path d="M2027,1353s-3.09,16-2.47,22.3-2.36,26.63-15.71,26.7-2.53-25.84-1.27-32,1.55-25.32,1.55-25.32Z" fill="#f7a491"/><path d="M2008.82,1354.25c.2-5.23.27-9.6.27-9.6L2027,1353s-.63,3.27-1.27,7.44C2017.89,1362,2012.21,1359.1,2008.82,1354.25Z" fill="#f47458"/><path d="M2033.54,1308.87A22.18,22.18,0,0,1,2043,1321c2.52,8.29-.35,29.69-18.17,34.86s-25.54-11.78-21.87-25S2014.57,1300.79,2033.54,1308.87Z" fill="#f7a491"/><path d="M2000.69,1325.68c.35,3.56,2.31,6.28,4.39,6.08s3.47-3.26,3.12-6.82-2.31-6.28-4.39-6.07S2000.34,1322.12,2000.69,1325.68Z" fill="#f7a491"/><path d="M1963.5,1726.56c1-2.87,12.69,5.75,15.43,7.48,3.09,2,3.39,4.25,3.34,4.78-.15,1.39-27.82,38-36.1,43.19a4.89,4.89,0,0,1-3,.39c-4.76-1.65,1.87-31,7.84-37C1954.9,1741.55,1958.88,1739.44,1963.5,1726.56Z" fill="#3c8f7c"/><path d="M2065,1179.82l-49.09,17.45a8.09,8.09,0,0,0-5.09,5.53l-13.43,50.47a8.06,8.06,0,0,1-14.19,2.82l-31.79-41.45a8.07,8.07,0,0,0-6.82-3.15l-52,2.71a8.1,8.1,0,0,1-7.09-12.66l29.45-43.07a8.08,8.08,0,0,0,.87-7.47l-18.72-48.8a8.07,8.07,0,0,1,9.8-10.65l50,14.83a8,8,0,0,0,7.36-1.46l40.46-32.87a8.07,8.07,0,0,1,13.15,6.07l1.44,52.24a8.12,8.12,0,0,0,3.68,6.57l43.73,28.48A8.1,8.1,0,0,1,2065,1179.82Z" fill="#f7cc7f"/><path d="M1966.28,1212.47c1.83,2.69-8.09,11.21-10.84,15.92l-6.23-8.49C1952.28,1219.3,1964.19,1209.4,1966.28,1212.47Z" fill="#f7a491"/><path d="M2031.45,1307.79s3.23,23.87,11,28.18,4.48,14.9,4.48,14.9,7-24.59.9-32.49S2031.45,1307.79,2031.45,1307.79Z" fill="#13375b"/><path d="M2037.83,1339.4c-2.1,3.11-2.09,6.78,0,8.19s5.51,0,7.6-3.07,2.08-6.78,0-8.19S2039.92,1336.29,2037.83,1339.4Z" fill="#f7a491"/><path d="M1951.29,1214.47c0,.06.1.11.14.17l2.26,2.95c-1.66-.45-4.82-1.35-7.91.76C1945.78,1218.35,1946.8,1216.17,1951.29,1214.47Z" fill="#f47257"/><path d="M609.74,1479.76c.6.25-8,11.28-16.28,19.07-6.72,8.43-13,18.41-15.19,29.29-3.29,16.55-.55,98.28-3.42,104.1-24.65,24.1-42.51,84.59-47.52,103a19.7,19.7,0,0,1-5.7,9.36h0l1.1,20.86L535,1776.76s-2.73-17,2.72-29.6c0,0,62.07-94,65.75-101.18,7-20.46,32.68-125.3,32.68-125.3l6-24.1Z" fill="#f7a491"/><path d="M508.21,1751.33s7.76,12,8.42,16.61,4.79,15.21,9.36,15.88c1,.15,18.8,1.46,18.67-.76-.1-1.7-6.53-4.12-9.52-6.19-5.16-3.56-13.17-32.59-13.17-32.59S508.55,1747.61,508.21,1751.33Z" fill="#f47458"/><path d="M662.79,1516s40,85.48,40.24,100.51c.22,12.88-7,85.16-5,145.35.07,2.18,2.83,5.06,6.83,6.9,2.26,1,13.14,5.9,13.14,5.9l1.5,3.89L682,1775.87l-.54-10.24s-14.92-90-13.4-115.5c.24-4,2.18-28,2.18-28l-45.08-87.05,28.35-37.26Z" fill="#f7a491"/><path d="M666.54,1324.13c-6-16.14-21.88-25.92-38.36-22.9a36.15,36.15,0,0,0-22.66-16.18c-18.09-3.88-42.56,3.27-41.9,22.43-7,12.87-7.29,31.27,3.45,41.06-3.74,17.31,12.47,34,33.54,33.43,7.34,12.11,21.32,19.89,35.22,18.23,3.34-.4,8.43-1.23,9.27-1-1.06-.19,22.33,17.74,42.16-9.84C707.48,1361.19,693.27,1327.13,666.54,1324.13Z" fill="#355389"/><path d="M664.15,1227.32a37.6,37.6,0,0,1,3.6-6.59l1.56-2.28c.19-.41.34-.75.42-1,.68-2,.16-8.52.16-8.52l-13.67,3.31-3,7.9c-3.05-1.41-8.25-12-10.14-9.45-2.25,3,6.2,16,6.87,19.53s-7.27,58.22-9.56,69.08-17.76,41.18-17.76,41.18l14.15,18s22.69-46.23,24.18-60.35c.16-1.48.34-3.7.53-6.45Z" fill="#f7a491"/><path d="M569.88,1398.59l-16.81-14.25s-13.61,22.69-24.51,41.19c-10.82-3.91-38.76-22.12-40.14-23s-4.44-21.43-6.81-20.34,1.82,10.87-1.05,11.6-24.39-13.65-24.83-11.73c-.83,3.6,12.84,9.32,12.15,10.93s-13.74-7.34-15.82-5.11,13.11,7.28,13.19,8.73-14.89-2.77-14.5.37c.22,1.7,13.4,3.42,12.57,5.24s-11.1,2.11-10.67,4,8.57-1.45,13.54.73,9.64,1.11,16.58,7,41,39.21,51.65,36.35C543.69,1447.85,569.88,1398.59,569.88,1398.59Z" fill="#f7a491"/><path d="M571.15,1618.67s0,0,0,0Z" fill="#f47458"/><path d="M628.34,1377.39c1.08-6.57,11.25-23,12.85-27.05,0,0-11.79-15-21.36-13.85,0,0-12.86,21.32-20.18,22s-33,1.83-37.54,4.56-23.65,32.12-23.65,32.12,17.2,17.56,24.11,17.52c0,0,3.68-7.24,5.15-8.82,1,3.36,17.06,55.26,17,67l.13.1a33.63,33.63,0,0,0,48.37-6.22h0a267,267,0,0,1-.59-31.1C633.87,1410.34,638.6,1397.91,628.34,1377.39Z" fill="#f47458"/><path d="M711.72,1578.18l-78.47-113.37a77,77,0,0,1-14.59,4.67c-11.25,2.17-22.51,1.82-33.91,1.45a8.83,8.83,0,0,1-.06,1.11c-1.31,9.35-13.71,23.82-16.26,52.18-2.9,32.19-1.15,88.11-.17,91.78C620.43,1609.66,696.92,1593.71,711.72,1578.18Z" fill="#466eb6"/><path d="M666,1218.8s-4.93,3.3-9.12,2.24a17.13,17.13,0,0,1-6.11-2.62s2.31,4.22,5.73,6.06C662.36,1227.64,666,1218.8,666,1218.8Z" fill="#f47458"/><path d="M568.66,1195.41l45.63-9.41a7,7,0,0,1,6.43,2l33.36,33.92a7.13,7.13,0,0,0,12.17-4.49l5.44-48.22a7.53,7.53,0,0,1,3.79-5.77l41.15-22.58a7.67,7.67,0,0,0-.35-13.48L674,1107a7.46,7.46,0,0,1-4.08-5.55L662,1053.54a7.13,7.13,0,0,0-12.39-3.84l-31.56,35.63a7,7,0,0,1-6.31,2.32l-46-7c-5.91-.9-10.23,5.66-7.31,11.1l22.75,42.41a7.81,7.81,0,0,1,.18,7l-20.53,43.55C558.16,1190.29,562.81,1196.62,568.66,1195.41Z" fill="#f7cc7f"/><path d="M586.42,1339.63s2.76,14.86,2.21,20.72,2.1,24.76,14,24.82,2.26-24,1.14-29.76-1.39-23.53-1.39-23.53Z" fill="#f7a491"/><path d="M602.65,1340.8c-.19-4.87-.25-8.92-.25-8.92l-16,7.75s.56,3,1.13,6.91C594.55,1348,599.62,1345.31,602.65,1340.8Z" fill="#f47458"/><path d="M580.58,1298.61a20.42,20.42,0,0,0-8.41,11.27c-2.25,7.71.31,27.6,16.22,32.4s22.8-11,19.52-23.27S597.51,1291.1,580.58,1298.61Z" fill="#f7a491"/><path d="M609.9,1314.24c-.31,3.31-2.07,5.84-3.92,5.65s-3.09-3-2.78-6.34,2.06-5.83,3.91-5.64S610.21,1310.93,609.9,1314.24Z" fill="#f7a491"/><path d="M576.75,1327c1.87,2.89,1.86,6.3,0,7.62s-4.91,0-6.78-2.86-1.86-6.3,0-7.62S574.88,1324.1,576.75,1327Z" fill="#f7a491"/><path d="M668.28,1200.65c-3.09-.6-16.15,9.65-16,11.18s12.86-5,13.22-3.92c.29.82-14.26,4.63-13.5,6.09.52,1,13.57-1.75,13.92-1.11.54,1-10.89,1.42-10.15,2.53.85,1.28,11.74.75,11.74.75s2.19-3.52,2.41-4.84a10.06,10.06,0,0,0,.05-2.26c0-.72.28-1.35.18-2.16C669.71,1203.61,670,1201,668.28,1200.65Z" fill="#f7a491"/><path d="M650.87,1208.49l-4.86,6-3.2-2.39a1.6,1.6,0,0,1,.1-1.34C643.29,1209.94,650.77,1206.27,650.87,1208.49Z" fill="#f7a491"/><path d="M681.9,1783h47.37c1.75-.16,2.17-1.57,1.57-2.44-1.25-1.8-6.78-3.12-13-6-10.89,1.14-34.62-6.31-36.34-8.8C680.52,1770.79,680.92,1782.79,681.9,1783Z" fill="#f47458"/><path d="M646.36,1214.08s6.43,3.93,9.09,8.51a11.07,11.07,0,0,1,1.43,8.4l-11-13.55Z" fill="#f7a491"/><path d="M1587.81,678.23c-1.15,5.38-2.18,10.94-5,15.44q-7.21,8.72-13.66,18c3-.21,5.95-.35,9-.35,29.66,0,57.26,10.45,77.72,29.42,18.29,16.95,28.35,38.68,28.35,61.18s-10.06,44.23-28.35,61.19c-20.46,19-48.06,29.41-77.72,29.41s-57.13-10.39-77.56-29.27c-1.49,4.41-3,8.79-4.46,13.19-10,5.07-17,17-17,30.93,0,18.52,12.43,33.54,27.76,33.54,12.06,0,22.3-9.31,26.13-22.28a142.69,142.69,0,0,0,45.16,7.29c73.85,0,133.73-55.52,133.73-124C1711.87,736.41,1657.15,682.83,1587.81,678.23Z" fill="#e0973f"/><path d="M988.09,678.23c1.14,5.38,2.18,10.94,5,15.44q7.2,8.72,13.66,18c-3-.21-6-.35-9-.35-29.66,0-57.27,10.45-77.72,29.42-18.29,16.95-28.36,38.68-28.36,61.18S901.75,846.1,920,863.06c20.45,19,48.06,29.41,77.72,29.41s57.12-10.39,77.56-29.27c1.49,4.41,3,8.79,4.45,13.19,10,5.07,17,17,17,30.93,0,18.52-12.43,33.54-27.77,33.54-12.06,0-22.29-9.31-26.12-22.28a142.69,142.69,0,0,1-45.16,7.29c-73.85,0-133.73-55.52-133.73-124C864,736.41,918.75,682.83,988.09,678.23Z" fill="#e0973f"/><path d="M1607.05,664.11v34.24c0,154.71-125.45,280.16-280.16,280.16-71.26-1-120.15,6.42-187.81-23.53-97.49-42.75-167.67-140.71-167.67-256.63V664.11Z" fill="#f7cc7f"/><path d="M1139.08,955l.21.09,100.71-291H1135.16l-80.72,233.26A280.68,280.68,0,0,0,1139.08,955Z" fill="#fae0b2"/><path d="M1204.6,974.61l106.27-310.5H1258.2L1156.28,962A254.72,254.72,0,0,0,1204.6,974.61Z" fill="#fae0b2"/><path d="M1044.23,886.71l79.47-222.6h-25l-71.9,201.4Q1035,876.55,1044.23,886.71Z" fill="#fae0b2"/><path d="M1579.3,644.71H1000.76c-21.11,0-38.33,11.75-39.54,26.55h657.62C1617.62,656.46,1600.41,644.71,1579.3,644.71Z" fill="#f7cc7f"/><polygon points="1181.82 970.31 1214.55 1138.35 1357.69 1138.35 1398.24 970.31 1181.82 970.31" fill="#f7cc7f"/><polygon points="1398.25 970.32 1389.1 1008.24 1189.22 1008.24 1181.82 970.32 1398.25 970.32" fill="#b75742"/><polygon points="1398.25 1346.23 1181.82 1346.23 1198.05 1262.82 1214.54 1178.19 1357.7 1178.19 1378.14 1262.82 1398.25 1346.23" fill="#f7cc7f"/><polygon points="1398.25 1346.23 1181.82 1346.23 1198.05 1262.82 1378.14 1262.82 1398.25 1346.23" fill="#b75742"/><path d="M1189.44,1138.35H1382.8a15.44,15.44,0,0,1,15.44,15.44v8.94a15.45,15.45,0,0,1-15.45,15.45H1189.44a15.45,15.45,0,0,1-15.45-15.45v-8.95A15.44,15.44,0,0,1,1189.44,1138.35Z" fill="#fae0b2"/><path d="M1167.52,1280h237.73a9,9,0,0,1,9,9v45.92a0,0,0,0,1,0,0H1158.56a0,0,0,0,1,0,0v-45.92A9,9,0,0,1,1167.52,1280Z" fill="#f7cc7f"/><path d="M1498.68,1367.66v16.7h-424.6v-16.7c0-19.23,11.74-34.85,26.2-34.85h372.2C1486.94,1332.81,1498.68,1348.43,1498.68,1367.66Z" fill="#f7cc7f"/><polygon points="1174.05 1332.81 1160.61 1384.36 1142.89 1384.36 1156.33 1332.81 1174.05 1332.81" fill="#fae0b2"/><polygon points="1148.67 1332.81 1135.24 1384.36 1117.5 1384.36 1130.95 1332.81 1148.67 1332.81" fill="#fae0b2"/><polygon points="1196.6 1332.81 1183.17 1384.36 1165.43 1384.36 1178.88 1332.81 1196.6 1332.81" fill="#fae0b2"/><path d="M1656.78,1765.71v16.69H945.27v-16.69c0-19.24,19.67-34.85,43.91-34.85h623.68C1637.1,1730.86,1656.78,1746.47,1656.78,1765.71Z" fill="#f7cc7f"/><polygon points="1112.78 1730.86 1090.27 1782.4 1060.58 1782.4 1083.09 1730.86 1112.78 1730.86" fill="#fae0b2"/><polygon points="1070.27 1730.86 1047.76 1782.4 1018.03 1782.4 1040.58 1730.86 1070.27 1730.86" fill="#fae0b2"/><polygon points="1150.58 1730.86 1128.07 1782.4 1098.34 1782.4 1120.89 1730.86 1150.58 1730.86" fill="#fae0b2"/><path d="M1471.28,938.56v12.6a39.46,39.46,0,0,1-39.45,39.48h-285a39.47,39.47,0,0,1-39.48-39.48v-12.6Z" fill="#f7cc7f"/><polygon points="1558.06 1730.86 1022.63 1730.86 1029.15 1384.36 1550.87 1384.36 1558.06 1730.86" fill="#3c8f7c"/><polygon points="1430.73 1730.86 1149.95 1730.86 1153.38 1384.36 1426.96 1384.36 1430.73 1730.86" fill="#50bfa5"/><path d="M2136.55,1782.4H355.31a4,4,0,0,0-4,4h0a4,4,0,0,0,4,4H2136.55a4,4,0,0,0,4-4h0A4,4,0,0,0,2136.55,1782.4Z" fill="#184655"/><polygon points="1376.46 1720.44 1334.01 1651.11 1271.61 1703.22 1335.81 1312.29 1440.67 1329.51 1376.46 1720.44" fill="#b75742"/><polygon points="1570.42 1703.02 1507.9 1651.06 1465.61 1720.48 1400.5 1329.71 1505.31 1312.25 1570.42 1703.02" fill="#b75742"/><path d="M1656.78,1402.27c0,22.59-19.92,41.75-26.53,62.13-6.86,21.12-2.25,48.28-15,65.86-12.93,17.75-40.27,21.7-58,34.62-17.58,12.8-29.72,37.65-50.84,44.51-20.37,6.62-44.71-6.14-67.29-6.14s-46.92,12.76-67.3,6.14c-21.12-6.86-33.25-31.71-50.83-44.51-17.76-12.92-45.1-16.87-58-34.62-12.79-17.58-8.18-44.74-15-65.86-6.62-20.38-26.53-39.54-26.53-62.13s19.91-41.74,26.53-62.12c6.86-21.12,2.25-48.28,15-65.86,12.92-17.75,40.26-21.7,58-34.62,17.58-12.8,29.71-37.66,50.83-44.51,20.38-6.62,44.71,6.14,67.3,6.14s46.92-12.76,67.29-6.14c21.12,6.85,33.26,31.71,50.84,44.51,17.75,12.92,45.1,16.87,58,34.62,12.79,17.58,8.18,44.74,15,65.86C1636.86,1360.53,1656.78,1379.69,1656.78,1402.27Z" fill="#f47458"/><path d="M1493.31,1595.5c-6.84,0-14.81-1.75-23.24-3.61-10-2.18-20.25-4.44-31-4.44s-21.06,2.26-31,4.44c-8.43,1.86-16.39,3.6-23.24,3.6a26,26,0,0,1-8.16-1.13c-8.71-2.82-16.51-11.69-24.78-21.08-6.55-7.44-13.32-15.12-21.63-21.17s-17.92-10.26-27.09-14.25c-11.4-5-22.18-9.65-27.46-16.9s-6.33-18.77-7.54-31.1c-1-10-2-20.33-5.24-30.34-3.12-9.61-8.28-18.31-13.27-26.73-6.42-10.83-12.49-21.07-12.49-30.52s6.06-19.68,12.49-30.51c5-8.42,10.15-17.12,13.27-26.73,3.25-10,4.26-20.35,5.24-30.35,1.21-12.32,2.36-24,7.55-31.09s16-11.94,27.45-16.9c9.17-4,18.66-8.11,27.09-14.25s15.08-13.74,21.63-21.17c8.27-9.39,16.08-18.26,24.78-21.09a26.3,26.3,0,0,1,8.16-1.12c6.85,0,14.81,1.74,23.24,3.6,10,2.18,20.25,4.44,31,4.44s21.06-2.26,31-4.44c8.42-1.86,16.39-3.6,23.24-3.6a26.23,26.23,0,0,1,8.15,1.12c8.71,2.83,16.52,11.7,24.79,21.09,6.55,7.43,13.32,15.12,21.63,21.17s17.91,10.26,27.08,14.25c11.41,5,22.18,9.65,27.46,16.9s6.33,18.77,7.54,31.1c1,10,2,20.33,5.25,30.34,3.12,9.61,8.28,18.32,13.27,26.73,6.42,10.83,12.49,21.07,12.49,30.51s-6.07,19.69-12.49,30.52c-5,8.42-10.15,17.12-13.27,26.73-3.25,10-4.27,20.35-5.25,30.34-1.21,12.33-2.35,24-7.54,31.1s-16,11.94-27.46,16.9c-9.17,4-18.65,8.11-27.08,14.25s-15.09,13.73-21.63,21.17c-8.27,9.39-16.08,18.26-24.79,21.08A25.93,25.93,0,0,1,1493.31,1595.5Z" fill="#f7cc7f"/><circle cx="1439.06" cy="1402.27" r="158.6" transform="translate(-148.98 2633.29) rotate(-82.04)" fill="#f47458"/><circle cx="1439.06" cy="1402.27" r="150.69" fill="#fff"/><circle cx="1439.06" cy="1402.27" r="136.62" transform="translate(-98.06 2696.32) rotate(-84.35)" fill="#f7cc7f"/><path d="M1365.3,1460l5.08-38.34h-16v-11.54h17.79l3.72-28.36H1359v-11.54h18.58l5.09-37.36h11.34l-4.89,37.36h20.34l5.09-37.36h11.54l-4.89,37.36h16v11.54h-17.8l-3.52,28.36h16.82v11.54H1414.2l-5.09,38.34h-11.74l5.09-38.34h-20.34L1377,1460Zm38.92-49.88,3.72-28.36h-20.35l-3.71,28.36Z" fill="#fff"/><path d="M1490.48,1348.85h-.39l-22.1,11.93-3.33-13.1,27.78-14.87h14.67V1460h-16.63Z" fill="#fff"/><path d="M1597.76,439.79c-1.5,6.13-4.19,15.82-4.19,15.82.22,2.67,1,13.75,1.94,27.34l-20-8s.24-22.14-.66-23.5c-.75-1.14-2,.29-8.14-8.47-1.76-2.53-2.09-7.05-2.09-7.05s-.37-5.56.88-6.08a2.59,2.59,0,0,1,3.13,1.27c.46,1,.34,3.2.79,4.16s3.34,2.12,4.56,2.06-.15-16.45-.15-16.45-.68-4.64-1-6.17c-.29-1.29-1.47-5.09-1.47-5.09s-1.39-5.52.33-5.94c1-.25,3.58,4.23,5.34,9,1.9,5.12,3,10.55,3.52,10.48,1.28-.17.6-9.16.6-9.16a28.81,28.81,0,0,1-1.24-6.06c-1.2-2.38-2-6.79.12-7.16.39-.06,3.17,5.54,3.17,5.54s1.1,3.95,1.74,5.8c1.12,3.25,1.29,8.39,1.88,10.66.49,1.89.93,1.11,1.13,1.19a49.09,49.09,0,0,0-.43-6.11,36.84,36.84,0,0,0-.45-5.93,42.75,42.75,0,0,1-.86-6.26c-.34-4.65,2.59-4.17,3.6.08.38,1.61.79,3.38,1.19,5.17,1.58,7,1.53,13.68,2.28,13.74,1,.07.33-12.15.33-12.15s1.5-6.77,3-.49a55.2,55.2,0,0,1,1.52,13.49C1598,427.3,1599.25,433.66,1597.76,439.79Z" fill="#f8a492"/><path d="M1596.46,466.57s-22.51-5.39-22.72-3.58c-4.73,39.59-6.85,53.9-7.66,54.31-2.72,1.41-38.87-31.65-45.32-33.89-3.08-1.07-6.44-.89-9.66-.8-7.66.23-9.18.26-9.18.26h-.28l0,7.22c8.64,7.77,28.42,125.5,30.09,125.43,1.86-.09,41,9.75,40.26,6.45-.11-.53-26.5-22.13-34-53.29-2.51-10.47-3.75-21.73-5.11-31.59,8.68,4.35,42.61,21,48,18.84C1597.64,549.08,1596.46,466.57,1596.46,466.57Z" fill="#3c8f7c"/><path d="M1663.77,675.61s36.37,28.49,37.59,33.54c1.75,7.28,35.05-2.29,27-3.77-1.85-.34-7.76-1.84-8.25-2.1-2.6-1.39-35-40.39-35-40.39Z" fill="#f7a491"/><path d="M1744,705.38l-23.23-1.89s-6.63,5.49-19.39,5.75a29.74,29.74,0,0,0-1.07,12.64c.17,1.17.36,4.72,1.55,4.64,4.29-.29,15.72-3.13,28.74-5.74,0,0,17.51-3.7,27.62-9.75S1744,705.38,1744,705.38Z" fill="#b75742"/><path d="M1500.82,604.15a159,159,0,0,0,56.08-2.42c34.09-8,71.78-15.34,82.82-8.92,8.89,5.16,64.39,89,64.39,89l-21.43,15.65-61.12-68.44s-78,28.77-95.48,25.58C1486.19,647.37,1485.63,615.52,1500.82,604.15Z" fill="#13375b"/><polygon points="1529.93 587.23 1556.58 618.89 1507.15 633.96 1500.82 604.15 1529.93 587.23" fill="#13375b"/><path d="M1584.09,731.88s-1.62,44-2.63,51.44,18.67,29.75,16.16,22c-.58-1.79-2.07-7.7-2.07-8.25,0-2.95,7.29-53.13,7.29-53.13Z" fill="#f7a491"/><path d="M1610.19,821.33l-14.52-23.62s-8-3.23-14.28-14.33a29.65,29.65,0,0,0-11.62,5.06c-1,.71-7.46,5.47-7,6.56,1.67,4,10.53,12.69,20.21,22.15,0,0,13.73,11.07,23.85,17.09S1610.19,821.33,1610.19,821.33Z" fill="#b75742"/><path d="M1627.26,645.16c-9.32-12.42-84.48-24.22-84.48-24.22l-21-40.28-46.34,28.58s4.63,36.88,8.11,46.73c4.63,13.13,35.78,13.8,54.8,13.6,17.5-.18,49.47,3.39,49.47,3.39l-10.81,95.39s21.25,4.84,27.23,4.06C1605,772.32,1638.84,660.6,1627.26,645.16Z" fill="#355389"/><path d="M1501.9,483l-26.15,1.46s-.6.18-.78.22c-2.13.39-.19,76.59,1.71,105s5.75,40.41,5.75,40.41,35.46-6.29,46.34-10.52c4.52-1.75,15.45-15.42,15.45-15.42s-11.17-15-16.79-39.4c-4.34-18.81-9.69-52.15-12.75-59.11C1507.65,489.65,1501.9,483,1501.9,483Z" fill="#9bc1f9"/><path d="M1476.5,461.32l-.75,23.09s16.93,29.16,25.62,25.1c7.29-3.41.82-25.6.82-25.6s-1.26-5.08-3-10.93c-1.23-4.08-2.24-8.5-2.17-11.75C1497.19,453.34,1476.5,461.32,1476.5,461.32Z" fill="#f7a491"/><path d="M1497,461.23c.18-7.89-20.51.09-20.51.09l-.08,2.26a11.74,11.74,0,0,0,2.32,2.63,28.51,28.51,0,0,0,20.15,5.8A39.78,39.78,0,0,1,1497,461.23Z" fill="#f47458"/><path d="M1496.72,408.67s8.62,13,9.27,23.94a56.72,56.72,0,0,1-1.68,18.41l-27.67-33.08Z" fill="#184655"/><path d="M1508.85,430.37c.39,3.84-1.1,7.13-3.32,7.35s-4.35-2.69-4.74-6.52,1.1-7.12,3.33-7.35S1508.46,426.54,1508.85,430.37Z" fill="#f48c7f"/><path d="M1467.68,423.24c-.63-.14-.57,31.71,8.66,39.21s25.3,8.15,30,.6c5.19-8.35.26-41.91-13.47-49S1467.68,423.24,1467.68,423.24Z" fill="#f7a491"/><path d="M1465.34,403.49c-7,6.18-10.46,10.69-15.23,21.68-5.86,13.51,5.77,27.5,15.53,33.06s10.56,12.29,10.56,12.29l.4-4.15a10.24,10.24,0,0,0-.12-3.81,17.69,17.69,0,0,0-1.39-3.36c-.83-1.78-3.5-7.86-4.54-9.46-2.74-4.24-3.28-5.15-1.93-9.18,1-3.09-.16-9.92,1.45-15l13.13-2.83s8.22-2,12.37-6.76C1507.48,402.19,1483.93,386.87,1465.34,403.49Z" fill="#184655"/><path d="M1471.75,444.05c1.61,3.49,1.28,7.09-.75,8s-5-1.13-6.61-4.63-1.28-7.09.75-8S1470.13,440.55,1471.75,444.05Z" fill="#f7a491"/><path d="M1382.27,356.18c1.49,6.14,4.19,15.83,4.19,15.83-.22,2.66-1,13.75-1.94,27.33l20-8s-.24-22.14.65-23.49c.76-1.15,2,.28,8.14-8.48,1.77-2.53,2.1-7.05,2.1-7.05s.37-5.56-.88-6.08a2.62,2.62,0,0,0-3.14,1.28c-.45,1-.33,3.2-.78,4.16s-3.34,2.12-4.56,2.06.15-16.45.15-16.45.68-4.65,1-6.17c.3-1.3,1.48-5.1,1.48-5.1s1.38-5.51-.33-5.94c-1-.25-3.58,4.24-5.34,9-1.9,5.12-3,10.56-3.52,10.48-1.28-.17-.6-9.15-.6-9.15a29,29,0,0,0,1.24-6.06c1.2-2.38,2-6.8-.12-7.16-.39-.07-3.18,5.54-3.18,5.54s-1.09,3.95-1.73,5.79c-1.12,3.26-1.29,8.4-1.88,10.67-.49,1.88-.93,1.11-1.13,1.18s.11-2.54.43-6.11a35.73,35.73,0,0,1,.45-5.93,42.66,42.66,0,0,0,.85-6.26c.35-4.65-2.58-4.17-3.59.08-.39,1.62-.79,3.39-1.2,5.18-1.57,7-1.52,13.68-2.27,13.73-1,.08-.34-12.15-.34-12.15s-1.49-6.76-3-.48a54,54,0,0,0-1.52,13.48C1382.07,343.69,1380.78,350.05,1382.27,356.18Z" fill="#f8a492"/><path d="M1475.75,484.41s-25.92-1.21-32.61-4.23c-4.05-1.84-37.36-28.68-37.36-28.68l.37-71.86-23.42-1.78s-12.15,79.43-7.94,88.12c4.34,9,53.1,45.95,62.85,62,5.62,9.24,17.33,134.91,19.11,136,12.61,6.57,51.57,13.13,50.65,9.14C1482,563.09,1475.75,484.41,1475.75,484.41Z" fill="#3c8f7c"/><path d="M1010.61,807.46c1.49,6.13,4.18,15.83,4.18,15.83-.21,2.66-1,13.75-1.93,27.33l20-8s-.24-22.14.65-23.5c.76-1.14,2,.29,8.14-8.47,1.77-2.53,2.1-7,2.1-7s.36-5.56-.88-6.08a2.62,2.62,0,0,0-3.14,1.28c-.45,1-.33,3.2-.79,4.16s-3.34,2.12-4.55,2.06.15-16.45.15-16.45.68-4.65,1-6.17c.3-1.3,1.48-5.1,1.48-5.1s1.38-5.52-.33-5.94c-1-.25-3.58,4.24-5.35,9-1.9,5.12-3,10.56-3.52,10.48-1.27-.17-.6-9.15-.6-9.15a28.31,28.31,0,0,0,1.24-6.06c1.2-2.38,2-6.8-.11-7.16-.39-.07-3.18,5.54-3.18,5.54s-1.09,4-1.73,5.79c-1.13,3.26-1.3,8.4-1.88,10.66-.49,1.89-.93,1.12-1.13,1.19s.11-2.54.42-6.11c.16-1.8-.05-3.88.46-5.93a44.06,44.06,0,0,0,.85-6.26c.35-4.65-2.58-4.17-3.59.08-.39,1.62-.79,3.38-1.2,5.18-1.57,7-1.52,13.68-2.28,13.73-1,.07-.33-12.15-.33-12.15s-1.5-6.76-3-.48a54,54,0,0,0-1.52,13.48C1010.4,795,1009.12,801.33,1010.61,807.46Z" fill="#f8a492"/><path d="M1222.59,791.31c-1.49,6.13-4.19,15.82-4.19,15.82.22,2.67,1,13.75,1.94,27.34l-20-8s.24-22.14-.65-23.5c-.76-1.14-2,.29-8.14-8.47-1.77-2.53-2.1-7-2.1-7s-.37-5.56.88-6.08a2.6,2.6,0,0,1,3.14,1.28c.45,1,.33,3.19.78,4.15s3.34,2.12,4.56,2.06-.15-16.45-.15-16.45-.68-4.64-1-6.16c-.3-1.3-1.48-5.1-1.48-5.1s-1.38-5.52.33-5.94c1-.25,3.58,4.23,5.34,9,1.9,5.12,3,10.55,3.52,10.48,1.28-.17.6-9.16.6-9.16a28.83,28.83,0,0,1-1.24-6c-1.2-2.38-2-6.8.12-7.17.39-.06,3.18,5.55,3.18,5.55s1.09,3.94,1.73,5.79c1.12,3.26,1.29,8.4,1.88,10.66.49,1.89.93,1.11,1.13,1.19s-.12-2.54-.43-6.11a35.73,35.73,0,0,0-.45-5.93,44.15,44.15,0,0,1-.86-6.26c-.34-4.65,2.59-4.17,3.6.08.39,1.62.79,3.38,1.2,5.18,1.57,7,1.52,13.67,2.27,13.73,1,.07.34-12.15.34-12.15s1.49-6.76,3-.49A54.06,54.06,0,0,1,1223,777C1222.79,778.82,1224.08,785.18,1222.59,791.31Z" fill="#f8a492"/><path d="M1098,863.27s10.17-10.72,18.34,2.32a8.13,8.13,0,0,1,10.72,2.76s11.38-3.42,14.14,13.59c0,0,5.86-1.1,6.63,5.86a17.18,17.18,0,0,1-2.76,11.6s3.29,2.47,1.8,8.86a7.93,7.93,0,0,1-5.78,6.28s-1.21,9.17-5.19,11.93-9.39,1.43-9.39,1.43-1.44,5-6.08,4.53-10.38-4.86-15.58-2.87-18.67-.11-18.67-.11-15.14-6.74-10.61-22.21c0,0-8-7.18-1-15.8,0,0-5.08-13.48,5-21.43S1098,863.27,1098,863.27Z" fill="#07345a"/><path d="M1168,1312.25s11.07,13.73,13.83,15.41-1.23,21.64-8.74,22.95c-4.24.74-6.59-3.93-6.59-3.93l1.21-5.74-15.82-16.3Z" fill="#f7a491"/><path d="M1110.91,1315.64s9.23,15,11.75,17.06-4,21.3-11.6,21.63c-4.3.2-6-4.73-6-4.73l1.94-5.54-13.61-18.19Z" fill="#f7a491"/><path d="M1122.11,1332.11a115.41,115.41,0,0,1-8.2,9.45,97.1,97.1,0,0,1-8.51,6.86s-5.42,9.83-6.9,13.27c-3.29,7.63-7,16.14-6.46,20.41.17,1.38,3.25,2.83,5.82,2,10.7-3.29,38.05-28.31,41.5-35C1143.34,1341.37,1122.11,1332.11,1122.11,1332.11Z" fill="#07345a"/><path d="M1044,1103.16c1-2.78,2-5.36,2.87-7.77,11.37,2.48,24.22,5.21,37.44,8l1.61,48.45c0-3.74-9.94,77.28-9.94,77.28s25.69,56.87,43.26,90c-7.21,9-10.59,11.9-21,18-27.27-32.69-63-92.51-64.44-102.46C1033,1229,1032.18,1136.52,1044,1103.16Z" fill="#b75742"/><path d="M1145.58,1117.17c-3.47,37.75-11.2,109.93-10.56,115.73,2,7.24,36.32,74,42.51,83.75-4.91,7.4-12.52,15.4-20.7,17.61-1.61.44-58.35-80.3-61.44-86.71-3.5-7.24-9.32-46.76-9.43-95.68l-1.61-48.45C1106.38,1108.11,1126.63,1112.72,1145.58,1117.17Z" fill="#f47458"/><path d="M1073.26,945.07l25.92,3.56s20.78.51,23.36.51,18.85,94.57,23.56,130.16,1.07,41.89,1.07,41.89-32.87,7.4-57.19,5.24c-25.29-2.24-53.74-15.89-53.74-15.89s21.61-68.4,25.9-89.75S1073.26,945.07,1073.26,945.07Z" fill="#96d9c9"/><path d="M1010.39,830.51s-1.66,70.51,1,75.9c3.87,7.85,47.4,63.48,47.4,63.48s-20.8,87-29.54,117.08c-.88,3-4.78,22.57-4.78,24.48,0,4.23,18.4,9.59,20.58,9.27,2-.28,18-83.06,28.26-123.57a116,116,0,0,1,17.57-38.28l7.13-10.12-54.69-54.82s-6.74-61-6.74-66.07C1036.58,826.53,1013.05,825.54,1010.39,830.51Z" fill="#13375b"/><path d="M1121.6,949l68.19-69.49s9.51-65.71,10.18-68.18,17.6-3.75,24.43-4.41c2.19-.22-1.15,70-4.41,81.75-3.86,13.9-55.41,77.24-55.41,77.24s-9.24,34.31-7,59.48c3.69,41.79,13.66,99.28,11.87,101.09-11.08,7-53.62,7.73-56.31,3.39C1083.4,1082,1121.6,949,1121.6,949Z" fill="#13375b"/><path d="M1099.68,936l-1.84,13.65s-4.12,19.67,1.18,23.46,22.55-24,22.55-24l-1.82-34.59Z" fill="#f7a491"/><path d="M1120.34,925.74c-4.38,11.8-14.81,19-22.22,21.86l1.56-11.57,20.07-21.5Z" fill="#f47458"/><path d="M1148,891c0,5.27-3,9.54-6.69,9.54s-6.69-4.27-6.69-9.54,3-9.54,6.69-9.54S1148,885.75,1148,891Z" fill="#07345a"/><ellipse cx="1119.76" cy="870.52" rx="8.14" ry="5.48" fill="#07345a"/><path d="M1107.5,878.19a18.24,18.24,0,0,0-23.88,14.54,138.39,138.39,0,0,0-1.48,17.51c-.29,15.94,8,31.46,15.21,31.46s27.25-10.32,28-33C1125.77,894.77,1118.79,882.08,1107.5,878.19Z" fill="#f7a491"/><path d="M1120,910.54c0,3.51,2.34,6.36,5.21,6.36s5.21-2.85,5.21-6.36-2.33-6.37-5.21-6.37S1120,907,1120,910.54Z" fill="#f7a491"/><path d="M1076.13,870.26c-7.48,5.92-10.1,14.92-5.85,20.1s13.75,4.58,21.22-1.35,10.1-14.92,5.86-20.1S1083.61,864.33,1076.13,870.26Z" fill="#07345a"/><ellipse cx="1102.63" cy="875.11" rx="6.94" ry="4.66" fill="#07345a"/><path d="M1075,894.93a5.93,5.93,0,1,0,5.93-6A6,6,0,0,0,1075,894.93Z" fill="#07345a"/><path d="M1181.17,1327.15a118.1,118.1,0,0,1-6.92,10.42,97.92,97.92,0,0,1-7.57,7.9s-4.12,10.44-5.15,14c-2.29,8-4.88,17.65-3.8,21.82.34,1.34,3.29,3.89,5.72,2.31,9.38-6.11,34.44-34.71,37-41.81C1203.41,1333.63,1181.17,1327.15,1181.17,1327.15Z" fill="#07345a"/><path d="M1669.34,1035.83s-29.91,4.61-52,26.64-35.29,57.42-35.29,57.42l45.24,13.19S1609.21,1090.89,1669.34,1035.83Z" fill="#fae0b2"/><path d="M1677.62,1057.53l-3.24-25.48-22.82-11.78a3.52,3.52,0,0,1,.11-6.32l23.23-11,4.14-25.35a3.53,3.53,0,0,1,6.06-1.85l17.6,18.71,25.39-3.89a3.53,3.53,0,0,1,3.63,5.18l-12.36,22.52,11.55,23a3.53,3.53,0,0,1-3.81,5l-25.24-4.79-18.25,18.07A3.53,3.53,0,0,1,1677.62,1057.53Z" fill="#f7cc7f"/><path d="M882.38,1171.48s29.91,4.61,52,26.64,35.28,57.41,35.28,57.41l-45.23,13.19S942.51,1226.54,882.38,1171.48Z" fill="#fae0b2"/><path d="M874.09,1193.18l3.24-25.48,22.83-11.78a3.53,3.53,0,0,0-.11-6.33l-23.23-11-4.15-25.34a3.53,3.53,0,0,0-6-1.85L849,1130.15l-25.39-3.9a3.53,3.53,0,0,0-3.63,5.19L832.36,1154l-11.55,22.94a3.53,3.53,0,0,0,3.81,5.06l25.23-4.79,18.26,18.07A3.53,3.53,0,0,0,874.09,1193.18Z" fill="#f7cc7f"/><path d="M1871.67,1058.09l7-11.82-5.77-12.46a1.88,1.88,0,0,1,2.13-2.63l13.39,3,10.07-9.34a1.89,1.89,0,0,1,3.17,1.21l1.28,13.67,12,6.69a1.88,1.88,0,0,1-.17,3.38l-12.6,5.45-2.66,13.47a1.88,1.88,0,0,1-3.27.88l-9.07-10.3-13.64,1.63A1.89,1.89,0,0,1,1871.67,1058.09Z" fill="#466eb6"/><path d="M1196.61,523.53l8.83-14.91-7.28-15.72a2.39,2.39,0,0,1,2.68-3.33l16.91,3.79,12.71-11.78a2.38,2.38,0,0,1,4,1.52l1.62,17.25,15.13,8.45a2.38,2.38,0,0,1-.22,4.26l-15.9,6.87-3.36,17a2.38,2.38,0,0,1-4.12,1.12l-11.45-13-17.2,2.07A2.39,2.39,0,0,1,1196.61,523.53Z" fill="#f79c8d"/><polygon points="1844.46 560.56 1821.15 576.12 1834.18 598.74 1811.9 615.08 1821.69 638.24 1807.02 653.19 1814.58 660.62 1834.21 640.62 1824.94 618.67 1848.12 601.68 1835.3 579.42 1856.42 565.33 1844.46 560.56" fill="#f48c7f"/><polygon points="1880.26 935.44 1863.77 912.78 1841.69 926.73 1824.46 905.12 1801.72 915.85 1786.18 901.79 1779.07 909.65 1799.85 928.45 1821.4 918.29 1839.32 940.76 1861.04 927.05 1875.98 947.58 1880.26 935.44" fill="#f48c7f"/><polygon points="1107.55 466.19 1113.15 438.74 1087.96 431.85 1092.28 404.56 1069.02 395 1068.91 374.05 1058.31 374.11 1058.45 402.13 1080.49 411.18 1076 439.57 1100.77 446.35 1095.7 471.23 1107.55 466.19" fill="#f48c7f"/><polygon points="889.67 502.71 900.34 522.63 923.35 521.34 933.72 544.51 957.8 535.58 970.69 561.27 993.88 555.79 1010.32 578.48 1001.74 584.7 989.44 567.74 964.97 573.52 952.58 548.83 928.1 557.91 916.65 532.33 894.18 533.59 884.29 515.13 869.72 519.04 866.97 508.8 889.67 502.71" fill="#f7cc7f"/><polygon points="790.44 659.98 773.46 661.7 767.67 634.69 742.53 634.14 734.89 614.64 725.01 618.5 735.23 644.6 759.05 645.11 765.08 673.21 790.63 670.62 790.44 659.98" fill="#50bfa5"/><polygon points="759.89 952.88 753.54 968.72 726.92 961.31 714.77 983.32 693.95 981.03 692.79 991.58 720.64 994.64 732.15 973.77 759.84 981.48 769.41 957.65 759.89 952.88" fill="#50bfa5"/><path d="M805,775.7a47.27,47.27,0,1,1-66.84,1.39A47.28,47.28,0,0,1,805,775.7Z" fill="#fff3d9"/><path d="M804,815.22l-20.12,6.18-6.31,20.08a2,2,0,0,1-3.63.56l-12.1-17.22-21,.21a2.06,2.06,0,0,1-1.66-3.29l12.64-16.82L745.06,785a2.06,2.06,0,0,1,2.61-2.6l19.91,6.83,16.9-12.54a2.06,2.06,0,0,1,3.28,1.68l-.34,21,17.14,12.21A2,2,0,0,1,804,815.22Z" fill="#fed333"/><path d="M2040,854.38a47.27,47.27,0,1,1-66.84,1.39A47.28,47.28,0,0,1,2040,854.38Z" fill="#fff3d9"/><path d="M2038.92,893.9l-20.11,6.18-6.31,20.08a2.06,2.06,0,0,1-3.64.56l-12.09-17.22-21,.2a2,2,0,0,1-1.66-3.28l12.63-16.82-6.69-20a2.05,2.05,0,0,1,2.61-2.6l19.91,6.82,16.9-12.53a2,2,0,0,1,3.27,1.68l-.33,21,17.14,12.21A2,2,0,0,1,2038.92,893.9Z" fill="#fed333"/><path d="M1826.62,795.07l8.26,13.73a2.09,2.09,0,0,0,3.74-.31l5.87-14.91L1860.1,790a2.09,2.09,0,0,0,.86-3.65l-12.36-10.19,1.38-16a2.09,2.09,0,0,0-3.21-1.94l-13.51,8.61-14.76-6.25a2.09,2.09,0,0,0-2.84,2.45l4,15.52-10.5,12.1a2.09,2.09,0,0,0,1.45,3.46Z" fill="#f47458"/><path d="M1797.61,1109.52A9.58,9.58,0,1,1,1788,1100,9.58,9.58,0,0,1,1797.61,1109.52Z" fill="#50bfa5"/><path d="M676.78,819.22c0,5.29-4.65,9.58-10.38,9.58S656,824.51,656,819.22s4.64-9.58,10.37-9.58S676.78,813.93,676.78,819.22Z" fill="#50bfa5"/><path d="M1219.28,361.11l12.58,2.48s18.37-8.58,19.77-12.72.76-13.67,3.45-14.27a8.31,8.31,0,0,1,10.13,6c1.5,4.59-3.7,19-2.45,20.36.79.82,8,2.45,13.24,3.56a9.48,9.48,0,0,1,7.17,6.82h0a5.22,5.22,0,0,1-2.55,6l-3.31,1.77,1.56,3.45a5.24,5.24,0,0,1-2.48,6.84l-2.58,1.23,1.14,2.08a5.22,5.22,0,0,1-2.5,7.26l-2.26,1,.17.61a5.21,5.21,0,0,1-3,6.26l-2.26.9L1231.59,404a23,23,0,0,1-8.74-3.72L1211.46,396a2.67,2.67,0,0,1-1.64-3.07l6.36-29.75A2.67,2.67,0,0,1,1219.28,361.11Z" fill="#96d9c9"/></svg>