<svg id="Ñëîé_1" data-name="Ñëîé 1" xmlns="http://www.w3.org/2000/svg" viewBox="0 0 2600 2000"><title>team_up</title><g id="_4" data-name="4"><polygon points="1482.95 1100.76 1476.45 1186.58 1006.88 1186.58 1006.47 1424.89 432.89 1425.29 431.24 1642.85 458.63 1670.25 2125.14 1670.25 2125.14 1120 2099.4 1094.26 1482.95 1100.76" fill="#383838"/><polygon points="407.16 1399.56 458.63 1451.03 458.63 1670.25 407.16 1618.77 407.16 1399.56" fill="#2b2b2b"/><polygon points="981.14 1160.84 1032.61 1212.31 1032.61 1451.03 981.14 1399.56 981.14 1160.84" fill="#2b2b2b"/><polygon points="1450.72 1068.52 1502.19 1120 1502.19 1212.31 1450.72 1160.84 1450.72 1068.52" fill="#2b2b2b"/><polygon points="2073.67 1068.52 2125.14 1120 1502.19 1120 1450.72 1068.52 2073.67 1068.52" fill="#424242"/><polygon points="981.14 1160.84 1032.61 1212.31 1502.19 1212.31 1450.72 1160.84 981.14 1160.84" fill="#424242"/><polygon points="407.16 1399.56 458.63 1451.03 1032.61 1451.03 981.14 1399.56 407.16 1399.56" fill="#424242"/></g><g id="_3" data-name="3"><path d="M1562,632.59c2.24,3.44-4.39,7.49-6.13,10.37a66.15,66.15,0,0,0,11.93-1.32q10.41-5.26,20.26-11.57c11.61-.09,8.08,26.38-15.28,33.87-8.4,2.69-16.59,6-30.33,3.91-4.5-.7-5.76-13.38-3-16.9C1544.32,647.16,1558.7,629.37,1562,632.59Z" fill="#f99370"/><path d="M1041.09,767.19c1.5,3.82,8.88.15,12.44,1.29a46,46,0,0,1-8.42,8.67c-6.88,3.64-13.94,6.89-21.15,9.83-6.8,9.42,16.83,21.86,36.45,7.14,7.06-5.3,14.52-10,20.74-22.48,2-4.07-4.33-13-8.81-13C1065.34,758.61,1040.39,762.6,1041.09,767.19Z" fill="#e57d61"/><path d="M1349.33,635.42c32.37,15.1,66,32.36,102.13,34.65,21.12-.34,42.35-5.43,62.66-11.49,8.44-2.54,16.9-5.4,25.2-8.39,11.42-4.45,19.9,12.38,9.67,18.93-28.29,19.28-60.64,34.07-94.81,38.86-25,2.48-49.42-3.17-72.87-10.3a357.67,357.67,0,0,1-53-21.34C1301.19,662.18,1322,621.59,1349.33,635.42Z" fill="#f99370"/><path d="M1546.31,670.93s-2.56,2.21-7.17,5.68C1522.67,689,1480,717.2,1434.36,716.73a335.39,335.39,0,0,1-57.43-5.55c-2.35-.44-4.62-.88-6.81-1.34-4.35-.9-8.34-1.82-12-2.72q-4.8-1.18-8.65-2.3c-9.16-2.59-14.25-4.58-14.25-4.58,9.48-42.62,3-68-2.74-80.55-3-6.55-5.76-9.62-6-9.81h0l.07,0,.12.06c.7.27,3.08,1.24,6.8,2.81,10.83,4.6,32.94,14.39,57,27.38,25.37,13.72,64.1,32.55,137.79,13.27q4-1,8.19-2.22S1535,662.68,1546.31,670.93Z" fill="#3a72aa"/><path d="M1550.91,1091.73l-65.17,2.35a5.19,5.19,0,0,1-5.37-5.27,41,41,0,0,1,.4-5.08,87.31,87.31,0,0,0,.64-16.48c-.14-2.63-.39-5.26-.76-7.87l-6.34-45.55a5.19,5.19,0,0,1,5-5.89l28.76-1a5.18,5.18,0,0,1,5.35,5.63l-3.73,41.84a18.14,18.14,0,0,0,14.37,19.34c6.42,1.35,12.91,2.06,17.57,3.09l1.78.41h0c5,1.22,9.06,2.91,11.52,6.26A5.18,5.18,0,0,1,1550.91,1091.73Z" fill="#f99370"/><path d="M1478.42,1087.59c.29,3.18,2,6.76,5.71,6.55l67.59-2.44a5,5,0,0,0,4.48-6.92c-2.88-7.27-12.6-17.92-44.6-18.57a114.52,114.52,0,0,1-30.19,1A32.82,32.82,0,0,0,1478.42,1087.59Z" fill="#eb5648"/><path d="M1556.2,1084.78l-77.78,2.81a17.79,17.79,0,0,0,2.38,6.67l70.92-2.56a5,5,0,0,0,4.53-6.81Z" fill="#ce3932"/><path d="M1534.79,1036c.33,8.8.37,14,.37,14s-32.44,14.16-65.85,5.18a76.59,76.59,0,0,1-7.49-2.41c-.93-3.75-1.82-8-2.69-12.64-7.39-39.37-13.53-106.14-36.56-123.68-23.89-17.15-68.13-14.81-95.45-16.11-.77,0-1.53-.07-2.26-.12-40.94-2.38-73-31.85-98.41-76.93-3.76-6.64,43.94-12.93,43.94-12.93l110.31-9.2c28.39,7.08,78.52,17.22,110.82,52.24C1526.09,890.88,1533.29,997.53,1534.79,1036Z" fill="#1d3f70"/><path d="M1469.31,1055.18h0a76.59,76.59,0,0,1-7.49-2.41c-8.88-35.62-13.51-116.71-39.25-136.32-23.89-17.15-68.13-14.81-95.45-16.11l8.89-19.28s75,.86,99.93,34.16S1469.31,1055.18,1469.31,1055.18Z" fill="#103663"/><path d="M1317.9,1203.73l-64.8-7.26a5.2,5.2,0,0,1-4.54-6,42.68,42.68,0,0,1,1.14-5,86.65,86.65,0,0,0,3.06-16.21c.25-2.62.83-29,.85-31.66,0,0,33.4-3.35,32.67-.32l-2.39,35.59c3,8,1.43,5.86,10.06,9.06,6.14,2.28,12.46,3.94,16.92,5.64.57.22,1.15.44,1.7.67h0c4.71,1.94,8.53,4.21,10.48,7.89A5.18,5.18,0,0,1,1317.9,1203.73Z" fill="#f99370"/><path d="M1246.81,1189c-.18,3.2,1,7,4.68,7.33l67.22,7.53a5,5,0,0,0,5.45-6.18c-1.79-7.62-9.83-19.59-41.39-24.94a114.58,114.58,0,0,1-30-3.41A32.85,32.85,0,0,0,1246.81,1189Z" fill="#eb5648"/><path d="M1324.16,1197.64l-77.35-8.68a18,18,0,0,0,1.37,7l70.53,7.9a5,5,0,0,0,5.48-6.06Z" fill="#ce3932"/><path d="M1326.53,609.85c3-13.72,3-34,1.9-42.44-1.8-16.62-28.28-13-25.66,3.4.89-.44.47,29.31-2.22,37.29-16.15,3.06,26.64,30,38.94,24.36C1347.24,628.88,1326.53,609.85,1326.53,609.85Z" fill="#f99370"/><path d="M1302.67,569.44c0,.19,0,.39,0,.58s0,.53.07.79c.64-.33.62,16.1-.6,27.9,10.58,6.2,23.19,5.28,25.5,5,1.8-12.42,1.48-28.09,1.07-34-.16-1.39-.29-2.21-.31-2.38-.06-.37-.12-.74-.21-1.11a12.92,12.92,0,0,0-6.65-8.65h0a13,13,0,0,0-14.69,1.93c-.08.07-.15.15-.23.21A12.88,12.88,0,0,0,1302.67,569.44Z" fill="#e57d61"/><path d="M1285.29,546.82s.23-14,4.59-23.61l8,3.91Z" fill="#8e4a35"/><path d="M1336.47,801.39c2.66,69.57-5,167.2-10.63,212.67-5.48,44.44-14.95,103.59-19.26,130h0c-1.4,8.58-2.26,13.68-2.26,13.68s-33.7,16.1-65.7-4c0,0,.17-5.06.39-13.61.7-27.27,1.86-90.06-.72-136.87-2.51-45.68-33.26-124.36-11.83-179.89Z" fill="#1d3f70"/><path d="M1285.08,587.69c12.46,12.15,32,14,46.11,5.9h0a25.33,25.33,0,0,0,3-2.15h0c44.57-44.91-16-118.37-43.64-54.22C1281.23,555.28,1265,565,1285.08,587.69Z" fill="#f99370"/><path d="M1304.27,551.29a1.79,1.79,0,1,1,2.41.78A1.79,1.79,0,0,1,1304.27,551.29Z" fill="#c16256"/><path d="M1289.23,548.78a1.79,1.79,0,1,1,2.41.78A1.78,1.78,0,0,1,1289.23,548.78Z" fill="#c16256"/><path d="M1293.91,564.25a7.38,7.38,0,0,0,3-.23.67.67,0,0,0,.43-.85.68.68,0,0,0-.85-.43c-2.26.72-5.48-.41-5.92-1.43-.16-.36.33-.72.76-1,3.84-2.08,6.4-9.34,6.51-9.64a.68.68,0,0,0-1.28-.45c0,.07-2.5,7.07-5.87,8.9-1.84,1-1.57,2.21-1.37,2.68C1289.87,563.07,1291.85,564,1293.91,564.25Z" fill="#c16256"/><path d="M1292.63,532.78c9.7-5.11,27.29-.47,35.92-.54,0,0-1.83,14.77,13.09,25.28,1.26,13.58,3.5,19.5-10.45,36.07h0a25.33,25.33,0,0,0,3-2.15h0C1377.12,548.62,1321.16,475.57,1292.63,532.78Z" fill="#e57d61"/><path d="M1285.28,503.36c5.57-11,22.07-16.95,36.34-3.39,11,10.44,22.83,10.36,22.59,21.36,22,10,11.11,34.24,11.11,34.24l-11-1.3c-12.61-10.2-12.23-25.19-12.23-25.19h0a28.86,28.86,0,0,1-8.39-.65c-8.13-2.07-20.15-3.07-29.31.3S1279.07,515.63,1285.28,503.36Z" fill="#8e4a35"/><path d="M1356.89,564.47c-1.19,5.66-5.85,9.48-10.42,8.52s-7.3-6.33-6.11-12,5.86-9.49,10.42-8.53S1358.09,558.8,1356.89,564.47Z" fill="#f99370"/><path d="M1346.06,557c.17-.07,4.36-1.69,6.71.49a4.37,4.37,0,0,1,1.23,2.21h0c0,.09,0,.16.07.25h0a14.6,14.6,0,0,1-.79,6.82.66.66,0,0,1-.72.48l-.12,0a.66.66,0,0,1-.45-.84,15,15,0,0,0,.82-5.59c-3.9.7-5.85,5.07-5.87,5.12a.67.67,0,0,1-.7.4.41.41,0,0,1-.19,0,.68.68,0,0,1-.36-.88c.1-.22,2.22-5.1,6.8-6a2.57,2.57,0,0,0-.64-1c-1.73-1.6-5.27-.24-5.3-.23a.67.67,0,1,1-.49-1.25Z" fill="#c16256"/><path d="M1380.69,801.17s-42.36,40.82-154.25,22.12c0,0,1.5-40.91,3.27-80.53.16-3.41.31-6.79.47-10.16h0c1.43-30.87,3-58.69,4-62.64,10.64-39.84,43.91-54.93,58.88-59.81a66.85,66.85,0,0,1,7.44-2c0,9.87,17.09,16.33,23,12.06,4.92-3.56,3.12-9.94,3-10.29h0l.07,0,.12.06a53.73,53.73,0,0,1,6.79,3.51c15.1,9.28,25,26,30.5,50a200.9,200.9,0,0,1,4.15,28.23c.15,1.79.29,3.62.4,5.47.24,3.87.78,8.12,1.52,12.63a.28.28,0,0,1,0,.06C1374.76,738.19,1387.12,777.25,1380.69,801.17Z" fill="#3a72aa"/><path d="M1313.46,548.8a.84.84,0,0,0,.44-.08.79.79,0,0,0,.37-1.05,14.13,14.13,0,0,0-10.23-7.19.8.8,0,0,0-.92.65.78.78,0,0,0,.65.92,12.61,12.61,0,0,1,9.07,6.3A.78.78,0,0,0,1313.46,548.8Z" fill="#c16256"/><path d="M1288.64,543.17a.78.78,0,0,0,.68-.26c2-2.24,6.39-2,6.44-2a.79.79,0,0,0,.09-1.58c-.21,0-5.15-.25-7.7,2.55a.8.8,0,0,0,0,1.13A.84.84,0,0,0,1288.64,543.17Z" fill="#c16256"/><path d="M1224.72,664.31c-25.27,25.45-50.68,40.93-73.68,54.86-18.06,10.94-36.25,22.56-55.82,30.7-8.14,3.37-16.51,6.5-24.83,9.43-11.66,3.78-7.59,22.17,4.47,20.78,34.12-2.94,70.23-10.2,99.53-28.41,23.53-14.61,52.33-30,69.45-47.58,16.1-16.49,31.7-42.88,39.51-60.33C1295.39,615.68,1249.47,626.79,1224.72,664.31Z" fill="#e57d61"/><path d="M1300.54,608.11s-.87,3.76-3,10.46c-5.07,15.77-17.22,47.84-41.7,85.79a122.86,122.86,0,0,1-25.64,28.23c-38.77,31.77-97,46.38-140,46.92-2.74,0-5.49,0-8.21-.12,0,0,3-13.79-5.88-22.13,0,0,2.49-1.22,6.57-3.31,14.72-7.58,50.22-26.57,65.09-41.29,18.39-18.2,68.12-99.58,144.86-104.33l1.41-.08C1296.19,608.13,1298.36,608.09,1300.54,608.11Z" fill="#3a72aa"/><path d="M1534.79,1036c.33,8.8.37,14,.37,14s-32.44,14.16-65.85,5.18a76.59,76.59,0,0,1-7.49-2.41c-.93-3.75-1.82-8-2.69-12.64,0,0,38.3,10.36,75.65-4.16Z" fill="#103663"/><path d="M1306.57,1144c-1.4,8.58-2.26,13.68-2.26,13.68s-33.7,16.1-65.7-4c0,0,.17-5.06.39-13.61C1239,1140.05,1262.48,1157.26,1306.57,1144Z" fill="#103663"/><path d="M1082.68,754c-4.09,2.09-6.57,3.31-6.57,3.31,8.89,8.34,5.87,22.12,5.87,22.12,2.73.12,5.48.16,8.22.12C1090.24,779.19,1092.26,762,1082.68,754Z" fill="#23659b"/><path d="M1546.31,670.93s-2.56,2.21-7.17,5.67h0c-13.18-9.84-10.85-22.87-10.85-22.87l0-.32c2.67-.7,5.4-1.43,8.19-2.22C1536.51,651.19,1535,662.68,1546.31,670.93Z" fill="#23659b"/><path d="M1293.83,571.6a13.3,13.3,0,0,1-3.17-.35.64.64,0,0,1-.46-.79.65.65,0,0,1,.79-.45c.34.09,8.38,2.17,12.53-5.24a.64.64,0,0,1,.87-.25.65.65,0,0,1,.25.88A11.84,11.84,0,0,1,1293.83,571.6Z" fill="#c16256"/><path d="M1271.66,677.7c-.58,1.36-18,42.08-42,65.06.16-3.41.31-6.79.47-10.16h0S1255.17,706.36,1271.66,677.7Z" fill="#23659b"/><path d="M1376.93,711.18c-2.35-.44-4.62-.88-6.81-1.34a.28.28,0,0,0,0-.06c0-.71-.63-7.63-1.92-18.06v0c-1-7.81-2.32-17.59-4.15-28.21v0l0-.15S1370.19,683.74,1376.93,711.18Z" fill="#23659b"/><path d="M1333.55,612.76c0,.23,0,.46,0,.7a19.32,19.32,0,0,1-1,6.23c-1.67,4.69-5.78,8.71-15.06,8.33-10.23-.41-16.34-4.87-19.93-9.45a26.31,26.31,0,0,1-4.42-8.43,14.26,14.26,0,0,1-.47-1.81h0l1.41-.07c2.15-.12,4.32-.16,6.5-.14,0,9.87,17.09,16.33,23,12.06,4.92-3.56,3.12-9.94,3-10.29,0,0,0,0,0,0l.07,0C1327.11,610.09,1329.58,611.08,1333.55,612.76Z" fill="#23659b"/></g><g id="_2" data-name="2"><path d="M1053.94,767.92s-18.13-1.08-29.2,8.1-18.27,24.44-18.27,24.44,12.47,2.66,13.58,8.85c0,0,14.56-12.14,19.64-20.31S1053.94,767.92,1053.94,767.92Z" fill="#f99370"/><path d="M816.35,758.35s-27.22-27.26-64.66,15.17-14.08,42.37-73.05,64c-49.06,18-63.52,73,1.36,89.11,62,15.35,101.48-34.39,138.6-31.84s41.64-76.95,29.82-97S816.35,758.35,816.35,758.35Z" fill="#c92828"/><path d="M831.2,924.82c39.32,4.33,81.33-.67,115.7-21.74,37.51-25.15,68.6-61.94,82.61-105.21,1.94-5.63-3.89-11.4-9.47-9.49-.18.21-7.76,2.11-7.74,2.56q-3.63,5.28-7.66,10.28C970.05,843.49,920.18,878.4,863.29,874a236.92,236.92,0,0,1-25.41-1.9C803.35,868.43,796.75,919.75,831.2,924.82Z" fill="#f99370"/><path d="M943.05,904.81a20.76,20.76,0,0,1-2.45,8h0c-8.59,13.4-41.8,21.06-72.62,20.75q-4.87,0-9.63-.35c-4.08-.28-8.06-.7-11.87-1.28-1.93-15-13.56-51.19-15.46-66,10.45-1.25,28.48,2.8,46,4,17.91,2.62,32.47-10.64,44.52-4.62C921.53,865.33,920.34,893.68,943.05,904.81Z" fill="#9358e0"/><path d="M578.5,1248.1s20.69-3.1,37.48-7.87l6.07,36.79-39.18-2S570.38,1265.09,578.5,1248.1Z" fill="#f99370"/><path d="M793.13,1399l3.24-24.08,32.31.31s-4.26,10.52-8.26,24.07C820.42,1399.28,806.47,1411.1,793.13,1399Z" fill="#f99370"/><path d="M816.42,758.74c35.82-10.62,34.75,48.42,31.27,60Z" fill="#c92828"/><path d="M559.41,1247.7a16.64,16.64,0,0,0-5.88,3l10.55,65a4.67,4.67,0,0,0,6.8,3.41l.1-.06c6.43-3.53,15.21-13.85,11.89-44,0,0-4.69-9.7-4.37-27C578.5,1248.1,568.06,1245.19,559.41,1247.7Z" fill="#1d3f70"/><path d="M571,1319l-11.57-71.31a16.64,16.64,0,0,0-5.88,3l10.55,65a4.67,4.67,0,0,0,6.8,3.41Z" fill="#395b96"/><path d="M789.47,1417.72a16.54,16.54,0,0,0,1.91,6.3l65.83.72a4.67,4.67,0,0,0,4.52-6.12l0-.11c-2.38-6.93-11-17.35-41.27-19.23,0,0-10.35,3-27.29-.3C793.13,1399,788.48,1408.77,789.47,1417.72Z" fill="#1d3f70"/><path d="M861.69,1418.51l-72.22-.79a16.54,16.54,0,0,0,1.91,6.3l65.83.72a4.67,4.67,0,0,0,4.52-6.12Z" fill="#395b96"/><path d="M598.91,1280.49c3,.64,6.4,1.19,10.09,1.66h0c46.82,6,142.71-1.43,177.1-38.33h0a173.88,173.88,0,0,0,13-15.33c30.34-40.18,41.68-91.28,45.47-142.38,1.32-17.7,1.72-35.39,1.7-52.64-6.66-39.1-42.58-50.54-70.9-41-22.19,7.47-39.72,27.84-34.86,57.87v-.13c8.51,24.34,10.23,47,6.43,67.61-11,59.79-68.48,102.55-141.69,119.81q-5.94,1.39-12,2.57S588.4,1263.12,598.91,1280.49Z" fill="#e8c0a6"/><path d="M789.48,1022.58,841,1106.35l1.76-1q1.2-10.35,1.94-21.16.53-7.14.85-14.48.74-15.78.74-32.47l-17.66-5Z" fill="#d1a68f"/><path d="M779.22,1250.21s13.27-11.17,19.94-21.72c18.86-29.87,19.84-32.19,30.32-66.68l-12.12-66.93-70.68-4.49c.58,14.45,3.09,20.74-3,40.76C743.7,1131.15,780.85,1162.87,779.22,1250.21Z" fill="#d1a68f"/><path d="M727.6,1096.11c6.53,7.65,13.49,14.44,19.4,21.73,29,35.7,45.18,72.52,52.16,110.65,8.13,44.31,3.83,90.39-7.12,138.5-.87,3.78-1.76,7.55-2.7,11.35,0,0,26.85,9,41.81,2.33,1.58-3.36,3.14-6.69,4.65-10v0c44.7-97.63,57.89-173.73,8.83-284.54a679.34,679.34,0,0,0-36.41-69.86c-10.31-12.61-21.63-20.22-32.79-23.76C728.74,977.66,681.6,1042.19,727.6,1096.11Z" fill="#e8c0a6"/><path d="M845.84,1027.52c.49,6.77.49,10,.49,10-87,17.47-134.41-6.92-134.41-6.92-.52.18-.46-2.9.07-8.26,1.08-10.75,4-30.66,8-51.78q1.08-5.64,2.24-11.35c5.4-26.55,12.17-52.76,18.62-63.2,13-36.73,57.62-42.86,85.88-31.25,4.41,1.62,26,39.47,30.53,54.19,7.65,24.84-18.47,43.66-15.22,75C844.25,1009.29,845.32,1020.35,845.84,1027.52Z" fill="#9358e0"/><path d="M794.36,865.6c1.16,1.12,2,2.1,1,3.83-1.78,3.07-.18,10.92,4.15,12.45a4.9,4.9,0,0,0,3.35-.06c6.8-2.33,7,.64,12.22,6.15s10.52,2.56,12.54-2.12,6.48-1.69,7.74-7.22a8.9,8.9,0,0,0,0-3.88c-.66-3.2-4.4-8.85-4.4-8.85a29.76,29.76,0,0,0-4.25-1.1c-10.42-5.89-22.94-6.95-34.76-5.15h0C791.35,862.8,793,864.3,794.36,865.6Z" fill="#7640cc"/><path d="M829.3,846l-2.61,18.83s5.6,13.79-6.68,12.74c-17.5-1.5-20.79-18.65-20.79-18.65L802,843.68Z" fill="#f99370"/><path d="M802,843.68l-1.24,6.82c11,6.65,24.69,6.16,27.11,6L829.3,846Z" fill="#e57d61"/><path d="M849.83,839.05c-9.25,10.42-24.15,14-36.33,12a30.47,30.47,0,0,1-13.92-5.57h0c-16.57-13.75-22.85-42.83-14.44-61.95,12.17-28,47.07-25.44,56.36,3.84a36,36,0,0,0,8.93,12.67C860.78,809.5,861.58,825.06,849.83,839.05Z" fill="#f99370"/><path d="M841.32,823.55,825,816.23s-.5,8.73,5.91,10.77C837,828.94,841.32,823.55,841.32,823.55Z" fill="#f9f8f3"/><path d="M790.42,823.83s1.45,11.77,12,23.55a28.45,28.45,0,0,1-2.85-1.86h0c-16.57-13.75-22.86-42.83-14.44-61.95,6.19-16.41,26.66-26.27,43.15-14.7,0,0,8.42,24.8-36.5,46.41Z" fill="#e57d61"/><path d="M828.16,802.61a1.84,1.84,0,0,0-3.36-1.5,1.84,1.84,0,1,0,3.36,1.5Z" fill="#c16256"/><path d="M823.55,765.69s7.17,26.14-33.4,45.4L780,817.3A53.41,53.41,0,0,1,778,779C785,758.26,817.8,750.11,823.55,765.69Z" fill="#c92828"/><path d="M843.48,799.23a1.84,1.84,0,1,0-2.43.93A1.85,1.85,0,0,0,843.48,799.23Z" fill="#c16256"/><path d="M841.44,824.24a.7.7,0,0,1-.4,0l-16.33-7.33a.7.7,0,1,1,.57-1.27l16.33,7.33a.7.7,0,0,1,.35.92A.71.71,0,0,1,841.44,824.24Z" fill="#c16256"/><path d="M839.51,815.4a7.57,7.57,0,0,1-3.12-.07.71.71,0,0,1-.5-.86.7.7,0,0,1,.86-.49c2.37.63,5.61-.71,6-1.79.14-.38-.37-.72-.83-.94-4-1.93-7.08-9.26-7.21-9.57a.7.7,0,0,1,.39-.91.68.68,0,0,1,.9.38c0,.07,3,7.14,6.52,8.85,1.94.92,1.72,2.18,1.54,2.68C843.59,814,841.6,815,839.51,815.4Z" fill="#c16256"/><path d="M774.81,819c1.52,5.77,6.52,9.45,11.16,8.22s7.16-6.9,5.63-12.67-6.52-9.44-11.16-8.21S773.28,813.21,774.81,819Z" fill="#f99370"/><path d="M785.54,810.68c-15.87-4.82-2.79,23-6.74,4.24,4.06.5,6.29,5,6.31,5,3.48,1.71-.93-5.89-6.05-6.37C780,809.47,787.93,813.77,785.54,810.68Z" fill="#c16256"/><path d="M782.73,825a1.56,1.56,0,1,0,1.48-1.64A1.56,1.56,0,0,0,782.73,825Z" fill="#f4d4be"/><path d="M653.25,1090.87c-3.86.42-3.36-8.78-5.67-11.46a55.43,55.43,0,0,0-5,11.65c-.64,7.7-.87,15.41-.75,23.14-5.78,10.22-5.67-19.33-6.18-22.23l-.12,0a175.91,175.91,0,0,0-5.51,23.62c-8.25,9.18-1-23-.58-26l-.05,0a101.27,101.27,0,0,0-7.81,21.76c-9.14,8.5.8-23.55,2.16-26.34l-.07-.07A103.61,103.61,0,0,0,614.8,1101c-9.65,6.7,2.9-19.81,4.41-22.23.22-2.2,6.14-14.62,13-24.69,2.55-3.73,17.64-3.07,19.18,1.1,1.45,3.9,3,16.88,3.25,18.92C655.75,1078,657.2,1088.37,653.25,1090.87Z" fill="#f99370"/><path d="M913.68,871.21c2.1,7.12-4.53,7.39-.79,14.6s10.87,3.78,13.37,16.92c2.45,12.95,14,10.16,14.33,10.07h0a45.15,45.15,0,0,0,3.34-8C921.22,893.72,921.53,865,921.53,865c-2.78-2.21-6.34-2-10.47-1C911.9,866.08,913,868.71,913.68,871.21Z" fill="#7640cc"/><path d="M819.39,798.24a1.43,1.43,0,0,0,.27-.09,25.6,25.6,0,0,0,9.07-8.34.93.93,0,0,0-1.59-1,24.2,24.2,0,0,1-8.34,7.66.93.93,0,0,0,.59,1.75Z" fill="#c16256"/><path d="M842.39,791.05a.93.93,0,0,0-.13-1.85,13.63,13.63,0,0,1-6.94-2.56.94.94,0,0,0-1.12,1.5,15.32,15.32,0,0,0,8,2.93Z" fill="#c16256"/><path d="M792,1367c-.87,3.78-1.76,7.55-2.7,11.35,0,0,26.34,9.51,41.81,2.33,1.58-3.36,3.14-6.69,4.65-10C835.8,1370.67,822.52,1378,792,1367Z" fill="#d1a68f"/><path d="M598.91,1280.49c3,.64,6.4,1.19,10.09,1.66,0,0-9.16-15-3.69-44.5q-5.94,1.39-12,2.57S588.4,1263.12,598.91,1280.49Z" fill="#d1a68f"/><path d="M773.84,916.41c-51.28,24.06-73.35,51.35-99.14,100.38-8.14,15.07-15.75,30.62-22.46,46.4-4.83,12-23.91,5.62-20.52-6.84a431.38,431.38,0,0,1,42.92-107.56c18.59-31.27,47-55.82,78.64-73.26C780.74,861.49,801.55,902.69,773.84,916.41Z" fill="#f99370"/><path d="M768.25,925.48c-17.53,4.39-32.37,27.53-43.7,35.42a46.66,46.66,0,0,1-10.6,5.6,27.89,27.89,0,0,1-9.53,2c-6.57-18.4-27.84-22.89-27.84-22.89a16.7,16.7,0,0,1-5.13-12c-.32-16.93,22.11-36.64,49.38-57.44,33.38-25.46,68.34-16.07,68.34-16.07C804.94,889.87,785.77,921.11,768.25,925.48Z" fill="#9358e0"/><path d="M784.2,906.72c-1.7,2.81-28.09,47.59-64.76,67,.71-3.76,1.31-7,2.08-10.84C721.52,962.86,761,940.45,784.2,906.72Z" fill="#7640cc"/><path d="M868,933.55q-4.87,0-9.63-.35a72.65,72.65,0,0,0-9.45-33.36C859.06,911,865,924.88,868,933.55Z" fill="#7640cc"/><path d="M714,966.5a27.89,27.89,0,0,1-9.53,2c-6.57-18.4-27.84-22.89-27.84-22.89a16.7,16.7,0,0,1-5.13-12c6.45-.48,8,8.71,13.9,9.37s9-2,13.58,1.07,2.18,10.1,5.91,14.26S713.91,959.48,714,966.5Z" fill="#7640cc"/><path d="M846.33,1037.56c-87,17.47-134.41-6.92-134.41-6.92-.52.18-.46-2.9.07-8.26a16.82,16.82,0,0,1,13,2.92c10.3,7.23,5.44,9.86,18,9.42s7.8-5.48,15.68-2.19,9,9.2,16.43,7.44,6.36-4.81,12-3.93,9.74,6.33,17.19,4.25,8.39-7.52,13.62-7.2,9.82,4.91,14.42,4c4-.78,6.77-8.13,13.51-9.61C846.33,1034.29,846.33,1037.56,846.33,1037.56Z" fill="#7640cc"/></g><g id="_1" data-name="1"><path d="M1555.2,643.5s9.61-15.41,23.5-19.13,32.89-.39,32.89-.39-5.4,4.58-3.37,19.62c0,0-18,1.06-27.58.47S1555.2,643.5,1555.2,643.5Z" fill="#e57d61"/><path d="M1747.54,418.05s-13.68-.32-21.2,14.26c-8.94,17.32,2.41,30.43-1,42.08s-9.23,19.93-4.65,31.6-3,19,.94,28.57,9.85,9.29,9.59,22.17,11,23.87,21.43,16.23,16.16,9.11,32.77-1.35,17.3-22.76,36.57-26.23,11.63-30.24,28-40.2,14.93-25.64,1.26-36.32-22.55-13.33-32.5-39.09C1807.55,400.77,1765.78,388.24,1747.54,418.05Z" fill="#662948"/><path d="M1804.16,554.19c-13.89,37.7-36.57,79-77.45,92.06-39,9.45-79.16,5.18-117.84-2.61-14.17-.54-15.09-19.94-.54-19.85,34.75,1.57,71.29,1.58,104.62-8.87,29.48-10.91,42.72-45.1,53.11-72.71C1774.05,516.69,1812.24,528.61,1804.16,554.19Z" fill="#e57d61"/><path d="M1795.33,607.43a95.72,95.72,0,0,1-6.73,13,93.39,93.39,0,0,1-13.93,17.41c-1,1-2,1.9-3,2.81-21.19,19.18-49.17,27.45-72.46,27.92-25.86.51-62-8-78.61-16.63-5.16-2.68-8.46-5.37-9-7.81-2.33-10.33,2.92-20,2.92-20,1.7-2,5.38-3.65,10.27-5,17.4-4.8,50.11-6.06,63.33-9,16.95-3.8,43.22-13.72,58.71-47.6,9.27-20.3,19-30.31,25.32-35.07a23.23,23.23,0,0,1,7.16-3.95A107.72,107.72,0,0,1,1796.25,555c.48,1.41.94,2.87,1.35,4.35C1801.57,573.37,1802.66,590.21,1795.33,607.43Z" fill="#eb5648"/><path d="M1788.6,620.42a94.23,94.23,0,0,1-16.9,20.22c-5-6.31-14.52-20.4-15.82-36.73-1.79-22.21,14.49-48.43,14.49-48.43Z" fill="#ce3932"/><path d="M2027.69,1077.59l51.95-42.67c-1.38-3.5-14.26-14-17.56-19-1.57-2-18-21.08-19.42-23.19l-19.38-18.51L2000.38,993l36.37,34.46a12.4,12.4,0,0,1,1.92,15.67c-6.59,11.52-18.91,18.71-19,31.25A4.9,4.9,0,0,0,2027.69,1077.59Z" fill="#f99370"/><path d="M2077.12,1028.62a17.19,17.19,0,0,1,2.53,6.3L2027.19,1078a4.82,4.82,0,0,1-7.59-2c-2.63-7.26-2.42-21.1,20.73-42.22,0,0,10.23-4.31,21.75-17.87C2062.08,1015.92,2072.14,1020.79,2077.12,1028.62Z" fill="#1d3f70"/><path d="M2019.56,1075.9l57.56-47.28a17.19,17.19,0,0,1,2.53,6.3L2027.19,1078A4.82,4.82,0,0,1,2019.56,1075.9Z" fill="#395b96"/><path d="M1774.59,511.47l4.74,12s6.34,70.93,18.44,70.91c21.43,0,7.27-76.28,8.39-80.49,0,0-3.9-8-5.23-11.82Z" fill="#f99370"/><path d="M1769.51,1093.64l67.23.1c1.16-3.58-2.13-19.83-1.47-25.83,0-2.53.87-16.35,1.13-18.86l-4.56-38-29.63,0,6.16,49.72a12.42,12.42,0,0,1-8.49,13.32c-12.41,4.69-26.49,2.41-34.52,12A4.91,4.91,0,0,0,1769.51,1093.64Z" fill="#f99370"/><path d="M1838.8,1087.27a16.93,16.93,0,0,1-2.06,6.47l-67.89-.1a4.82,4.82,0,0,1-4.58-6.37c2.59-7.27,11.55-17.82,42.85-19.4,0,0,10.64,3.18,28.15,0C1835.27,1067.91,1839.94,1078.06,1838.8,1087.27Z" fill="#1d3f70"/><path d="M1764.31,1087.16l74.49.11a16.93,16.93,0,0,1-2.06,6.47l-67.89-.1A4.83,4.83,0,0,1,1764.31,1087.16Z" fill="#395b96"/><path d="M1793.19,474.15c.11.48.2,1,.27,1.45-.76-.17,3.83,17,8.39,28.92-9.29,9.41-22.57,12.15-25,12.55-6-15.05-10-29.58-11.12-39.1C1764.65,461.57,1789.72,458.11,1793.19,474.15Z" fill="#e57d61"/><path d="M1803.81,455.12c3.42,12.23,5.5,26.83,0,38.5h0c-15.11,33.57-80.29,22.34-68.19-17.14,4.33-10.45.23-23.53,3.05-33.23C1749.68,406.1,1796.54,423.28,1803.81,455.12Z" fill="#f99370"/><path d="M1757.27,490.67l8.55-7.23C1768.09,489.12,1762.82,494.32,1757.27,490.67Z" fill="#f9f8f3"/><path d="M1757.13,468.14c-2-1.49.45-4.53,2.36-3S1759,469.7,1757.13,468.14Z" fill="#c16256"/><path d="M1741.52,472.39c-2-1.5.45-4.53,2.36-3S1743.43,474,1741.52,472.39Z" fill="#c16256"/><path d="M1757.32,491.1c.28,0,8.56-7.23,8.78-7.33a.43.43,0,0,0,.05-.62c-.2-1.06-8.9,7.25-9.16,7.19A.43.43,0,0,0,1757.32,491.1Z" fill="#c16256"/><path d="M1778.86,1031.17c1.06,7.9,1.78,12.23,1.78,12.23,28.35,9.44,66.23,11.49,91.49,1.86-20.76-72-12.31-267.59,2.41-291.72,0,0,51.6,172.89,103.41,269.51q3.29,6.12,6.57,11.79s58.93.68,89.28-51.71c0,0-3.22-3.8-8.3-10.68-15.25-20.64-47.31-62.72-60-120.08-28.29-127.83-61.27-186-85.43-208.38-33.42-30.88-102.54,6-124.82,50.3C1764.09,792.54,1766.66,950.58,1778.86,1031.17Z" fill="#1d3f70"/><path d="M1752.89,485.25c1.06-.49,3.58-1.16,2.85-2.57a.7.7,0,0,0-1-.05c-1.86,1.71-5.47,2-6.34,1.25-.31-.28,0-.84.31-1.26,2.81-3.53,2.8-16,.57-12.06,0,.08.72,7.93-1.72,11.2C1745.05,486,1749.78,486.17,1752.89,485.25Z" fill="#c16256"/><path d="M1803.81,455.12c3.42,12.23,5.5,26.83,0,38.5h0c2.13-8.49-1.14-23.76-1.14-23.76l-5.2-5.06C1752,470.29,1741,437.09,1741,437.09,1756.15,406.4,1797,426.66,1803.81,455.12Z" fill="#e57d61"/><path d="M1743.67,432.23s11.25,32.76,52.55,29.29l9.47-12.87C1806.86,418.65,1768,393.35,1743.67,432.23Z" fill="#662948"/><path d="M1813.7,457.54c3.36,14-14.43,18.11-17.48,4C1792.86,447.46,1810.65,443.4,1813.7,457.54Z" fill="#f99370"/><path d="M1810.75,462.13c1.38-4-2.29-9.21-4.14-9.53-3.52-.86-7.61,2.37-6.67,3.52,1.42.91,2.76-3.05,6.23-2.15C1809.63,454.68,1808.71,461.76,1810.75,462.13Z" fill="#c16256"/><path d="M1804.24,464c1.3-.69-.45-5.76,4.43-8.64a.71.71,0,0,0,.29-1C1804.12,453.37,1801.93,465.42,1804.24,464Z" fill="#c16256"/><path d="M1809.32,466.79a1.61,1.61,0,0,1-2.93,1.35A1.61,1.61,0,0,1,1809.32,466.79Z" fill="#f4d4be"/><path d="M1920.06,644c-31.42,26.09-79.56,53.74-124.83,50.29,0,0-6.23-3.3-5.77-12.56,1-21.3-6.86-33-14.79-43.9-10.74-14.8-21.54-28.25-10.32-62.4,2.77-8.35,6.84-22.62,10.19-34.89,1.84-6.79,3.72-12.89,4.79-17.1,6.56,26.26,12.38,34.77,16.92,31.54,4.94-3.51,8.08-21,8.1-44.93a47,47,0,0,1,8.74-.6c35.27.88,67.63,41.57,92.92,89.56q3.51,6.66,6.83,13.48c1.44,2.17,2.9,4.45,4.25,6.81a41.81,41.81,0,0,1,4.56,10.82A18.78,18.78,0,0,1,1920.06,644Z" fill="#eb5648"/><path d="M1978,1023.05q3.29,6.12,6.57,11.79s58.93.68,89.28-51.71c0,0-3.22-3.8-8.3-10.68C2065.5,972.45,2038.92,1016.66,1978,1023.05Z" fill="#163356"/><path d="M1762.2,460.45a.87.87,0,0,1-.88-.07c-4.42-3.12-8.07-2.45-8.11-2.44a.88.88,0,0,1-1-.69.86.86,0,0,1,.68-1c.18,0,4.39-.85,9.47,2.72a.88.88,0,0,1,.21,1.22A.85.85,0,0,1,1762.2,460.45Z" fill="#c16256"/><path d="M1738.92,465.31a.89.89,0,0,1-1-.17.87.87,0,0,1,0-1.24,37.2,37.2,0,0,1,6.79-4.8.88.88,0,1,1,.9,1.51,36.89,36.89,0,0,0-6.45,4.53A1,1,0,0,1,1738.92,465.31Z" fill="#c16256"/><path d="M1921.33,641.13s-66.7,52.18-128.14,51.53c0,0-.52,1.74,1,5.06,0,0,60.93,6.36,128.55-51.16A3.83,3.83,0,0,0,1921.33,641.13Z" fill="#ce3932"/><path d="M1858.47,1049.09a77,77,0,0,0,13.66-3.83c-10.63-58-12.63-107.49-12.32-150.55.64-86.88,14.73-141.16,14.73-141.16s-9.21-4.85-12.8-13.23C1861.74,740.32,1821.69,906.82,1858.47,1049.09Z" fill="#163356"/><path d="M1778.86,1031.17c1.06,7.9,1.78,12.24,1.78,12.24,28.34,9.42,66.23,11.49,91.49,1.85q-1-5.35-1.88-10.66S1822.8,1045.05,1778.86,1031.17Z" fill="#163356"/><path d="M1921.65,630.12c-7.08-8.86-22-23.93-47.17-34.14-37.68-15.26-48.25-47.78-48.25-47.78L1906,599q3.51,6.66,6.83,13.48C1916.4,617.88,1920.19,623.93,1921.65,630.12Z" fill="#ce3932"/><path d="M1858.27,515.74c28.17,19,56.13,38.74,80.55,62.48,18,19.22,31.07,42.35,42.19,65.94,3,10.52,18.82,28.77,4.22,36-10,3.62-13.64-8.09-18.07-14.45-6.42-10.09-13.29-20.06-20.44-29.56-9.78-12.81-20.46-25.52-32.84-35.38-8.05-6.12-17.85-12.86-26.29-18.57-16.32-10.86-34.38-22.39-51-32.86C1814.52,534.8,1835.84,501.56,1858.27,515.74Z" fill="#f99370"/><path d="M1970.77,699.54c3.33,1,3.33-8.75,5.33-11.26a53.92,53.92,0,0,1,5.06,11.27c.76,7.48,1.11,15,1.12,22.52,0,2.42,3.73,2.68,4,.24.89-7.29,1.47-14.64,1.67-22l.11,0a169.18,169.18,0,0,1,5.77,22.91c8.11,9.33.58-22.69.13-25.32l0,0a99.39,99.39,0,0,1,8,21.06c9,8.47-1.19-23.13-2.55-25.62l.06-.06a100.68,100.68,0,0,1,8.92,15.52c9.43,6.55-3-18.88-4.4-21.11-.82-2.79-5.33-11.8-14.68-22.39-2.92-3.3-13.9,2.27-15.34,6.35-1.34,3.82-1.71,9.34-1.9,11.33C1971.1,686.24,1966.92,697.9,1970.77,699.54Z" fill="#f99370"/><path d="M1987.32,657.44s-8.18,12.74-18.14,10.95c-1-.18-4.17-1.55-8.41-4.13a85.07,85.07,0,0,1-22.51-20c-5.46-7-11.5-15.74-21.17-25-9.93-9.5-21.24-24.32-42.1-33.64-29.46-13.16-42.21-22.35-52.73-45.24-4.19-9.11-16.88-16-17.91-30.37a63.46,63.46,0,0,1,8.67-2.51c13.66-3.09,42-6.21,74.41,9.34,39.14,18.76,94.76,87,101.07,124.77C1989.53,647.86,1989.23,653.24,1987.32,657.44Z" fill="#eb5648"/><path d="M1812.2,544.78c-.74,9.4-.84,16.25-4.34,18.12-4.52,2.4-8.63-1.67-10.26-3.57a9.91,9.91,0,0,1-.81-1s-2.19,13.79-10.4,8.54c-6.34-4.06-9.66-16.89-11.85-26.3a130.38,130.38,0,0,1-2.37-13.15c4.23-3.43,7.16-3.95,7.16-3.95,6.56,26.26,12.38,34.77,16.92,31.54,4.94-3.51,8.08-21,8.1-44.93a63.46,63.46,0,0,1,8.67-2.51h0s0,.69,0,1.91C1813.16,515,1813.25,531.53,1812.2,544.78Z" fill="#ce3932"/><path d="M1620.63,651.93c-5.16-2.68-8.46-5.37-9-7.81-2.33-10.33,2.92-20,2.92-20,1.7-2,5.38-3.65,10.27-5C1624.81,619.08,1615.11,636,1620.63,651.93Z" fill="#ce3932"/><path d="M1987.32,657.44s-8.18,12.74-18.14,10.95c-1-.18-4.17-1.55-8.41-4.13,1.16-1.24,16.76-4.25,27.73-22.61C1989.53,647.86,1989.23,653.24,1987.32,657.44Z" fill="#ce3932"/></g></svg>