<svg xmlns="http://www.w3.org/2000/svg" xmlns:xlink="http://www.w3.org/1999/xlink" viewBox="0 0 168.67 168.62"><defs><linearGradient id="Áåçûìÿííûé_ãðàäèåíò_1832" x1="16.75" y1="113.8" x2="157.1" y2="113.8" gradientUnits="userSpaceOnUse"><stop offset="0" stop-color="#8b3dce"/><stop offset="1" stop-color="#cb89f0"/></linearGradient><clipPath id="clip-path"><path d="M155.88,102c1.62.94,1.62,2.45,0,3.38l-53,30.74a6.41,6.41,0,0,1-5.83,0L18,90.43c-1.62-.93-1.63-2.44,0-3.37L71,56.32a6.46,6.46,0,0,1,5.84,0Z" fill="#181019"/></clipPath><radialGradient id="Áåçûìÿííûé_ãðàäèåíò_223" cx="77.27" cy="69.49" r="10.88" gradientTransform="translate(126.86 -21.84) rotate(76.54)" gradientUnits="userSpaceOnUse"><stop offset="0" stop-color="#ffec3d"/><stop offset="0.09" stop-color="#e53dff"/><stop offset="0.1" stop-color="#dd3bf6"/><stop offset="0.14" stop-color="#b430c8"/><stop offset="0.18" stop-color="#8d269d"/><stop offset="0.22" stop-color="#6b1c77"/><stop offset="0.27" stop-color="#4e1557"/><stop offset="0.32" stop-color="#350e3b"/><stop offset="0.38" stop-color="#220925"/><stop offset="0.45" stop-color="#120514"/><stop offset="0.54" stop-color="#080209"/><stop offset="0.66" stop-color="#020002"/><stop offset="1"/></radialGradient><radialGradient id="Áåçûìÿííûé_ãðàäèåíò_223-2" cx="69.82" cy="79.68" r="16.91" gradientTransform="matrix(1, 0, 0, 1, 0, 0)" xlink:href="#Áåçûìÿííûé_ãðàäèåíò_223"/><radialGradient id="Áåçûìÿííûé_ãðàäèåíò_223-3" cx="51.8" cy="73.33" r="10.64" gradientTransform="translate(115.48 10.04) rotate(80.41)" xlink:href="#Áåçûìÿííûé_ãðàäèåíò_223"/><radialGradient id="Áåçûìÿííûé_ãðàäèåíò_223-4" cx="52.55" cy="88.49" r="17.41" gradientTransform="matrix(1, 0, 0, 1, 0, 0)" xlink:href="#Áåçûìÿííûé_ãðàäèåíò_223"/><radialGradient id="Áåçûìÿííûé_ãðàäèåíò_223-5" cx="32.27" cy="93.89" r="13.44" gradientTransform="matrix(1, 0, 0, 1, 0, 0)" xlink:href="#Áåçûìÿííûé_ãðàäèåíò_223"/><radialGradient id="Áåçûìÿííûé_ãðàäèåíò_223-6" cx="59.05" cy="100" r="30.21" gradientTransform="matrix(1, 0, 0, 1, 0, 0)" xlink:href="#Áåçûìÿííûé_ãðàäèåíò_223"/><radialGradient id="Áåçûìÿííûé_ãðàäèåíò_223-7" cx="71.34" cy="97.2" r="30.21" gradientTransform="matrix(1, 0, 0, 1, 0, 0)" xlink:href="#Áåçûìÿííûé_ãðàäèåíò_223"/><radialGradient id="Áåçûìÿííûé_ãðàäèåíò_223-8" cx="77.97" cy="85.48" r="23.22" gradientTransform="matrix(1, 0, 0, 1, 0, 0)" xlink:href="#Áåçûìÿííûé_ãðàäèåíò_223"/><radialGradient id="Áåçûìÿííûé_ãðàäèåíò_223-9" cx="100.61" cy="97.13" r="30.21" gradientTransform="translate(43.87 -30.69) rotate(22.07)" xlink:href="#Áåçûìÿííûé_ãðàäèåíò_223"/><radialGradient id="Áåçûìÿííûé_ãðàäèåíò_223-10" cx="120.2" cy="97.22" r="30.21" gradientTransform="translate(103.95 -56.52) rotate(45)" xlink:href="#Áåçûìÿííûé_ãðàäèåíò_223"/><radialGradient id="Áåçûìÿííûé_ãðàäèåíò_223-11" cx="124.32" cy="108.46" r="30.21" gradientTransform="matrix(1, 0, 0, 1, 0, 0)" xlink:href="#Áåçûìÿííûé_ãðàäèåíò_223"/><radialGradient id="Áåçûìÿííûé_ãðàäèåíò_223-12" cx="133.49" cy="113.56" r="27.54" gradientTransform="translate(224.43 -36.26) rotate(80.87)" xlink:href="#Áåçûìÿííûé_ãðàäèåíò_223"/><linearGradient id="Áåçûìÿííûé_ãðàäèåíò_205" x1="91.99" y1="7.31" x2="88.78" y2="12.87" gradientUnits="userSpaceOnUse"><stop offset="0" stop-color="#faa9e3"/><stop offset="1" stop-color="#ed9ad5"/></linearGradient><linearGradient id="Áåçûìÿííûé_ãðàäèåíò_205-2" x1="79.05" y1="6.19" x2="74.58" y2="13.93" xlink:href="#Áåçûìÿííûé_ãðàäèåíò_205"/><linearGradient id="Áåçûìÿííûé_ãðàäèåíò_205-3" x1="62.21" y1="6.06" x2="41.08" y2="42.66" xlink:href="#Áåçûìÿííûé_ãðàäèåíò_205"/><linearGradient id="Áåçûìÿííûé_ãðàäèåíò_205-4" x1="37.99" y1="38.29" x2="21.92" y2="66.13" xlink:href="#Áåçûìÿííûé_ãðàäèåíò_205"/><linearGradient id="Áåçûìÿííûé_ãðàäèåíò_226" x1="66.9" y1="14.06" x2="108.11" y2="69.5" gradientUnits="userSpaceOnUse"><stop offset="0" stop-color="#ffec3d"/><stop offset="0.01" stop-color="#f6e33b"/><stop offset="0.05" stop-color="#c8b930"/><stop offset="0.09" stop-color="#9d9126"/><stop offset="0.14" stop-color="#776e1c"/><stop offset="0.2" stop-color="#575015"/><stop offset="0.25" stop-color="#3b370e"/><stop offset="0.32" stop-color="#252309"/><stop offset="0.4" stop-color="#141305"/><stop offset="0.49" stop-color="#090802"/><stop offset="0.63" stop-color="#020200"/><stop offset="1"/></linearGradient><radialGradient id="Áåçûìÿííûé_ãðàäèåíò_215" cx="94.62" cy="11.15" r="10.1" gradientUnits="userSpaceOnUse"><stop offset="0" stop-color="#fdc8ca"/><stop offset="0.08" stop-color="#d8abac"/><stop offset="0.22" stop-color="#9f7e7f"/><stop offset="0.36" stop-color="#6f5758"/><stop offset="0.5" stop-color="#473838"/><stop offset="0.63" stop-color="#281f20"/><stop offset="0.76" stop-color="#120e0e"/><stop offset="0.89" stop-color="#050404"/><stop offset="1"/></radialGradient><radialGradient id="Áåçûìÿííûé_ãðàäèåíò_215-2" cx="33.25" cy="47.95" r="29.76" xlink:href="#Áåçûìÿííûé_ãðàäèåíò_215"/><radialGradient id="Áåçûìÿííûé_ãðàäèåíò_215-3" cx="58.42" cy="14.86" r="30.85" xlink:href="#Áåçûìÿííûé_ãðàäèåíò_215"/><radialGradient id="Áåçûìÿííûé_ãðàäèåíò_215-4" cx="83.79" cy="10.35" r="23.33" xlink:href="#Áåçûìÿííûé_ãðàäèåíò_215"/><linearGradient id="Áåçûìÿííûé_ãðàäèåíò_51" x1="106.49" y1="-0.97" x2="99.05" y2="11.91" gradientUnits="userSpaceOnUse"><stop offset="0" stop-color="#ffaff5"/><stop offset="1" stop-color="#ff98ff"/></linearGradient><linearGradient id="Áåçûìÿííûé_ãðàäèåíò_51-2" x1="105.45" y1="48.78" x2="98.02" y2="61.66" xlink:href="#Áåçûìÿííûé_ãðàäèåíò_51"/><linearGradient id="Áåçûìÿííûé_ãðàäèåíò_51-3" x1="137.53" y1="26.69" x2="130.09" y2="39.57" xlink:href="#Áåçûìÿííûé_ãðàäèåíò_51"/><linearGradient id="Áåçûìÿííûé_ãðàäèåíò_51-4" x1="35.87" y1="17.2" x2="28.44" y2="30.08" xlink:href="#Áåçûìÿííûé_ãðàäèåíò_51"/><linearGradient id="Áåçûìÿííûé_ãðàäèåíò_51-5" x1="16.95" y1="70.76" x2="9.52" y2="83.63" xlink:href="#Áåçûìÿííûé_ãðàäèåíò_51"/><linearGradient id="Áåçûìÿííûé_ãðàäèåíò_51-6" x1="64.69" y1="108.03" x2="57.25" y2="120.91" xlink:href="#Áåçûìÿííûé_ãðàäèåíò_51"/><radialGradient id="Áåçûìÿííûé_ãðàäèåíò_223-13" cx="68.37" cy="111" r="30.21" gradientTransform="translate(160.14 18.41) rotate(76.38)" xlink:href="#Áåçûìÿííûé_ãðàäèåíò_223"/><linearGradient id="Áåçûìÿííûé_ãðàäèåíò_51-7" x1="108.14" y1="97.98" x2="100.71" y2="110.86" xlink:href="#Áåçûìÿííûé_ãðàäèåíò_51"/><radialGradient id="Áåçûìÿííûé_ãðàäèåíò_223-14" cx="112.17" cy="101.12" r="30.21" gradientTransform="matrix(1, 0, 0, 1, 0, 0)" xlink:href="#Áåçûìÿííûé_ãðàäèåíò_223"/><linearGradient id="Áåçûìÿííûé_ãðàäèåíò_51-8" x1="147.78" y1="73.98" x2="140.34" y2="86.85" xlink:href="#Áåçûìÿííûé_ãðàäèåíò_51"/></defs><title>teamup</title><g style="isolation:isolate"><g id="Layer_2" data-name="Layer 2"><g id="_0" data-name="0"><ellipse cx="84.34" cy="119.93" rx="84.34" ry="48.69" fill="#380357" opacity="0.4" style="mix-blend-mode:multiply"/><ellipse cx="84.34" cy="107.68" rx="84.34" ry="48.69" fill="#6e1193"/><g opacity="0.6" style="mix-blend-mode:multiply"><path d="M155.88,111.76c1.62.94,1.62,2.45,0,3.38l-53,30.74a6.41,6.41,0,0,1-5.83,0L18,100.23c-1.62-.94-1.63-2.45,0-3.38L71,66.12a6.4,6.4,0,0,1,5.84,0Z" fill="#3a0155"/></g><path d="M16.76,88.73v2.1A2.08,2.08,0,0,0,18,92.53L97,138.18a6.44,6.44,0,0,0,5.83,0l53-30.74a2,2,0,0,0,1.2-1.67v-2.1Z" fill="url(#Áåçûìÿííûé_ãðàäèåíò_1832)"/><path d="M155.88,102c1.62.94,1.62,2.45,0,3.38l-53,30.74a6.41,6.41,0,0,1-5.83,0L18,90.43c-1.62-.93-1.63-2.44,0-3.37L71,56.32a6.46,6.46,0,0,1,5.84,0Z" fill="#181019"/><g clip-path="url(#clip-path)"><path d="M49,98.31a1.7,1.7,0,0,1-1.3,0,2.36,2.36,0,0,0-.53-.1,3.69,3.69,0,0,1-.46-.08c-.16-.05-.24-.09-.26-.15s0-.11.15-.17a.9.9,0,0,1,.21-.08.75.75,0,0,0,.18-.07l.08-.08a.19.19,0,0,1,.15,0,.33.33,0,0,1,.21.07A3.33,3.33,0,0,0,49,98.31Zm88.52,15.41-.12.08-.07,0-.06,0c-.1,0-.2.12-.19.23a.09.09,0,0,0,.07.09.13.13,0,0,0,.09,0,.48.48,0,0,0,.18-.06.51.51,0,0,0,.16-.17l.05-.07s0-.05,0-.09l0-.08C137.5,113.71,137.49,113.71,137.48,113.72ZM70.56,51.13a.23.23,0,0,0,.12-.2.3.3,0,0,0-.2-.22.56.56,0,0,0-.32-.11.12.12,0,0,0-.1,0c-.13.15,0,.25.11.34a.77.77,0,0,1,.13.12.21.21,0,0,0,.14.08Zm4.83,2.66a.07.07,0,0,1-.09,0l-.08,0s0,0,0-.05-.09-.08-.15-.06a1.46,1.46,0,0,0-.4.15c-.09,0-.13.1-.12.16a.42.42,0,0,0,.23.23.9.9,0,0,0,.37,0,.33.33,0,0,0,.24,0,.33.33,0,0,1,.15,0,1,1,0,0,0,.36-.07.13.13,0,0,0,.06-.18.32.32,0,0,0-.23-.19A.51.51,0,0,0,75.39,53.79Zm-1.93-.62c0-.07-.32-.34-.95-.65a.34.34,0,0,0-.31,0l0,0c-.1.11-.08.18,0,.23s.26.1.38.15a3.76,3.76,0,0,0,.82.25ZM62.14,79.41c.09-.06,0-.12,0-.17a.62.62,0,0,1,.05-.14c0-.07,0-.08,0-.08L62,79h-.17a.25.25,0,0,0-.17,0h-.2a.09.09,0,0,0-.08,0,.87.87,0,0,1-.87,0,.26.26,0,0,0-.23,0h0a.2.2,0,0,0-.11,0,.73.73,0,0,0-.38.06.27.27,0,0,0-.14,0,.74.74,0,0,0-.39.07.31.31,0,0,0-.15,0,1,1,0,0,1-.29,0,1.18,1.18,0,0,0-.27,0,.83.83,0,0,0-.32,0,.46.46,0,0,1-.38,0c-.05,0-.11-.06-.18,0a.33.33,0,0,0-.24,0c-.05,0-.05.07-.06.12v.05c-.11.09,0,.16.06.22s.13.19.25.27l.14.11a1.68,1.68,0,0,0,.44.29c.26.14.5.28.55.48-.18.12,0,.23,0,.31a.66.66,0,0,0,.31.14.27.27,0,0,0,.16,0,.19.19,0,0,0,.08-.07.49.49,0,0,1,.19-.21c.09-.05.24-.09.56,0a.62.62,0,0,0,.41,0c.09,0,.1-.13,0-.25s0-.06,0-.08.1-.1,0-.15c.09-.06.07-.13,0-.2v-.06c.09-.1,0-.16-.08-.22a.22.22,0,0,1-.09-.07l.18,0a.78.78,0,0,1,.52,0,1.32,1.32,0,0,0,.83-.21A.58.58,0,0,0,62.14,79.41ZM34.37,100.93a.4.4,0,0,0-.34,0,.53.53,0,0,0-.12.1c-.15.18,0,.27.1.35s.13.09.13.15a.79.79,0,0,0-.16.08c-.13.07-.11.17-.09.26a.22.22,0,0,1,0,.14c0,.07,0,.13,0,.17a.61.61,0,0,0,.37.09.85.85,0,0,0,.59,0,.28.28,0,0,0,.13-.17s0-.08,0-.08l0-.14a.24.24,0,0,1,.09-.16c.08-.08.16-.16.11-.25a.72.72,0,0,0-.38-.18l0,0a.3.3,0,0,1-.18-.07s0-.06,0-.1.08-.08,0-.13A.32.32,0,0,0,34.37,100.93ZM70.76,77.56c-.06.07-.17.18,0,.28a.25.25,0,0,0,.29,0s0,0,0-.06.09-.16,0-.25a.28.28,0,0,0-.17,0,.13.13,0,0,0-.09,0Zm-35.92-6.1,0,.05-.06.07s-.1.08-.07.13a.45.45,0,0,0,.25.06h.87a5.07,5.07,0,0,0,.59-.26c.3-.17.18-.27,0-.46l-.05,0a.12.12,0,0,0-.06-.14.28.28,0,0,0-.12,0l-.39.11a2.49,2.49,0,0,0-.65.23A.58.58,0,0,0,34.84,71.46Zm5.56,0c-.09,0-.18,0-.22-.1a.86.86,0,0,1-.5-.17.29.29,0,0,1-.13-.34c-.1,0-.07-.1,0-.13-.16-.21,0-.39.17-.57s.08-.17,0-.27a.15.15,0,0,0-.08,0h0a.48.48,0,0,1-.36.06,3.05,3.05,0,0,1-1.17-.4.13.13,0,0,1,0-.12,4.82,4.82,0,0,1,.51-.4c.29-.16.52-.11,1.2,0a1.68,1.68,0,0,0,1-.12l.08-.05c.1-.09.13-.12.06-.15a.24.24,0,0,0-.26,0l-.07,0,0,0a1.12,1.12,0,0,1-.86,0l-.14,0-.17-.05a.24.24,0,0,0-.15,0,.63.63,0,0,1-.33,0c-.06-.05,0-.11.06-.2s0,0,0-.06l0,0a2,2,0,0,1-.41.16,1.75,1.75,0,0,0-.42.16.45.45,0,0,0-.13.1.23.23,0,0,1-.27,0l-.09,0a.24.24,0,0,1-.11,0,.15.15,0,0,0-.21,0l-.09,0c-.07.07,0,.11,0,.16s.14.11.09.19a.65.65,0,0,1-.39,0,.9.9,0,0,0-.23,0,.36.36,0,0,0,.15.06.48.48,0,0,1,.23.1l-.15.08a.46.46,0,0,0-.12.12.59.59,0,0,1-.25.2,2.06,2.06,0,0,1-.87.27.49.49,0,0,1-.34,0l-.14,0s.45-.33.45-.33l.87-.5.58-.34.07,0,.09,0,1.91-1.1,2.5-1.45L43,65.37a.71.71,0,0,1,.22.18,1,1,0,0,1,.27.36s.07.06,0,.09,0,0,0,.06,0,.06-.07.09l-.32.19-.2.09-.18.08c-.06,0-.09.07-.09.11s.08.1.22.14a.73.73,0,0,1,.27.11.59.59,0,0,1,.34,0c.11,0,.11.12.12.2a.36.36,0,0,0,0,.11c.07,0,.1.08.08.13s0,.19-.08.26l-.07.06-.3.24,0,0a.31.31,0,0,1,.23,0h.11a.5.5,0,0,1,.28,0A.11.11,0,0,1,44,68l.25.09a.36.36,0,0,1,.09-.12c0-.08,0-.13,0-.17a.5.5,0,0,1,.27,0c.61.14.83.42.62.78a2.52,2.52,0,0,1-.17.42.2.2,0,0,1,0,.23l0,.07s0,0,0,.08a.22.22,0,0,1-.1.18.4.4,0,0,1-.13,0,.38.38,0,0,1-.35-.17.28.28,0,0,0-.2-.13l-.12,0a1.19,1.19,0,0,1-.21.1l-.14.06a.17.17,0,0,0-.07.08c0,.1,0,.16,0,.19s-.18,0-.44,0c0,.09,0,.15,0,.19a.64.64,0,0,1-.4,0l-.12,0s0,0,0,.05.1.09.19.13.19.1.19.15,0,0-.06.08l-.09,0-.54.23c-.62.27-.69.3-.78.25l-.16,0c.11.11,0,.19-.05.22a.73.73,0,0,1-.38.08l-.11,0-.15.06s0,0,0,0,0,.06.2.12a.21.21,0,0,1,.14.23c.08.08.07.15,0,.2a.52.52,0,0,1-.13.06l-.11.05,0,0a.65.65,0,0,0,.59,0,.93.93,0,0,1,.47-.06.48.48,0,0,1,.34.26s0,.06,0,.07,0,0,.08,0,0,0,0-.07-.06,0-.07-.07a.45.45,0,0,0-.07-.1L41.94,72a1.13,1.13,0,0,0,.58,0,.23.23,0,0,0,.12-.16s0,0,0-.06a.69.69,0,0,1,.36,0l.13,0a.89.89,0,0,0,.21-.06.21.21,0,0,0,.1-.18c0-.28.35-.57.63-.83a.35.35,0,0,0,.08-.13.72.72,0,0,1,.28-.34l.17-.07.05,0a.25.25,0,0,1,.17,0,.22.22,0,0,1,.2,0,.25.25,0,0,1,.23,0l.16,0a1.83,1.83,0,0,1,1.45,0c.07,0,.13.07.1.12a.11.11,0,0,1,.05,0,.05.05,0,0,1,0,0s0,.06,0,.08,0,.06,0,.07,0,.06,0,.08.1.09.1.08,0,0,.06-.07a.42.42,0,0,1,.11-.13.48.48,0,0,1,.25,0c.13,0,.26,0,.31.15s0,.12-.07.17l-.11,0-.09,0c0,.05.1.07.18.1.29.08.27.13.15.28l-.1.15a1,1,0,0,1-.37.39,1.19,1.19,0,0,1-.48.14.27.27,0,0,1-.17.06.41.41,0,0,1-.12,0l-.11.09a4,4,0,0,1-.61.46l-.09,0a12.46,12.46,0,0,0-1.09.71l-.31.21a.38.38,0,0,1-.4,0c-.11,0-.19-.08-.22-.06s0,.06-.05.1l0,.07c0,.09,0,.15,0,.19a1,1,0,0,1-.41,0,.32.32,0,0,1-.2,0,.4.4,0,0,1-.18.15,1.35,1.35,0,0,1-.7.18,1,1,0,0,1-.64-.2l-.05-.06a.15.15,0,0,0-.11-.11.73.73,0,0,1-.41,0,.52.52,0,0,1-.37-.39c-.08-.12-.28-.17-.6-.25s-.4-.1-.67-.19c-.44-.14-.59-.11-.66-.07a.5.5,0,0,0-.14.15.67.67,0,0,1-.16.19l-.05,0-.07.06a.35.35,0,0,1-.25,0H38a.31.31,0,0,1-.23,0,.35.35,0,0,1-.34,0,1.39,1.39,0,0,1-.27,0H36.9a1,1,0,0,1-.51,0,.46.46,0,0,1-.27-.22.39.39,0,0,1-.28,0q-.09-.06,0-.18c0-.06,0-.08,0-.09a1.54,1.54,0,0,1,.37-.32,1.46,1.46,0,0,1,.64-.18.73.73,0,0,1,.34,0,.68.68,0,0,1,.33,0A.44.44,0,0,1,38,72l.24.19.09.06.11-.15.06-.09a.36.36,0,0,1,.13-.3.14.14,0,0,1,.07-.16.43.43,0,0,1,.25,0,2.81,2.81,0,0,0,.29,0,2.24,2.24,0,0,1,.68,0,.39.39,0,0,0,.31,0ZM71,76.19a.23.23,0,0,0-.14.18.13.13,0,0,0,.08.1.61.61,0,0,0,.4,0,.47.47,0,0,1,.16,0c.19-.1.09-.17,0-.21a.51.51,0,0,0-.27-.09A.43.43,0,0,0,71,76.19Zm-17.3-4.64a.2.2,0,0,1,.15,0,.28.28,0,0,1,.2.08.33.33,0,0,0,.18.07.27.27,0,0,0,.19,0,.48.48,0,0,1,.22-.05.38.38,0,0,1,.18.09.34.34,0,0,0,.19.09.35.35,0,0,0,.18,0l.13-.1a1.56,1.56,0,0,0,.36.19.15.15,0,0,0,.08,0l.18-.13c-.09-.1-.14-.17-.05-.22a1.44,1.44,0,0,1,.56-.08,1.42,1.42,0,0,1,1.05.13.43.43,0,0,0,.23,0c.15,0,.35,0,.44.11a1.88,1.88,0,0,1,.18-.12,1.49,1.49,0,0,1,.39-.12,1.07,1.07,0,0,0,.27-.06.76.76,0,0,1,.75.11.18.18,0,0,0,.07,0,.47.47,0,0,1,.47,0,.86.86,0,0,1,.39,0,.48.48,0,0,1,.17,0l.07,0a.56.56,0,0,1,.3.09c.07.08,0,.19-.11.3A.71.71,0,0,0,61,72a2.79,2.79,0,0,0,.39-.1,4.06,4.06,0,0,1,.82-.17c0,.08,0,.09,0,.11l-.1.08-.24.18c-.18.13-.21.16-.17.18a.31.31,0,0,1,.15,0,.19.19,0,0,1,.14.1.26.26,0,0,0,.07.11,2.66,2.66,0,0,0,1.05,0h.07c.32,0,.46-.06.51,0a.6.6,0,0,0,.24.09h0a.4.4,0,0,0,.1-.12l.07-.1a.18.18,0,0,1,.07,0,.17.17,0,0,1,.14,0,1.57,1.57,0,0,0,.59.07,1.27,1.27,0,0,1,.78.16c.46-.2.5-.21.76,0l.13-.09a.39.39,0,0,1,.1-.08.4.4,0,0,1,.25,0,.31.31,0,0,1,.23,0,.9.9,0,0,1,.39,0,.25.25,0,0,1,.17.13l.06,0c.13.07.24.13.24.21s0,.09-.12.13l-.09,0a1.56,1.56,0,0,1,.49.54.08.08,0,0,1,0,.07l-.08,0h0s0,.06,0,.07a.81.81,0,0,1,.35.31c.06.08.14.17.05.22s-.17,0-.35,0h-.1A2,2,0,0,1,67,74,.77.77,0,0,0,66.5,74a1.26,1.26,0,0,1-.39,0,1.41,1.41,0,0,1-.31.07,1.06,1.06,0,0,0-.38.1l-.07,0,.18,0c.18,0,.29,0,.32.06s0,.1-.1.18-.09.07,0,.11l.07,0a.3.3,0,0,0,.11,0,.37.37,0,0,1,.4,0,1.11,1.11,0,0,0,1,.07,2.12,2.12,0,0,1,.76-.09h0a.42.42,0,0,1,.39.18.34.34,0,0,0,.15.14,1,1,0,0,1,.53,0,1,1,0,0,1,.65.38.34.34,0,0,0,.24.15.29.29,0,0,1,.28.21.25.25,0,0,0,.12.15s0,.07,0,.09a.38.38,0,0,1-.22,0,1.51,1.51,0,0,0-1.14.18.39.39,0,0,1-.19,0h-.06a.29.29,0,0,1-.22,0,.54.54,0,0,1-.31,0h-.06l-.1,0s0,0,0,0,0,0,.14.06a.29.29,0,0,1,.22,0,.9.9,0,0,1,.49,0,.13.13,0,0,1,.09,0h0a.55.55,0,0,1,.31,0h.12a1,1,0,0,1,.83.14l.07,0c.08,0,.2.09.08.19l-.07.06a.46.46,0,0,1-.35,0,3.49,3.49,0,0,1-1.43.38h-.31c-.25,0-.39-.05-.45,0s-.08.1-.06.19a.15.15,0,0,1-.08.15.58.58,0,0,1-.43,0,1.54,1.54,0,0,0-.31,0,1.12,1.12,0,0,1-.32,0,1,1,0,0,0-.26,0c-.2,0-.45,0-.53-.19l-.47,0a.29.29,0,0,1-.24,0,1.65,1.65,0,0,1-.51-.08.89.89,0,0,0-.64,0c-.07,0,0,.08,0,.13s.06.1,0,.16a.93.93,0,0,1-.2.07l-.1,0-.16,0s-.05.08,0,.15,0,.25-.22.36a1.65,1.65,0,0,1-1.19.15c-.29-.08-.42-.26-.36-.47s-.06-.1-.1-.12-.14-.1-.14-.15,0-.07.09-.11l.16-.07L62,77a3.53,3.53,0,0,0,.52-.22.71.71,0,0,0,.14-.1c0-.18.06-.31.23-.4l.11,0s-.07,0-.14,0a.32.32,0,0,1-.17-.06.37.37,0,0,1-.33,0,.4.4,0,0,1-.24,0,.1.1,0,0,1-.07-.11S62,76,62,76s0,0,0,0,0-.07,0-.08,0-.06,0-.08,0-.06,0-.07,0-.06,0-.08,0-.06,0-.07,0-.07,0-.08,0-.06,0-.08a1.14,1.14,0,0,0-.11-.11c-.12-.09-.24-.19-.15-.33-.09,0-.08-.08-.06-.12a3.81,3.81,0,0,0-.65-.22,5.45,5.45,0,0,1-.61-.2.84.84,0,0,1-.33,0,5,5,0,0,1-1.16,0,.71.71,0,0,0-.48,0,.25.25,0,0,0-.13.18.08.08,0,0,1,0,.12.12.12,0,0,1-.06.18.28.28,0,0,1-.3,0l-.12-.06c-.12-.06-.24-.11-.25-.18s.09-.14.33-.29a.43.43,0,0,0-.39-.06.3.3,0,0,1-.25,0c-.29.08-.53.14-.73,0a.94.94,0,0,1-.66,0,.77.77,0,0,0-.56,0l0,0h-.09a.76.76,0,0,1,.41.14c.08.08,0,.18,0,.28s0,.15,0,.21a.68.68,0,0,1,0,.13.94.94,0,0,0,0,.16c-.45,0-.65,0-.73-.07s0-.12,0-.23a1,1,0,0,0-.3.08.64.64,0,0,1-.18.06l-.05,0h.19c.11,0,.27,0,.27.11a.11.11,0,0,1,0,.09.78.78,0,0,1-.31,0,.33.33,0,0,0-.14,0l-.06.05-.1.1a.79.79,0,0,1-.31.08,1,1,0,0,0-.27.07,2,2,0,0,0-.51.23L53,76l-.18.11-.22.12-.08.05-.08,0a.58.58,0,0,1-.29.09.22.22,0,0,1-.16,0,.28.28,0,0,1-.2,0,.45.45,0,0,1-.23,0,.21.21,0,0,0-.16,0,.58.58,0,0,1-.24.25,1.2,1.2,0,0,1-.87.08.66.66,0,0,1-.46,0,.41.41,0,0,1-.27,0,.59.59,0,0,1-.37-.08c-.22-.13-.09-.23,0-.31l.17-.09-.41.06-.39.07a.21.21,0,0,1-.12,0h-.05l-.09,0-.5-.26-.46-.24a4.7,4.7,0,0,1-1.17-1.09.15.15,0,0,0-.06,0c-.07,0-.17-.12,0-.2a1.49,1.49,0,0,1-.12-.82.15.15,0,0,1-.11-.07c0-.08.15-.17.58-.43l.44-.27a.4.4,0,0,1,.26-.08c.08,0,.11.08.15.17l0,.09a.52.52,0,0,1,.09.43,2.11,2.11,0,0,0,.15.15l.28.32a.94.94,0,0,0,.67.38.6.6,0,0,1,.43.22c.11.12.17.14.19.14a.36.36,0,0,0,.11-.06c-.09,0-.06-.09,0-.12a.29.29,0,0,1,0-.1c0-.1,0-.18-.36-.16a1.14,1.14,0,0,1-.64-.26L48.11,74c-.08,0-.09-.1,0-.14a.2.2,0,0,1,.08,0l.08,0s0,0,0,0a.45.45,0,0,1-.28,0s0-.08,0-.18,0,0,0,0-.26-.09-.27-.15,0-.09.15-.15.09-.16.1-.27c0-.34,0-.41.45-.73l.23-.19a.24.24,0,0,1,.09-.07c.06,0,.12,0,.2,0L49,72l.2.06.12,0a.21.21,0,0,1-.09-.14c0-.12.16-.23.33-.33a5.17,5.17,0,0,1,1.59-.57l.45.07.24,0,.27,0h.06c.26,0,.4,0,.45.1s0,.17-.24.39a1.82,1.82,0,0,0,.38-.11A1.31,1.31,0,0,1,53.72,71.55Zm6.1,0,.08,0s0-.06,0-.07l-.06,0S59.8,71.6,59.82,71.6ZM31.2,73.05a.17.17,0,0,1,.09-.22.53.53,0,0,1,.26-.06.3.3,0,0,1,.23,0,.31.31,0,0,1,.27,0l.08,0a.61.61,0,0,1-.39-.1.08.08,0,0,1,0-.1l-.09,0a3.79,3.79,0,0,1-.54-.2,5.25,5.25,0,0,1,.62-.4,1.33,1.33,0,0,1,.22-.12l0,0,.36-.22a.74.74,0,0,1,.16-.08l.5-.29.69-.4.37-.21a3,3,0,0,0,.38.18c.2.08.39.16.37.33a2.77,2.77,0,0,1-.69.78.2.2,0,0,1-.13,0,.26.26,0,0,1-.16-.11s-.08-.08-.11-.07h-.29a.56.56,0,0,1-.32,0c-.06,0-.07-.1,0-.19s0-.05,0-.05a1.06,1.06,0,0,0-.73.19l-.15.09-.14.08a1.17,1.17,0,0,1,.91.35.26.26,0,0,1-.09.41.71.71,0,0,1-.28.08,1,1,0,0,1-.17,0h-.11c.08.15,0,.31-.18.43a1.06,1.06,0,0,1-.38.12C31.53,73.18,31.25,73.19,31.2,73.05Zm.66-.58.27.09a.29.29,0,0,0-.19-.1Zm24.85,2.37a.33.33,0,0,0-.28,0l-.1,0a.09.09,0,0,0,0,.12c.29.62.29.63.33.63C57,75.28,56.91,75,56.71,74.84Zm7.84,5.43a0,0,0,0,0,0-.06,1.61,1.61,0,0,0-.47-.55c-.11-.09-.24,0-.33,0l-.1,0a.59.59,0,0,0-.16.06.11.11,0,0,0,0,.19,1.22,1.22,0,0,0,.86.34A.22.22,0,0,0,64.55,80.27Zm-2.79,0,0,.05c-.19.19,0,.35.1.44s.08.27.28.28a.34.34,0,0,0,.18,0,.35.35,0,0,0,.15-.17l0,0s0,0,0,0v-.16c0-.28,0-.55-.3-.56a.36.36,0,0,0-.25.06A.38.38,0,0,0,61.76,80.24ZM60.51,75a.9.9,0,0,0,.23-.19s.07-.08,0-.11-.14,0-.24,0h-.4a.48.48,0,0,0-.31,0,.18.18,0,0,0-.08.19s-.06,0-.14,0a1.14,1.14,0,0,0-.73.12.42.42,0,0,0-.2.2s0,.07,0,.07a.68.68,0,0,0,0,.15l0,.1a.89.89,0,0,0,.9.56,1,1,0,0,0,.48-.14.77.77,0,0,0,.31-.31v-.06a.18.18,0,0,0,0-.11c0-.15-.11-.22-.23-.29A.63.63,0,0,1,60,75,.68.68,0,0,0,60.51,75ZM33.16,75a1,1,0,0,1,.53-.07h.06a1,1,0,0,1,.47,0,.54.54,0,0,0,.45,0c-.15-.22-.22-.32-.12-.37s.23,0,.51,0a.63.63,0,0,1,.19,0,.32.32,0,0,0,.15,0,.08.08,0,0,0,0,0s0,0,0,0a1.7,1.7,0,0,1-.28,0,.13.13,0,0,1-.08,0,.43.43,0,0,0-.21-.08.37.37,0,0,0-.16,0l-.11.08-.07,0c-.21-.25-.26-.43-.09-.53a1.12,1.12,0,0,1,.56-.07l.3,0,.12,0,.15,0,.13,0a.14.14,0,0,0,0-.09c-.05-.1-.12-.21,0-.27l.08,0a1.3,1.3,0,0,1,1,.12c.33.18.64.35.92.53a2,2,0,0,0,.74.23V74s0-.08,0-.09a.2.2,0,0,1,.11,0,1,1,0,0,0,.46-.12.37.37,0,0,0,.13-.11s0,0,0-.05a.74.74,0,0,1,.34,0c.15,0,.37,0,.7,0a1.71,1.71,0,0,1,1.16.39,3.37,3.37,0,0,0,.31.21s0,0,0,.05-.16.23-.32.32a.87.87,0,0,1-.58.13h-.58a3.49,3.49,0,0,1-.56,0c-.36,0-.53-.18-.46-.35v-.12l-.11,0a.75.75,0,0,0-.21,0l.06.08a.11.11,0,0,1,0,.12.4.4,0,0,1-.22,0h-.07l-.08,0c.11.07.11.11.06.15a.43.43,0,0,1-.17,0l-.07,0s-.05.09,0,.12.12.07.28.1.34.1.38.19,0,.2-.18.29l-.38.2-.32.17a.76.76,0,0,1-.41.14.53.53,0,0,1-.34-.17.6.6,0,0,0-.42-.21c0-.1,0-.11,0-.14l0-.17c-.07,0,0-.11,0-.15a.52.52,0,0,0-.13.06.82.82,0,0,0-.2.17,1.12,1.12,0,0,1-.2.17,1.83,1.83,0,0,0-.31.24l-.14.12c-.18-.1-.25-.18-.29-.18s-.07,0-.13,0a.56.56,0,0,0,0,.08.26.26,0,0,1-.09.12.43.43,0,0,1-.32,0,.43.43,0,0,0-.11-.08l-.12.07a.24.24,0,0,1-.22,0c-.08-.05-.06-.1,0-.16a.13.13,0,0,0,0-.12,1.08,1.08,0,0,0-.32.09.87.87,0,0,1-.36.09q-.1,0-.12-.06s0-.09,0-.13.06-.06,0-.08a.62.62,0,0,0-.22,0l-.22,0a.32.32,0,0,0-.15,0c-.14,0-.32,0-.3-.16A.29.29,0,0,1,33.16,75Zm1.72.23c.23,0,.33,0,.4,0a.05.05,0,0,0,0,0,.11.11,0,0,0-.05,0A.63.63,0,0,0,34.9,75s0,.07,0,.1ZM64,78.85c.09,0,.08-.15,0-.25l-.1,0a.59.59,0,0,0-.45,0l-.13.07-.06,0s-.08.06-.08.09a.11.11,0,0,0,.06.06A1.17,1.17,0,0,0,64,78.85ZM45.7,69a.49.49,0,0,0-.2.05c-.17.1,0,.24.12.35a.93.93,0,0,1,.1.1.19.19,0,0,0,.14.07.37.37,0,0,0,.21-.06l.08,0,.11-.08c.06,0,.12-.08.1-.12s0,0-.09,0a.83.83,0,0,1-.27-.12A.6.6,0,0,0,45.7,69ZM26,80.66l.08,0a.17.17,0,0,0,.1,0,.11.11,0,0,0,0-.17c0-.06,0-.11-.09-.14a.1.1,0,0,1,0-.07.74.74,0,0,1,.15,0l.14,0a.39.39,0,0,0,.28,0c.06,0,.05-.09.05-.14s0,0,0-.06a1.09,1.09,0,0,1,.24.07.46.46,0,0,0,.43,0c.09-.05.08-.12.08-.19a.37.37,0,0,1,0-.11c0-.11-.1-.15-.2-.18s-.13,0-.14-.07,0-.08.09-.11a.17.17,0,0,0,.14,0c.12-.21-.07-.35-.25-.45l-.14,0c-.05,0-.11,0-.12,0s0-.07.06-.09,0,0,.1,0a.28.28,0,0,0,.23,0l.05,0a.73.73,0,0,0,.34,0,.66.66,0,0,0,.29,0,.05.05,0,0,0,0,0s0,0-.09-.08c-.29-.16-.27-.33-.25-.57.07-.09.09-.13,0-.17a.36.36,0,0,0-.22,0h-.13l-.07,0c-.1,0-.11-.05-.14-.11a.09.09,0,0,0,0-.07c0-.07-.13-.1-.23-.13s-.25-.07-.16-.19.07-.18,0-.22a.63.63,0,0,0-.43,0,.34.34,0,0,0-.26,0,.42.42,0,0,0-.22,0,.47.47,0,0,0-.3,0c-.07,0-.07.11-.08.17s-.08.17,0,.19.16.08.17.11,0,0,0,0a.84.84,0,0,1-.18.07,2.71,2.71,0,0,0-.3.13.31.31,0,0,0-.17.43,1.55,1.55,0,0,1,.07.23s0,.07,0,.1.05.22.14.32a.41.41,0,0,1,.13.2c-.08.06-.1.13-.07.19s-.07.11,0,.15c.23.18.23.35,0,.52s0,.09,0,.11,0,.08.07.12c0,.19.23.25.43.3A1.18,1.18,0,0,1,26,80.66Zm5.42,26.08-.31.14c-.2.12-.12.2.1.34-.11.11-.07.21,0,.31l.16,0c.42-.25.45-.44.13-.75C31.45,106.73,31.44,106.73,31.43,106.74Zm.26-21.46a3.89,3.89,0,0,1,.74-.14,6,6,0,0,0,.64.14l.38.08a.47.47,0,0,0,.33,0c.07,0,.07-.11.06-.19V85.1a.1.1,0,0,0,0-.15.21.21,0,0,0,.05-.23,1.27,1.27,0,0,0,.28-.08s.05,0,.06,0c.29-.36,0-.54-.31-.7s-.44-.24-.28-.44.06-.32-.05-.43a.43.43,0,0,1-.15-.28l.33-1.32q.14-.18,0-.27a1.23,1.23,0,0,0-.57-.09H33l-.9-.06-.68,0a1.52,1.52,0,0,0-.42.17,1.15,1.15,0,0,0-.32.27.53.53,0,0,1-.12.1c-.09.06-.17.06-.45.08s-.46,0-.87.06a.61.61,0,0,0-.35.05c-.2.17-.36.29-.49.41-.49.4-.73.61-.64.71a.5.5,0,0,0,.28,0,.83.83,0,0,1,.27.12.7.7,0,0,0,.4.15.52.52,0,0,1,.52.35,1.94,1.94,0,0,0,.34.44,1.29,1.29,0,0,1,.16.17,1.36,1.36,0,0,0,.46.37,1,1,0,0,1,.51.39c.11.16.16.25.2.31s.1.17.19.2A1.38,1.38,0,0,0,31.69,85.28ZM26,103.57a2,2,0,0,0-.34.28c-.13.14-.2.2-.15.25s.18.05.44.06a.79.79,0,0,0,.43-.08l.1,0a.66.66,0,0,0,.26-.06.12.12,0,0,0,.07-.14c0-.08.12-.28-.25-.37A.74.74,0,0,0,26,103.57ZM35.63,76.2a.53.53,0,0,0-.35,0,.14.14,0,0,0-.09.17c0,.15.12.4.43.4a1.16,1.16,0,0,0,.58-.14.47.47,0,0,0,.19-.18c-.09-.18-.32-.22-.52-.25Zm-9.58.25.17,0a.39.39,0,0,0,.26,0c.06,0,.05-.08.05-.14a.24.24,0,0,1,.08-.12.4.4,0,0,1,.25.1.6.6,0,0,0,.37.11.28.28,0,0,0,.21,0,.76.76,0,0,0,.34,0,.58.58,0,0,0,.35,0,.49.49,0,0,0,.19-.21,1.86,1.86,0,0,1,.28-.31c.25-.21,0-.33-.15-.43a.56.56,0,0,1-.17-.11.43.43,0,0,0-.21-.09.52.52,0,0,0-.3.08l-.06,0a.12.12,0,0,1,0-.08s0-.07,0-.11a.18.18,0,0,0,.08-.22.38.38,0,0,1,0-.1s-.06,0-.08,0l-.33.16-.4.2a1.38,1.38,0,0,0-.36.29c-.06,0-.06.07-.05.09s0,0,0,0a.36.36,0,0,0-.05.26v.09c-.08,0-.09.07-.05.11l-.11,0H26.2l-.13,0h-.33a.31.31,0,0,0-.27,0,.2.2,0,0,0-.07.21c0,.1,0,.14,0,.17l.14,0Zm4.54-2.06a.86.86,0,0,0,.34.07.3.3,0,0,0,.24.06.29.29,0,0,0,.26.08.48.48,0,0,0,.24.09.4.4,0,0,0,.15,0l.11-.06c.1-.06.22-.14.2-.24s-.28-.14-.39-.14a.82.82,0,0,0-.4-.08.41.41,0,0,0-.23-.06.4.4,0,0,0-.25,0,.32.32,0,0,0-.21,0,1.19,1.19,0,0,0-.56,0,.08.08,0,0,0-.05,0,.08.08,0,0,0,0,.09.57.57,0,0,0,.27.09A1.42,1.42,0,0,1,30.59,74.39Zm13.15,2.52a.55.55,0,0,0-.22,0,.48.48,0,0,1-.27,0s0-.06,0-.11a.38.38,0,0,0,0-.1c-.05-.11-.25-.18-.45-.18a.23.23,0,0,0-.14,0c-.1.05-.12.15-.06.19s.07.09,0,.14a.21.21,0,0,0-.09.1s-.1,0-.1,0,0-.09-.07-.12c.16-.22-.06-.37-.26-.5s-.29-.28-.29-.3-.06,0-.13-.06h-.17a.41.41,0,0,0-.25,0,.26.26,0,0,0-.1.11.36.36,0,0,1-.08.09.11.11,0,0,1-.09-.1c0-.07,0-.16-.2-.22a.32.32,0,0,0-.13.09.77.77,0,0,0-.2.33.55.55,0,0,1-.25.36.63.63,0,0,1-.22.09c-.08,0-.1.07-.09.11s.07.08.12.09A.09.09,0,0,1,40,77s0,0-.06.07l-.05.05a.1.1,0,0,1,0,0s-.08,0-.07.09,0,.06.1.08a.57.57,0,0,0,.31,0c.13,0,.15,0,.15,0l-.08,0-.1,0c-.07,0-.08.07-.07.1a.18.18,0,0,0,.13.06.4.4,0,0,0,.22,0,.48.48,0,0,0,.33,0,.44.44,0,0,1,.13,0l.45.13a.4.4,0,0,1,.28.21.13.13,0,0,1-.07.16.3.3,0,0,1-.18,0,1.5,1.5,0,0,0-.47,0,.63.63,0,0,0-.36,0c-.08,0-.08.13,0,.25s.52.28.8.28a.21.21,0,0,0,.16,0,1.34,1.34,0,0,0,.57.09,1.2,1.2,0,0,0,.46-.1,1.08,1.08,0,0,1,.51-.09c.2,0,.39.08.57.11a5.66,5.66,0,0,1,.82.16.66.66,0,0,0,.41,0,.16.16,0,0,0,.08-.2s0-.06,0-.09a.57.57,0,0,1,.08-.42c.19-.3,0-.53-.41-.65a.58.58,0,0,1-.4-.25A.76.76,0,0,0,43.74,76.91Zm-15.65.77.2-.06a2.11,2.11,0,0,0,.41-.15l.09-.06s0,0,0,0c-.41-.13-.65-.15-.8-.06a.4.4,0,0,0-.17.32.1.1,0,0,0,.07.07A.32.32,0,0,0,28.09,77.68Zm0,1.46a.56.56,0,0,0-.18,0c-.13.08-.1.21-.06.34a1.12,1.12,0,0,1,0,.32c0,.12,0,.19.05.23a1.11,1.11,0,0,0,.53,0h.14a.69.69,0,0,0,.26,0c.09-.06,0-.14,0-.16l-.25-.33-.1-.12C28.42,79.21,28.37,79.1,28.13,79.14Zm2.49-2.49a.83.83,0,0,1-.22-.53.52.52,0,0,1,.19-.2.46.46,0,0,1,.2,0,.72.72,0,0,1,.38.16,1.61,1.61,0,0,0,.51.25l.11,0a.54.54,0,0,1,.31,0,.21.21,0,0,1,.14.18c0,.08.09.13.13.13a.4.4,0,0,0,.2-.05.46.46,0,0,1,.29-.06.31.31,0,0,1,.2.11.23.23,0,0,1,.07-.09l0,0c.06,0,.07,0,0-.06s-.24-.17-.11-.24a.88.88,0,0,1,.39,0,1.37,1.37,0,0,1,1.33.37l.15.17c.52.57.52.59-.34,1.18l-.13.09a.52.52,0,0,1-.3.06c-.06,0-.09,0-.14,0a.19.19,0,0,0-.07.12.17.17,0,0,0,0,0l0,.07-.06.18,0,.09a.19.19,0,0,1-.07.19.19.19,0,0,1-.07.2l0,.16a.63.63,0,0,1-.34.55,2.21,2.21,0,0,1-1.25.19c-.11,0-.24-.1-.22-.23l.06-.32a.66.66,0,0,1-.35,0,.26.26,0,0,1-.2-.21c-.09.05-.05.08,0,.14s.11.07.11.12,0,.18-.08.23a.47.47,0,0,1-.26,0,.27.27,0,0,1-.14.19.68.68,0,0,1-.48.05.85.85,0,0,0-.64.12.51.51,0,0,1-.26.09.44.44,0,0,1-.28-.14.23.23,0,0,1,0-.35c.06-.06.05-.07.05-.07H29.2a.53.53,0,0,1-.27,0c-.05,0,0-.12.14-.26s0,0,0-.08a.77.77,0,0,1-.33,0,.2.2,0,0,1-.13-.08.58.58,0,0,0-.14-.12c-.15-.1-.33-.22,0-.41l.08,0s0,0-.05,0a.47.47,0,0,1-.19,0,.08.08,0,0,1,0-.09.26.26,0,0,0,0-.17c0-.1-.06-.21.1-.3l.08,0c.29-.11.58-.22.86,0a.16.16,0,0,0,.1,0s.08,0,.14,0l.11,0,.08,0,.08,0,.09-.06a.64.64,0,0,1,.49-.07.76.76,0,0,1,.34,0l.25,0a2,2,0,0,1,.77.16.36.36,0,0,0,.36,0l.07,0,.27-.14.22-.12c.05,0,.18-.1.16-.15a.36.36,0,0,0-.21-.06l-.26,0a.71.71,0,0,0-.2,0,.52.52,0,0,1-.3,0c-.07,0-.08-.1,0-.22s0-.1-.09-.11h-.18a2.55,2.55,0,0,0-.36,0h-.17l-.16,0c-.11,0-.24,0-.29-.08s-.05-.1,0-.17ZM89.43,93.54a.52.52,0,0,0-.35,0s0,0,0,0,0,.16.08.21a.3.3,0,0,0,.15,0,3.86,3.86,0,0,1,.93.11s.07,0,.09,0c-.09-.24-.34-.29-.57-.34A1.15,1.15,0,0,1,89.43,93.54Zm-.05-.35c0-.19-.18-.29-.42-.32a.2.2,0,0,0-.11,0,.1.1,0,0,0,0,.15s.15.17.51.17Zm3.84,1.86a2.22,2.22,0,0,0-.63.21.59.59,0,0,0-.23.21c0,.08,0,.13,0,.16a.52.52,0,0,0,.31,0h.09a.92.92,0,0,0,.48-.1.74.74,0,0,0,.19-.15,1.24,1.24,0,0,1,.18-.14c.07,0,.17-.1,0-.18a.47.47,0,0,0-.4,0Zm-2.78-1.8a.44.44,0,0,1,.25,0,.63.63,0,0,0,.35,0s0,0,0-.07,0-.07,0-.08a.42.42,0,0,0-.2,0h-.1a.74.74,0,0,0-.25,0A.77.77,0,0,1,90,93c0,.21,0,.3.15.33A.53.53,0,0,0,90.44,93.25Zm-1.87,2.48c-.15.08-.08.16,0,.21s.09.1.16.11a.45.45,0,0,0,.2-.06c.09-.06.21-.13.06-.22A.43.43,0,0,0,88.57,95.73ZM88,93.42a1.37,1.37,0,0,0,.58-.17l.17-.12a0,0,0,0,0,0,0,.25.25,0,0,0-.16,0,.59.59,0,0,0-.34.06.93.93,0,0,0-.15.13l-.07.06s0,.06,0,.12S88,93.42,88,93.42Zm4.11-.25a.34.34,0,0,0-.12.12s0,0,0,0c.57.09.57.09.59.08a.23.23,0,0,0-.16-.29A.57.57,0,0,0,92.07,93.17Zm2.36,1.38a.71.71,0,0,0,.44-.14,1,1,0,0,0,.2-.14l.19-.13a1,1,0,0,1,.49-.12A.41.41,0,0,0,96,94c.06,0,0-.09,0-.13s0,0,0-.07a.64.64,0,0,0,0-.07,1.72,1.72,0,0,0,.33-.26,1.72,1.72,0,0,1,.32-.26,1.36,1.36,0,0,1,.28-.11l.07,0a.08.08,0,0,0,0-.11.15.15,0,0,0-.1-.16.34.34,0,0,0-.21,0l-.28,0a4.46,4.46,0,0,0-1.65.4,1.76,1.76,0,0,0-.36.29.24.24,0,0,1-.16,0,.41.41,0,0,0-.21,0,.33.33,0,0,0-.14.22c-.07.08,0,.12,0,.14a.28.28,0,0,0,.21,0l.11,0a.62.62,0,0,1,.17,0s0,.27-.23.42-.17.11-.13.16.11.06.26.07Zm-1.12-.87a.25.25,0,0,0,.13,0l.06-.06c.12-.1.21-.18,0-.29a.3.3,0,0,0-.14,0,.28.28,0,0,0-.13,0l-.1.12c-.06.06-.13.13,0,.22A.34.34,0,0,0,93.31,93.68Zm29.85-3.21a1,1,0,0,0-.55.08l-.21.1a1.83,1.83,0,0,1-.61.2.26.26,0,0,0-.21,0,.75.75,0,0,0-.39,0,.27.27,0,0,0-.2,0,2.52,2.52,0,0,0-1.45.24l-.14.09-.23.14a2.37,2.37,0,0,1-.63.27l-.21,0a1.48,1.48,0,0,0-.49.15.44.44,0,0,0-.17.16s-.09,0-.13,0a1.87,1.87,0,0,0-.94,0l-.25,0a3.81,3.81,0,0,0-1.08.35l-.11.07,0,0a.1.1,0,0,1-.06,0s-.06,0-.13,0a.53.53,0,0,0-.45,0l-.1,0-.17.06a.76.76,0,0,1-.66,0s0,0,0-.06a.25.25,0,0,0-.15-.21.53.53,0,0,0-.26,0,1.17,1.17,0,0,1-.47,0l-.1,0-.31-.1a2.14,2.14,0,0,0-.64-.13.81.81,0,0,0-.35,0,.74.74,0,0,1-.25,0l-.48,0a5.05,5.05,0,0,0-1.88.55l-.25.16-.07.05-.18.13a.89.89,0,0,1-.55.1h-.07a.44.44,0,0,0-.27.05.65.65,0,0,0-.24,0,.33.33,0,0,1-.24,0,1,1,0,0,0-.73,0,1.73,1.73,0,0,0-.53.08,1.44,1.44,0,0,1-.92,0,.09.09,0,0,0-.1,0c-.1,0-.13,0-.15,0a.34.34,0,0,0-.1,0c.18-.17,0-.27-.12-.36a.19.19,0,0,0-.12,0,.26.26,0,0,0-.14,0,.4.4,0,0,1-.11.06l0,0c-.09,0-.17.13,0,.25s.12.13.05.16a.31.31,0,0,1-.19,0s0,0,0-.08.08-.13,0-.21a1.37,1.37,0,0,0-.36.16l-.16.09,0,0-.07,0-.06,0a.38.38,0,0,1-.19.06,1.56,1.56,0,0,0-.34.07c-.08,0,0,.11.08.23s0,.07,0,.12a1.21,1.21,0,0,1-.24.21.75.75,0,0,1-.18.07.51.51,0,0,0-.43,0l-.09.06-.09.06a1,1,0,0,0-.19.14l-.15.11a.4.4,0,0,1-.27,0,1.16,1.16,0,0,0-.81.1.51.51,0,0,1-.42.07.52.52,0,0,0-.36,0c-.08,0-.08.12,0,.19s.07.15,0,.22a.32.32,0,0,0,0,.09.24.24,0,0,0-.06.11.33.33,0,0,1,0,.06h0a.5.5,0,0,1-.16,0s0-.07,0-.12a.16.16,0,0,0,0-.19.48.48,0,0,0-.21-.06.83.83,0,0,0-.35.07.2.2,0,0,0-.11.24c0,.22-.12.4-.31.57l-.07.06c-.22.19-.44.39-.41.64-.08,0-.1.08-.1.11a.22.22,0,0,0,.14.13.35.35,0,0,1,.23.45.28.28,0,0,0-.05.3h-.18a1.15,1.15,0,0,0-.32,0H97a1.75,1.75,0,0,0-.87.2.6.6,0,0,0-.3.31,1,1,0,0,1-.38.43,1.42,1.42,0,0,1-.68.15.7.7,0,0,0-.48,0l-.21,0-.33,0h-.09a2,2,0,0,1-.87-.51l-.49-.39L92,97.84a.45.45,0,0,0-.42-.12A2.91,2.91,0,0,0,90.2,98l-.21.14c-.19.15-.41.28-.62.42l-.17.1-.14.09a.41.41,0,0,1-.14.06s-.12-.11-.15-.16a5.2,5.2,0,0,0-1-1.09,1.53,1.53,0,0,1-.34-.33s0-.09-.07-.13a.35.35,0,0,0-.23-.23.81.81,0,0,0-.43.06,2.43,2.43,0,0,0-.4.18,2.5,2.5,0,0,0-.75.73l0,0c-.1.14.06.26.22.37a.84.84,0,0,1,.22.19,1.16,1.16,0,0,1,.11.24c0,.1.09.18,0,.25a1.82,1.82,0,0,0-.28.13,1.44,1.44,0,0,0-.35.28l-.12.12a1.41,1.41,0,0,1-.29.25.61.61,0,0,1-.14.07.81.81,0,0,0-.55.09l-.06,0h-.1a.31.31,0,0,0-.21,0,.43.43,0,0,0-.25,0,.75.75,0,0,0-.4-.08.37.37,0,0,0-.27,0,.47.47,0,0,0-.33,0,.23.23,0,0,1-.11,0,.54.54,0,0,0-.28-.11.2.2,0,0,0-.13-.06l-.09,0-.17-.08a6.16,6.16,0,0,1-1.53-.82c.07-.08.12-.13.06-.2s-.22-.21-.39-.25-.62-.15-.6-.37a.75.75,0,0,0,0-.26c-.05-.2-.1-.38.17-.54.05,0,0,0,0-.06-.11-.29-.05-.41.26-.59l.47-.24.54-.27a1.44,1.44,0,0,0,.69-.15.55.55,0,0,0,.19-.18.25.25,0,0,1,.13,0H82a.36.36,0,0,0,.19,0,.16.16,0,0,0,.07-.09.08.08,0,0,0,0-.09.25.25,0,0,0-.16,0h-.12c-.18-.06-.27-.12-.28-.18s.1-.15.19-.2l.13-.07.13-.07a1.21,1.21,0,0,0,.22-.17.79.79,0,0,1,.23-.18,1.47,1.47,0,0,1,.67-.17.28.28,0,0,0,.22,0,.34.34,0,0,0,.25,0,.34.34,0,0,0,.09-.08s0,0,0,0,.06-.07.09-.12a.82.82,0,0,1,.19-.18l.14-.06h.64a2.66,2.66,0,0,1,.45.2,1.84,1.84,0,0,0,.79.28l.36.06a7.84,7.84,0,0,0,1,.14l.13,0a.42.42,0,0,0,.33,0l.06,0c.13-.13.26-.25,0-.42a2.29,2.29,0,0,0-1-.54L85.67,93l-.43-.12c-.52-.14-.86-.67-.64-1,.07-.11.14-.25,0-.38s0,0,0-.06,0,0-.06,0a.73.73,0,0,1,.19-.5c.11-.13.1-.24,0-.32.32-.2.24-.43.11-.67,0,0,.06,0,0,0v-.08s0,0-.06-.06a1.26,1.26,0,0,0-.77-.35l0,0a.51.51,0,0,1-.09-.18.61.61,0,0,0-.2-.3s0-.08-.08-.12a.5.5,0,0,0-.17-.27c-.08-.09-.16-.18-.15-.28a.56.56,0,0,0-.22-.39.75.75,0,0,1-.17-.19c0-.06.07-.15.17-.24s.23-.2.22-.29c-.06-.3.18-.49.44-.7l.11-.09c.1-.08.13-.14.11-.19s-.12-.08-.3-.11-.1.1-.09.14,0,0,0,.06a1.09,1.09,0,0,0-.26,0c-.13,0-.21,0-.26-.09L83,85.9c-.18-.22-.34-.42-.06-.66,0,0,0,0,0-.07a.08.08,0,0,0,0,0,.2.2,0,0,0,0-.07s0-.09.08-.12a.46.46,0,0,1,.1,0l.11,0c.24-.13.37-.4.2-.55s-.09-.2,0-.28l.07-.05.09-.06c.1-.06.22-.13.16-.24a.09.09,0,0,0,0-.06c.09,0,.11,0,.12,0a.08.08,0,0,1,0,.07s0,.07,0,.11c-.13.23-.13.39,0,.5a.91.91,0,0,0,.57.18,1.41,1.41,0,0,0,.46,0s0-.08,0-.13.05,0,.05-.06a.2.2,0,0,1,0-.08.15.15,0,0,1,0-.07A.2.2,0,0,1,85,84a.2.2,0,0,1,0-.08.15.15,0,0,1,0-.07.14.14,0,0,1,0-.07.15.15,0,0,0-.05-.12,4.9,4.9,0,0,0,.71-.83l.17-.24a.06.06,0,0,0,0-.07c-.13,0-.16-.06-.16-.07s0,0,.06-.07.09-.08.08-.12a.17.17,0,0,0,.09-.21c.08-.11,0-.17-.07-.2a.47.47,0,0,0-.31,0c-.12.07-.17.08-.19.07s-.07-.05-.09-.09l-.07-.08a.42.42,0,0,0-.4,0l0,0s-.06.05,0,.08a.1.1,0,0,0,.06.07s0,.07,0,.09l0,.13a.24.24,0,0,1,0,.1.47.47,0,0,0,.18.2c0,.06,0,.08,0,.09l-.12,0a.49.49,0,0,0-.16,0s0,0,0-.07a.19.19,0,0,0-.1-.18,1,1,0,0,0-.48.15l-.08.05-.08,0a.74.74,0,0,1-.73.07.06.06,0,0,0-.06,0,.12.12,0,0,0,0,.17.14.14,0,0,1,0,.09.74.74,0,0,0-.3-.08c-.09,0-.15,0-.16,0-.06-.22-.31-.25-.55-.28,0,0,0-.07,0-.09s.16-.3-.13-.43a.93.93,0,0,0-.79,0l-.12,0-.3.16c-.25.15-.38.28-.42.44s-.09.07-.08.12-.08.07-.06.11-.08.07-.07.1a.23.23,0,0,0-.09.11.15.15,0,0,1,0,.06s0,0-.13-.07c.05,0,.12-.11,0-.16a.57.57,0,0,1,.14-.11c.13-.08.29-.19.11-.34,0,0,0-.1-.06-.12s0-.07-.06-.11a0,0,0,0,0,0-.07,3,3,0,0,1,.82-.63c.25-.15.53-.28.79-.41s.48-.23.68-.35c.38-.22.76-.5.66-.94-.06-.24,0-.45.33-.68l.13-.08.08.16,0,.11c0,.1.1.16.19.21s.14.08.16.13a2.34,2.34,0,0,0,.42.65.24.24,0,0,1,0,.22c0,.12,0,.28.31.35v0c0,.1,0,.21.22.25a.67.67,0,0,0,.5-.08l.39-.22.56-.34a.45.45,0,0,1,.52,0,.39.39,0,0,0,.37,0,.24.24,0,0,0,.09-.11l.06-.14a.6.6,0,0,0,.07-.45s.08,0,.14.12a.26.26,0,0,0,.2.14.46.46,0,0,0,.28-.07.72.72,0,0,0,.43,0c.08,0,.08-.13.07-.21s-.63-.6-1-.64a.14.14,0,0,0-.11,0,.14.14,0,0,0-.07.1.19.19,0,0,0,0,.07s0,0,0,.06a.17.17,0,0,1-.09,0s0-.06,0-.1.08-.19-.11-.25a.3.3,0,0,0-.23,0l-.06,0-.06,0-.06,0c-.07,0-.1-.08-.11-.11a.33.33,0,0,0-.26-.2A.62.62,0,0,0,86,79l0,0a3.66,3.66,0,0,1-.67.29c0-.07,0-.12-.09-.14a.48.48,0,0,0-.31,0,.63.63,0,0,1-.29.06s-.08-.06-.1-.09a.3.3,0,0,0-.08-.18.37.37,0,0,1-.07-.12.46.46,0,0,0-.34-.3.74.74,0,0,0-.39,0,.13.13,0,0,1,0-.06.1.1,0,0,0-.06-.11.05.05,0,0,0,0,0s0,0-.06-.05-.25-.2-.41-.26a1.33,1.33,0,0,1-.24-.1c-.56-.32-.59-.32-1.28-.11-.2,0-.29,0-.38-.06a.72.72,0,0,0-.35.11c0-.14.06-.2,0-.24a.77.77,0,0,0-.35,0c-.2-.09-.31-.07-.37,0a.14.14,0,0,0-.08.1s0,.07-.05.08a.61.61,0,0,1-.17,0h-.06a.64.64,0,0,0-.51,0l-.06,0a1.38,1.38,0,0,1-.58,0l-.1,0c-.87.18-1.13.14-1.4-.2a.11.11,0,0,0-.06-.13.33.33,0,0,0-.18,0,.69.69,0,0,0-.35,0l-.07,0a.22.22,0,0,0-.23-.07l-.08,0H76l-.23,0a.53.53,0,0,1-.37-.11.44.44,0,0,1-.31,0,.48.48,0,0,0-.34,0,1,1,0,0,0-.53-.18,5.07,5.07,0,0,1-1.36-.21.51.51,0,0,0-.39,0c-.07,0-.08.12,0,.21a.17.17,0,0,0,.07.2c0,.13.06.22.24.28s.39.32.37.35a.4.4,0,0,0-.06.47.78.78,0,0,1,0,.21.21.21,0,0,1,0,.06.1.1,0,0,1,0,.05s-.07,0-.09,0a.91.91,0,0,0-.43,0,.54.54,0,0,1-.36,0s0,0-.16,0l0,0a.13.13,0,0,1-.07.06c-.06,0-.11,0-.24,0l-.07,0-.22-.1a1.11,1.11,0,0,0-.53-.17s0,0,0-.08,0-.13-.2-.15a.56.56,0,0,1-.5-.3c-.06-.11-.2-.15-.43-.13l-.12,0c-.06,0,0,.08,0,.13a1.31,1.31,0,0,0-.55.15l-.12,0a.52.52,0,0,1-.3.08.2.2,0,0,1-.13-.14.14.14,0,0,0-.11-.06.17.17,0,0,0-.12,0,.29.29,0,0,1-.24,0,.49.49,0,0,0-.17,0,1,1,0,0,1-.34,0,.73.73,0,0,0-.56,0,1.47,1.47,0,0,0-.61.09.27.27,0,0,0-.13.2.41.41,0,0,1-.24.3,1.94,1.94,0,0,1-.56.18l-.71.19-.15,0s-.05,0-.05.07,0,0,.06.07a.05.05,0,0,0,0,0,.11.11,0,0,0,0,0c0,.13.05.28.23.38a.76.76,0,0,0,.49.08.47.47,0,0,1,.2,0s0,0,.05.08c.07.33.47.45.87.58a2.19,2.19,0,0,1,.58.23c.24.15.49.34.38.49s-.12.26,0,.33a1.05,1.05,0,0,0,.61.09l.22,0a1.58,1.58,0,0,1,.61,0l.4.13a11.35,11.35,0,0,1,1.48.57.37.37,0,0,0,.17.34c-.06.08,0,.16.08.26a.26.26,0,0,0-.06.26c-.06,0-.1.1,0,.15a.23.23,0,0,0-.1.26c0,.17-.07.24,0,.28s.2,0,.44,0a1.06,1.06,0,0,0,.3.1,1.17,1.17,0,0,1,.3.1,5.45,5.45,0,0,0,1.25.51c-.06.09-.13.19,0,.26a.66.66,0,0,0,.34.06l-.14.07-.12,0a.11.11,0,0,0-.06.16.08.08,0,0,1,0,.1.53.53,0,0,1-.28,0,.45.45,0,0,1-.11,0,.63.63,0,0,0-.29,0H72a.73.73,0,0,1-.35,0,.7.7,0,0,0-.41,0s0-.06,0-.07l.11,0,.11,0,.08,0,.14,0s.06-.06.05-.1-.16-.09-.27-.1h-.07l-.21,0a.48.48,0,0,0-.22,0l-.06,0a.21.21,0,0,1-.08.06c-.14.08-.26.07-.52,0a4.79,4.79,0,0,1-.92-.51.62.62,0,0,0-.34-.14.86.86,0,0,0-.4.1l-.29.15a4.06,4.06,0,0,1-1.06.43,1.49,1.49,0,0,0-.84.12,2.52,2.52,0,0,1-.67.16.74.74,0,0,0-.34,0,1.13,1.13,0,0,0-.61,0,.72.72,0,0,0-.39.08.31.31,0,0,0-.2,0,3.23,3.23,0,0,0-.79.16.6.6,0,0,0-.33.07.4.4,0,0,0-.16.18.61.61,0,0,1-.13.16,4.62,4.62,0,0,1-.66-.21,2.15,2.15,0,0,0-1.94,0h-.13l-.48-.3a7.3,7.3,0,0,1-1-.71c0-.11-.07-.2-.16-.26s0,0-.07,0a.06.06,0,0,0-.06,0c-.1,0-.12-.1-.06-.18s.17-.22,0-.32-.08-.17-.06-.27,0-.3-.25-.39c.13-.1.17-.15.15-.18s-.14,0-.24-.06a.31.31,0,0,1,.1-.08l.08,0c.06,0,.13-.09.12-.16s.09-.08.07-.12,0,0,0-.06,0-.08,0-.09,0-.06-.13-.08c-.3-.07-.4-.19-.33-.39,0,0,0-.07,0-.09s-.2-.21,0-.3l.14-.06.1,0c.19-.1.31-.3.2-.44a1.29,1.29,0,0,1-.17-.33.81.81,0,0,0-.75-.65c0-.11,0-.21-.11-.29.07-.1.05-.19-.08-.27A.23.23,0,0,0,57,79a1.08,1.08,0,0,0-.5-.07,1,1,0,0,1,.17-.13.31.31,0,0,1,.21,0,2.85,2.85,0,0,0,.71,0,3,3,0,0,1,.68,0,1,1,0,0,0,.57-.09l.06,0a1.65,1.65,0,0,0-.7-.16.39.39,0,0,1-.25-.18c0-.06,0-.08,0-.08a.31.31,0,0,0,.17-.35.06.06,0,0,0,0-.1s0-.08,0-.12,0-.16,0-.24l0,0c0-.07,0-.14-.07-.2,0-.25-.24-.39-.7-.4l-.16,0a.75.75,0,0,1-.53-.17.77.77,0,0,0-.3-.15.3.3,0,0,0,0-.37,1,1,0,0,0-.57-.23c0-.08,0-.13,0-.16s-.32,0-.64.1l-.17,0-.08,0a.35.35,0,0,1-.14-.06.75.75,0,0,0-.37-.13.79.79,0,0,0-.41.11l-.65.31-.35.17,0,0-.08,0c-.09.05,0,.08,0,.14l.1.07a.89.89,0,0,0,.64.27.11.11,0,0,0,.08,0,.12.12,0,0,0,.08,0,1,1,0,0,0,.18,0c.11,0,.16,0,.16.06,0,.29.17.53.37.76l.17.21-.14-.06a.34.34,0,0,0-.34,0c-.07,0-.1.08-.1.12s.08.1.17.15l.06,0a1,1,0,0,0,.57.16.31.31,0,0,1,.27.1.15.15,0,0,1,0,.2.51.51,0,0,1-.21,0l-.07,0a1.27,1.27,0,0,0-.59-.06l-.19-.08c-.21-.07-.37-.13-.23-.31,0,0-.06-.1-.11-.11a2,2,0,0,1-.29-.11,1.82,1.82,0,0,0-.61-.15.24.24,0,0,0-.23,0,1.5,1.5,0,0,0-.47,0,.67.67,0,0,0-.38,0c-.09,0-.11.14-.06.28s.22.23.38.32l.2.12a.1.1,0,0,0,.06.11l0,0s-.05,0-.09-.07a.47.47,0,0,0-.27-.19.82.82,0,0,0-.35,0,.72.72,0,0,0-.38-.07c-.1-.18-.17-.25-.28-.28a1,1,0,0,0-.44.08l-.19.07-.14,0a.34.34,0,0,1-.19.06.22.22,0,0,1-.12-.13c.08-.07,0-.13,0-.18s-.06,0-.05-.07.09-.14.06-.17a.36.36,0,0,0-.24,0h-.1a.33.33,0,0,0-.29,0,2.86,2.86,0,0,0-.83-.1,2,2,0,0,1-.53-.23,1.14,1.14,0,0,0-.73-.19h-.06a.79.79,0,0,1-.28-.06A.59.59,0,0,0,46,77a.75.75,0,0,0-.13.11l-.07,0c-.19-.06-.2-.15-.15-.27s0-.09-.05-.13,0-.08-.08-.12a.29.29,0,0,1,0-.09.22.22,0,0,0-.14-.21.62.62,0,0,0-.33,0,.13.13,0,0,0-.08,0H44.9s0,0,0-.07l.07,0,.14-.07a2.29,2.29,0,0,1,.27-.14l.11-.05c.23-.13.1-.26,0-.39a.73.73,0,0,1-.16-.21,1.58,1.58,0,0,0-.28-.45,4.33,4.33,0,0,1-.32-.48c-.08-.14-.12-.22-.24-.25a1.75,1.75,0,0,0-.66.17c-.25.09-.57.19-.9.28a2,2,0,0,0-.47.18,1.61,1.61,0,0,0-.44.39c-.1.14-.2.29.06.4a.07.07,0,0,0,.06,0c.19.06.19.06.13.14s-.11.14.06.22a8.29,8.29,0,0,1,1.08.59c.36.22.54.34.83.24a.42.42,0,0,1,.21,0c0,.15.21.25.46.28a.37.37,0,0,0,.21.15c.08,0,.16.07.18.13s0,.36.18.39.2.09.17.17a.24.24,0,0,0,0,.08c-.07.34.47.51.64.55a1,1,0,0,1,.47.26.31.31,0,0,0,.18.28,1.83,1.83,0,0,0,.85.06h.1a1.14,1.14,0,0,0,.52,0,.47.47,0,0,0,.33,0,.81.81,0,0,1,.82.33l0,0a.41.41,0,0,0,.27.18.37.37,0,0,0,.2,0,.43.43,0,0,0,.14-.12l0,0h.07c.08,0,.09,0,.12.09a.26.26,0,0,1,0,.13.19.19,0,0,0,.11.2.6.6,0,0,1-.21.28l-.12,0-.06,0s-.09.07-.08.1a.07.07,0,0,0,0,0,.45.45,0,0,1,.22.13.56.56,0,0,0,.37.16.24.24,0,0,0,.12,0c.06,0,.09,0,.09,0-.19,0-.22,0-.3,0l-.59-.38a.37.37,0,0,0-.17-.08.2.2,0,0,0-.13,0l-.06,0a.76.76,0,0,1-.53.1l.16,0a.66.66,0,0,0,.2-.06.12.12,0,0,0,.06-.16.19.19,0,0,0,0-.23c.09-.08.13-.19,0-.27a.22.22,0,0,0-.24,0l-.1,0-.44,0c-.21,0-.47-.06-1-.1h-.66c-.18,0-.28,0-.34,0s0,.15.08.23l0,.08A.86.86,0,0,1,47,80c.19.16.31.27.22.41s-.14.25.1.37a.5.5,0,0,0,.45,0l.13,0a2.62,2.62,0,0,0,.33-.09,3.43,3.43,0,0,1,.46-.11c-.28.23-.34.29-.31.36a.43.43,0,0,0,.27.14c.13,0,.25.08.28.17s0,.13-.13.19l-.13.06-.32.14a2.41,2.41,0,0,0-.44.35,1.86,1.86,0,0,1-.31.26l-.15.07a.3.3,0,0,0-.24,0h-.11a.75.75,0,0,0-.57,0,.18.18,0,0,0-.07,0l-.1.06a1.42,1.42,0,0,1-.9.16.92.92,0,0,1-.59-.17.54.54,0,0,1,.25-.15l.79-.31a.62.62,0,0,0,.18-.08c.12-.06.13-.14.17-.31s0-.11,0-.18.07-.24,0-.26c-.31,0-.54,0-.66-.16a.08.08,0,0,0-.06,0,.33.33,0,0,0-.16,0,.4.4,0,0,1-.18.07.23.23,0,0,1-.11-.09l0-.06a.77.77,0,0,0,.54-.09,1,1,0,0,0,.19-.14c.12-.1,0-.18-.13-.24a.85.85,0,0,1-.14-.09c-.2-.23-.46-.16-.68-.1l-.2,0h-.44a1.26,1.26,0,0,0-.83.08l-.24.07a3.2,3.2,0,0,0-.71,0l-.08,0-.16-.06a3.67,3.67,0,0,0-1.31-.56,4.3,4.3,0,0,1-1.68-.77c.06-.1,0-.17-.12-.24l-.07-.06a.44.44,0,0,1-.18-.18.55.55,0,0,0-.34-.24.39.39,0,0,0-.31-.07,2.45,2.45,0,0,0-.75.31l-.12.06-.06,0s0,0,0,.07,0,0,.07.07,0,.13.06.18,0,.16.11.21.23.12.23.14a1.27,1.27,0,0,1-.37.11.86.86,0,0,0-.15.05.05.05,0,0,0,0,0s0,0,.06.06a.43.43,0,0,1,.12.11c.08.11.1.12.33.21l.54.23a7.56,7.56,0,0,0,1.13.43c.16.05.25.12.28.22s0,0-.11,0c-.31-.13-.61-.25-1-.38l-.34-.13-.27,0-.46,0h-.23a.44.44,0,0,0-.16,0l-.16,0a.86.86,0,0,0-.27.08.08.08,0,0,0-.06.08c0,.14.29.14.49.14h.08c.24.18.16.32-.11.54a.28.28,0,0,0-.19-.24.65.65,0,0,0-.41,0l-.22,0-.49,0a.74.74,0,0,0-.34.08.22.22,0,0,0-.12.21c0,.11.09.18.19.24s.08.06.08.08a.19.19,0,0,1-.11.06s0-.06-.07-.08c-.08-.19-.31-.28-.53-.37l-.1,0a.63.63,0,0,0-.57,0,.35.35,0,0,0-.15.17c0,.06,0,.13-.05.2s0,.06,0,.09c-.08.22-.09.3-.11.36a.24.24,0,0,1,0,.08,1.42,1.42,0,0,0-.13.46.52.52,0,0,0-.06.14c0,.28.13.45.49.53a.17.17,0,0,1,.15.11c0,.21.12.53.43.57a.79.79,0,0,0,.54-.15.16.16,0,0,1,.14,0c-.06.08-.13.18.1.24a.32.32,0,0,0,.26,0,.31.31,0,0,0,.09-.07l0,0a1.62,1.62,0,0,0,.2-.18,2.23,2.23,0,0,1,.33-.26,1.56,1.56,0,0,1-.3.48c-.13.17-.23.3-.14.38a.61.61,0,0,0,.34.06l.08,0a.92.92,0,0,0,.61,0l.34-.12a4.25,4.25,0,0,0,.64-.27.9.9,0,0,0,.33-.3.82.82,0,0,1,.27-.24,2,2,0,0,1,.7-.21l.12,0c.08,0,.1,0,.12,0s0,0,0,.06l-.09,0a2.66,2.66,0,0,0-1.36,1,2.55,2.55,0,0,1-.26.28c-.1.1-.16.16-.1.23s.17.09.36.09a.32.32,0,0,0,.21,0,.34.34,0,0,0,.2,0,.41.41,0,0,0,.19,0,.39.39,0,0,0,.23,0,2.2,2.2,0,0,0,.6-.15,2.8,2.8,0,0,1,.31-.09L40,84.6a1.28,1.28,0,0,1,1.1,0,.37.37,0,0,0,.16,0,.75.75,0,0,0,.67,0l.16-.12c.24-.2.51-.39.78-.58l.3-.22c.08,0,.16-.12.11-.21a.66.66,0,0,1,.4-.62l.09,0c0,.07,0,.13-.1.2s-.14.15-.11.25a.19.19,0,0,0,0,.07.47.47,0,0,0,.06.19.23.23,0,0,0,.17.12.29.29,0,0,0,.2,0,.27.27,0,0,0,.18,0,1,1,0,0,1,.47,0,.22.22,0,0,1,.12.19s0,0,.07.07a.53.53,0,0,0,.26,0,.26.26,0,0,0,.19,0s.05,0,.05,0h-.19a2.65,2.65,0,0,0-1.18.12.5.5,0,0,0-.46,0,.51.51,0,0,0-.16.19l-.06.11a1.33,1.33,0,0,1-.5.56l-.13.07c-.3.13-.67.34-.88.45l-.08,0h-.05a.15.15,0,0,0-.1,0,.46.46,0,0,1-.25-.1c-.05-.07.06-.18.15-.28s.17-.17.13-.23-.18-.07-.45-.11a.13.13,0,0,0-.09,0H41a.34.34,0,0,0-.22,0h-.11a1.37,1.37,0,0,0-.89.09.4.4,0,0,0-.16.16.4.4,0,0,1-.16.16c-.13.07-1.28.35-1.9.5l-.34.08a1.07,1.07,0,0,0-.51.06.44.44,0,0,0-.28,0,1,1,0,0,0-.61.14l-.17.11-.1.06c-.18.12-.23.16,0,.33s.17.2,0,.28a.1.1,0,0,1-.06,0l-.07,0c0-.12-.07-.19-.15-.22a.56.56,0,0,0-.28,0l-.09,0-.08,0a.3.3,0,0,1-.11-.06.36.36,0,0,0-.36-.06l-.07,0c-.11.06,0,.13,0,.18s.06.06.05.09a.18.18,0,0,0,.06.1.43.43,0,0,0,.2.36c.12.08.08.1.07.11l-.18,0-.08,0a.54.54,0,0,0-.33,0l-.21-.07a3.34,3.34,0,0,0-.93-.23.16.16,0,0,0-.09,0h-.27a.11.11,0,0,0-.08,0,.37.37,0,0,0-.32,0,.15.15,0,0,0,0,.26.43.43,0,0,0,.25,0c.11,0,.2,0,.24.14l0,.08v.06a.52.52,0,0,1-.15.13c-.09,0-.2.08-.43,0a.4.4,0,0,0-.33,0s-.07.07,0,.15a.2.2,0,0,0-.12.24c-.08.1-.15.18-.08.26a.2.2,0,0,0-.12.23,1.06,1.06,0,0,0-.2.49c-.06.07-.09.13-.07.19a.29.29,0,0,0-.09.11.16.16,0,0,1,0,.06.71.71,0,0,0-.46-.08.51.51,0,0,1-.28,0c-.1.11,0,.2.05.27s.06.09.06.09-.19.14-.18.19.13.11.25.15l.06,0-.12,0a.32.32,0,0,0-.16,0,.12.12,0,0,0-.05,0,.89.89,0,0,0,.54.17c.1,0,.12,0,.12,0a.12.12,0,0,1-.1.05l-.11,0-.14,0-.06,0-.1,0-.08.06-.08,0a.51.51,0,0,1-.25.06,5.88,5.88,0,0,0-2.41.27,1,1,0,0,0-.21.11,1.76,1.76,0,0,1-.44.18.39.39,0,0,0-.28,0,1.18,1.18,0,0,0-.34,0,.93.93,0,0,0-.57.11,1,1,0,0,0-.26.2,3,3,0,0,1-.4.3,2.78,2.78,0,0,1-.6.23l-.4.1a8.4,8.4,0,0,0-2,.68,3,3,0,0,0-.32.22,1,1,0,0,1-.54.11.49.49,0,0,0-.52,0l-.12.08-.07,0a.55.55,0,0,0-.37,0,.25.25,0,0,0-.08.1.37.37,0,0,1-.15.17,1.22,1.22,0,0,1-.49.11l-.07,0a.15.15,0,0,0-.13,0,3.78,3.78,0,0,1-.69.15l-.1,0a1.5,1.5,0,0,0-.45.1A.09.09,0,0,0,18,94s0,.08,0,.12,0,.17,0,.25,0,.14.06.17a.59.59,0,0,1-.18.2l-.14,0a.72.72,0,0,0-.25.08.33.33,0,0,0-.16.34,1.88,1.88,0,0,1-.15.78c-.11.21-.2.4,0,.61,0,.17.13.31.27.43s.24.2.26.32-.05.1.06.14c-.06.2-.28.36-.49.51l-.25.19c-.19.16-.14.23.06.34s.29.15.16.29,0,.07,0,.1a.3.3,0,0,0,.2,0l.24,0a1.4,1.4,0,0,0,.47-.08.35.35,0,0,0,.25,0,2.81,2.81,0,0,0,.86-.11.23.23,0,0,0,.14,0,.33.33,0,0,0,.15,0,2.14,2.14,0,0,1,.27.09,1.35,1.35,0,0,0,1,.06,1.16,1.16,0,0,1,.93.07.74.74,0,0,0,.48.07l.05.08c0,.07.06.12,0,.16a.9.9,0,0,0-.53.15.93.93,0,0,1-.29.12.17.17,0,0,1-.1-.06s0,0-.07-.06l-.08,0a.42.42,0,0,0-.48-.08,1.7,1.7,0,0,0-.24.09c-.1.06-.13.14-.09.22a.56.56,0,0,0-.18.39.55.55,0,0,1-.16.36c-.06.07-.13.15-.06.24a.22.22,0,0,0-.12.23c-.08.11-.11.15-.07.19s.08,0,.16,0l.09,0,.08,0h.06s0,0,.07,0h.06s0,0,.07,0h.06a.14.14,0,0,0,.09,0,.63.63,0,0,1,.43,0,1.64,1.64,0,0,0,.32.05.48.48,0,0,0,.2,0,.35.35,0,0,0,.2,0,.37.37,0,0,0,.23,0,1.45,1.45,0,0,0,.81-.18,2.32,2.32,0,0,0,.3-.22,2.15,2.15,0,0,1,.24-.18.87.87,0,0,1,.46-.11.79.79,0,0,0,.32,0c.08-.05,0-.13-.07-.2.08-.08,0-.15,0-.18a.08.08,0,0,0-.05-.12.64.64,0,0,1,.13-.15.36.36,0,0,1,.19,0,.2.2,0,0,1,0,.08s-.08.1,0,.14a.46.46,0,0,0,.26.05l.06,0,.17,0c.35.08.54.13.58.2s-.08.16-.29.32-.23.18-.06.29c-.09.07,0,.14,0,.21a.24.24,0,0,1-.11.15c-.08.07-.17.14-.15.23h-.15a.45.45,0,0,0-.26,0,.22.22,0,0,0-.09.24c0,.06.09.14.29.18,0,0,0,0,0,.07a.15.15,0,0,0,0,.09c-.06,0-.05.08,0,.13s.1.17.18.25a.45.45,0,0,1,.15.16.3.3,0,0,0,.19.3.66.66,0,0,0,.41,0,1,1,0,0,1,.58.07l.19.05a.11.11,0,0,0,.05.12.47.47,0,0,0,.22,0h.33a.44.44,0,0,1,.28,0,.54.54,0,0,0,.29.05.55.55,0,0,0,.36,0,1,1,0,0,0,.49-.08.33.33,0,0,0,.15-.2s.06-.06,0-.1a.11.11,0,0,0,0-.11s0-.08,0-.11c.74.22,1.14.46,1.18.71a.74.74,0,0,0,.45-.38.7.7,0,0,1,.25-.26,1.32,1.32,0,0,1,.68-.12.53.53,0,0,0,.41,0,.1.1,0,0,0,.05,0c.13-.12-.05-.19-.18-.23,0,0,.13,0,.13,0a.47.47,0,0,0,.22,0,.1.1,0,0,0,0-.12.15.15,0,0,1,.08,0,.16.16,0,0,1,.09,0c.44.26.67.54.7.85-.05.07,0,.14,0,.2s.06.09.05.13-.1.07-.08.13c-.17.21-.32.4-.08.62,0,0,.06.06,0,.08l-.06,0a.47.47,0,0,0-.2.06.32.32,0,0,0-.15.26,2.23,2.23,0,0,1-.06.26,1.41,1.41,0,0,1-.35.75l-.13.18s0,.2,0,.2.16.14.31.13h.06a.4.4,0,0,0,.24,0c.07,0,.05-.1,0-.18a.64.64,0,0,0,0-.07,1.11,1.11,0,0,1,.16-.11c.14-.08.28-.16.18-.23s-.1-.18,0-.25l.13-.09c.07-.06.14-.13.06-.21s0-.13.12-.19l.06-.05a.4.4,0,0,0,.09-.2.26.26,0,0,1,.11-.21.74.74,0,0,1,.31,0c-.06-.17,0-.29.15-.4s.12-.2.07-.27-.13-.19,0-.6.12-.43-.09-.54a.39.39,0,0,0,.1-.3.59.59,0,0,1,0-.14l0-.15a.66.66,0,0,0-.09-.73c.07-.12.07-.19,0-.23a.54.54,0,0,0-.38,0,.4.4,0,0,1-.26,0,.17.17,0,0,1-.13-.12c0-.07.07-.12,0-.16a.08.08,0,0,0,0-.12c.16-.25,0-.46-.15-.66a1.53,1.53,0,0,1-.18-.29.08.08,0,0,0,0-.08s0,0,0,0a.12.12,0,0,1,.13,0l.06,0A1.11,1.11,0,0,1,33,100a1.24,1.24,0,0,0,.45.38l.07.05a.28.28,0,0,0,.26.1.48.48,0,0,0,.22,0,.63.63,0,0,0,.12-.11c.22-.3.41-.6.19-.92,0,0,0,0,0-.07a1,1,0,0,0,.26-.08c.14-.08.08-.18,0-.28l-.06-.11c0-.15-.22-.18-.39-.21l-.18,0,.1,0a1.06,1.06,0,0,0,.19-.16.5.5,0,0,1,.11-.1c.07,0,.13,0,.24,0a.57.57,0,0,0,.26,0,.17.17,0,0,1,0,.12c-.22.18-.13.35,0,.51a.64.64,0,0,1,.08.19.47.47,0,0,0,.24-.06c.13-.08.17-.15.12-.23s0-.39.11-.61a.22.22,0,0,0,0-.08.47.47,0,0,0,.39,0,.24.24,0,0,0,.08-.06.17.17,0,0,1,.06-.06H36a1.53,1.53,0,0,0,1-.2,1.64,1.64,0,0,0,.22-.14l.15-.09.12-.09.12-.08a.43.43,0,0,1,.25-.07,1.25,1.25,0,0,0,.65-.15.61.61,0,0,0,.16-.12l.07-.06a.15.15,0,0,1,.14,0,.8.8,0,0,0,.43,0l.17,0a.32.32,0,0,0,.23,0A1.57,1.57,0,0,0,40,97a.65.65,0,0,1,.19,0,.16.16,0,0,0,.09,0,.11.11,0,0,0,.08,0l0,0a.16.16,0,0,0,.09,0l.24.06a.37.37,0,0,0,.31,0l.13,0h.15a1,1,0,0,1,.77.09l.14,0h.13l.2,0a1.19,1.19,0,0,1,.44,0,1.06,1.06,0,0,0,.37.07l.16,0a1.57,1.57,0,0,0,.68.11c0-.12-.07-.18-.16-.23l-.11-.08.13.07a.66.66,0,0,0,.42.11,1.56,1.56,0,0,1,1.08.21,1.08,1.08,0,0,0,.6.12l.1,0s0-.07,0-.1a.76.76,0,0,0,.32-.07.13.13,0,0,0,.07-.06c.06-.08,0-.15-.25-.25,0,0-.1,0-.1,0s0,0,0,0a.4.4,0,0,1,.39,0l.06,0c.09,0,.21.11.31,0l0,0a.17.17,0,0,1,.12,0,.2.2,0,0,1,.13.08.38.38,0,0,0,.2.1c0,.14.13.18.26.22a.43.43,0,0,1,.16,0,.84.84,0,0,0,.37.1.86.86,0,0,0,.43-.11.64.64,0,0,0,.15-.13,1.38,1.38,0,0,0,1.09.16.78.78,0,0,1,.64.15,1.43,1.43,0,0,0,.59.2.27.27,0,0,1-.09.1c-.07.07-.15.15-.09.2a.76.76,0,0,0,.43,0,.77.77,0,0,0,.8,0l.11,0a.77.77,0,0,1,.5,0,4.65,4.65,0,0,1,2.61.28l.23.08a3.05,3.05,0,0,1,1,.54,4.6,4.6,0,0,0,.48.32,3.34,3.34,0,0,1,.5.37,2.37,2.37,0,0,0,1,.59,1.73,1.73,0,0,1,.82.47,7,7,0,0,0,1.72.48,4.63,4.63,0,0,0,.65.1,2.86,2.86,0,0,1,.74.13.66.66,0,0,0,.25,0,.35.35,0,0,1,.12.07.47.47,0,0,0,.35.11,1.73,1.73,0,0,0,.6,0h.44l.11.06a.58.58,0,0,0,.61.08c.14,0,.22-.07.34,0a.08.08,0,0,0,.07,0,.29.29,0,0,0,.16,0,.1.1,0,0,0,.06-.07.13.13,0,0,1,.05-.16,1,1,0,0,1,.32-.06,2.7,2.7,0,0,1,1.39.09.13.13,0,0,0,.12,0,.09.09,0,0,0,.06,0,.38.38,0,0,0,.15,0,.72.72,0,0,0,.33,0,3.91,3.91,0,0,0,.92.26l.18,0a1.36,1.36,0,0,0,.91,0h.1a.65.65,0,0,0,.39,0,.27.27,0,0,0,.21,0c.21.06.3.09.25.17a.23.23,0,0,1-.07.07.25.25,0,0,1-.27,0,.23.23,0,0,0-.2,0,.1.1,0,0,0,0,.06.08.08,0,0,0,0,.11.33.33,0,0,0,.23,0,.5.5,0,0,1,.17,0,.51.51,0,0,0,.32,0h.06a.87.87,0,0,0,.45-.06.39.39,0,0,0,.26,0,.91.91,0,0,0,.35-.07l.24,0a.69.69,0,0,0,.33,0,1.62,1.62,0,0,1,.59.28.36.36,0,0,0,.23.11.17.17,0,0,0,.13,0,1,1,0,0,1,.39-.07,1.12,1.12,0,0,0,.32,0h.11a.36.36,0,0,0,.21,0,.9.9,0,0,0,.28,0h.05a.65.65,0,0,1,.18,0,.55.55,0,0,0,.38,0,.25.25,0,0,0,.09-.23s0-.16-.13-.2a.83.83,0,0,0-.36,0l-.08,0h-.07a.3.3,0,0,0-.23,0,1.24,1.24,0,0,1-.74,0l-.19-.05-.31-.1a2.08,2.08,0,0,0-1.1-.12.18.18,0,0,0-.15,0,3.31,3.31,0,0,0-.82-.16h-.13a.7.7,0,0,0-.55,0,.55.55,0,0,0-.47,0,.57.57,0,0,0-.26,0,5.08,5.08,0,0,1-1-.37,1,1,0,0,0,.33-.12l.06,0,.3,0a2.19,2.19,0,0,1,.34.1,1.71,1.71,0,0,0,.58.12.59.59,0,0,0,.39.07c.12.14.19.21.29.22a.29.29,0,0,0,.17,0l.12-.09a3.3,3.3,0,0,0,.72,0l.16,0a.88.88,0,0,1,.48,0,.58.58,0,0,0,.48,0,.65.65,0,0,0,.44,0c.4.37.9.23,1.39.1l.07,0a.85.85,0,0,0,.6,0,.27.27,0,0,0,.19,0,1.62,1.62,0,0,0,.4,0l1.06,0a1.44,1.44,0,0,1,1,.47c0,.17.24.19.4.2h.18a.43.43,0,0,0,.25,0,7,7,0,0,1,.69-.11,1.76,1.76,0,0,0,.8-.07,3.31,3.31,0,0,1,1.22-.26.66.66,0,0,0,.38,0l.73-.22.29-.09.35-.1a3.48,3.48,0,0,0,1.26-.33.84.84,0,0,0,.37-.37.55.55,0,0,1,.21-.23,2.84,2.84,0,0,1,1.3-.18,2.92,2.92,0,0,0,.66,0,2.37,2.37,0,0,0,1.09-.24,2.91,2.91,0,0,1,.63-.21,1.4,1.4,0,0,0,.52-.14.77.77,0,0,0,.19-.16c.06-.07.08-.06.12,0a3.66,3.66,0,0,0,.94.06,2.44,2.44,0,0,1,1.21.2.45.45,0,0,0,.22.08.41.41,0,0,0,.23-.07.3.3,0,0,0,.25,0,.27.27,0,0,0,.08-.07l.06,0a.56.56,0,0,0,.46,0,1.67,1.67,0,0,0,1.52-.27l.06,0a1.05,1.05,0,0,0,.5,0,2,2,0,0,1,.34,0,.25.25,0,0,0,.17,0c.07,0,.13-.11.06-.19.09,0,.08-.1,0-.15a.35.35,0,0,0-.29,0c-.06,0-.06-.07-.07-.12a.07.07,0,0,0,0,0,.16.16,0,0,0,.07-.2s0-.06.08-.08a.69.69,0,0,1,.15-.07l.1,0a.3.3,0,0,0,.23,0,.16.16,0,0,1,.13,0,.45.45,0,0,0,.29.09,2.82,2.82,0,0,1,1.69.61.81.81,0,0,0,.56.19c0,.06,0,.12.06.17s0,.07.07.11l-.06,0c-.16.14-.32.28,0,.48a.24.24,0,0,1,0,.36c-.22.27-.07.38.09.49s.28.19.28.4.1.2.23.26l.11,0a.87.87,0,0,0,.47.17.69.69,0,0,0,.34-.09l.12-.09c0,.06,0,.12,0,.17-.14.39-.09.66.56.89a2.21,2.21,0,0,0,1,.08l.2,0a8.87,8.87,0,0,0,.9.14,5,5,0,0,1,1.19.22,5.29,5.29,0,0,0,1.26.28.37.37,0,0,0,.27,0,60.58,60.58,0,0,0,.66.06,3.11,3.11,0,0,0,1.85.3.74.74,0,0,0,.3,0l.15,0a5.18,5.18,0,0,0,1.08-.18,5.68,5.68,0,0,1,.84-.17.31.31,0,0,0,.21,0,1.29,1.29,0,0,0,.44,0l.07,0a.33.33,0,0,0,.22,0,8.89,8.89,0,0,1,2,.92,2.89,2.89,0,0,1,.41.35,2.18,2.18,0,0,0,.74.51,3.67,3.67,0,0,1,1.17.89l.07.08a2.86,2.86,0,0,0,1.15.85c-.09.18.12.29.32.37a4.3,4.3,0,0,1,2.54,2.25.77.77,0,0,0,.54.5,5.29,5.29,0,0,1,1.59,1,1,1,0,0,0,.22.14c.23.12.25.17.27.23s.07.16.4.39l.12.09a.52.52,0,0,0,.59.12.25.25,0,0,0,.09,0q.18-.1,0-.27a2,2,0,0,0-.62-.43c-.09,0-.17-.08,0-.18a.6.6,0,0,0,.19.06l.14,0,.71.65.23.22a.24.24,0,0,1,.06.11c0,.08,0,.17.27.23a.17.17,0,0,0-.1,0s0,0,0,0,0,0,0,.06-.08.11,0,.14a.49.49,0,0,0,.21,0,.48.48,0,0,1,.59.2.64.64,0,0,0-.54.09s-.19.11-.16.18,0,0,0,0c.19,0,.17.1.14.19a.23.23,0,0,0,.14.31.47.47,0,0,0,.33,0c.11-.07.06-.12,0-.15s0,0,0-.06a.47.47,0,0,0,.18,0,.52.52,0,0,1,.31-.07s.08,0,.08.18a.18.18,0,0,0,.16.19,1.42,1.42,0,0,1,.35.14,1.26,1.26,0,0,0,.38.15.81.81,0,0,1-.56,0,.33.33,0,0,0-.28,0c-.06,0-.07.1,0,.13s0,0,.1,0a.31.31,0,0,1,.16.1.33.33,0,0,0,.24.12.47.47,0,0,0,.24-.05l0,.06c0,.07.11.11.2.15s.16.11.12.15-.05.05,0,.08a.41.41,0,0,0,.23,0l.24-.06.06,0c.07,0,.08,0,.09,0s0,0-.08.07-.11.06-.11.1,0,0,.05.06c.43,0,.81,0,1,.29a.18.18,0,0,0,.1.07.14.14,0,0,0,.11,0l.11,0c.08,0,.09-.11,0-.17s-.08-.07-.07-.08a.27.27,0,0,1,.2,0s0,0,0,.08a.14.14,0,0,0,.1.16.28.28,0,0,0,.18,0,.76.76,0,0,1,.37,0c.09,0,.12.13.14.23l0,0s.09.06.18.09l.07,0h.05a.2.2,0,0,1,.14,0s-.09,0-.13,0l-.21,0a1,1,0,0,0-.23.05s-.06,0-.07.09l.08,0a.58.58,0,0,0,.37,0,1.44,1.44,0,0,1,1,.09.86.86,0,0,0,.78-.11l.08,0a.61.61,0,0,1,.69,0,.33.33,0,0,0,.26,0h0a2.51,2.51,0,0,1,1.25-.09.4.4,0,0,0,.27,0s0,0,0,0a.17.17,0,0,1,.1-.12.83.83,0,0,1,.32-.08,1.24,1.24,0,0,0,.29-.06c0-.12-.1-.14-.18-.17l-.1,0a1.3,1.3,0,0,0,.31-.31,1,1,0,0,1,.37-.35l0,0c.17-.1.23-.26.08-.36a.37.37,0,0,0-.38,0l-.12,0-.21.08a.55.55,0,0,0-.33,0h-.06l-.1,0-.05,0h-.37a.72.72,0,0,0-.41,0h-.23a.18.18,0,0,0-.15,0,.23.23,0,0,0-.17,0,.61.61,0,0,0-.37-.2,1.23,1.23,0,0,0-.59.06l-.06,0c-.07,0-.08,0-.11,0s0,0,0,0l.08,0,.11-.05.08,0s.1-.06.07-.11-.22-.07-.47-.08h-.06a3.42,3.42,0,0,1-1.1-.44.06.06,0,0,0,0,0c0-.07.07-.12,0-.16.33-.32.08-.52-.13-.69l-.15-.13,0,0c.09,0,.07-.09,0-.13a.14.14,0,0,1,0-.06c0-.11.08-.21,0-.32.2-.26-.07-.42-.31-.56a.56.56,0,0,0-.68-.06,1.46,1.46,0,0,1-.34.11l-.06,0a.28.28,0,0,0-.27,0,1.29,1.29,0,0,0-.21-.07.37.37,0,0,1-.25-.11c0-.11,0-.22-.12-.3a.18.18,0,0,0,.05-.18,1.31,1.31,0,0,1,.12-.11c.16-.13.33-.27,0-.44.06-.12-.07-.19-.21-.26a1.08,1.08,0,0,1-.39-.3c.07-.06.14-.12.08-.19a.41.41,0,0,1,0-.09.72.72,0,0,0,.12-.23c0-.18-.22-.25-.45-.31a.39.39,0,0,0-.29,0,.23.23,0,0,0-.1.14.2.2,0,0,1-.08.11s-.07,0-.15,0a3.15,3.15,0,0,1-.73-.3l.07,0,.06,0a2,2,0,0,0,.81-.18.55.55,0,0,0,.27-.37.94.94,0,0,0-.45-.45,1.53,1.53,0,0,1-.34-.26c-.15,0-.17,0-.17-.06s0,0,0-.06l.25-.13a3.51,3.51,0,0,0,.77-.63l.37-.35c.1-.08.12-.14.07-.21s0-.22-.13-.31c0,0,0-.1,0-.15,0-.37-.24-.48-.89-.51a.52.52,0,0,1-.23-.07l-.07,0a.14.14,0,0,0-.08-.09.41.41,0,0,0-.22,0l-.54,0a.13.13,0,0,1,.08-.08l.12-.06.13-.06a.68.68,0,0,1,.17,0,1.76,1.76,0,0,0,.33-.07,4.36,4.36,0,0,0,.66-.28c.45-.27.38-.46.23-.84,0-.07-.05-.14-.08-.22a.06.06,0,0,0,0-.1,1.68,1.68,0,0,0-.07-.3,1.13,1.13,0,0,1-.07-.74.15.15,0,0,0-.06-.21.85.85,0,0,0-.24-.56,1.09,1.09,0,0,1-.22-.39c0-.14.07-.22,0-.27.14-.31-.19-.46-.55-.62s-.72-.34-.72-.69a.67.67,0,0,0,0-.34.61.61,0,0,1,.09-.39,3.42,3.42,0,0,0,.26-.4,2.28,2.28,0,0,1,.56-.71l.19-.08a.57.57,0,0,0,.14-.11c.06,0,.06-.06.06-.08a1.18,1.18,0,0,1,.07-.2s0-.06,0-.09a.09.09,0,0,0,0-.12s.09-.11,0-.17a.67.67,0,0,0-.19-.32,1.05,1.05,0,0,1-.15-.24.19.19,0,0,0-.12-.24c.07-.24-.17-.41-.4-.57l-.2-.14a.31.31,0,0,0-.17-.33l-.17-.14a4.09,4.09,0,0,0-.9-.57,1.44,1.44,0,0,1-.74-.54s.09-.07.07-.12,0-.28-.08-.4a.18.18,0,0,1,0-.07s0-.09-.08-.12l-.06-.25,0-.12a.51.51,0,0,0-.06-.51c.08-.08,0-.15,0-.21a.08.08,0,0,1,0,0C124.83,91.23,123.86,90.56,123.16,90.47ZM93.51,93.91a.43.43,0,0,0-.27,0h-.12a1,1,0,0,0-.25,0c-.3.08-.63.14-.94.2l-.67.14a1.27,1.27,0,0,1-.34,0,1.54,1.54,0,0,0-.37,0,1,1,0,0,0-.29.12l-.12.07-.1.06a.68.68,0,0,1-.22.09,3.13,3.13,0,0,0-1.43.41,1.74,1.74,0,0,0-.8.83c-.08.1,0,.18,0,.25s.11.13.05.19a.57.57,0,0,0,.38,0,.17.17,0,0,0,.1-.15,1.13,1.13,0,0,1,.1-.13.93.93,0,0,0,.19-.31.23.23,0,0,1,.1-.13.59.59,0,0,1,.35,0,2,2,0,0,0,.46-.17,1.47,1.47,0,0,1,.61-.21,1,1,0,0,0,.49-.13,1,1,0,0,1,.61-.13l.23,0a.46.46,0,0,0,.31,0c.07,0,.15,0,.18,0s.06,0,.07.14,0,0,.06.05a.32.32,0,0,0,.22,0l.33-.18.33-.18a2.11,2.11,0,0,0,.71-.58C93.56,94,93.56,94,93.51,93.91Zm4.16-1.56-.13.07-.06,0s-.21.12,0,.24a.44.44,0,0,0,.45,0l.25-.11c.12-.07.19-.15.19-.24s.07-.07.07-.1a.13.13,0,0,0-.08-.08C98.1,92.11,98,92.19,97.67,92.35ZM81.25,61.6l-.06.09-.1.16a2.67,2.67,0,0,1-.92,1s0,0,0,0c.17.24-.07.38-.29.51a.91.91,0,0,0-.19.13.83.83,0,0,0-.15.69.18.18,0,0,1,0,.19.37.37,0,0,0,.14.08c.12.06.27.13.19.26a.66.66,0,0,1,.12,1s0,.06,0,.09,0,.06,0,.1a.25.25,0,0,1-.1.38.66.66,0,0,1-.25.07.08.08,0,0,0,0,0,.19.19,0,0,1-.09.13.47.47,0,0,1-.26,0h-.1s0,.06,0,.07c.25.15.13.26,0,.34l-.14.07-.17.09-.16.1-.11.06.11.07c.26.06.38.12.42.2s-.06.21-.33.38L79,68a.46.46,0,0,1,.23,0h.19a.49.49,0,0,1,.31,0s0,.11-.07.22h.13l.08,0c.28.11.58.24.51.5l.07.08c.21.21.45.46.14.74,0,0,0,.06.07.07.63.12,1,.34,1.11.67a.85.85,0,0,0,.4.37.43.43,0,0,1,.18.2.36.36,0,0,0,.28.23s.06,0,.07,0,0,.1-.09.12l-.4.18-.12.06a.16.16,0,0,1-.09.21.6.6,0,0,1-.4,0,1.67,1.67,0,0,0-.39,0,1.25,1.25,0,0,1-.5-.08.37.37,0,0,0-.34,0,1.17,1.17,0,0,0-.23.21,1.74,1.74,0,0,1-.38.32l-.05,0c-.21,0-.21-.09-.2-.13s0,0,0,0l-.14,0-.18,0c-.35.07-.66.13-.87-.06a.23.23,0,0,0-.14-.05h-.06L78,72l-2.41-.4a1.48,1.48,0,0,1-.63-.23c-.11-.08-.17-.12-.39,0a.49.49,0,0,1-.49-.16,2.57,2.57,0,0,0-1.36-.44,2.33,2.33,0,0,1-1.57-.58c-.07-.1-.1-.12-.26-.08a.58.58,0,0,1-.56-.16c-.09-.1-.21-.2-.32-.3-.3-.25-.41-.37-.44-.55a.32.32,0,0,0-.27-.29.13.13,0,0,1-.1-.09c0-.08,0-.17.15-.24l.06,0,.13-.07c.09,0,.14-.11.14-.16s-.12-.15-.22-.21-.2-.11-.21-.19,0-.1.13-.15l.06,0a.45.45,0,0,0-.17,0,.44.44,0,0,1-.3,0,.14.14,0,0,1-.08-.18.45.45,0,0,1-.31-.36.18.18,0,0,0-.09-.08s-.06,0-.15.05l-.11,0a3.3,3.3,0,0,0-.42.19.72.72,0,0,0-.21.16l.31,0H68c.23,0,.37,0,.43.08s0,.19,0,.29l0,.08c0,.13-.06.23-.21.32a1.12,1.12,0,0,1-.55.15.16.16,0,0,1-.1-.08s0,0-.07,0a.6.6,0,0,1-.36.1.37.37,0,0,1-.26-.15.38.38,0,0,1-.2,0c-.07,0,0-.09,0-.13s0-.06,0-.08a.48.48,0,0,1-.28,0,.16.16,0,0,1-.09-.15.16.16,0,0,1,0-.17c0-.06,0-.11-.07-.16s-.38,0-.42-.08.06-.14.23-.26l.08-.06.32-.23a.41.41,0,0,1,.17,0,.23.23,0,0,1,.14,0,2.25,2.25,0,0,1,.54-.11c.07-.15.06-.22,0-.25a1.24,1.24,0,0,0-.42,0l-.24,0a2.3,2.3,0,0,0-.45.05h-.17c-.06,0-.06-.07-.07-.11s0-.09-.06-.09a.06.06,0,0,0-.07,0l-.06,0a.18.18,0,0,1-.07,0,.23.23,0,0,1-.23,0s-.07,0-.07-.07,0-.09.11-.13a.2.2,0,0,0,0-.11.7.7,0,0,0-.23.06.88.88,0,0,1-.43.07.23.23,0,0,0,.06.23l.08.05c.06,0,.12.07.12.11s0,0-.06.07a.58.58,0,0,0-.18.15,1.07,1.07,0,0,1-.16.14.7.7,0,0,1-.37.06.31.31,0,0,1-.23,0c-.23,0-.36-.08-.36-.21s0-.08,0-.13,0-.08,0-.09-.07,0-.21,0a.17.17,0,0,1-.11,0c-.07,0-.1-.09-.1-.21s-.12-.38-.4-.55a.94.94,0,0,0-.62-.13.39.39,0,0,1-.28,0l-.06,0a.55.55,0,0,1-.13-.09,1.37,1.37,0,0,0-.81-.33l-.09,0c-.18,0-.22,0-.23-.13a2.6,2.6,0,0,0-.28-.15c-.25.11-.44,0-.75-.21l-.1-.06a.7.7,0,0,1-.35,0c-.1,0-.14-.1-.2-.22s-.08,0-.09,0l-.08,0-.06,0a.1.1,0,0,1-.07,0,.16.16,0,0,1-.09,0,.63.63,0,0,1-.32-.12.39.39,0,0,0-.11-.06,1.4,1.4,0,0,1-.58.06h-.08a1.53,1.53,0,0,1-1.15-.42,1,1,0,0,1-.36-.07l-.09,0h-.06a3.06,3.06,0,0,1-.95.17.2.2,0,0,1-.11,0H54.5a3.26,3.26,0,0,1-1,.17.38.38,0,0,1-.21,0,1.7,1.7,0,0,1-.31.06,1.22,1.22,0,0,0-.38.11.17.17,0,0,1-.08.21.14.14,0,0,1-.07.19c0,.08,0,.14-.07.19a.12.12,0,0,1-.06.19s0,.08,0,.1a.29.29,0,0,1-.17,0,.35.35,0,0,1-.37-.08.5.5,0,0,0-.12-.08c.08.11.06.21-.09.29a.91.91,0,0,1-.17.08l.09,0h.15s0,0,.06,0a.63.63,0,0,1,.49.06,2.31,2.31,0,0,1-.42.17,3.23,3.23,0,0,1-1.61.19.47.47,0,0,1-.35,0,.77.77,0,0,1-.38,0c-.07,0-.08-.1-.07-.2a.7.7,0,0,1,.06-.19l0-.07a.16.16,0,0,0-.05-.08s-.09,0-.29.1a1,1,0,0,1-.66.12c0,.07,0,.11-.08.14a.21.21,0,0,1-.12,0,.1.1,0,0,1-.08,0,.61.61,0,0,1-.44,0,.38.38,0,0,1-.33,0,.14.14,0,0,1-.08-.09s0-.07.06-.09a.38.38,0,0,1,.18-.57l.1-.06.05,0a.25.25,0,0,0,.12-.19c0-.12.05-.27.36-.45a.55.55,0,0,0,.11-.1.2.2,0,0,1,.08-.08,7.07,7.07,0,0,0,.36-.09s0,0,0-.07,0-.12.06-.17-.1-.13-.27-.15a.13.13,0,0,0-.1,0s0,0-.05.06l-.26.22L47,65c-.21,0-.24-.07-.26-.12s0-.05-.05-.06a.06.06,0,0,0,0,0l-.06,0-.06,0a.63.63,0,0,1-.13,0,.4.4,0,0,1-.22-.13A.87.87,0,0,1,46,65a.56.56,0,0,1-.35.05.17.17,0,0,1-.14,0,.29.29,0,0,1-.26,0,.47.47,0,0,1-.4,0,.23.23,0,0,1-.14,0,.3.3,0,0,1-.21,0,.56.56,0,0,1-.34,0c-.06,0-.07-.1,0-.19S67.59,51.14,67.59,51.14h.06a3,3,0,0,1,.77.46c0-.12,0-.19.1-.24a3.1,3.1,0,0,1,.8-.12h.17a.86.86,0,0,1,.23,0c.23,0,.47.06.52.19a.13.13,0,0,1-.06.16,1,1,0,0,1-.28.07l-.21,0a.35.35,0,0,0,.27.18.79.79,0,0,0,.44-.13l.2-.09a.75.75,0,0,0,.18-.07.59.59,0,0,1,.66.08l.15.08c.23.12.59.31.59.46s0,.09-.09.13l-.17.06c-.22.07-.43.15-.63.23l-.06,0-.16,0a.28.28,0,0,0-.11,0s-.06,0,.06.12,0,.16-.23.32l-.11.1c-.05,0-.07.08-.05.1a.3.3,0,0,0,.17,0h.13a1.29,1.29,0,0,1,.71.13c.08.05.15,0,.28,0l.37-.11.35-.11c.06,0,.19-.06.27,0s0,.08,0,.11-.08.18-.17.23l.11.07a2.53,2.53,0,0,1,1.09,0,1.35,1.35,0,0,1,.83.45c0,.05.06.11,0,.16a.47.47,0,0,1-.17,0l-.11,0a.4.4,0,0,1-.15,0h-.11s0,0,0,.06.07.13.2.2a.93.93,0,0,0,1.07,0,.32.32,0,0,1,.22,0,1,1,0,0,1,.56.2c.1.08.27.25,0,.38a.25.25,0,0,1-.09,0,.14.14,0,0,0-.06.08.19.19,0,0,1-.09.11.27.27,0,0,0-.11.14.27.27,0,0,1-.12.16.45.45,0,0,1-.22,0l0,0-.09,0-.11,0h-.07c0,.05,0,.08.07.08a.67.67,0,0,0,.3-.06l.07,0,.42-.13.1,0c.26-.09.33-.06.47,0l.13.09c.37.21.32.27,0,.67l-.14.18c0,.07-.06.12-.12.18s-.17.16,0,.25l.1,0L77,57.1a.5.5,0,0,1,.46,0c.14.07.31.17.24.3a.73.73,0,0,1,.3,0c.14.05.19.16.24.3s.2.08.21.13a.08.08,0,0,1,0,.07.44.44,0,0,1-.21.06,1.09,1.09,0,0,1-.44,0l-.07,0-.06,0a.19.19,0,0,0,.18,0,.67.67,0,0,1,.2,0,.69.69,0,0,1,.4,0,.31.31,0,0,1,.18,0c.07,0,.08.06.1.11s0,.05,0,.05.1,0,.11,0a.27.27,0,0,1,.07-.08.25.25,0,0,1,.13,0,.2.2,0,0,1,.2.14.16.16,0,0,0,0,.07.66.66,0,0,1,.59.08,3.61,3.61,0,0,0,1.09.55s.17.06.19.12a.07.07,0,0,1,0,.06l-.13.06a1.33,1.33,0,0,0-.19.14,1.53,1.53,0,0,1-.21.14,1.08,1.08,0,0,1-.51.14,2,2,0,0,1-1-.15,2,2,0,0,0-.94-.12c-.09.05-.09.08-.09.08s.1,0,.16,0l.13,0a.55.55,0,0,0,.23,0,.83.83,0,0,1,.71.25.41.41,0,0,1,0,.09l-.06.08a.71.71,0,0,1-.15.15c-.3.17-.36.32-.22.51l.05,0a.1.1,0,0,0,0-.05.76.76,0,0,1,.33-.36,2.09,2.09,0,0,1,.76-.22,1.26,1.26,0,0,0,.5-.17l.17-.1a1.37,1.37,0,0,1,.2-.13l.06,0a.16.16,0,0,1,.08-.06.24.24,0,0,1,.24,0c.12.06.27.19.16.3a.65.65,0,0,0-.15.5,1.06,1.06,0,0,1,0,.25s.06,0,0,.06a.72.72,0,0,0,0,.54A.71.71,0,0,1,81.25,61.6Zm-2-3.19c.06,0,.07,0,.07-.06S79.23,58.41,79.23,58.41Zm-1.76-.36h-.09a.24.24,0,0,1-.12,0l-.07,0c0,.06,0,.06.06.06l.16,0h.08A.08.08,0,0,1,77.47,58.05Zm-1.62-.24c-.06,0-.08.1-.07.19l.53,0,.23.09a.81.81,0,0,0,.36.12l.08,0h0a1.45,1.45,0,0,0-.52-.16l-.07,0a.8.8,0,0,1-.32-.1.34.34,0,0,0-.17-.07A.19.19,0,0,0,75.85,57.81ZM101,91.57c-.07.05-.11.1-.11.15a.24.24,0,0,0,.14.14.28.28,0,0,0,.24,0l.05,0,0,0c.05-.06.11-.14,0-.22A.46.46,0,0,0,101,91.57ZM82.28,81.15a3.69,3.69,0,0,0-.76.18l-.33.1-.06,0-.1.1,0,0s0,.08,0,.1,0,0,.11,0a.27.27,0,0,0,.18,0,.26.26,0,0,0,.15,0,.33.33,0,0,0,.2,0h.07a.28.28,0,0,0,.2,0,1.45,1.45,0,0,0,.65-.14l.18-.06.11-.05c.06,0,.15-.1.1-.18s-.25-.12-.4-.09A.38.38,0,0,0,82.28,81.15Zm8.51-18.49a.48.48,0,0,1-.27.5,1.78,1.78,0,0,1-.79.17.73.73,0,0,1-.42.08,1.17,1.17,0,0,0-.43.16l-.17.11-.09,0-.07.05-.07.06a.34.34,0,0,1-.31,0c-.17-.07-.32-.14-.19-.29s0-.15-.2-.21l-.15-.05a.56.56,0,0,0-.45.08l-.12.07-.14.09a.82.82,0,0,1-.24.1.4.4,0,0,1,0-.4c.09-.17.18-.33,0-.51a.3.3,0,0,0-.16.05s-.44.32-.59.44l-.08.06,0,0a.38.38,0,0,1-.2,0c-.12,0-.17-.16-.21-.3a.75.75,0,0,0-.17-.33c-.07-.07,0-.12,0-.15a.64.64,0,0,1,.23-.06l.1,0-.2,0c-.1,0-.21,0-.25-.08s0-.17.12-.24a.71.71,0,0,1,.43-.07H86a1.05,1.05,0,0,1,.86.15,1.6,1.6,0,0,0,.3.13.83.83,0,0,1,0-.15.37.37,0,0,0-.28-.36s-.06,0-.06,0,0,0,0,0a1,1,0,0,1,.47,0h.08a.3.3,0,0,0,0-.08c0-.06-.09-.14,0-.22s0-.13.06-.16a.27.27,0,0,1,.2,0,.14.14,0,0,1,.08-.1.66.66,0,0,1,.25-.06l.17,0c-.12-.11,0-.19.09-.24s.1-.07.1-.1a.17.17,0,0,0-.11-.08c-.06,0-.12-.07-.13-.12s0-.07.07-.1a.64.64,0,0,1,.24-.06,1.41,1.41,0,0,1,.29,0h.22a.21.21,0,0,0,.07-.13.42.42,0,0,1,.19-.25,1.9,1.9,0,0,0,.54.33.52.52,0,0,0,.45,0,1,1,0,0,1,.81.1l.14,0c.2.08.39.27.21.47a.31.31,0,0,1,.19.31.31.31,0,0,0,0,.1c0,.07.05.14,0,.19a.55.55,0,0,1-.3,0l0,.14a.08.08,0,0,1,0,.12.29.29,0,0,1-.16.38l-.16.09c.09.07,0,.14,0,.2S90.85,62.62,90.79,62.66Zm-4.89-.21s0,0,0,0Z" fill="#ac44d7" opacity="0.7"/></g><path d="M74.31,55.65a6.18,6.18,0,0,0-3.33.67L18,87.06c-1.6.93-1.59,2.44,0,3.37l56.3,32.51Z" fill="#332435" opacity="0.3" style="mix-blend-mode:screen"/><polygon points="35.28 77.03 41.13 77.03 57.61 67.51 57.61 64.06 35.28 77.03" fill="#181019"/><path d="M131.48,121.2l-2.73,1.58c-.3.17-.54.07-.54-.23v-.25a1.11,1.11,0,0,1,.54-.85l2.73-1.58c.3-.17.54-.07.54.23v.25A1.11,1.11,0,0,1,131.48,121.2Z" fill="#181019"/><path d="M131.71,121l-1.09-.64-1.87,1.08a1.11,1.11,0,0,0-.54.85v.25c0,.3.24.4.54.23l2.73-1.58A1.37,1.37,0,0,0,131.71,121Z" fill="#312033"/><g style="isolation:isolate"><path d="M31.72,99a1.2,1.2,0,0,0-.18-.26.61.61,0,0,0-.19-.17L27,96a.32.32,0,0,0-.31,0l-.36.21a.32.32,0,0,1,.32,0L31,98.77a.7.7,0,0,1,.19.16,1,1,0,0,1,.17.27.84.84,0,0,1,.08.33v.57a.29.29,0,0,1-.13.28l.35-.2a.32.32,0,0,0,.13-.29v-.56A1.09,1.09,0,0,0,31.72,99Z" fill="#cb89f0"/><path d="M31,98.77l-4.38-2.53c-.25-.14-.44,0-.45.25v.57a1,1,0,0,0,.45.77L31,100.35c.25.14.45,0,.45-.25v-.57A1,1,0,0,0,31,98.77Z" fill="#9e53d8"/></g><g style="isolation:isolate"><path d="M39,103.22a1,1,0,0,0-.17-.27,1.06,1.06,0,0,0-.2-.17l-4.37-2.52a.32.32,0,0,0-.32,0l-.35.2a.32.32,0,0,1,.31,0L38.31,103a1,1,0,0,1,.2.16,1.53,1.53,0,0,1,.17.27.83.83,0,0,1,.07.34v.56a.32.32,0,0,1-.13.29l.36-.21a.29.29,0,0,0,.13-.28v-.57A.8.8,0,0,0,39,103.22Z" fill="#cb89f0"/><path d="M38.31,103l-4.38-2.53c-.24-.14-.44,0-.44.26v.56a1,1,0,0,0,.44.77l4.38,2.53c.24.14.44,0,.44-.26v-.56A1,1,0,0,0,38.31,103Z" fill="#9e53d8"/></g><path d="M121.18,96.84c.57.33.57.85,0,1.17a2.21,2.21,0,0,1-2,0c-.56-.32-.56-.84,0-1.17A2.27,2.27,0,0,1,121.18,96.84Z" fill="#ffc2fe"/><path d="M134.47,113.22a.62.62,0,0,1,0,1.17,2.27,2.27,0,0,1-2,0,.62.62,0,0,1,0-1.17A2.21,2.21,0,0,1,134.47,113.22Z" fill="#ffc2fe"/><path d="M125.34,107.93a.62.62,0,0,1,0,1.17,2.29,2.29,0,0,1-2,0,.62.62,0,0,1,0-1.17A2.23,2.23,0,0,1,125.34,107.93Z" fill="#ffc2fe"/><ellipse cx="77.87" cy="85.73" rx="1.44" ry="0.83" fill="#ffc2fe"/><path d="M72.26,96.84c.56.33.56.85,0,1.17a2.21,2.21,0,0,1-2,0c-.56-.32-.56-.84,0-1.17A2.27,2.27,0,0,1,72.26,96.84Z" fill="#ffc2fe"/><path d="M60.06,99.61a.61.61,0,0,1,0,1.17,2.21,2.21,0,0,1-2,0,.62.62,0,0,1,0-1.17A2.27,2.27,0,0,1,60.06,99.61Z" fill="#ffc2fe"/><path d="M101.48,96.84c.56.33.56.85,0,1.17a2.23,2.23,0,0,1-2,0c-.56-.32-.56-.84,0-1.17A2.29,2.29,0,0,1,101.48,96.84Z" fill="#ffc2fe"/><ellipse cx="52.46" cy="88.73" rx="1.44" ry="0.83" fill="#ffc2fe"/><ellipse cx="32.18" cy="94.11" rx="1.44" ry="0.83" fill="#ffc2fe"/><path d="M78.29,69.13a.62.62,0,0,1,0,1.17,2.21,2.21,0,0,1-2,0,.62.62,0,0,1,0-1.17A2.21,2.21,0,0,1,78.29,69.13Z" fill="#ffc2fe"/><ellipse cx="69.81" cy="79.8" rx="1.44" ry="0.83" fill="#ffc2fe"/><ellipse cx="51.71" cy="73.55" rx="1.44" ry="0.83" fill="#ffc2fe"/><ellipse cx="78.71" cy="60.92" rx="1.44" ry="0.83" fill="#ffc2fe"/><path d="M100.49,97.27a.25.25,0,0,1-.25-.25,14.28,14.28,0,0,0-28.55,0,.25.25,0,0,1-.25.25.25.25,0,0,1-.25-.25,14.78,14.78,0,0,1,29.55,0A.25.25,0,0,1,100.49,97.27Z" fill="#ffc2fe"/><path d="M100.66,97.68a.25.25,0,0,1-.25-.25c-.22-14.38-10.89-28.07-23.8-30.52a19,19,0,0,0-16,3.87c-4.9,4-7.7,10.6-7.7,18a.25.25,0,0,1-.5,0c0-7.53,2.87-14.22,7.88-18.37a19.53,19.53,0,0,1,16.42-4c13.13,2.49,24,16.4,24.21,31a.26.26,0,0,1-.25.26Z" fill="#ffc2fe"/><path d="M124.27,108.71a.25.25,0,0,1-.25-.25c0-14.61-5.27-29-11.75-32.18a4.92,4.92,0,0,0-5,.19C103.3,79,100.74,87,100.74,97a.25.25,0,0,1-.25.25.25.25,0,0,1-.25-.25c0-10.29,2.58-18.31,6.74-20.91a5.45,5.45,0,0,1,5.51-.22c6.63,3.21,12,17.84,12,32.63A.25.25,0,0,1,124.27,108.71Z" fill="#ffc2fe"/><path d="M100.41,97a.25.25,0,0,1-.25-.25c0-7.92-5-16.81-11.13-19.8-2.63-1.28-5.15-1.32-7.12-.09-2.41,1.51-3.79,4.75-3.79,8.88a.25.25,0,0,1-.5,0c0-4.31,1.47-7.7,4-9.3,2.12-1.32,4.83-1.3,7.61.06,6.29,3.07,11.41,12.15,11.41,20.25A.25.25,0,0,1,100.41,97Z" fill="#ffc2fe"/><path d="M133.57,114a.25.25,0,0,1-.25-.25c0-7.93-7.37-17.93-16.44-22.31-5-2.4-9.6-2.69-12.7-.81-2.22,1.35-3.43,3.69-3.52,6.77a.25.25,0,0,1-.25.25.26.26,0,0,1-.25-.26c.09-3.26,1.39-5.75,3.76-7.19,3.24-2,8-1.68,13.18.79,9.22,4.45,16.72,14.66,16.72,22.76A.25.25,0,0,1,133.57,114Z" fill="#ffc2fe"/><path d="M69.81,80.13a.25.25,0,0,1-.25-.25c0-7.91-4-15.84-8.87-17.66a4.94,4.94,0,0,0-4.75.52C53.47,64.45,52,68.33,52,73.13a.25.25,0,0,1-.5,0c0-5,1.55-9,4.15-10.8a5.43,5.43,0,0,1,5.22-.58c5.06,1.89,9.19,10,9.19,18.13A.25.25,0,0,1,69.81,80.13Z" fill="#ffc2fe"/><path d="M32.18,93.88a.25.25,0,0,1-.25-.25c0-8.11,4.65-15.84,10.36-17.22a7,7,0,0,1,6.15,1.34c2.71,2.14,4.33,6.24,4.33,11a.25.25,0,0,1-.5,0c0-4.58-1.54-8.53-4.13-10.57a6.51,6.51,0,0,0-5.73-1.25c-5.5,1.32-10,8.83-10,16.73A.25.25,0,0,1,32.18,93.88Z" fill="#ffc2fe"/><path d="M52.46,88.73a.25.25,0,0,1-.25-.25c0-8.08,5.61-18.94,12.5-24.21,3.57-2.73,6.89-3.56,9.35-2.34,2.23,1.1,3.46,3.79,3.46,7.57a.25.25,0,0,1-.5,0c0-3.58-1.13-6.11-3.18-7.12-2.25-1.12-5.47-.29-8.82,2.28-6.79,5.19-12.31,15.88-12.31,23.82A.25.25,0,0,1,52.46,88.73Z" fill="#ffc2fe"/><path d="M69.81,79.89a.25.25,0,0,1-.25-.25c0-8,2-18.84,4.45-24.06,1-2.13,2-3.1,2.86-2.91,1.78.4,2,5.25,2,8.12a.25.25,0,0,1-.25.25.26.26,0,0,1-.25-.25c0-5.36-.89-7.46-1.65-7.63-.59-.14-1.45.82-2.3,2.63C72,61,70.06,71.66,70.06,79.64A.26.26,0,0,1,69.81,79.89Z" fill="#ffc2fe"/><path d="M120.17,97.68a.25.25,0,0,1-.25-.25c0-5.91-4.31-10.72-9.61-10.72s-9.6,4.81-9.6,10.72a.25.25,0,0,1-.5,0c0-6.19,4.53-11.22,10.1-11.22s10.11,5,10.11,11.22A.25.25,0,0,1,120.17,97.68Z" fill="#ffc2fe"/><path d="M59.05,100.51a.25.25,0,0,1-.25-.25c0-6.16,2.84-11.93,6.32-12.87a3.7,3.7,0,0,1,3.3.69c2,1.49,3.16,4.89,3.16,8.87a.25.25,0,0,1-.5,0c0-3.83-1.14-7.07-3-8.47a3.13,3.13,0,0,0-2.85-.61c-3.29.89-6,6.44-6,12.39A.25.25,0,0,1,59.05,100.51Z" fill="#ffc2fe"/><circle cx="77.27" cy="69.49" r="10.88" transform="translate(-8.29 128.46) rotate(-76.54)" fill="url(#Áåçûìÿííûé_ãðàäèåíò_223)" style="mix-blend-mode:screen"/><circle cx="69.82" cy="79.68" r="16.91" fill="url(#Áåçûìÿííûé_ãðàäèåíò_223-2)" style="mix-blend-mode:screen"/><circle cx="51.8" cy="73.33" r="10.64" transform="translate(-29.13 112.19) rotate(-80.41)" fill="url(#Áåçûìÿííûé_ãðàäèåíò_223-3)" style="mix-blend-mode:screen"/><circle cx="52.55" cy="88.49" r="17.41" fill="url(#Áåçûìÿííûé_ãðàäèåíò_223-4)" style="mix-blend-mode:screen"/><circle cx="32.27" cy="93.89" r="13.44" fill="url(#Áåçûìÿííûé_ãðàäèåíò_223-5)" style="mix-blend-mode:screen"/><circle cx="59.05" cy="100" r="30.21" fill="url(#Áåçûìÿííûé_ãðàäèåíò_223-6)" style="mix-blend-mode:screen"/><circle cx="71.34" cy="97.2" r="30.21" fill="url(#Áåçûìÿííûé_ãðàäèåíò_223-7)" style="mix-blend-mode:screen"/><circle cx="77.97" cy="85.48" r="23.22" fill="url(#Áåçûìÿííûé_ãðàäèåíò_223-8)" style="mix-blend-mode:screen"/><circle cx="100.61" cy="97.13" r="30.21" transform="translate(-29.12 44.92) rotate(-22.07)" fill="url(#Áåçûìÿííûé_ãðàäèåíò_223-9)" style="mix-blend-mode:screen"/><circle cx="120.2" cy="97.22" r="30.21" transform="translate(-33.54 113.47) rotate(-45)" fill="url(#Áåçûìÿííûé_ãðàäèåíò_223-10)" style="mix-blend-mode:screen"/><circle cx="124.32" cy="108.46" r="30.21" fill="url(#Áåçûìÿííûé_ãðàäèåíò_223-11)" style="mix-blend-mode:screen"/><circle cx="133.49" cy="113.56" r="27.54" transform="translate(0.19 227.34) rotate(-80.87)" fill="url(#Áåçûìÿííûé_ãðàäèåíò_223-12)" style="mix-blend-mode:screen"/><g style="isolation:isolate"><path d="M90.7,6.57c-2.09-1.22-5-1.07-8.09.75a17.18,17.18,0,0,0-1.58,1l9,5.26c.53-.39,7.59-3,9.68-1.8Z" fill="url(#Áåçûìÿííûé_ãðàäèåíò_205)"/><path d="M78.55,5.9c-2.45-1.42-5.78-1.25-9.45.87A20.76,20.76,0,0,0,66,9l9,5.26c1-.84,10.06-4.48,12.5-3.06Z" fill="url(#Áåçûìÿííûé_ãðàäèåíò_205-2)"/><path d="M63.64,6.89c-3.09-1.8-7.31-1.58-12,1.1-9,5.18-16.28,17.65-16.87,28.47l2.31,3.92,6.73,1.33L72.69,12.14Z" fill="url(#Áåçûìÿííûé_ãðàäèåíò_205-3)"/><path d="M39.23,39l-4.41-2.56A10,10,0,0,0,29.56,38c-6.34,3.66-11.45,12.72-11.4,20.24,0,3.8,1.35,6.47,3.49,7.72l9.05,5.25L43.86,41.71Z" fill="url(#Áåçûìÿííûé_ãðàäèåíò_205-4)"/><path d="M91.66,12.57a18.94,18.94,0,0,0-1.59,1C87.77,9.91,83.29,9.06,78.15,12a20.25,20.25,0,0,0-3.06,2.19c-3.07-3.79-8.36-4.43-14.35-1-9,5.18-16.28,17.65-16.88,28.46a10.16,10.16,0,0,0-5.26,1.53C32.26,46.9,27.16,56,27.2,63.48s5.22,10.62,11.55,7L91.81,39.9c6.37-3.68,11.49-12.78,11.45-20.32,0-3.77-1.33-6.44-3.43-7.71S94.84,10.74,91.66,12.57Z" fill="#fccaf7"/><path d="M99.83,11.87c-2.1-1.27-5-1.13-8.17.7a18.94,18.94,0,0,0-1.59,1C87.77,9.91,83.29,9.06,78.15,12a20.25,20.25,0,0,0-3.06,2.19,8.62,8.62,0,0,0-4-2.78L63.22,56.33,91.81,39.9c6.37-3.68,11.49-12.78,11.45-20.32C103.24,15.81,101.93,13.14,99.83,11.87Z" opacity="0.4" fill="url(#Áåçûìÿííûé_ãðàäèåíò_226)" style="mix-blend-mode:screen"/><path d="M99.45,11.63c-3.26-1.75-6.51-.3-9.38,2,1.61-.86,6.18-3.81,9.76-1.75Z" fill="url(#Áåçûìÿííûé_ãðàäèåíò_215)" style="mix-blend-mode:screen"/><path d="M27.21,62.2c0,.81,0,1.28,0,1.28s0-.47.08-1.28c1-11.17,10.66-20.76,16.58-20.49C37.29,41.06,27.82,51.43,27.21,62.2Z" fill="url(#Áåçûìÿííûé_ãðàäèåíò_215-2)" style="mix-blend-mode:screen"/><path d="M73.56,12.7c-8.46-7.13-28,7.31-29.7,29C46.2,20.78,64.62,6,73.52,12.76a7.6,7.6,0,0,1,1.19,1.05l.38.41-.37-.43A8,8,0,0,0,73.56,12.7Z" fill="url(#Áåçûìÿííûé_ãðàäèåíò_215-3)" style="mix-blend-mode:screen"/><path d="M75.09,14.22C79.58,10.57,85.8,8.52,89.62,13l.45.59L89.68,13C85.9,7.81,78.89,10.37,75.09,14.22Z" fill="url(#Áåçûìÿííûé_ãðàäèåíò_215-4)" style="mix-blend-mode:screen"/></g><g style="isolation:isolate"><path d="M97.58,21.54l0-10.5L94.93,9.52,95,20a1.35,1.35,0,0,0,.58,1.26l2.62,1.53A1.4,1.4,0,0,1,97.58,21.54Z" fill="#962dcc"/><path d="M108.4.13A1.41,1.41,0,0,0,107,.27L96.9,6.09a4.34,4.34,0,0,0-2,3.43L97.55,11a4.37,4.37,0,0,1,2-3.42L109.61,1.8A1.39,1.39,0,0,1,111,1.66Z" fill="url(#Áåçûìÿííûé_ãðàäèåíò_51)"/><path d="M108.4.13A1.41,1.41,0,0,0,107,.27l2.63,1.53A1.39,1.39,0,0,1,111,1.66Z" fill="#ffaff5" opacity="0.3" style="mix-blend-mode:screen"/><path d="M96.9,6.09a4.34,4.34,0,0,0-2,3.43L97.55,11a4.37,4.37,0,0,1,2-3.42Z" fill="#ffaff5" opacity="0.3" style="mix-blend-mode:screen"/><path d="M111.6,2.93c0-1.26-.9-1.76-2-1.13L99.53,7.62a4.37,4.37,0,0,0-2,3.42l0,10.5c0,1.26.9,1.76,2,1.13l10.08-5.82a4.34,4.34,0,0,0,2-3.42Z" fill="#d473f1"/></g><path d="M108.81,12.37V4.69a.43.43,0,0,0-.27-.4.44.44,0,0,0-.47.11l-5.85,6.35a.44.44,0,0,0-.11.29v5.82a2.59,2.59,0,0,0-.76.31,3.07,3.07,0,0,0-1.63,2c0,.62.73.7,1.63.18a3.11,3.11,0,0,0,1.62-2s0-5.81,0-5.81l5-5.41v5.8a2.54,2.54,0,0,0-.76.3,3.1,3.1,0,0,0-1.63,2c0,.62.73.7,1.63.18a3.09,3.09,0,0,0,1.62-2.05S108.81,12.38,108.81,12.37Z" fill="#fff"/><g style="isolation:isolate"><path d="M96.55,71.29l0-10.5-2.63-1.53,0,10.51A1.35,1.35,0,0,0,94.5,71l2.62,1.53A1.4,1.4,0,0,1,96.55,71.29Z" fill="#962dcc"/><path d="M107.36,49.88A1.39,1.39,0,0,0,106,50L95.87,55.84a4.34,4.34,0,0,0-2,3.42l2.63,1.53a4.33,4.33,0,0,1,2-3.42l10.08-5.82a1.41,1.41,0,0,1,1.42-.14Z" fill="url(#Áåçûìÿííûé_ãðàäèåíò_51-2)"/><path d="M107.36,49.88A1.39,1.39,0,0,0,106,50l2.62,1.53a1.41,1.41,0,0,1,1.42-.14Z" fill="#ffaff5" opacity="0.3" style="mix-blend-mode:screen"/><path d="M95.87,55.84a4.34,4.34,0,0,0-2,3.42l2.63,1.53a4.33,4.33,0,0,1,2-3.42Z" fill="#ffaff5" opacity="0.3" style="mix-blend-mode:screen"/><path d="M110.56,52.68c0-1.26-.89-1.76-2-1.13L98.49,57.37a4.33,4.33,0,0,0-2,3.42l0,10.5c0,1.26.89,1.76,2,1.13l10.08-5.82a4.33,4.33,0,0,0,2-3.42Z" fill="#d473f1"/></g><path d="M105.27,58.22c-.6-.78-2-.76-3.69.2-2.2,1.26-4,3.69-4,5.41a1.44,1.44,0,0,0,.63,1.31,1.32,1.32,0,0,1,.55,1.2,8.53,8.53,0,0,1-.23,1.46l1.64-2.55a6,6,0,0,0,1.1-.44,2.07,2.07,0,0,1-.1-.68C101.2,62.25,103,59.66,105.27,58.22Z" fill="#fff"/><path d="M109,61.27a4.33,4.33,0,0,0,.59-2c0-1.72-1.79-2.09-4-.82s-4,3.7-4,5.42,1.79,2.08,4,.81a8.94,8.94,0,0,0,1.61-1.19l1.79.25a1.55,1.55,0,0,1-.37-.82A2.74,2.74,0,0,1,109,61.27Z" fill="#fff"/><g style="isolation:isolate"><path d="M128.62,49.2l0-10.5L126,37.17l0,10.5a1.38,1.38,0,0,0,.57,1.27l2.63,1.53A1.38,1.38,0,0,1,128.62,49.2Z" fill="#962dcc"/><path d="M139.44,27.79a1.41,1.41,0,0,0-1.42.14l-10.08,5.82a4.33,4.33,0,0,0-2,3.42l2.62,1.53a4.34,4.34,0,0,1,2-3.42l10.08-5.82a1.39,1.39,0,0,1,1.41-.14Z" fill="url(#Áåçûìÿííûé_ãðàäèåíò_51-3)"/><path d="M139.44,27.79a1.41,1.41,0,0,0-1.42.14l2.63,1.53a1.39,1.39,0,0,1,1.41-.14Z" fill="#ffaff5" opacity="0.3" style="mix-blend-mode:screen"/><path d="M127.94,33.75a4.33,4.33,0,0,0-2,3.42l2.62,1.53a4.34,4.34,0,0,1,2-3.42Z" fill="#ffaff5" opacity="0.3" style="mix-blend-mode:screen"/><path d="M142.64,30.59c0-1.26-.9-1.76-2-1.13l-10.08,5.82a4.34,4.34,0,0,0-2,3.42l0,10.5c0,1.26.9,1.76,2,1.13l10.08-5.82a4.34,4.34,0,0,0,2-3.42Z" fill="#d473f1"/></g><path d="M137.63,32.67l-3.72,2.15a.77.77,0,0,0-.38.59v6.68s1.3,3,1.3,3L136.71,44,138,39.51V32.83C138,32.62,137.83,32.55,137.63,32.67Zm-2.78,8.66-1,.6V36l1.4-.81v5.95Zm2.86-1.65-1,.59-.36.22v-6l1.39-.81Z" fill="#fff"/><polygon points="135.77 46.23 136.38 44.52 135.16 45.22 135.77 46.23" fill="#fff"/><g style="isolation:isolate"><path d="M27,39.71l0-10.5-2.63-1.52,0,10.5a1.38,1.38,0,0,0,.58,1.27L27.54,41A1.38,1.38,0,0,1,27,39.71Z" fill="#962dcc"/><path d="M37.78,18.31a1.41,1.41,0,0,0-1.41.13L26.29,24.26a4.38,4.38,0,0,0-2,3.43l2.63,1.52a4.33,4.33,0,0,1,2-3.42L39,20a1.39,1.39,0,0,1,1.41-.14Z" fill="url(#Áåçûìÿííûé_ãðàäèåíò_51-4)"/><path d="M37.78,18.31a1.41,1.41,0,0,0-1.41.13L39,20a1.39,1.39,0,0,1,1.41-.14Z" fill="#ffaff5" opacity="0.3" style="mix-blend-mode:screen"/><path d="M26.29,24.26a4.38,4.38,0,0,0-2,3.43l2.63,1.52a4.33,4.33,0,0,1,2-3.42Z" fill="#ffaff5" opacity="0.3" style="mix-blend-mode:screen"/><path d="M41,21.1c0-1.26-.89-1.76-2-1.13L28.91,25.79a4.33,4.33,0,0,0-2,3.42l0,10.5c0,1.26.89,1.77,2,1.13L39,35a4.33,4.33,0,0,0,2-3.42Z" fill="#d473f1"/></g><polygon points="38.66 23.61 29.35 28.98 29.35 38.62 38.66 33.25 38.66 23.61" fill="#fff"/><path d="M38.66,24.12l-9.31,5.37v.16l9.31-5.37Zm0,1-9.31,5.37v.16l9.31-5.37Zm0,1L29.35,31.5v.16l9.31-5.37Zm0,1-9.31,5.37v.16l9.31-5.37Zm0,1-9.31,5.37v.16l9.31-5.37Zm0,1-9.31,5.37v.16l9.31-5.37Zm0,1-9.31,5.37v.16l9.31-5.37Zm0,1-9.31,5.37v.16l9.31-5.37Zm0,1-9.31,5.37v.16l9.31-5.37Z" fill="#d473f1" opacity="0.5"/><polygon points="38.66 23.93 29.35 29.3 29.35 27.46 38.66 22.09 38.66 23.93" fill="#fff"/><path d="M30.28,28.11l-.56.32v-.9l.56-.32Zm1-1.48-.56.32v.9l.56-.32Zm1-.57-.56.32v.9l.56-.33Zm1-.58-.56.32v.9l.56-.32Zm1-.58-.55.33v.89l.55-.32Zm1-.57-.56.32v.9l.56-.33Zm1-.58-.56.32V25l.56-.32Zm1-.58-.56.33v.89l.56-.32Zm1-.57-.56.32v.9l.56-.32Z" fill="#d473f1"/><g style="isolation:isolate"><path d="M8.05,93.27l0-10.5L5.39,81.24l0,10.5A1.4,1.4,0,0,0,6,93l2.63,1.53A1.38,1.38,0,0,1,8.05,93.27Z" fill="#962dcc"/><path d="M18.86,71.86a1.39,1.39,0,0,0-1.41.14L7.37,77.82a4.37,4.37,0,0,0-2,3.42L8,82.77a4.34,4.34,0,0,1,2-3.42l10.08-5.82a1.39,1.39,0,0,1,1.41-.14Z" fill="url(#Áåçûìÿííûé_ãðàäèåíò_51-5)"/><path d="M18.86,71.86a1.39,1.39,0,0,0-1.41.14l2.63,1.53a1.39,1.39,0,0,1,1.41-.14Z" fill="#ffaff5" opacity="0.3" style="mix-blend-mode:screen"/><path d="M7.37,77.82a4.37,4.37,0,0,0-2,3.42L8,82.77a4.34,4.34,0,0,1,2-3.42Z" fill="#ffaff5" opacity="0.3" style="mix-blend-mode:screen"/><path d="M22.06,74.66c0-1.26-.89-1.77-2-1.13L10,79.35a4.34,4.34,0,0,0-2,3.42l0,10.5c0,1.26.89,1.76,2,1.13l10.08-5.82a4.33,4.33,0,0,0,2-3.42Z" fill="#d473f1"/></g><path d="M15.12,89.15c1.46-.84,2.64-1.38,2.64-1.19a10.07,10.07,0,0,1-2.64,1.86c-1.45.84-2.64,1.37-2.64,1.19A9.82,9.82,0,0,1,15.12,89.15Z" fill="#fff"/><path d="M15.13,77.74c1.82-1,3.31-.21,3.31,1.89,0,3.44-3.12,8.75-3.28,9-.17-.11-3.32-2-3.33-5.21A7.26,7.26,0,0,1,15.13,77.74Zm0,6.22a4.83,4.83,0,0,0,2.2-3.8c0-1.39-1-2-2.21-1.25a4.8,4.8,0,0,0-2.19,3.8c0,1.39,1,2,2.2,1.25Z" fill="#fff"/><g style="isolation:isolate"><path d="M55.78,130.54l0-10.5-2.62-1.52,0,10.5a1.35,1.35,0,0,0,.58,1.26l2.62,1.53A1.41,1.41,0,0,1,55.78,130.54Z" fill="#962dcc"/><path d="M66.6,109.13a1.39,1.39,0,0,0-1.41.14L55.1,115.09a4.35,4.35,0,0,0-2,3.43L55.75,120a4.37,4.37,0,0,1,2-3.42l10.08-5.82a1.39,1.39,0,0,1,1.41-.14Z" fill="url(#Áåçûìÿííûé_ãðàäèåíò_51-6)"/><path d="M66.6,109.13a1.39,1.39,0,0,0-1.41.14l2.62,1.53a1.39,1.39,0,0,1,1.41-.14Z" fill="#ffaff5" opacity="0.3" style="mix-blend-mode:screen"/><path d="M55.1,115.09a4.35,4.35,0,0,0-2,3.43L55.75,120a4.37,4.37,0,0,1,2-3.42Z" fill="#ffaff5" opacity="0.3" style="mix-blend-mode:screen"/><path d="M69.8,111.93c0-1.26-.9-1.76-2-1.13l-10.08,5.82a4.37,4.37,0,0,0-2,3.42l0,10.5c0,1.26.9,1.76,2,1.13l10.08-5.82a4.34,4.34,0,0,0,2-3.42Z" fill="#d473f1"/></g><polygon points="63.22 116.83 63.21 116.14 62.62 116.48 62.62 117.17 63.22 116.83" fill="#fff"/><polygon points="66.48 119.36 67.07 119.01 67.07 118.33 66.47 118.67 66.48 119.36" fill="#fff"/><polygon points="62.65 125.3 62.65 125.99 63.25 125.65 63.25 124.96 62.65 125.3" fill="#fff"/><polygon points="58.79 123.12 58.8 123.8 59.39 123.46 59.39 122.77 58.79 123.12" fill="#fff"/><path d="M64.43,117.87a.16.16,0,0,0-.16,0,.55.55,0,0,0-.22.25L63,120.46l-.06,0a1.1,1.1,0,0,0-.48.73l-2.73,1.58a.22.22,0,0,0-.12.19.08.08,0,0,0,.12.07l2.73-1.58c0,.23.24.32.48.18a1.12,1.12,0,0,0,.51-.88.74.74,0,0,0,0-.17l1.08-2.34C64.57,118.07,64.54,117.9,64.43,117.87Z" fill="#fff"/><path d="M67.08,115.9a2.53,2.53,0,0,0-2.92-.89,5.83,5.83,0,0,0-1.25.54,9,9,0,0,0-2.4,2.12,11.25,11.25,0,0,0-2.22,4.64,5.09,5.09,0,0,0,.49,3.92c.89,1.26,2.52,1.31,4.17.35a8.78,8.78,0,0,0,2.4-2.12,11.15,11.15,0,0,0,2.23-4.64A5.09,5.09,0,0,0,67.08,115.9Zm.27,4a10.49,10.49,0,0,1-2.12,4.41,8,8,0,0,1-2.28,2,5,5,0,0,1-1.18.51A2.43,2.43,0,0,1,59,126a4.79,4.79,0,0,1-.46-3.72,10.59,10.59,0,0,1,2.11-4.41,8.46,8.46,0,0,1,2.28-2,5.27,5.27,0,0,1,1.19-.51,2.41,2.41,0,0,1,2.78.85A4.83,4.83,0,0,1,67.35,119.88Z" fill="#fff"/><circle cx="68.37" cy="111" r="30.21" transform="translate(-55.61 151.3) rotate(-76.38)" fill="url(#Áåçûìÿííûé_ãðàäèåíò_223-13)" style="mix-blend-mode:screen"/><g style="isolation:isolate"><path d="M99.24,120.49l0-10.5-2.62-1.53,0,10.5a1.4,1.4,0,0,0,.58,1.27l2.63,1.53A1.38,1.38,0,0,1,99.24,120.49Z" fill="#962dcc"/><path d="M110.05,99.08a1.39,1.39,0,0,0-1.41.14L98.56,105a4.33,4.33,0,0,0-2,3.42L99.21,110a4.34,4.34,0,0,1,2-3.42l10.08-5.82a1.39,1.39,0,0,1,1.41-.14Z" fill="url(#Áåçûìÿííûé_ãðàäèåíò_51-7)"/><path d="M110.05,99.08a1.39,1.39,0,0,0-1.41.14l2.63,1.53a1.39,1.39,0,0,1,1.41-.14Z" fill="#ffaff5" opacity="0.3" style="mix-blend-mode:screen"/><path d="M98.56,105a4.33,4.33,0,0,0-2,3.42L99.21,110a4.34,4.34,0,0,1,2-3.42Z" fill="#ffaff5" opacity="0.3" style="mix-blend-mode:screen"/><path d="M113.26,101.88c0-1.26-.9-1.76-2-1.13l-10.08,5.82a4.34,4.34,0,0,0-2,3.42l0,10.5c0,1.26.9,1.76,2,1.13l10.08-5.82a4.37,4.37,0,0,0,2-3.42Z" fill="#d473f1"/></g><path d="M111.34,104.09l-5,7.29-5-1.52Zm0,7.86v-7l-2.87,4.18Zm-9.75,6,9.51-5.49-2.94-2.87-1.83,2.66-1.81-.55Zm2.62-6.34-2.88-.87v7Z" fill="#fff"/><circle cx="112.17" cy="101.12" r="30.21" fill="url(#Áåçûìÿííûé_ãðàäèåíò_223-14)" style="mix-blend-mode:screen"/><g style="isolation:isolate"><path d="M138.87,96.49l0-10.5-2.62-1.53,0,10.5a1.4,1.4,0,0,0,.57,1.27l2.63,1.52A1.35,1.35,0,0,1,138.87,96.49Z" fill="#962dcc"/><path d="M149.69,75.08a1.41,1.41,0,0,0-1.42.14L138.19,81a4.33,4.33,0,0,0-2,3.42L138.84,86a4.37,4.37,0,0,1,2-3.43l10.08-5.82a1.39,1.39,0,0,1,1.41-.14Z" fill="url(#Áåçûìÿííûé_ãðàäèåíò_51-8)"/><path d="M149.69,75.08a1.41,1.41,0,0,0-1.42.14l2.63,1.52a1.39,1.39,0,0,1,1.41-.14Z" fill="#ffaff5" opacity="0.3" style="mix-blend-mode:screen"/><path d="M138.19,81a4.33,4.33,0,0,0-2,3.42L138.84,86a4.37,4.37,0,0,1,2-3.43Z" fill="#ffaff5" opacity="0.3" style="mix-blend-mode:screen"/><path d="M152.89,77.88c0-1.27-.9-1.77-2-1.14l-10.08,5.82a4.37,4.37,0,0,0-2,3.43l0,10.5c0,1.25.9,1.76,2,1.13l10.08-5.82a4.38,4.38,0,0,0,2-3.42Z" fill="#d473f1"/></g><path d="M147.74,82.25c-1.23-1-3.65,0-5.37,2.21s-2.13,4.87-.9,5.89,3.06.24,4.7-1.43l2.71,2.23c.25.2.73,0,1.08-.45s.43-1,.18-1.19l-2.71-2.23C148.65,85.27,148.82,83.13,147.74,82.25Zm-1.38,5.48c-1.35,1.75-3.24,2.52-4.2,1.73s-.65-2.86.7-4.6,3.23-2.52,4.19-1.73S147.71,86,146.36,87.73Z" fill="#fff"/><polygon points="47.7 46.02 47.63 47.65 45.01 49 44.69 56.76 42.9 57.68 43.22 49.93 40.6 51.28 40.67 49.65 47.7 46.02" fill="#fff"/><polygon points="54.63 42.44 54.56 44.07 50.61 46.11 50.52 48.35 54.18 46.46 54.11 48.1 50.45 49.99 50.36 52.22 54.33 50.17 54.26 51.81 48.48 54.8 48.86 45.42 54.63 42.44" fill="#fff"/><path d="M60.9,39.2l2.56,7.86-1.94,1L61,46.25l-3.09,1.6-.73,2.46-1.94,1,3.34-10.91Zm-2.49,6.85,2.17-1.12-.9-3-.07,0-1.2,4.09" fill="#fff"/><polygon points="74.16 32.35 73.78 41.74 72.02 42.64 72.27 36.53 72.2 36.57 69.74 43.77 68.54 44.39 66.58 39.45 66.5 39.49 66.25 45.62 64.5 46.53 64.88 37.14 67.11 35.99 69.21 41.07 69.31 41.02 71.93 33.5 74.16 32.35" fill="#fff"/><path d="M85.48,26.51l-.25,6.09a5.17,5.17,0,0,1-.52,2,7,7,0,0,1-1.29,1.84,7.46,7.46,0,0,1-1.88,1.39,4.08,4.08,0,0,1-1.85.53,1.43,1.43,0,0,1-1.19-.56,2.34,2.34,0,0,1-.37-1.57l.25-6.09,1.81-.93L80,35.16a1.46,1.46,0,0,0,.17.84.77.77,0,0,0,.59.35,1.71,1.71,0,0,0,.9-.24,3.2,3.2,0,0,0,.93-.71,3.37,3.37,0,0,0,.63-1,3,3,0,0,0,.26-1.07l.24-5.92Z" fill="#fff"/><path d="M93,24.12a2.54,2.54,0,0,1,.29,1.47,4.89,4.89,0,0,1-.43,1.84,5.82,5.82,0,0,1-1.11,1.66A6.17,6.17,0,0,1,90,30.35l-1.52.79-.13,3-1.81.93L87,25.74,90.35,24A3.28,3.28,0,0,1,92,23.54,1.21,1.21,0,0,1,93,24.12Zm-1.77,3.34a2.66,2.66,0,0,0,.2-.91,1.29,1.29,0,0,0-.14-.73.55.55,0,0,0-.49-.28,1.78,1.78,0,0,0-.85.25l-1.23.63-.13,3.13,1.23-.63a3.09,3.09,0,0,0,.87-.65,2.87,2.87,0,0,0,.54-.81" fill="#fff"/></g></g></g></svg>